<svg width="295" height="295" viewBox="0 0 295 295" fill="none" xmlns="http://www.w3.org/2000/svg">
<path d="M190.039 57.4307C189.427 57.9223 188.714 58.2728 187.95 58.4573C185.856 58.9234 180.28 58.6874 179.336 61.248C179.035 62.0163 178.565 62.7075 177.962 63.271C177.358 63.8345 176.637 64.256 175.85 64.5048C175.85 64.5048 171.43 64.7408 171.194 65.6848C170.958 66.6288 169.336 68.2454 169.336 68.2454H245.44C245.44 68.2454 248.001 64.2924 243.812 60.5754C240.148 57.3186 233.451 62.251 232.602 58.2154" stroke="#263238" stroke-linecap="round" stroke-linejoin="round"/>
<path d="M231.911 52.2917C231.062 49.2296 229.274 45.0996 225.645 43.5656C219.592 41.005 214.477 44.4978 213.078 47.9847C211.68 51.4716 210.754 53.8021 205.408 50.7754C200.063 47.7487 195.378 47.9847 193.774 51.9554C193.311 53.1049 192.731 54.2041 192.045 55.2358" stroke="#263238" stroke-linecap="round" stroke-linejoin="round"/>
<path d="M60.7988 97.9989H87.2249C87.2249 97.9989 88.7707 95.6389 86.2396 93.3556C83.7085 91.0723 78.7761 95.3262 79.4841 90.5413C79.4841 90.5413 78.8941 84.6413 75.2597 83.0837C74.3243 82.6552 73.2932 82.4788 72.2686 82.572C71.244 82.6651 70.2615 83.0246 69.4187 83.6147" stroke="#263238" stroke-linecap="round" stroke-linejoin="round"/>
<path d="M67.6609 85.7565C66.8172 87.8687 66.2508 89.2965 63.0176 87.4439C59.7844 85.5913 56.9642 85.7565 55.9789 88.1519C54.9936 90.5473 53.7251 91.8099 52.4389 92.0872C51.1527 92.3645 47.7956 92.2288 47.2292 93.7805C47.0453 94.245 46.7603 94.6628 46.395 95.0036C46.0297 95.3445 45.5931 95.5998 45.117 95.7511C45.117 95.7511 42.4443 95.8868 42.3027 96.4532C42.0212 97.0309 41.6397 97.5542 41.1758 97.999H56.6397" stroke="#263238" stroke-linecap="round" stroke-linejoin="round"/>
<path d="M193.077 97.999H205.555C205.555 97.999 207.101 95.6389 204.57 93.3556C202.039 91.0723 197.112 95.3263 197.814 90.5414C197.814 90.5414 197.254 84.6414 193.59 83.0838C189.926 81.5261 186.84 83.6737 185.991 85.7565C185.141 87.8392 184.587 89.2965 181.348 87.4439C178.108 85.5913 175.294 85.7564 174.315 88.1519C173.335 90.5473 172.061 91.8098 170.775 92.0872C169.489 92.3645 166.131 92.2287 165.571 93.7804C165.386 94.2446 165.101 94.662 164.736 95.0027C164.371 95.3434 163.935 95.599 163.459 95.751C163.459 95.751 160.786 95.8867 160.644 96.4531C160.363 97.0309 159.981 97.5542 159.518 97.999H188.911" stroke="#263238" stroke-linecap="round" stroke-linejoin="round"/>
<g opacity="0.1">
<path opacity="0.1" d="M13.7056 136.98C16.0302 137.44 21.1927 136.196 21.1927 136.196C21.1927 136.196 19.3401 133.039 19.1985 132.856C17.5406 130.72 13.0802 127.546 10.2423 128.608C9.77541 128.794 9.35271 129.075 9.0016 129.435C8.6505 129.794 8.37882 130.223 8.20416 130.695C8.0295 131.166 7.95577 131.668 7.98774 132.17C8.0197 132.671 8.15665 133.16 8.38972 133.605C9.31602 135.529 11.7291 136.585 13.7056 136.98Z" fill="black"/>
<path opacity="0.1" d="M18.7735 151.63C21.0391 151.471 25.3756 149.122 25.7237 148.934C27.064 151.416 28.5678 153.807 30.2254 156.09C31.1812 157.424 32.1901 158.739 33.2167 160.043C32.6562 159.518 32.1547 159.052 32.078 158.993C29.9186 157.377 24.7856 155.518 22.3194 157.264C21.9181 157.567 21.5847 157.95 21.341 158.39C21.0973 158.829 20.9486 159.315 20.9047 159.816C20.8607 160.316 20.9225 160.821 21.0859 161.296C21.2493 161.771 21.5108 162.207 21.8533 162.574C23.2575 164.179 25.8594 164.563 27.8713 164.421C29.8832 164.28 33.6533 162.344 34.6327 161.825C35.0339 162.321 35.4233 162.822 35.8127 163.318C37.7361 165.678 39.6654 168.038 41.4885 170.433C42.1316 171.271 42.7275 172.121 43.3352 172.964C42.8396 172.498 42.4207 172.109 42.3499 172.056C40.1846 170.433 35.0575 168.575 32.5913 170.327C32.1884 170.628 31.8536 171.011 31.6088 171.451C31.364 171.89 31.2147 172.377 31.1707 172.878C31.1268 173.379 31.189 173.884 31.3535 174.359C31.518 174.835 31.781 175.27 32.1252 175.637C33.5294 177.248 36.1313 177.625 38.1432 177.484C40.1551 177.342 43.5594 175.596 44.7276 174.982C45.3176 175.867 45.9076 176.752 46.4504 177.637C46.8044 178.227 47.182 178.817 47.5006 179.448L48.48 181.295C49.07 182.475 49.66 183.726 50.1969 184.906C50.5745 185.726 50.9226 186.511 51.2707 187.307C50.6394 186.464 49.3768 184.841 49.2529 184.717C47.3649 182.794 42.5741 180.18 39.866 181.531C39.4236 181.769 39.036 182.097 38.7286 182.494C38.4213 182.892 38.2009 183.349 38.0818 183.837C37.9627 184.325 37.9476 184.833 38.0375 185.327C38.1274 185.821 38.3202 186.291 38.6034 186.705C39.748 188.511 42.2614 189.278 44.2733 189.443C46.4858 189.626 50.958 188.045 51.5126 187.844C52.1026 189.16 52.6336 190.44 53.1292 191.661C53.5029 192.558 53.851 193.426 54.1735 194.263L56.0143 193.862C55.621 192.938 55.21 191.97 54.7812 190.959C54.1912 189.626 53.5599 188.21 52.8814 186.764C54.1458 185.91 55.3575 184.98 56.5099 183.98C58.3802 185.289 62.6754 186.34 63.23 186.499C62.9822 187.909 62.7344 189.278 62.4748 190.57C62.3391 191.254 62.2034 191.897 62.0677 192.541L64.0147 192.116C64.0914 191.715 64.1622 191.319 64.233 190.9C64.4926 189.467 64.7345 187.95 64.9705 186.351C65.5605 186.351 70.2805 186.275 72.316 185.337C74.145 184.481 76.2336 182.888 76.682 180.8C76.8035 180.312 76.8209 179.804 76.7333 179.309C76.6456 178.815 76.4548 178.344 76.1732 177.927C75.8916 177.511 75.5256 177.159 75.0989 176.893C74.6722 176.628 74.1945 176.455 73.6966 176.386C70.6935 176.056 67.1063 180.168 66.0266 182.634C65.9617 182.782 65.4366 184.44 65.118 185.49C65.2065 184.841 65.3068 184.216 65.3894 183.549C65.5723 182.233 65.7139 180.918 65.8732 179.496C65.9263 178.811 65.9794 178.115 66.0325 177.413C66.0856 176.711 66.0856 175.979 66.1151 175.254C66.1151 173.566 66.1151 171.861 66.0089 170.144C67.1889 170.298 71.2658 170.793 73.2069 170.227C75.148 169.66 77.4549 168.398 78.2101 166.404C78.4051 165.94 78.5002 165.441 78.4893 164.939C78.4783 164.436 78.3616 163.942 78.1467 163.488C77.9319 163.033 77.6236 162.63 77.2421 162.302C76.8606 161.975 76.4145 161.732 75.9327 161.589C72.9827 160.804 68.8527 164.327 67.3777 166.598C67.2892 166.74 66.4219 168.486 65.9617 169.454C65.9027 168.421 65.8437 167.395 65.7493 166.35C65.472 163.341 65.1003 160.303 64.7463 157.27C64.6342 156.338 64.5339 155.412 64.4336 154.486C64.8407 154.545 69.7082 155.241 71.8853 154.604C73.8205 154.014 76.1274 152.775 76.8885 150.78C77.0824 150.317 77.1766 149.817 77.1648 149.315C77.153 148.813 77.0357 148.318 76.8203 147.864C76.6049 147.41 76.2964 147.006 75.9148 146.679C75.5331 146.352 75.087 146.109 74.6052 145.966C71.6552 145.181 67.5252 148.709 66.0561 150.975C65.944 151.146 64.6991 153.665 64.4159 154.32C64.1917 152.273 63.9852 150.238 63.8672 148.22C63.6902 145.497 63.6902 142.765 63.8672 140.042C64.056 140.072 69.13 140.821 71.3602 140.166C73.2954 139.576 75.6082 138.343 76.3634 136.343C76.5574 135.88 76.6518 135.381 76.6404 134.879C76.629 134.377 76.5122 133.883 76.2974 133.428C76.0826 132.974 75.7747 132.571 75.3938 132.243C75.0128 131.916 74.5672 131.673 74.086 131.529C71.136 130.75 67.006 134.272 65.531 136.544C65.4189 136.721 64.0796 139.423 63.8731 139.936C63.8731 139.777 63.8731 139.612 63.8731 139.452C64.1261 136.727 64.6217 134.03 65.354 131.393C65.7375 129.93 66.1918 128.555 66.6579 127.228C67.5901 127.464 71.8558 128.496 73.9267 128.13C75.9976 127.764 78.3458 126.779 79.3193 124.879C79.5624 124.44 79.7104 123.954 79.7536 123.454C79.7968 122.954 79.7343 122.45 79.5702 121.975C79.406 121.501 79.1439 121.066 78.8008 120.699C78.4578 120.333 78.0414 120.042 77.5788 119.847C74.7586 118.743 70.2333 121.794 68.5282 123.888C68.4397 124 67.6255 125.263 67.0414 126.189C67.2656 125.599 67.478 124.974 67.7022 124.419C68.5341 122.289 69.425 120.389 70.2274 118.708C70.6935 117.758 71.1301 116.938 71.549 116.118C72.5815 115.876 76.741 114.838 78.3812 113.581C80.0214 112.324 81.6793 110.348 81.6675 108.212C81.6815 107.709 81.5896 107.21 81.3977 106.745C81.2058 106.28 80.9182 105.861 80.5537 105.515C80.1892 105.169 79.7559 104.903 79.282 104.736C78.808 104.568 78.3041 104.502 77.803 104.542C74.794 104.867 72.1803 109.651 71.6375 112.301C71.5903 112.525 71.2599 116.189 71.313 116.177H71.372C70.9531 116.932 70.5165 117.74 70.0504 118.637C69.2126 120.301 68.2804 122.177 67.3954 124.307C66.4298 126.566 65.5965 128.878 64.8997 131.234C64.0995 133.888 63.5388 136.609 63.2241 139.364C63.2213 139.397 63.2213 139.431 63.2241 139.464C63.0471 138.597 62.4807 136.184 62.4158 136.001C61.5072 133.458 58.2563 129.08 55.2296 129.175C54.729 129.206 54.2406 129.342 53.7958 129.574C53.3511 129.806 52.9601 130.128 52.6481 130.521C52.336 130.914 52.1099 131.368 51.9845 131.853C51.859 132.339 51.837 132.845 51.9197 133.34C52.2029 135.452 54.1617 137.204 55.9199 138.202C57.9023 139.317 62.817 139.747 63.2064 139.783C62.9544 142.594 62.8893 145.418 63.0117 148.237C63.0766 149.878 63.1887 151.53 63.3244 153.188C63.1533 152.438 62.9881 151.772 62.9586 151.683C62.05 149.14 58.7932 144.762 55.7724 144.857C55.271 144.886 54.7814 145.021 54.3355 145.252C53.8896 145.484 53.4975 145.806 53.1847 146.199C52.8718 146.592 52.6453 147.047 52.5199 147.533C52.3944 148.02 52.3729 148.527 52.4566 149.022C52.7398 151.14 54.6986 152.893 56.4568 153.884C58.215 154.875 62.4217 155.347 63.5368 155.453C63.5958 156.084 63.643 156.722 63.7079 157.353C63.997 160.397 64.2979 163.43 64.5103 166.421C64.587 167.471 64.6165 168.51 64.6578 169.548C64.4985 168.887 64.3628 168.333 64.3333 168.25C63.4247 165.701 60.2033 161.324 57.1471 161.418C56.6454 161.448 56.1557 161.584 55.7098 161.816C55.2639 162.048 54.8719 162.371 54.5591 162.764C54.2464 163.158 54.0199 163.613 53.8945 164.099C53.7692 164.586 53.7476 165.094 53.8313 165.589C54.1145 167.707 56.0792 169.46 57.8315 170.451C59.5838 171.442 63.3893 171.867 64.705 171.997C64.705 173.059 64.705 174.127 64.705 175.159C64.6578 175.867 64.6637 176.546 64.5811 177.254C64.4985 177.962 64.4454 178.646 64.3805 179.33C64.1976 180.652 64.0265 182.009 63.7905 183.289C63.6548 184.18 63.5073 185.03 63.3598 185.885C63.3008 184.835 63.1356 182.782 63.1061 182.617C62.5595 180.301 61.428 178.164 59.8198 176.41C59.7733 176.149 59.7002 175.894 59.6015 175.649C59.4347 175.175 59.1698 174.742 58.8242 174.377C58.4786 174.012 58.06 173.724 57.5958 173.532C57.1315 173.34 56.6319 173.248 56.1297 173.262C55.6275 173.276 55.1338 173.396 54.6809 173.613C51.9905 174.994 51.2707 180.404 51.7309 183.053C51.7309 183.207 52.2324 184.882 52.5451 185.933C52.2678 185.343 52.0023 184.753 51.7073 184.163C51.1173 182.983 50.5273 181.803 49.8724 180.516L48.8576 178.693C48.5272 178.103 48.1083 177.466 47.7307 176.847C46.828 175.425 45.8427 174.026 44.822 172.646C45.8722 172.138 49.542 170.286 50.8754 168.74C52.2088 167.194 53.4065 164.875 52.9404 162.793C52.844 162.301 52.6455 161.834 52.3576 161.423C52.0698 161.013 51.699 160.667 51.2692 160.408C50.8395 160.15 50.3603 159.984 49.8625 159.922C49.3648 159.861 48.8597 159.904 48.3797 160.049C45.5123 161.011 43.9842 166.25 44.0137 168.946C44.0137 169.118 44.2556 171.053 44.4031 172.115C43.8131 171.289 43.17 170.457 42.5151 169.637C40.6271 167.277 38.6388 164.952 36.6682 162.622C36.0782 161.908 35.4882 161.188 34.8982 160.474C35.2699 160.297 39.7126 158.191 41.1758 156.456C42.4797 154.916 43.7069 152.592 43.2408 150.509C43.1475 150.015 42.9511 149.546 42.6643 149.133C42.3774 148.72 42.0067 148.372 41.5763 148.112C41.1459 147.852 40.6655 147.686 40.1664 147.624C39.6674 147.562 39.1609 147.606 38.6801 147.754C35.8127 148.709 34.2846 153.949 34.3141 156.651C34.3141 156.851 34.6681 159.636 34.7861 160.338C33.4763 158.763 32.1783 157.176 30.9688 155.559C29.3215 153.385 27.8159 151.107 26.4612 148.739C26.6323 148.656 31.2756 146.479 32.7742 144.703C34.0781 143.163 35.3112 140.839 34.8392 138.756C34.7458 138.263 34.5495 137.794 34.2631 137.382C33.9766 136.969 33.6065 136.622 33.1768 136.362C32.7471 136.102 32.2674 135.935 31.7691 135.873C31.2707 135.811 30.7649 135.855 30.2844 136.001C27.4111 136.957 25.883 142.196 25.9125 144.898C25.9125 145.11 26.296 148.108 26.4022 148.645C26.3255 148.503 26.2252 148.373 26.1485 148.232C24.8601 145.817 23.7861 143.294 22.9389 140.691C22.4551 139.264 22.0716 137.865 21.7589 136.496C22.6675 136.184 26.7916 134.691 28.3197 133.24C29.8478 131.788 31.2697 129.7 31.0219 127.558C30.9841 127.057 30.841 126.569 30.602 126.127C30.3629 125.685 30.0333 125.298 29.6347 124.992C29.2361 124.685 28.7774 124.467 28.2885 124.35C27.7996 124.233 27.2916 124.22 26.7975 124.313C23.8475 124.95 21.7471 129.989 21.4875 132.679C21.4875 132.827 21.4875 134.325 21.5229 135.423C21.3754 134.803 21.2161 134.166 21.0863 133.57C20.6025 131.334 20.2957 129.257 20.042 127.416C19.9063 126.366 19.806 125.416 19.7175 124.525C20.4432 123.752 23.3342 120.59 24.0127 118.625C24.6912 116.661 24.9803 114.106 23.7944 112.336C23.5286 111.909 23.1759 111.543 22.7594 111.261C22.3428 110.979 21.8717 110.788 21.3765 110.7C20.8814 110.613 20.3733 110.63 19.8852 110.751C19.3971 110.872 18.94 111.095 18.5434 111.404C16.2188 113.333 16.679 118.773 17.682 121.28C17.7646 121.499 19.511 124.732 19.5464 124.691L19.5936 124.643C19.6585 125.505 19.7411 126.413 19.8473 127.428C20.0656 129.275 20.3252 131.363 20.7618 133.623C21.2116 136.059 21.8026 138.466 22.5318 140.833C23.329 143.486 24.3616 146.063 25.6175 148.532C25.6175 148.532 25.6529 148.591 25.6647 148.621C25.0747 147.99 23.2398 146.29 23.0864 146.178C20.9211 144.556 15.794 142.697 13.3278 144.45C12.9249 144.751 12.5901 145.134 12.3453 145.573C12.1005 146.013 11.9512 146.499 11.9073 147C11.8633 147.502 11.9255 148.006 12.09 148.482C12.2545 148.957 12.5175 149.393 12.8617 149.76C14.1597 151.376 16.7616 151.754 18.7735 151.63Z" fill="black"/>
<path opacity="0.1" d="M66.4222 126.679C66.4753 126.679 66.6168 123.027 66.5991 122.797C66.3926 120.1 64.4103 115.02 61.4721 114.312C60.9803 114.209 60.4723 114.21 59.981 114.316C59.4896 114.421 59.0261 114.629 58.6204 114.926C58.2147 115.222 57.876 115.601 57.6263 116.037C57.3766 116.473 57.2214 116.957 57.171 117.457C56.8878 119.575 58.3156 121.782 59.7434 123.204C61.4249 124.873 66.4222 126.679 66.4222 126.679Z" fill="black"/>
</g>
<g opacity="0.1">
<path opacity="0.1" d="M276.746 187.791C274.752 187.862 270.628 186.139 270.628 186.139C270.628 186.139 272.587 183.779 272.734 183.632C274.392 182.08 278.516 180.062 280.741 181.272C281.104 181.488 281.418 181.779 281.661 182.124C281.905 182.47 282.074 182.863 282.156 183.278C282.239 183.693 282.233 184.121 282.139 184.533C282.046 184.946 281.867 185.334 281.614 185.673C280.581 187.172 278.44 187.726 276.746 187.791Z" fill="black"/>
<path opacity="0.1" d="M270.58 199.272C268.716 198.842 265.429 196.322 265.164 196.104C263.713 197.99 262.136 199.776 260.444 201.45C259.47 202.435 258.461 203.391 257.435 204.341C257.966 203.975 258.444 203.656 258.52 203.621C260.532 202.559 265.04 201.703 266.857 203.485C267.151 203.789 267.377 204.152 267.521 204.55C267.665 204.947 267.724 205.37 267.694 205.792C267.664 206.214 267.546 206.625 267.347 206.998C267.148 207.371 266.872 207.698 266.539 207.957C265.158 209.108 262.945 209.072 261.293 208.689C259.641 208.305 256.762 206.193 256.019 205.627C255.618 205.987 255.228 206.352 254.839 206.706C252.927 208.429 251.01 210.134 249.175 211.869C248.532 212.459 247.918 213.102 247.305 213.722C247.777 213.403 248.178 213.132 248.243 213.096C250.255 212.04 254.768 211.185 256.585 212.966C256.879 213.27 257.105 213.632 257.249 214.029C257.393 214.426 257.452 214.849 257.422 215.271C257.392 215.692 257.274 216.102 257.075 216.475C256.875 216.847 256.6 217.174 256.267 217.433C254.886 218.613 252.674 218.554 251.016 218.17C249.358 217.787 246.768 215.875 245.877 215.22C245.287 215.875 244.655 216.536 244.107 217.197C243.729 217.657 243.34 218.076 242.992 218.565L241.93 219.97C241.292 220.884 240.626 221.828 240.024 222.737C239.599 223.368 239.21 223.976 238.809 224.589C239.446 223.97 240.714 222.819 240.832 222.707C242.661 221.356 246.986 219.828 249.057 221.309C249.393 221.566 249.671 221.891 249.873 222.262C250.075 222.634 250.197 223.043 250.231 223.465C250.265 223.887 250.21 224.311 250.07 224.71C249.93 225.109 249.707 225.474 249.417 225.781C248.237 227.126 246.03 227.433 244.337 227.297C242.478 227.156 238.974 225.244 238.537 225.002C237.882 226.017 237.257 227.008 236.685 227.952C236.26 228.649 235.853 229.327 235.469 229.976L233.994 229.386C234.437 228.666 234.909 227.923 235.404 227.138C236.065 226.106 236.791 225.02 237.546 223.905C236.609 223.027 235.726 222.093 234.903 221.108C233.174 221.946 229.463 222.288 229.003 222.288C229.003 223.468 229.044 224.648 229.091 225.769C229.091 226.359 229.138 226.914 229.162 227.463L227.604 226.873C227.604 226.525 227.604 226.188 227.604 225.828C227.604 224.601 227.604 223.291 227.604 221.952C227.121 221.869 223.179 221.179 221.634 220.129C220.229 219.173 218.684 217.568 218.613 215.775C218.576 215.353 218.629 214.929 218.767 214.529C218.906 214.129 219.127 213.763 219.417 213.455C219.706 213.147 220.057 212.903 220.448 212.739C220.838 212.576 221.258 212.496 221.681 212.506C224.218 212.636 226.649 216.53 227.239 218.725C227.274 218.855 227.492 220.3 227.616 221.22C227.616 220.666 227.616 220.135 227.646 219.568C227.646 218.453 227.728 217.338 227.781 216.141C227.835 215.551 227.882 214.961 227.929 214.371C227.976 213.781 228.076 213.191 228.153 212.565C228.348 211.161 228.619 209.751 228.92 208.335C227.941 208.335 224.466 208.176 222.926 207.444C221.386 206.712 219.645 205.361 219.28 203.597C219.181 203.186 219.17 202.759 219.246 202.344C219.323 201.929 219.487 201.534 219.726 201.186C219.965 200.837 220.275 200.543 220.635 200.323C220.995 200.102 221.398 199.959 221.817 199.904C224.348 199.644 227.339 203.125 228.253 205.214C228.312 205.344 228.802 206.913 229.05 207.774C229.239 206.925 229.422 206.075 229.64 205.226C230.271 202.759 230.985 200.287 231.687 197.815C231.906 197.054 232.106 196.299 232.319 195.544C231.97 195.544 227.835 195.467 226.112 194.647C224.578 193.915 222.825 192.558 222.466 190.8C222.365 190.389 222.352 189.962 222.428 189.546C222.504 189.129 222.668 188.734 222.907 188.385C223.147 188.037 223.457 187.742 223.818 187.522C224.179 187.302 224.583 187.16 225.003 187.107C227.534 186.847 230.525 190.328 231.439 192.417C231.504 192.57 232.206 194.83 232.354 195.408C232.814 193.744 233.257 192.074 233.622 190.417C234.134 188.179 234.498 185.911 234.714 183.626C234.549 183.626 230.236 183.567 228.472 182.723C226.938 181.997 225.185 180.64 224.82 178.882C224.72 178.471 224.708 178.043 224.784 177.627C224.861 177.211 225.024 176.816 225.263 176.467C225.503 176.118 225.813 175.823 226.173 175.602C226.534 175.381 226.937 175.238 227.357 175.183C229.894 174.923 232.879 178.41 233.794 180.493C233.87 180.658 234.62 183.089 234.726 183.537C234.726 183.401 234.761 183.266 234.773 183.136C234.926 180.837 234.873 178.529 234.614 176.239C234.49 174.976 234.301 173.773 234.089 172.604C233.286 172.675 229.605 172.964 227.929 172.386C226.253 171.808 224.436 170.675 223.882 168.964C223.738 168.566 223.679 168.143 223.71 167.721C223.741 167.299 223.86 166.888 224.06 166.516C224.259 166.143 224.535 165.816 224.87 165.557C225.204 165.298 225.589 165.112 226 165.011C228.484 164.474 231.841 167.607 232.979 169.578C233.038 169.684 233.569 170.84 233.906 171.69C233.805 171.165 233.705 170.622 233.599 170.121C233.192 168.238 232.702 166.539 232.26 165.041C232 164.191 231.746 163.424 231.504 162.681C230.678 162.338 227.374 160.911 226.194 159.66C225.014 158.409 223.882 156.533 224.177 154.763C224.231 154.343 224.373 153.939 224.594 153.578C224.815 153.217 225.11 152.907 225.459 152.667C225.808 152.428 226.204 152.265 226.62 152.189C227.037 152.113 227.465 152.125 227.876 152.226C230.33 152.898 231.864 157.223 231.97 159.495C231.97 159.695 231.764 162.775 231.723 162.757H231.67C231.917 163.442 232.177 164.173 232.442 164.982C232.92 166.474 233.445 168.168 233.894 170.044C234.405 172.065 234.799 174.114 235.074 176.18C235.383 178.493 235.488 180.828 235.387 183.16C235.383 183.187 235.383 183.215 235.387 183.242C235.646 182.54 236.443 180.611 236.519 180.469C237.611 178.481 240.897 175.271 243.399 175.749C243.811 175.841 244.2 176.019 244.54 176.271C244.879 176.523 245.162 176.843 245.369 177.212C245.577 177.58 245.705 177.988 245.744 178.409C245.784 178.83 245.735 179.254 245.599 179.655C245.08 181.378 243.239 182.605 241.629 183.195C239.829 183.862 235.687 183.561 235.363 183.537C235.16 185.903 234.802 188.252 234.289 190.57C234.018 191.927 233.699 193.284 233.369 194.641C233.611 194.051 233.835 193.514 233.876 193.461C234.974 191.467 238.26 188.263 240.756 188.741C241.169 188.832 241.558 189.009 241.898 189.261C242.238 189.513 242.521 189.834 242.729 190.202C242.936 190.571 243.064 190.979 243.103 191.4C243.142 191.821 243.092 192.246 242.956 192.647C242.437 194.364 240.596 195.561 238.986 196.151C237.375 196.741 233.835 196.57 232.897 196.505C232.767 197.025 232.637 197.55 232.501 198.063C231.852 200.553 231.198 203.037 230.625 205.491C230.425 206.358 230.254 207.214 230.088 208.075C230.307 207.544 230.49 207.102 230.525 207.037C231.622 205.043 234.909 201.839 237.41 202.317C237.823 202.409 238.212 202.587 238.551 202.839C238.891 203.091 239.173 203.411 239.381 203.78C239.588 204.148 239.716 204.556 239.756 204.977C239.795 205.397 239.746 205.822 239.611 206.223C239.092 207.94 237.251 209.137 235.634 209.727C234.018 210.317 230.832 210.158 229.734 210.093C229.587 210.978 229.439 211.863 229.333 212.73C229.28 213.32 229.186 213.91 229.156 214.5L229.05 216.27C229.02 217.391 228.985 218.542 228.985 219.633C228.985 220.394 228.985 221.12 228.985 221.846C229.174 220.984 229.575 219.303 229.634 219.167C230.391 217.317 231.61 215.692 233.174 214.447C233.249 214.242 233.344 214.044 233.457 213.857C233.66 213.487 233.938 213.163 234.274 212.907C234.61 212.65 234.996 212.468 235.407 212.37C235.819 212.273 236.246 212.263 236.661 212.342C237.076 212.42 237.47 212.584 237.817 212.825C239.871 214.335 239.747 218.925 238.997 221.085C238.956 221.209 238.342 222.542 237.941 223.374C238.254 222.92 238.531 222.477 238.873 222.011C239.511 221.097 240.171 220.194 240.885 219.226L241.971 217.846C242.325 217.38 242.756 216.925 243.151 216.459C244.095 215.403 245.098 214.371 246.13 213.356C245.322 212.795 242.502 210.766 241.623 209.308C240.744 207.851 240.03 205.768 240.702 204.087C240.846 203.692 241.071 203.332 241.363 203.03C241.654 202.727 242.006 202.489 242.395 202.331C242.784 202.172 243.202 202.097 243.622 202.11C244.041 202.123 244.454 202.223 244.832 202.405C247.086 203.585 247.659 208.14 247.275 210.382C247.275 210.518 246.791 212.099 246.526 212.955C247.151 212.365 247.771 211.745 248.426 211.155C250.314 209.444 252.272 207.774 254.219 206.105L255.989 204.553C255.7 204.358 252.29 202.016 251.305 200.382C250.426 198.93 249.718 196.842 250.384 195.166C250.528 194.771 250.753 194.411 251.045 194.109C251.336 193.806 251.687 193.568 252.076 193.409C252.465 193.25 252.883 193.174 253.303 193.186C253.722 193.198 254.135 193.298 254.514 193.479C256.768 194.659 257.34 199.213 256.957 201.455C256.957 201.627 256.267 203.892 256.072 204.459C257.376 203.326 258.662 202.175 259.883 200.995C261.572 199.397 263.153 197.688 264.615 195.88C264.479 195.786 260.916 193.361 259.895 191.685C259.016 190.228 258.302 188.145 258.969 186.464C259.114 186.066 259.34 185.704 259.634 185.4C259.928 185.095 260.283 184.856 260.675 184.698C261.067 184.539 261.488 184.465 261.91 184.479C262.333 184.494 262.748 184.597 263.128 184.782C265.382 185.962 265.954 190.517 265.571 192.759C265.541 192.936 264.828 195.373 264.668 195.803C264.751 195.703 264.845 195.603 264.928 195.496C266.323 193.664 267.553 191.711 268.604 189.661C269.194 188.534 269.701 187.425 270.167 186.34C269.453 185.956 266.226 184.163 265.152 182.758C264.078 181.354 263.181 179.401 263.659 177.673C263.758 177.261 263.942 176.875 264.2 176.539C264.458 176.204 264.784 175.926 265.157 175.725C265.529 175.524 265.94 175.404 266.362 175.373C266.784 175.341 267.208 175.399 267.606 175.543C269.966 176.469 271.046 180.929 270.91 183.213C270.91 183.337 270.686 184.581 270.521 185.484C270.722 184.994 270.94 184.487 271.111 184.009C271.807 182.239 272.338 180.528 272.798 179.03C273.052 178.18 273.265 177.401 273.453 176.67C272.952 175.926 270.969 172.917 270.669 171.206C270.368 169.495 270.468 167.318 271.689 166.008C271.967 165.689 272.308 165.431 272.691 165.253C273.075 165.074 273.491 164.978 273.914 164.97C274.337 164.963 274.757 165.045 275.146 165.211C275.535 165.376 275.885 165.622 276.173 165.932C277.855 167.849 276.763 172.304 275.583 174.251C275.483 174.422 273.601 176.876 273.577 176.841L273.542 176.793C273.377 177.501 273.182 178.251 272.952 179.071C272.58 180.54 272.061 182.263 271.4 184.08C270.707 186.045 269.899 187.968 268.981 189.838C267.965 191.938 266.763 193.942 265.388 195.827C265.372 195.85 265.354 195.872 265.335 195.892C265.925 195.455 267.665 194.281 267.807 194.204C269.819 193.148 274.332 192.287 276.15 194.069C276.443 194.373 276.669 194.736 276.814 195.133C276.958 195.531 277.017 195.954 276.987 196.376C276.957 196.797 276.838 197.208 276.639 197.581C276.44 197.954 276.165 198.281 275.831 198.541C274.45 199.691 272.232 199.662 270.58 199.272Z" fill="black"/>
<path opacity="0.1" d="M234.313 172.203C234.266 172.203 234.637 169.141 234.684 168.946C235.215 166.74 237.54 162.781 240.077 162.586C240.499 162.566 240.921 162.634 241.315 162.787C241.709 162.941 242.066 163.175 242.364 163.476C242.661 163.776 242.891 164.136 243.04 164.532C243.189 164.928 243.253 165.35 243.228 165.772C243.186 167.542 241.705 169.212 240.325 170.203C238.702 171.365 234.313 172.197 234.313 172.203Z" fill="black"/>
</g>
<path d="M123.104 19.6825L130.479 89.7686" stroke="#263238" stroke-linecap="round" stroke-linejoin="round"/>
<path d="M145.223 34.5741L139.724 35.8367L134.691 45.79L126.72 43.5126L126.496 45.6838L136.408 49.7961L139.954 44.8755V53.46L150.598 53.9202L152.775 44.1911L156.663 47.6249V56.6637H158.952L160.327 45.3357L154.261 35.4945L145.223 34.5741Z" fill="white" stroke="#263238" stroke-linecap="round" stroke-linejoin="round"/>
<path d="M139.955 44.8755L139.872 40.0316" stroke="#263238" stroke-linecap="round" stroke-linejoin="round"/>
<path d="M145.141 37.7601L146.633 40.5626C146.633 40.5626 150.763 41.8724 151.495 42.0553C152.227 42.2382 154.486 41.4948 156.351 41.1231C158.215 40.7514 164.204 43.7368 164.204 43.7368L169.437 43.9256L166.634 40.5626L156.539 39.064L151.306 40.7514L147.766 39.8133L148.521 38.3501L146.84 35.7305L145.141 37.7601Z" fill="black" stroke="#263238" stroke-linecap="round" stroke-linejoin="round"/>
<path d="M145.678 33.7718C145.374 33.7143 145.059 33.7786 144.802 33.9507C144.545 34.1229 144.366 34.3892 144.303 34.6922C144.079 35.8368 143.849 38.6983 143.849 38.6983L146.592 37.8959L149.802 39.2706C149.802 39.2706 150.828 36.2911 150.256 35.2645C149.684 34.2379 147.052 32.8573 145.678 33.7718Z" fill="white" stroke="#263238" stroke-linecap="round" stroke-linejoin="round"/>
<path d="M145.104 32.1727C145.104 32.1727 145.447 35.3764 145.565 36.521C145.683 37.6656 146.367 39.3825 146.821 39.0403C147.276 38.6981 148.88 35.5003 148.88 35.5003L149.683 33.3291L145.104 32.1727Z" fill="white" stroke="#263238" stroke-linecap="round" stroke-linejoin="round"/>
<path d="M145.141 27.4941C145.141 27.4941 144.138 27.4056 144.138 29.0458C144.138 30.686 144.863 30.7745 144.863 30.7745L145.141 27.4941Z" fill="white" stroke="#263238" stroke-linecap="round" stroke-linejoin="round"/>
<path d="M151.849 28.8629C151.979 28.8699 152.106 28.9052 152.221 28.9665C152.336 29.0277 152.436 29.1133 152.514 29.2174C152.592 29.3214 152.647 29.4413 152.673 29.5687C152.7 29.696 152.699 29.8277 152.669 29.9544C152.487 30.9574 150.758 32.3144 150.758 32.3144L151.849 28.8629Z" fill="white" stroke="#263238" stroke-linecap="round" stroke-linejoin="round"/>
<path d="M148.538 24.19C148.538 24.19 146.709 23.7298 145.676 25.9069C144.644 28.084 144.874 30.7154 145.086 32.2022C145.299 33.689 146.691 34.3734 148.066 34.3734C149.441 34.3734 151.494 31.5178 151.954 29.3407C152.414 27.1636 152.084 24.19 148.538 24.19Z" fill="white" stroke="#263238" stroke-linecap="round" stroke-linejoin="round"/>
<path d="M124.508 42.244L124.962 45.6778L127.021 45.9079L126.679 42.0139L124.508 42.244Z" fill="white" stroke="#263238" stroke-linecap="round" stroke-linejoin="round"/>
<path d="M126.72 42.1911L127.552 42.079L127.717 43.908L126.885 44.0201L126.72 42.1911Z" fill="white" stroke="#263238" stroke-linecap="round" stroke-linejoin="round"/>
<path d="M156.663 56.6637L155.412 58.6225L155.737 60.5872L156.828 60.481L158.687 59.8261L158.952 56.6637H156.663Z" fill="white" stroke="#263238" stroke-linecap="round" stroke-linejoin="round"/>
<path d="M139.954 53.4601L139.146 56.9883L130.189 68.7765L136.196 85.7036L137.724 85.3732L136.414 69.2131L143.73 61.4605L144.603 62.0092L144.627 70.6586L153.011 84.8304L154.757 84.3879L150.828 70.7412L151.046 56.2213L150.598 53.9203L139.954 53.4601Z" fill="#263238" stroke="#263238" stroke-linecap="round" stroke-linejoin="round"/>
<path d="M136.196 85.7036L134.887 87.5562C134.887 87.5562 132.81 88.5415 132.485 89.0843C132.161 89.6271 134.255 89.5209 134.255 89.5209L136.657 89.3026L139.17 87.6683L137.748 85.3732L136.196 85.7036Z" fill="white" stroke="#263238" stroke-linecap="round" stroke-linejoin="round"/>
<path d="M123.416 22.1782C123.416 22.1782 122.319 24.6798 117.788 26.3967C113.257 28.1136 106.696 29.0517 104.979 32.6448C103.262 36.2379 103.262 35.9311 102.949 37.9548C102.782 39.1378 102.233 40.2338 101.386 41.0759C101.386 41.0759 102.949 41.2352 103.746 40.1437C104.542 39.0522 104.843 35.9252 106.106 35.4532C107.368 34.9812 109.663 34.2201 109.663 34.2201C109.663 34.2201 107.48 36.0963 107.303 37.0344C107.126 37.9725 106.991 40.1614 106.678 41.5656C106.542 42.3333 106.168 43.039 105.61 43.5834C105.61 43.5834 107.64 43.5834 108.265 42.1792C108.891 40.775 108.265 38.8988 110.295 37.4887C112.324 36.0786 114.513 36.7099 117.965 36.8633C121.416 37.0167 124.685 34.993 124.685 34.993L123.416 22.1782Z" fill="black" stroke="#263238" stroke-linecap="round" stroke-linejoin="round"/>
<path d="M153.011 84.8303L151.507 89.8276L155.242 89.6801L154.758 84.3878L153.011 84.8303Z" fill="white" stroke="#263238" stroke-linecap="round" stroke-linejoin="round"/>
<path d="M147.288 28.5737C147.223 28.8687 147.016 29.0752 146.816 29.0339C146.615 28.9926 146.509 28.7153 146.574 28.4439C146.639 28.1725 146.845 27.9424 147.046 27.9837C147.246 28.025 147.347 28.2787 147.288 28.5737Z" fill="#263238"/>
<path d="M150.02 29.211C149.955 29.506 149.749 29.7125 149.548 29.6712C149.347 29.6299 149.241 29.3526 149.306 29.0812C149.371 28.8098 149.578 28.5797 149.778 28.621C149.979 28.6623 150.079 28.9101 150.02 29.211Z" fill="#263238"/>
<path d="M148.202 28.9514L147.477 31.1403H148.662" stroke="#263238" stroke-linecap="round" stroke-linejoin="round"/>
<path d="M146.568 31.7775C146.568 31.7775 147.206 32.869 148.846 32.2318" stroke="#263238" stroke-linecap="round" stroke-linejoin="round"/>
<path d="M146.474 27.0398C146.711 26.9117 146.985 26.8688 147.25 26.9181C147.515 26.9675 147.756 27.1063 147.931 27.3112" stroke="#263238" stroke-linecap="round" stroke-linejoin="round"/>
<path d="M149.3 27.677C149.459 27.5895 149.636 27.5366 149.817 27.5219C149.998 27.5072 150.181 27.531 150.352 27.5917C150.524 27.6524 150.681 27.7487 150.812 27.8742C150.944 27.9997 151.048 28.1517 151.117 28.3201" stroke="#263238" stroke-linecap="round" stroke-linejoin="round"/>
<path d="M144.745 26.7684L151.3 25.9601C151.3 25.9601 151.029 27.0516 151.394 27.323C151.76 27.5944 151.849 28.8747 151.849 28.8747L151.577 30.332L153.035 27.7832C153.035 27.7832 153.489 25.7772 153.123 25.14C153.003 24.9477 152.844 24.783 152.656 24.6569C152.468 24.5308 152.255 24.4461 152.032 24.4084C151.642 23.8181 151.092 23.351 150.446 23.0616C149.8 22.7723 149.086 22.6725 148.385 22.7741C145.837 23.0455 144.745 24.3199 144.745 25.3229V26.7684Z" fill="#263238" stroke="#263238" stroke-linecap="round" stroke-linejoin="round"/>
<path d="M139.907 274.468L151.471 208.111L107.822 168.056L123.664 114.083L106.707 114.46L99.5447 120.868L84.5764 120.502L82.5527 127.8L78.4463 127.287L77.0303 129.847L70.027 143.83L66.3866 157.796L52.8166 174.758L51.3298 214.784L29.4526 246.361L22.5732 274.468H139.907Z" fill="#808080" stroke="#39515E" stroke-linecap="round" stroke-linejoin="round"/>
<path d="M238.395 274.468L223.911 242.708L247.511 258.432V233.268L233.64 216.837L235.693 198.352L214.63 158.297L213.58 144.432L206.394 137.753L169.507 140.42L166.876 127.47L143.276 114.118L129.116 148.403L116.071 154.173L125.263 166.775L123.776 176.764L126.85 192.187L75.5199 203.485C75.5199 203.485 75.0066 228.135 75.0066 230.189C75.0066 232.242 64.7347 244.054 64.7347 244.054L64.2568 274.468H238.395Z" fill="#ABABAB" stroke="#39515E" stroke-linecap="round" stroke-linejoin="round"/>
<path d="M266.981 274.468L260.851 271.784L253.145 255.352L243.9 248.679L239.794 238.921L235.687 231.215L213.739 220.495L217.144 274.468H266.981Z" fill="#CCCCCC" stroke="#39515E" stroke-linecap="round" stroke-linejoin="round"/>
<path d="M37.259 274.403H64.6999L65.1955 258.432L62.629 249.192V224.542L56.4694 223.516L51.3305 229.162L43.1177 233.788L25.3174 274.468H37.259V274.403Z" fill="#CCCCCC" stroke="#39515E" stroke-linecap="round" stroke-linejoin="round"/>
<path d="M46.751 247.664L47.3528 245.104" stroke="#39515E" stroke-miterlimit="10"/>
<path d="M37.2588 274.468L40.9168 260.019L44.3683 257.824L46.3861 249.222" stroke="#39515E" stroke-miterlimit="10"/>
<path d="M31.335 274.622L37.1465 258.137" stroke="#39515E" stroke-miterlimit="10"/>
<path d="M56.5518 230.336L55.9854 233.015" stroke="#39515E" stroke-miterlimit="10"/>
<path d="M57.8668 224.07L56.793 229.186" stroke="#39515E" stroke-miterlimit="10"/>
<path d="M64.6992 274.403L65.1948 258.432L62.6283 249.193V224.542L57.4953 257.405L52.8697 258.945L51.3298 268.191L50.374 274.403H64.6992Z" fill="white" stroke="#39515E" stroke-linecap="round" stroke-linejoin="round"/>
<path d="M152.58 256.19C155.499 255.795 158.353 255.017 161.07 253.877C163.238 252.993 165.147 251.571 166.616 249.747C166.787 249.517 166.946 249.275 167.1 249.033L163.046 230.743L155.052 223.769L153.718 217.787L146.048 211.804L143.393 221.114L139.069 227.097L138.738 249.039L142.868 256.933C146.119 256.906 149.363 256.657 152.58 256.19Z" fill="white" stroke="#39515E" stroke-linecap="round" stroke-linejoin="round"/>
<path d="M152.58 256.19L151.766 249.358L154.167 242.885V239.05L153.683 233.056" stroke="#39515E" stroke-miterlimit="10"/>
<path d="M157.447 235.422L158.722 242.644L161.117 243.121L160.639 249.116L161.595 252.237" stroke="#39515E" stroke-miterlimit="10"/>
<path d="M156.562 230.419L156.986 232.826" stroke="#39515E" stroke-miterlimit="10"/>
<path d="M148.65 215.073L150.568 234.732" stroke="#39515E" stroke-miterlimit="10"/>
<path d="M125.228 255.7C130.744 256.539 136.316 256.953 141.895 256.939C143.016 256.939 144.114 256.91 145.193 256.868L145.075 250.697L143.081 248.042V229.091L146.409 225.764L146.072 211.81L142.084 219.126L136.774 223.775L133.446 233.416L128.136 239.735L126.803 246.384L120.49 251.694L117.971 254.379C120.35 254.886 122.769 255.326 125.228 255.7Z" fill="#CCCCCC" stroke="#39515E" stroke-linecap="round" stroke-linejoin="round"/>
<path d="M221.309 274.468L249.187 274.415L213.09 252.786L204.364 231.729L197.172 230.702L191.013 222.489L187.927 225.569L189.98 243.54L182.281 256.379V264.597L178.688 273.837L196.057 274.468H221.309Z" fill="white" stroke="#39515E" stroke-linecap="round" stroke-linejoin="round"/>
<path d="M207.326 274.433L206.011 267.087L208.082 262.751L207.515 254.272L209.214 255.972L220.708 274.433H207.326Z" fill="#CCCCCC" stroke="#39515E" stroke-linecap="round" stroke-linejoin="round"/>
<path d="M207.515 254.272L215.621 258.231L218.819 262.184L228.053 266.898L234.46 270.857L238.395 274.468L220.707 274.433L207.515 254.272Z" fill="white" stroke="#39515E" stroke-linecap="round" stroke-linejoin="round"/>
<path d="M182.281 256.379V264.597L178.41 274.303L193.072 274.492L189.98 256.892L196.146 251.246L187.927 225.569L189.98 243.54L182.281 256.379Z" fill="#CCCCCC" stroke="#39515E" stroke-linecap="round" stroke-linejoin="round"/>
<path d="M197.172 230.702L202.594 242.166L204.989 242.408L206.907 248.16" stroke="#39515E" stroke-miterlimit="10"/>
<path d="M200.812 265.382L201.639 268.061" stroke="#39515E" stroke-miterlimit="10"/>
<path d="M197.561 244.561L199.236 251.039L202.115 255.83L198.758 258.709L200.21 263.423" stroke="#39515E" stroke-miterlimit="10"/>
<path d="M129.056 112.838L117.02 126L116.607 101.869L128.59 87.3201L129.056 112.838Z" fill="#CCCCCC" stroke="#39515E" stroke-linecap="round" stroke-linejoin="round"/>
<path d="M120.702 165.536L133.01 154.675C133.893 153.909 134.875 153.266 135.93 152.763C137.254 152.135 138.638 151.641 140.06 151.288C141.883 150.844 143.737 150.537 145.606 150.368C147.959 150.151 150.323 150.064 152.686 150.108C158.399 150.184 164.099 150.686 169.737 151.612C174.423 152.388 179.056 153.458 183.608 154.816C187.703 156.037 191.278 157.347 194.364 158.557C197.449 159.766 199.998 160.875 202.063 161.69L186.092 172.044C184.139 171.277 181.714 170.233 178.805 169.094C175.897 167.955 172.504 166.734 168.628 165.554C164.322 164.275 159.939 163.272 155.506 162.551C150.168 161.683 144.772 161.218 139.364 161.159C137.123 161.12 134.881 161.207 132.65 161.418C130.882 161.581 129.129 161.875 127.405 162.297C126.048 162.63 124.73 163.101 123.469 163.702C122.468 164.186 121.538 164.803 120.702 165.536Z" fill="#CCCCCC" stroke="#39515E" stroke-linecap="round" stroke-linejoin="round"/>
<path d="M159.891 254.355L146.002 259.665C147.216 259.214 148.378 258.636 149.471 257.942C150.439 257.325 151.31 256.567 152.055 255.694C152.759 254.867 153.303 253.917 153.66 252.892C154.028 251.8 154.2 250.651 154.168 249.499C154.158 247.489 153.541 245.53 152.398 243.877C150.932 241.932 149.059 240.332 146.911 239.186C143.816 237.496 140.563 236.112 137.199 235.056C133.187 233.705 128.349 232.372 122.656 230.985C114.901 229.179 107.308 226.74 99.9525 223.693C93.3095 220.97 87.0735 217.345 81.4206 212.919C76.2288 208.863 71.9524 203.757 68.8713 197.933C65.7473 191.745 64.13 184.906 64.1513 177.974C64.1218 175.158 64.3191 172.344 64.7413 169.56C65.1444 166.884 65.7761 164.247 66.6293 161.678C67.4695 159.161 68.5297 156.722 69.7976 154.391C71.0752 152.058 72.5539 149.841 74.2167 147.766L83.7806 135.771C80.2537 140.159 77.5403 145.142 75.7684 150.485C74.8565 153.201 74.1814 155.99 73.7506 158.822C73.3134 161.771 73.1161 164.75 73.1606 167.731C73.1559 175.08 74.8841 182.327 78.2051 188.883C81.4727 195.056 86.004 200.472 91.5037 204.777C97.0969 209.279 103.746 213.037 111.139 216.182C118.922 219.418 126.957 222.011 135.164 223.935C141.211 225.41 146.303 226.831 150.545 228.265C154.106 229.397 157.547 230.877 160.817 232.684C163.46 234.224 165.354 235.853 166.605 237.646C167.824 239.393 168.484 241.469 168.499 243.599C168.538 244.819 168.358 246.036 167.968 247.192C167.592 248.271 167.02 249.271 166.28 250.142C165.492 251.06 164.571 251.855 163.549 252.502C162.398 253.247 161.172 253.868 159.891 254.355Z" fill="#CCCCCC" stroke="#39515E" stroke-linecap="round" stroke-linejoin="round"/>
<path d="M91.5034 204.777C97.0966 209.279 103.746 213.037 111.139 216.182C118.922 219.418 126.957 222.011 135.163 223.935C141.211 225.41 146.303 226.832 150.545 228.265C154.106 229.397 157.546 230.877 160.817 232.684C163.46 234.224 165.354 235.853 166.604 237.646C167.824 239.393 168.484 241.469 168.498 243.599C168.596 245.81 167.925 247.987 166.599 249.759C165.13 251.583 163.221 253.004 161.053 253.889C158.342 255.027 155.493 255.805 152.58 256.202C149.042 256.714 145.47 256.964 141.895 256.951C136.316 256.965 130.744 256.55 125.228 255.712C119.931 254.909 114.688 253.784 109.528 252.343C104.513 250.945 99.7398 249.328 95.2912 247.623C90.8426 245.918 86.7126 244.083 82.9897 242.313L75.4495 274.35H210.967C215.189 269.647 218.493 264.193 220.707 258.273C223.028 251.964 224.106 245.267 223.882 238.549C223.681 231.369 222.59 224.979 220.448 219.25C218.317 213.523 215 208.312 210.713 203.957C206.306 199.438 200.683 195.455 193.685 191.904C186.688 188.352 178.263 185.207 168.315 182.369C161.912 180.505 156.313 178.715 151.518 177C147.424 175.583 143.431 173.892 139.565 171.938C136.379 170.268 133.989 168.61 132.396 166.911C130.803 165.212 129.989 163.483 129.954 161.666C129.909 160.18 130.229 158.705 130.886 157.371C131.705 155.82 132.928 154.519 134.426 153.607C136.578 152.31 138.949 151.42 141.423 150.981C145.151 150.284 148.943 149.989 152.734 150.102C158.447 150.178 164.146 150.681 169.785 151.606C174.471 152.382 179.104 153.452 183.655 154.81C187.75 156.032 191.325 157.341 194.411 158.551C197.497 159.76 200.046 160.869 202.111 161.684L210.89 122.154C208.129 120.974 205.161 119.794 201.91 118.673C198.659 117.552 195.119 116.501 191.231 115.552C187.343 114.602 183.095 113.782 178.422 113.068C173.749 112.354 168.634 111.846 163.029 111.516L162.516 88.1402L128.62 87.3201L129.086 112.838C120.843 113.975 112.8 116.261 105.191 119.628C98.6397 122.523 92.6591 126.568 87.5327 131.57C82.8423 136.202 79.1551 141.748 76.7003 147.866C74.224 154.19 73.021 160.941 73.1603 167.731C73.1555 175.08 74.8838 182.327 78.2048 188.883C81.4724 195.056 86.0036 200.472 91.5034 204.777Z" fill="white" stroke="#39515E" stroke-linecap="round" stroke-linejoin="round"/>
<path d="M75.4495 274.35L82.9897 242.295L73.3314 248.337L67.1836 274.35H75.4495Z" fill="#CCCCCC" stroke="#39515E" stroke-linecap="round" stroke-linejoin="round"/>
<path d="M238.448 266.615C237.854 266.503 237.24 266.624 236.731 266.951L239.375 268.539C239.445 268.352 239.477 268.153 239.468 267.953C239.459 267.754 239.41 267.558 239.323 267.379C239.237 267.199 239.114 267.038 238.964 266.907C238.814 266.776 238.638 266.677 238.448 266.615Z" fill="#263238"/>
<path d="M239.192 245.729C239.192 245.729 239.546 244.242 239.558 244.148C239.676 243.033 239.245 240.803 238.095 240.289C237.901 240.21 237.693 240.172 237.484 240.179C237.275 240.185 237.069 240.236 236.881 240.327C236.693 240.418 236.526 240.548 236.392 240.709C236.257 240.869 236.158 241.056 236.1 241.257C235.823 242.101 236.242 243.109 236.72 243.8C237.286 244.614 239.192 245.723 239.192 245.729Z" fill="#263238"/>
<path d="M256.685 254.803C257.404 253.936 258.272 251.853 257.593 250.78C257.476 250.606 257.324 250.459 257.146 250.349C256.969 250.238 256.769 250.167 256.562 250.139C256.355 250.111 256.144 250.127 255.943 250.187C255.743 250.247 255.557 250.348 255.398 250.485C255.079 250.806 254.835 251.193 254.682 251.619C254.529 252.045 254.471 252.5 254.513 252.951C254.513 253.936 255.51 255.901 255.516 255.901C255.522 255.901 256.649 254.88 256.685 254.803Z" fill="#263238"/>
<path d="M232.377 263.004C233.21 263.537 234.122 263.935 235.079 264.184C235.003 264.621 234.926 265.057 234.831 265.476C234.831 265.583 234.778 265.689 234.755 265.801L235.309 266.131C235.345 265.96 235.38 265.783 235.421 265.612C235.557 264.922 235.669 264.22 235.758 263.512C236.704 263.861 237.7 264.06 238.708 264.102C239.163 264.09 239.611 263.978 240.019 263.774C240.427 263.57 240.785 263.279 241.068 262.922C241.181 262.745 241.256 262.546 241.287 262.339C241.319 262.131 241.306 261.919 241.251 261.717C241.195 261.514 241.098 261.326 240.964 261.163C240.831 261.001 240.665 260.868 240.478 260.774C239.339 260.237 237.368 261.364 236.596 262.184C236.548 262.237 236.065 262.886 235.805 263.252C235.858 262.821 235.911 262.397 235.952 261.96C236.065 260.709 236.141 259.435 236.218 258.166C236.218 257.783 236.271 257.393 236.301 256.986C236.466 257.045 238.401 257.694 239.345 257.576C240.177 257.488 241.221 257.146 241.705 256.396C241.818 256.22 241.893 256.022 241.924 255.814C241.956 255.607 241.943 255.396 241.888 255.194C241.832 254.992 241.734 254.804 241.601 254.642C241.468 254.48 241.302 254.348 241.115 254.255C239.976 253.718 238.006 254.845 237.233 255.665C237.18 255.73 236.478 256.668 236.312 256.91C236.371 256.06 236.442 255.21 236.542 254.373C236.669 253.246 236.866 252.129 237.132 251.027C237.209 251.027 239.233 251.741 240.195 251.617C241.032 251.529 242.071 251.187 242.555 250.437C242.668 250.261 242.742 250.063 242.774 249.855C242.805 249.648 242.793 249.437 242.737 249.235C242.682 249.033 242.584 248.845 242.451 248.683C242.318 248.521 242.152 248.389 241.965 248.296C240.826 247.753 238.855 248.886 238.088 249.706C238.023 249.771 237.274 250.779 237.15 250.968C237.15 250.903 237.18 250.838 237.197 250.774C237.506 249.678 237.911 248.612 238.407 247.588C238.672 246.998 238.961 246.484 239.251 245.977C239.616 246.142 241.286 246.885 242.159 246.891C243.032 246.897 244.071 246.673 244.614 245.965C244.746 245.803 244.844 245.615 244.899 245.413C244.954 245.211 244.966 245 244.935 244.793C244.903 244.586 244.828 244.388 244.715 244.212C244.602 244.035 244.452 243.885 244.277 243.77C243.209 243.109 241.127 244.018 240.271 244.75C240.224 244.791 239.793 245.245 239.487 245.582C239.622 245.351 239.758 245.115 239.894 244.897C240.395 244.089 240.903 243.381 241.357 242.75C241.616 242.396 241.858 242.083 242.088 241.788C243.107 241.768 244.116 241.591 245.08 241.263C245.823 240.879 246.673 240.183 246.85 239.31C246.889 239.107 246.886 238.898 246.841 238.697C246.796 238.495 246.709 238.305 246.586 238.138C246.464 237.972 246.308 237.833 246.129 237.73C245.95 237.627 245.751 237.562 245.546 237.54C244.289 237.451 242.861 239.215 242.437 240.254C242.401 240.348 241.988 241.817 242.012 241.817H242.041C241.811 242.095 241.569 242.407 241.316 242.726C240.844 243.345 240.318 244.048 239.799 244.85C239.233 245.709 238.715 246.6 238.248 247.517C237.72 248.544 237.286 249.616 236.95 250.72C236.95 250.72 236.95 250.75 236.95 250.762C236.95 250.39 236.896 249.363 236.885 249.281C236.702 248.172 235.705 246.136 234.454 245.947C234.246 245.923 234.036 245.942 233.836 246.003C233.636 246.065 233.451 246.167 233.293 246.305C233.135 246.442 233.008 246.611 232.919 246.8C232.831 246.99 232.783 247.196 232.778 247.405C232.737 248.296 233.41 249.175 234.053 249.7C234.784 250.29 236.761 250.88 236.92 250.88C236.607 252.011 236.368 253.162 236.206 254.325C236.106 255.004 236.029 255.688 235.964 256.379C235.964 256.06 235.929 255.789 235.923 255.735C235.74 254.626 234.743 252.585 233.492 252.402C233.285 252.376 233.074 252.395 232.874 252.456C232.674 252.517 232.489 252.62 232.331 252.757C232.174 252.895 232.047 253.064 231.959 253.254C231.872 253.444 231.825 253.65 231.822 253.859C231.781 254.744 232.454 255.629 233.097 256.148C233.957 256.681 234.895 257.079 235.876 257.328C235.876 257.588 235.823 257.854 235.805 258.119C235.693 259.388 235.593 260.65 235.451 261.889C235.404 262.326 235.339 262.756 235.274 263.181C235.274 262.898 235.274 262.662 235.274 262.627C235.091 261.517 234.094 259.482 232.843 259.293C232.636 259.267 232.425 259.286 232.225 259.347C232.025 259.408 231.84 259.511 231.682 259.648C231.525 259.786 231.398 259.955 231.31 260.145C231.223 260.335 231.176 260.541 231.173 260.75C231.061 261.6 231.734 262.467 232.377 263.004Z" fill="#263238"/>
<path d="M265.328 252.55C264.331 251.777 262.166 252.461 261.239 253.098C261.157 253.151 260 254.154 260.024 254.166C259.682 254.266 259.316 254.384 258.915 254.52C258.183 254.78 257.357 255.075 256.484 255.458C255.534 255.857 254.61 256.314 253.717 256.827C252.711 257.392 251.757 258.046 250.867 258.78L250.838 258.809C251.032 258.497 251.563 257.629 251.593 257.541C252.053 256.514 252.342 254.261 251.404 253.411C251.245 253.275 251.06 253.175 250.859 253.116C250.659 253.057 250.448 253.04 250.241 253.068C250.034 253.096 249.835 253.167 249.657 253.277C249.479 253.387 249.327 253.533 249.209 253.706C248.684 254.42 248.767 255.511 249.003 256.32C249.28 257.228 250.625 258.774 250.738 258.898C249.848 259.664 249.014 260.492 248.242 261.376C247.782 261.889 247.339 262.414 246.903 262.951C247.068 262.68 247.209 262.432 247.227 262.397C247.687 261.37 247.976 259.116 247.038 258.267C246.879 258.131 246.694 258.03 246.493 257.971C246.293 257.912 246.082 257.896 245.875 257.924C245.668 257.952 245.469 258.023 245.291 258.133C245.113 258.243 244.961 258.389 244.843 258.562C244.318 259.276 244.401 260.373 244.643 261.175C245.067 262.092 245.63 262.938 246.313 263.683L245.817 264.273C245.026 265.276 244.242 266.273 243.457 267.223C243.18 267.559 242.867 267.884 242.601 268.202L242.879 267.719C243.339 266.698 243.628 264.444 242.69 263.589C242.531 263.453 242.345 263.352 242.145 263.293C241.944 263.234 241.734 263.218 241.527 263.246C241.32 263.274 241.121 263.345 240.943 263.455C240.765 263.565 240.613 263.711 240.495 263.884C239.97 264.597 240.053 265.689 240.295 266.497C240.689 267.426 241.231 268.285 241.899 269.04L241.309 269.677L241.829 269.99C242.188 269.618 242.537 269.229 242.885 268.81C243.484 269.616 244.205 270.324 245.02 270.91C245.407 271.147 245.841 271.296 246.292 271.347C246.742 271.398 247.198 271.349 247.628 271.205C247.82 271.123 247.992 271 248.134 270.846C248.275 270.692 248.382 270.51 248.448 270.312C248.515 270.114 248.538 269.904 248.518 269.696C248.498 269.488 248.434 269.287 248.33 269.105C247.675 268.025 245.38 267.884 244.318 268.143C244.248 268.143 243.486 268.432 243.068 268.592C243.345 268.261 243.628 267.937 243.899 267.595C244.684 266.615 245.451 265.595 246.218 264.58L246.926 263.659C247.032 263.795 248.295 265.429 249.133 265.842C249.519 266.077 249.952 266.226 250.401 266.276C250.85 266.327 251.305 266.28 251.735 266.137C251.926 266.054 252.099 265.932 252.24 265.778C252.381 265.624 252.489 265.442 252.555 265.244C252.621 265.046 252.645 264.836 252.624 264.628C252.604 264.42 252.54 264.218 252.437 264.037C251.788 262.957 249.522 262.81 248.425 263.069C248.342 263.069 247.245 263.488 246.973 263.6C247.493 262.922 248.018 262.255 248.566 261.612C249.297 260.742 250.085 259.922 250.926 259.158C250.973 259.222 252.277 260.928 253.139 261.358C253.882 261.748 254.938 262.037 255.741 261.653C255.933 261.571 256.106 261.449 256.248 261.295C256.39 261.142 256.498 260.96 256.564 260.761C256.631 260.563 256.655 260.353 256.636 260.145C256.616 259.937 256.552 259.735 256.449 259.553C255.794 258.473 253.528 258.332 252.437 258.585C252.348 258.585 251.168 259.034 250.956 259.128L251.103 258.986C251.965 258.243 252.891 257.578 253.87 256.998C254.407 256.668 254.938 256.408 255.463 256.125C255.676 256.461 256.643 258.001 257.387 258.485C258.13 258.969 259.104 259.352 259.941 259.075C260.141 259.013 260.326 258.91 260.483 258.773C260.64 258.635 260.767 258.466 260.855 258.276C260.943 258.087 260.99 257.881 260.993 257.672C260.996 257.463 260.956 257.255 260.874 257.063C260.343 255.918 258.107 255.529 256.991 255.665C256.927 255.665 256.319 255.818 255.876 255.93C256.118 255.812 256.36 255.688 256.59 255.582C257.458 255.181 258.272 254.868 258.997 254.597L260.142 254.202C261.002 254.743 261.939 255.151 262.921 255.411C263.367 255.492 263.825 255.474 264.263 255.359C264.702 255.244 265.109 255.034 265.458 254.744C265.603 254.597 265.716 254.42 265.789 254.226C265.862 254.032 265.893 253.825 265.881 253.618C265.869 253.411 265.813 253.209 265.718 253.025C265.623 252.841 265.49 252.679 265.328 252.55Z" fill="#263238"/>
<path d="M235.245 274.445L235.924 274.863L236.343 274.557L236.502 274.439L235.245 274.445Z" fill="#263238"/>
<path d="M39.7719 235.41C39.5968 235.524 39.4475 235.673 39.3337 235.848C39.2199 236.024 39.1441 236.221 39.1113 236.427C39.0785 236.633 39.0893 236.844 39.1432 237.046C39.197 237.248 39.2926 237.436 39.4238 237.599C39.8456 238.087 40.4352 238.398 41.0758 238.472L42.3443 235.575C41.4534 235.174 40.4268 234.985 39.7719 235.41Z" fill="#263238"/>
<path d="M45.6422 231.605C45.2432 231.903 44.9597 232.33 44.8398 232.814L47.0641 231.569C46.8451 231.449 46.5982 231.389 46.3484 231.395C46.0987 231.402 45.8551 231.474 45.6422 231.605Z" fill="#263238"/>
<path d="M46.02 210.518C46.7752 211.155 48.9051 211.733 48.9051 211.733C48.9051 211.733 48.8638 210.211 48.8461 210.117C48.6691 209.008 47.6661 206.966 46.433 206.771C46.2253 206.744 46.0141 206.761 45.8134 206.821C45.6127 206.881 45.427 206.983 45.2686 207.12C45.1103 207.257 44.9828 207.426 44.8947 207.617C44.8066 207.807 44.7598 208.013 44.7574 208.223C44.7338 209.108 45.43 209.975 46.02 210.518Z" fill="#263238"/>
<path d="M30.4851 217.209C30.4851 217.209 29.606 215.964 29.5411 215.893C28.7859 215.067 26.8271 213.91 25.6825 214.436C25.4952 214.528 25.3296 214.66 25.1965 214.821C25.0634 214.982 24.9658 215.17 24.9101 215.372C24.8544 215.573 24.8419 215.784 24.8733 215.991C24.9048 216.198 24.9794 216.395 25.0925 216.571C25.5409 217.338 26.5734 217.692 27.4112 217.793C28.3847 217.905 30.4851 217.214 30.4851 217.209Z" fill="#263238"/>
<path d="M29.3758 212.5C29.4348 212.854 29.4997 213.232 29.5764 213.645C29.7298 214.406 29.9068 215.261 30.1664 216.182C30.4293 217.184 30.7524 218.169 31.134 219.132C31.5553 220.206 32.0706 221.24 32.6739 222.223V222.259C32.3966 222.023 31.5883 221.374 31.4939 221.333C30.544 220.743 28.3492 220.153 27.3639 220.943C27.2077 221.083 27.0826 221.254 26.997 221.445C26.9114 221.636 26.8672 221.843 26.8672 222.052C26.8672 222.262 26.9114 222.469 26.997 222.66C27.0826 222.851 27.2077 223.022 27.3639 223.162C28.0011 223.781 29.0926 223.852 29.9245 223.752C30.8626 223.61 32.5795 222.483 32.7152 222.395C33.3586 223.379 34.0641 224.321 34.8274 225.215C35.2699 225.734 35.7301 226.247 36.2021 226.755L35.6947 226.353C34.7448 225.763 32.55 225.173 31.5647 225.97C31.4093 226.11 31.285 226.281 31.1999 226.472C31.1149 226.663 31.0709 226.87 31.0709 227.079C31.0709 227.288 31.1149 227.495 31.1999 227.686C31.285 227.877 31.4093 228.048 31.5647 228.188C31.925 228.463 32.3408 228.655 32.7831 228.752C33.2253 228.848 33.6834 228.847 34.1253 228.749C35.0927 228.454 36.0098 228.015 36.8452 227.445C37.0281 227.634 37.2051 227.828 37.388 228.035C38.2671 228.955 39.158 229.87 39.984 230.796C40.279 231.121 40.574 231.451 40.8395 231.781L40.397 231.439C39.4471 230.849 37.2523 230.259 36.267 231.05C36.1116 231.19 35.9873 231.361 35.9022 231.552C35.8172 231.743 35.7732 231.95 35.7732 232.159C35.7732 232.368 35.8172 232.575 35.9022 232.766C35.9873 232.957 36.1116 233.128 36.267 233.268C36.9042 233.888 38.0016 233.959 38.8276 233.858C39.7705 233.577 40.6641 233.151 41.4767 232.596C41.754 232.938 42.0313 233.286 42.285 233.64C42.4502 233.882 42.6272 234.1 42.7806 234.354V234.389L43.0048 233.882L43.1346 233.805L42.7511 233.286C42.3263 232.725 41.872 232.177 41.4 231.64C42.2746 231.155 43.0703 230.541 43.76 229.817C44.0474 229.466 44.2548 229.057 44.3679 228.618C44.481 228.178 44.497 227.72 44.4149 227.274C44.3592 227.073 44.2618 226.885 44.1289 226.724C43.996 226.563 43.8307 226.432 43.6436 226.339C43.4566 226.246 43.2521 226.193 43.0434 226.185C42.8347 226.176 42.6266 226.211 42.4325 226.289C41.2525 226.784 40.8159 229.008 40.9221 230.124C40.9221 230.194 41.0932 230.991 41.1935 231.427C40.9044 231.103 40.6035 230.778 40.3262 230.46C39.4589 229.545 38.5562 228.649 37.6594 227.746L36.8452 226.92C36.9927 226.831 38.7627 225.811 39.3114 225.038C39.6357 224.693 39.877 224.279 40.0171 223.827C40.1572 223.375 40.1923 222.897 40.1197 222.43C40.0639 222.229 39.9664 222.041 39.8336 221.88C39.7009 221.719 39.5357 221.587 39.3488 221.494C39.162 221.4 38.9576 221.347 38.7489 221.338C38.5402 221.328 38.3319 221.363 38.1373 221.439C36.9573 221.934 36.5207 224.159 36.6269 225.28C36.6269 225.362 36.8688 226.507 36.9455 226.796C36.3555 226.206 35.7655 225.569 35.1755 224.943C34.4172 224.098 33.7155 223.203 33.0751 222.265C33.1459 222.223 34.9985 221.161 35.559 220.377C35.8462 220.027 36.0536 219.619 36.1667 219.181C36.2799 218.742 36.296 218.285 36.2139 217.84C36.161 217.635 36.0651 217.444 35.9327 217.279C35.8002 217.114 35.6342 216.979 35.4456 216.883C35.2571 216.787 35.0502 216.732 34.8389 216.722C34.6275 216.712 34.4165 216.747 34.2197 216.825C33.0397 217.321 32.6031 219.545 32.7093 220.666C32.7093 220.754 32.9748 221.982 33.0338 222.2L32.9158 222.041C32.2998 221.082 31.7687 220.071 31.3287 219.02C31.0809 218.43 30.8744 217.875 30.6856 217.321C31.633 216.934 32.5147 216.402 33.2993 215.745C33.6217 215.429 33.8711 215.046 34.0301 214.623C34.1891 214.2 34.2538 213.747 34.2197 213.297C34.1836 213.092 34.1052 212.898 33.9895 212.725C33.8739 212.553 33.7235 212.406 33.5481 212.295C33.3726 212.184 33.1759 212.111 32.9705 212.08C32.7651 212.049 32.5556 212.062 32.3553 212.117C31.1753 212.483 30.4555 214.642 30.4319 215.769C30.4319 215.828 30.4909 216.453 30.5381 216.908C30.4614 216.654 30.3729 216.394 30.2962 216.152C30.0189 215.244 29.8242 214.382 29.659 213.633C29.5646 213.202 29.4879 212.813 29.423 212.453C30.0807 211.676 30.6141 210.803 31.0042 209.863C31.1476 209.434 31.1949 208.978 31.1429 208.529C31.0909 208.079 30.9409 207.646 30.7033 207.261C30.579 207.093 30.4206 206.953 30.2384 206.85C30.0562 206.747 29.8544 206.684 29.6462 206.664C29.4379 206.645 29.2279 206.67 29.0298 206.737C28.8317 206.804 28.6501 206.912 28.4967 207.055C27.594 207.934 27.9657 210.17 28.4967 211.185C28.5321 211.22 29.364 212.518 29.3758 212.5Z" fill="#263238"/>
<path d="M44.9525 216.872C45.8139 217.267 47.8671 217.279 48.0323 217.285C48.0196 218.468 48.0866 219.651 48.2329 220.825C48.3155 221.504 48.4217 222.188 48.5338 222.867C48.4335 222.566 48.345 222.277 48.3273 222.277C47.8671 221.25 46.3685 219.545 45.1177 219.687C44.9105 219.716 44.7118 219.788 44.5345 219.899C44.3572 220.01 44.2051 220.157 44.0883 220.331C43.9715 220.505 43.8925 220.701 43.8563 220.907C43.8202 221.113 43.8279 221.324 43.8787 221.527C44.0675 222.395 44.9407 223.055 45.7077 223.409C46.6756 223.7 47.6826 223.84 48.6931 223.822C48.7403 224.082 48.7816 224.342 48.8288 224.601C49.053 225.858 49.2831 227.103 49.4719 228.336C49.5368 228.773 49.584 229.203 49.6371 229.634L49.4601 229.103C48.994 228.076 47.4954 226.371 46.2446 226.513C46.0401 226.542 45.844 226.614 45.6688 226.724C45.4937 226.834 45.3433 226.978 45.2273 227.149C45.1112 227.32 45.0321 227.514 44.995 227.717C44.9578 227.92 44.9635 228.129 45.0115 228.33C45.2003 229.197 46.0735 229.858 46.8346 230.212C47.4838 230.44 48.1646 230.566 48.8524 230.584L50.2271 229.811L51.3127 229.221L54.2804 225.97C54.2132 225.945 54.1442 225.925 54.0739 225.911C52.8349 225.687 51.2242 227.286 50.6932 228.271C50.6932 228.336 50.3628 229.091 50.2035 229.504C50.1445 229.079 50.0855 228.655 50.0088 228.224C49.7964 226.985 49.5368 225.74 49.289 224.489C49.2064 224.111 49.1356 223.728 49.0648 223.344C49.2359 223.344 51.2773 223.48 52.1564 223.144C52.9411 222.843 53.8615 222.241 54.1034 221.374C54.1643 221.175 54.1828 220.966 54.1577 220.759C54.1326 220.553 54.0645 220.354 53.9578 220.175C53.851 219.997 53.708 219.843 53.5379 219.723C53.3679 219.603 53.1746 219.52 52.9706 219.48C51.7316 219.256 50.1268 220.855 49.5958 221.84C49.5545 221.917 49.1238 223.02 49.0058 223.286C48.8465 222.442 48.6931 221.604 48.5751 220.772C48.4083 219.649 48.3156 218.515 48.2978 217.38C48.3804 217.38 50.5103 217.521 51.413 217.179C51.8468 217.044 52.2458 216.815 52.5821 216.509C52.9184 216.203 53.1839 215.828 53.36 215.409C53.425 215.21 53.4473 215 53.4256 214.792C53.4038 214.584 53.3385 214.383 53.2338 214.202C53.1292 214.021 52.9875 213.865 52.8181 213.742C52.6487 213.62 52.4554 213.534 52.2508 213.492C51.0118 213.261 49.4011 214.866 48.8701 215.852C48.8288 215.928 48.3686 217.096 48.2801 217.315C48.2801 217.25 48.2801 217.179 48.2801 217.114C48.2977 215.976 48.4122 214.841 48.6223 213.722C48.7344 213.102 48.876 212.542 49.0235 211.952C49.4188 212.016 51.2242 212.3 52.0679 212.076C52.9116 211.851 53.8379 211.367 54.1978 210.547C54.2836 210.357 54.3284 210.151 54.3294 209.942C54.3304 209.733 54.2875 209.526 54.2035 209.335C54.1196 209.143 53.9964 208.972 53.8419 208.831C53.6875 208.69 53.5052 208.584 53.3069 208.518C52.1269 208.158 50.3569 209.574 49.6902 210.5C49.6548 210.547 49.3598 211.09 49.1474 211.503C49.2182 211.25 49.289 210.984 49.3598 210.742C49.6371 209.833 49.9498 209.013 50.2153 208.288C50.3805 207.881 50.5339 207.515 50.6755 207.173C51.1003 207.031 52.7877 206.465 53.4249 205.886C54.0621 205.308 54.6875 204.429 54.6049 203.526C54.5935 203.317 54.5383 203.113 54.4428 202.927C54.3474 202.741 54.2138 202.576 54.0508 202.445C53.8877 202.314 53.6989 202.218 53.4966 202.165C53.2942 202.111 53.0829 202.101 52.8762 202.134C51.6372 202.37 50.7168 204.447 50.5752 205.562C50.5752 205.662 50.5752 207.19 50.5752 207.184C50.4277 207.515 50.2743 207.863 50.1091 208.252C49.82 208.972 49.5191 209.786 49.2005 210.695C48.8746 211.672 48.6048 212.667 48.3922 213.674C48.1695 214.81 48.0471 215.963 48.0264 217.12V217.161C47.9261 216.807 47.6075 215.822 47.578 215.751C47.1119 214.725 45.6133 213.02 44.3625 213.161C44.1555 213.19 43.9569 213.263 43.7797 213.374C43.6026 213.485 43.4509 213.632 43.3345 213.806C43.2182 213.98 43.1398 214.176 43.1044 214.382C43.0691 214.588 43.0776 214.799 43.1294 215.002C43.3182 215.857 44.1914 216.53 44.9525 216.872Z" fill="#263238"/>
<path d="M130.52 229.958C130.313 229.988 130.114 230.06 129.937 230.171C129.76 230.282 129.608 230.429 129.492 230.603C129.375 230.777 129.297 230.973 129.262 231.179C129.226 231.385 129.235 231.597 129.287 231.799C129.434 232.227 129.674 232.618 129.989 232.943C130.304 233.268 130.687 233.52 131.11 233.681C131.69 233.89 132.299 234.009 132.915 234.035L133.44 233.41L133.735 232.554C133.269 231.522 131.771 229.817 130.52 229.958Z" fill="#263238"/>
<path d="M124.047 238.873C123.872 238.987 123.723 239.137 123.609 239.312C123.495 239.487 123.419 239.684 123.387 239.89C123.354 240.097 123.365 240.308 123.419 240.509C123.472 240.711 123.568 240.9 123.699 241.062C124.23 241.776 125.304 242.006 126.142 242.006C126.69 241.966 127.229 241.843 127.741 241.64L128.083 239.918L128.047 239.882C127.198 239.145 125.121 238.224 124.047 238.873Z" fill="#263238"/>
<path d="M129.918 235.097C128.956 235.687 128.767 237.587 128.938 238.755L131.764 235.398C131.541 235.138 131.234 234.966 130.896 234.91C130.558 234.855 130.211 234.922 129.918 235.097Z" fill="#263238"/>
<path d="M121.204 230.879C121.387 231.068 121.564 231.262 121.747 231.469C122.626 232.389 123.517 233.304 124.343 234.23C124.638 234.555 124.933 234.885 125.199 235.215L124.756 234.873C123.806 234.283 121.612 233.693 120.626 234.484C120.471 234.624 120.347 234.795 120.261 234.986C120.176 235.177 120.132 235.384 120.132 235.593C120.132 235.802 120.176 236.009 120.261 236.2C120.347 236.391 120.471 236.562 120.626 236.702C121.263 237.322 122.361 237.392 123.187 237.292C124.13 237.01 125.023 236.585 125.836 236.03C126.113 236.378 126.391 236.72 126.644 237.074C126.809 237.316 126.986 237.534 127.14 237.788L127.606 238.519C127.818 238.885 128.037 239.251 128.243 239.611L128.697 239.074C128.52 238.779 128.338 238.484 128.143 238.171L127.659 237.446C127.506 237.204 127.311 236.962 127.134 236.72C126.709 236.13 126.255 235.611 125.783 235.074C126.657 234.589 127.453 233.975 128.143 233.251C128.43 232.9 128.638 232.491 128.751 232.051C128.864 231.612 128.88 231.154 128.798 230.708C128.745 230.508 128.652 230.321 128.523 230.159C128.394 229.997 128.233 229.863 128.05 229.767C127.866 229.671 127.665 229.615 127.459 229.601C127.252 229.587 127.045 229.616 126.851 229.687C125.671 230.183 125.234 232.407 125.34 233.522C125.34 233.593 125.511 234.389 125.612 234.826C125.323 234.501 125.022 234.177 124.744 233.864C123.877 232.95 122.974 232.047 122.078 231.144L121.263 230.318C121.411 230.23 123.181 229.209 123.73 228.436C124.017 228.087 124.225 227.679 124.338 227.24C124.451 226.802 124.467 226.344 124.385 225.899C124.329 225.698 124.231 225.511 124.098 225.349C123.966 225.188 123.801 225.056 123.614 224.963C123.427 224.87 123.222 224.816 123.014 224.807C122.805 224.797 122.597 224.832 122.402 224.908C121.222 225.404 120.786 227.628 120.892 228.749C120.892 228.832 121.134 229.976 121.21 230.265C120.62 229.675 120.03 229.038 119.44 228.413C118.682 227.567 117.98 226.672 117.34 225.734C117.411 225.693 119.263 224.631 119.824 223.846C120.111 223.496 120.318 223.088 120.432 222.65C120.545 222.212 120.561 221.754 120.479 221.309C120.423 221.108 120.325 220.92 120.193 220.759C120.06 220.598 119.895 220.466 119.708 220.373C119.521 220.279 119.317 220.226 119.108 220.217C118.899 220.207 118.691 220.242 118.496 220.318C117.316 220.813 116.88 223.038 116.986 224.159C116.986 224.247 117.251 225.474 117.31 225.693L117.192 225.533C116.576 224.575 116.045 223.564 115.605 222.513C115.358 221.923 115.151 221.368 114.962 220.813C115.908 220.427 116.79 219.897 117.576 219.244C118.136 218.613 118.673 217.663 118.502 216.79C118.466 216.585 118.388 216.39 118.272 216.218C118.156 216.046 118.006 215.899 117.831 215.788C117.655 215.677 117.458 215.604 117.253 215.573C117.048 215.542 116.838 215.555 116.638 215.61C115.458 215.975 114.738 218.141 114.714 219.262C114.714 219.321 114.773 219.946 114.821 220.4C114.744 220.147 114.655 219.887 114.579 219.645C114.301 218.737 114.107 217.875 113.942 217.126C113.847 216.695 113.77 216.306 113.706 215.946C114.363 215.169 114.897 214.296 115.287 213.356C115.43 212.927 115.477 212.471 115.425 212.021C115.373 211.572 115.223 211.139 114.986 210.754C114.862 210.586 114.703 210.446 114.521 210.343C114.339 210.24 114.137 210.177 113.929 210.157C113.72 210.138 113.51 210.163 113.312 210.23C113.114 210.297 112.933 210.405 112.779 210.547C111.877 211.427 112.248 213.669 112.779 214.677C112.826 214.766 113.658 216.046 113.67 216.029C113.729 216.383 113.794 216.76 113.871 217.173C114.024 217.934 114.201 218.79 114.461 219.71C114.724 220.712 115.047 221.697 115.428 222.66C115.851 223.735 116.366 224.772 116.968 225.758C116.971 225.767 116.971 225.778 116.968 225.787C116.691 225.551 115.883 224.902 115.818 224.861C114.868 224.271 112.673 223.681 111.688 224.477C111.532 224.617 111.408 224.787 111.323 224.978C111.238 225.169 111.194 225.375 111.194 225.584C111.194 225.792 111.238 225.999 111.323 226.189C111.408 226.38 111.532 226.55 111.688 226.69C112.325 227.315 113.416 227.38 114.248 227.28C115.186 227.138 116.903 226.011 117.039 225.923C117.682 226.907 118.388 227.849 119.151 228.743C119.594 229.262 120.054 229.776 120.526 230.283L120.019 229.882C119.069 229.292 116.874 228.702 115.889 229.498C115.732 229.638 115.607 229.809 115.522 230C115.436 230.191 115.392 230.398 115.392 230.607C115.392 230.817 115.436 231.024 115.522 231.215C115.607 231.406 115.732 231.577 115.889 231.717C116.52 232.336 117.617 232.407 118.443 232.277C119.431 231.957 120.362 231.486 121.204 230.879Z" fill="#263238"/>
<path d="M130.32 214.011C131.075 214.648 133.205 215.226 133.205 215.226C133.205 215.226 133.163 213.704 133.146 213.609C132.969 212.5 131.966 210.459 130.733 210.264C130.525 210.238 130.314 210.255 130.114 210.316C129.914 210.376 129.728 210.478 129.57 210.615C129.412 210.752 129.285 210.921 129.196 211.111C129.108 211.3 129.06 211.506 129.057 211.716C129.01 212.601 129.677 213.468 130.32 214.011Z" fill="#263238"/>
<path d="M114.76 220.707C114.76 220.707 113.881 219.456 113.816 219.386C113.061 218.56 111.102 217.403 109.958 217.928C109.771 218.021 109.605 218.153 109.472 218.314C109.339 218.475 109.241 218.663 109.186 218.864C109.13 219.066 109.117 219.277 109.149 219.484C109.18 219.69 109.255 219.888 109.368 220.064C109.816 220.831 110.849 221.185 111.687 221.285C112.69 221.398 114.76 220.707 114.76 220.707Z" fill="#263238"/>
<path d="M129.21 220.365C130.071 220.76 132.124 220.778 132.289 220.778C132.278 221.951 132.345 223.124 132.49 224.288C132.573 224.967 132.679 225.651 132.791 226.336C132.691 226.029 132.602 225.746 132.584 225.746C132.124 224.719 130.626 223.014 129.375 223.156C129.168 223.185 128.969 223.257 128.792 223.368C128.614 223.48 128.462 223.627 128.345 223.8C128.229 223.974 128.15 224.17 128.114 224.376C128.077 224.582 128.085 224.793 128.136 224.996C128.325 225.864 129.198 226.525 129.965 226.879C130.933 227.169 131.94 227.309 132.95 227.292C132.997 227.551 133.039 227.811 133.086 228.07C133.31 229.327 133.54 230.578 133.729 231.805C133.729 231.988 133.77 232.171 133.794 232.354L134.166 231.292C133.965 230.194 133.741 229.091 133.523 227.988C133.446 227.61 133.369 227.227 133.298 226.849C134.103 226.897 134.91 226.88 135.711 226.796L136.75 223.793L137.57 223.079C137.462 223.026 137.346 222.988 137.228 222.967C135.989 222.743 134.384 224.342 133.853 225.327C133.812 225.404 133.381 226.507 133.263 226.772C133.104 225.929 132.95 225.091 132.832 224.259C132.665 223.135 132.573 222.002 132.555 220.866C132.638 220.866 134.767 221.008 135.67 220.666C136.104 220.53 136.503 220.302 136.839 219.996C137.176 219.69 137.441 219.315 137.617 218.896C137.682 218.697 137.704 218.487 137.683 218.279C137.661 218.071 137.596 217.87 137.491 217.689C137.386 217.508 137.245 217.351 137.075 217.229C136.906 217.106 136.713 217.021 136.508 216.978C135.269 216.748 133.658 218.353 133.127 219.338C133.086 219.415 132.626 220.583 132.537 220.802C132.537 220.737 132.537 220.672 132.537 220.601C132.555 219.462 132.669 218.328 132.879 217.208C132.992 216.618 133.133 216.028 133.281 215.438C133.676 215.503 135.481 215.787 136.325 215.562C137.169 215.338 138.095 214.854 138.455 214.034C138.541 213.844 138.586 213.637 138.587 213.428C138.588 213.219 138.545 213.013 138.461 212.821C138.377 212.63 138.254 212.459 138.099 212.318C137.945 212.177 137.762 212.07 137.564 212.005C136.384 211.645 134.614 213.061 133.947 213.987C133.912 214.034 133.617 214.577 133.405 214.99C133.475 214.736 133.546 214.471 133.617 214.229C133.894 213.32 134.207 212.5 134.472 211.775C134.638 211.367 134.791 211.002 134.933 210.659C135.357 210.518 137.045 209.951 137.682 209.373C138.319 208.795 138.945 207.916 138.862 207.013C138.851 206.804 138.795 206.6 138.7 206.414C138.605 206.227 138.471 206.063 138.308 205.932C138.145 205.801 137.956 205.705 137.754 205.651C137.551 205.598 137.34 205.587 137.133 205.621C135.894 205.857 134.974 207.934 134.838 209.049C134.838 209.149 134.809 210.677 134.838 210.671C134.691 211.002 134.537 211.35 134.378 211.739C134.083 212.459 133.759 213.273 133.464 214.182C133.138 215.159 132.868 216.154 132.655 217.161C132.415 218.291 132.275 219.44 132.236 220.595V220.66C132.136 220.306 131.817 219.321 131.788 219.25C131.322 218.223 129.823 216.518 128.572 216.66C128.365 216.689 128.167 216.761 127.99 216.872C127.813 216.984 127.661 217.131 127.545 217.305C127.428 217.478 127.35 217.675 127.314 217.881C127.279 218.087 127.288 218.298 127.339 218.501C127.593 219.35 128.466 220.011 129.21 220.365Z" fill="#263238"/>
<path d="M218.678 168.834L216.324 165.914L218.442 164.244L219.864 166.02L219.38 167.147L219.782 168.044L218.95 168.64" fill="white"/>
<path d="M218.678 168.834L216.324 165.914L218.442 164.244L219.864 166.02L219.38 167.147L219.782 168.044L218.95 168.64" stroke="#263238" stroke-linecap="round" stroke-linejoin="round"/>
<path d="M237.77 173.903C237.77 173.903 236.159 172.463 235.558 172.557C234.956 172.652 227.062 173.973 227.062 173.973L219.799 168.044L218.689 168.834L225.64 177.555L233.192 177.083L231.569 185.343L224.696 190.57L235.906 197.267L238.165 190.139L247.092 181.348L243.623 177L237.77 173.903Z" fill="black" stroke="#263238" stroke-linecap="round" stroke-linejoin="round"/>
<path d="M240.071 171.997L238.802 174.664L238.336 174.239L237.445 180.723L243.628 176.976L243.009 175.997L243.151 173.973L240.071 171.997Z" fill="white" stroke="#263238" stroke-linecap="round" stroke-linejoin="round"/>
<path d="M237.445 180.723L241.062 178.528L238.041 176.404L237.445 180.723Z" fill="white" stroke="#263238" stroke-linecap="round" stroke-linejoin="round"/>
<path d="M247.21 165.643C247.21 165.643 249.942 162.445 252.721 164.463C255.499 166.48 254.732 168.451 256.715 167.371C258.697 166.292 262.42 163.548 264.662 167.041C266.904 170.534 265.175 174.192 263.765 175.029C262.355 175.867 262.727 174.268 262.756 173.495C262.786 172.723 260.473 171.725 259.96 173.318C259.447 174.911 256.75 177.366 253.328 177.136C249.906 176.906 249.245 172.699 249.322 170.227C249.317 169.485 249.119 168.757 248.748 168.115C248.377 167.472 247.845 166.938 247.204 166.563L247.21 165.643Z" fill="#263238" stroke="#263238" stroke-linecap="round" stroke-linejoin="round"/>
<path d="M240.661 164.982C240.661 164.982 238.95 168.793 239.304 171.041C239.658 173.289 239.469 175.018 240.614 175.454C241.758 175.891 245.552 173.596 246.39 172.079C247.228 170.563 248.425 168.374 248.095 166.274C247.765 164.173 243.741 161.117 240.661 164.982Z" fill="white" stroke="#263238" stroke-linecap="round" stroke-linejoin="round"/>
<path d="M241.31 168.982C241.221 169.277 241.033 169.477 240.885 169.43C240.738 169.383 240.69 169.112 240.779 168.84C240.867 168.569 241.056 168.345 241.204 168.392C241.351 168.439 241.375 168.687 241.31 168.982Z" fill="#263238"/>
<path d="M244.036 170.115C243.947 170.41 243.752 170.616 243.605 170.569C243.457 170.522 243.41 170.25 243.499 169.979C243.587 169.708 243.782 169.483 243.929 169.525C244.077 169.566 244.124 169.82 244.036 170.115Z" fill="#263238"/>
<path d="M242 169.472C242 169.472 242.177 169.601 241.929 170.062C241.681 170.522 241.086 170.357 241.15 170.752C241.215 171.147 241.965 171.342 241.965 171.342" stroke="#263238" stroke-linecap="round" stroke-linejoin="round"/>
<path d="M240.626 172.026C240.626 172.026 241.576 172.923 242.425 172.705" stroke="#263238" stroke-linecap="round" stroke-linejoin="round"/>
<path d="M244.933 169.171L243.169 168.722" stroke="#263238" stroke-linecap="round" stroke-linejoin="round"/>
<path d="M241.776 168.056L240.933 167.3" stroke="#263238" stroke-linecap="round" stroke-linejoin="round"/>
<path d="M240.661 164.982C240.661 164.982 240.407 165.572 240.112 166.38C241.109 165.861 242.826 165.277 244.396 166.244C245.965 167.212 246.756 169.436 247.074 170.799C247.741 169.448 248.337 167.849 248.095 166.274C247.765 164.173 243.741 161.117 240.661 164.982Z" fill="#263238" stroke="#263238" stroke-linecap="round" stroke-linejoin="round"/>
<path d="M246.667 170.74C246.667 170.74 247.894 169.613 247.847 170.64C247.799 171.666 246.389 172.274 246.077 172.321C245.764 172.368 245.788 171.973 245.788 171.973" fill="white"/>
<path d="M246.667 170.74C246.667 170.74 247.894 169.613 247.847 170.64C247.799 171.666 246.389 172.274 246.077 172.321C245.764 172.368 245.788 171.973 245.788 171.973" stroke="#263238" stroke-linecap="round" stroke-linejoin="round"/>
<path d="M247.087 181.354L245.199 194.812C245.157 195.099 245.016 195.361 244.8 195.555C244.585 195.748 244.308 195.859 244.019 195.868H243.611C243.297 195.88 242.991 195.771 242.755 195.564C242.519 195.356 242.371 195.066 242.343 194.753L241.605 186.658L247.087 181.354Z" fill="black" stroke="#263238" stroke-linecap="round" stroke-linejoin="round"/>
<path d="M243.67 192.965L237.611 187.62L236.254 188.759L242.071 195.491C242.199 195.628 242.356 195.735 242.531 195.802C242.705 195.87 242.893 195.896 243.08 195.88H243.558C243.741 195.872 243.92 195.824 244.083 195.738C244.245 195.653 244.386 195.532 244.495 195.385C244.605 195.238 244.681 195.069 244.716 194.889C244.752 194.709 244.748 194.524 244.703 194.346" fill="black"/>
<path d="M243.67 192.965L237.611 187.62L236.254 188.759L242.071 195.491C242.199 195.628 242.356 195.735 242.531 195.802C242.705 195.87 242.893 195.896 243.08 195.88H243.558C243.741 195.872 243.92 195.824 244.083 195.738C244.245 195.653 244.386 195.532 244.495 195.385C244.605 195.238 244.681 195.069 244.716 194.889C244.752 194.709 244.748 194.524 244.703 194.346V194.346" stroke="#263238" stroke-linecap="round" stroke-linejoin="round"/>
<path d="M237.611 187.614L236.189 185.343L232.991 184.989L233.009 186.894L234.543 188.175L235.516 188.31L236.254 188.753L237.611 187.614Z" fill="white" stroke="#263238" stroke-linecap="round" stroke-linejoin="round"/>
<path d="M220.489 194.7C220.489 194.7 213.81 203.391 214.176 204.83C214.541 206.27 224.3 221.51 224.3 221.51L225.657 220.613L220.294 203.869L231.073 199.579L220.489 194.7Z" fill="white" stroke="#263238" stroke-linecap="round" stroke-linejoin="round"/>
<path d="M225.87 197.921L226.661 201.397L230.23 200.028L225.87 197.921Z" fill="#263238" stroke="#263238" stroke-miterlimit="10"/>
<path d="M224.301 221.48L222.531 224.43C222.531 224.43 221.121 226.542 221.534 226.672C222.436 226.961 224.773 225.427 225.44 224.955C226.106 224.483 226.82 224.17 227.263 223.858C227.705 223.545 228.59 223.362 227.381 222.241C226.974 221.869 225.681 220.583 225.681 220.583L224.301 221.48Z" fill="white" stroke="#263238" stroke-linecap="round" stroke-linejoin="round"/>
<path d="M235.327 191.927C232.32 190.728 229.245 189.709 226.117 188.877C220.707 187.408 216.707 186.269 216.783 187.62C216.86 188.971 226.701 210.736 226.701 210.736L228.389 210.199L225.816 198.199C225.816 198.199 229.946 201.09 232.997 199.656C236.047 198.222 237.209 194.346 236.997 193.024" fill="#263238"/>
<path d="M235.327 191.927C232.32 190.728 229.245 189.709 226.117 188.877C220.707 187.408 216.707 186.269 216.783 187.62C216.86 188.971 226.701 210.736 226.701 210.736L228.389 210.199L225.816 198.199C225.816 198.199 229.946 201.09 232.997 199.656C236.047 198.222 237.209 194.346 236.997 193.024" stroke="#263238" stroke-linecap="round" stroke-linejoin="round"/>
<path d="M224.967 188.564C220.152 187.26 216.707 186.363 216.783 187.62C216.86 188.971 226.701 210.736 226.701 210.736L228.389 210.199L225.816 198.199C226.695 196.057 225.763 191.555 224.967 188.564Z" fill="white" stroke="#263238" stroke-linecap="round" stroke-linejoin="round"/>
<path d="M225.816 198.199L221.574 192.045" stroke="#263238" stroke-linecap="round" stroke-linejoin="round"/>
<path d="M226.702 210.736L225.121 213.716C225.121 213.716 221.929 216.807 222.637 216.967C223.345 217.126 229.345 214.548 229.793 213.934C230.242 213.32 228.389 210.199 228.389 210.199L226.702 210.736Z" fill="white" stroke="#263238" stroke-linecap="round" stroke-linejoin="round"/>
<path d="M219.362 167.395L234.242 185.112" stroke="#263238" stroke-miterlimit="10"/>
<path d="M173.578 112.525L217.244 164.775" stroke="#263238" stroke-miterlimit="10"/>
<path d="M235.517 188.304V274.444" stroke="#263238" stroke-miterlimit="10"/>
<path d="M93.4144 164.368C93.4144 164.368 96.5532 182.735 93.143 188.558C89.7327 194.381 81.1777 190.192 81.1777 190.192V273.854" stroke="#263238" stroke-miterlimit="10"/>
<path d="M74.5691 171.242C74.5691 171.242 77.348 170.923 77.5604 171.566C77.677 172.093 77.677 172.638 77.5604 173.165C77.5604 173.165 79.1593 174.876 79.1593 176.05C79.1593 177.224 77.4542 177.761 77.4542 177.761L77.1356 180.534L72.864 180.747L72.3271 177.437C72.3271 177.437 70.7223 171.135 74.5691 171.242Z" fill="white" stroke="#263238" stroke-linecap="round" stroke-linejoin="round"/>
<path d="M75.4251 175.82L74.2451 174.109C74.6413 173.465 74.861 172.729 74.8823 171.973C74.8823 170.793 74.7761 168.663 72.3217 168.663C69.8674 168.663 68.2626 170.587 67.7316 174.752C67.2006 178.918 69.6491 180.947 73.1772 180.198C76.7054 179.449 75.4251 175.82 75.4251 175.82Z" fill="#263238" stroke="#263238" stroke-linecap="round" stroke-linejoin="round"/>
<path d="M75.319 175.089C75.319 175.089 73.5018 174.876 73.608 176.269C73.6361 176.568 73.7542 176.852 73.9468 177.082C74.1394 177.313 74.3975 177.48 74.6869 177.561C74.9764 177.642 75.2836 177.634 75.5682 177.537C75.8527 177.44 76.1011 177.259 76.2807 177.018" fill="white"/>
<path d="M75.319 175.089C75.319 175.089 73.5018 174.876 73.608 176.269C73.6361 176.568 73.7542 176.852 73.9468 177.082C74.1394 177.313 74.3975 177.48 74.6869 177.561C74.9764 177.642 75.2836 177.634 75.5682 177.537C75.8527 177.44 76.1011 177.259 76.2807 177.018" stroke="#263238" stroke-linecap="round" stroke-linejoin="round"/>
<path d="M72.788 181.791L68.8527 182.9C68.8527 182.9 68.5459 183.667 68.0857 184.67C67.4662 186.033 65.7611 188.8 65.7611 188.8L57.8846 191.048L55.3535 199.208L54.793 202.582L59.2888 200.329L59.572 192.458L66.652 191.367L69.6905 183.697L72.788 181.791Z" fill="#263238" stroke="#263238" stroke-linecap="round" stroke-linejoin="round"/>
<path d="M79.0601 180.64C79.0601 180.64 75.9626 179.254 73.6144 179.572C71.2662 179.891 71.4786 181.071 71.4786 181.071L71.5848 182.67C71.5848 182.67 75.5201 181.496 79.0601 180.64Z" fill="black" stroke="#263238" stroke-linecap="round" stroke-linejoin="round"/>
<path d="M68.4805 188.44L70.693 198.671C70.7098 198.793 70.7557 198.91 70.8268 199.012C70.8979 199.113 70.9922 199.196 71.1018 199.254C71.2114 199.312 71.3332 199.342 71.4571 199.344C71.5809 199.345 71.7033 199.316 71.814 199.261L76.8113 196.765L68.4805 188.44Z" fill="black" stroke="#263238" stroke-linecap="round" stroke-linejoin="round"/>
<path d="M74.0393 193.886L72.8652 196.234" stroke="#263238" stroke-linecap="round" stroke-linejoin="round"/>
<path d="M84.3936 204.246L90.8422 214.913L89.9867 229.339L93.0842 229.233L96.1817 212.028L91.6564 199.975L84.3936 204.246Z" fill="#263238" stroke="#263238" stroke-linecap="round" stroke-linejoin="round"/>
<path d="M71.578 182.67C71.578 182.67 68.4805 188.01 68.4805 188.44C68.4805 188.871 80.5519 200.506 80.5519 200.506L89.7382 194.417L83.968 184.387L92.2752 176.233L92.9124 165.23L91.4197 165.123L88.747 173.136L79.897 180.109L71.578 182.67Z" fill="black" stroke="#263238" stroke-linecap="round" stroke-linejoin="round"/>
<path d="M91.4199 165.123L91.5261 162.669L94.1929 160.639L94.4112 161.17V162.775L94.5174 164.055L92.9126 165.229L91.4199 165.123Z" fill="white" stroke="#263238" stroke-linecap="round" stroke-linejoin="round"/>
<path d="M80.5518 200.506C80.5518 200.506 82.5814 203.922 84.0918 204.99C85.6022 206.058 90.2691 202.748 91.4491 201.78C92.6291 200.812 97.1131 195.054 97.1131 195.054L101.278 212.801L103.845 211.733C103.845 211.733 102.34 188.133 101.597 187.473C100.854 186.812 89.3133 194.305 89.3133 194.305L80.5518 200.506Z" fill="#263238" stroke="#263238" stroke-linecap="round" stroke-linejoin="round"/>
<path d="M103.84 211.739H107.468C108.111 211.739 109.71 210.778 109.828 211.527C109.946 212.276 106.731 214.3 105.445 214.943C104.21 215.422 102.919 215.746 101.604 215.905L101.279 212.807L103.84 211.739Z" fill="white" stroke="#263238" stroke-linecap="round" stroke-linejoin="round"/>
<path d="M93.0841 229.233L94.9013 232.543C94.9013 232.543 97.1432 233.504 97.1432 233.935C97.1432 234.366 93.5148 234.147 93.1903 234.147C92.8658 234.147 89.2432 230.607 89.2432 230.607L89.9866 229.321L93.0841 229.233Z" fill="white" stroke="#263238" stroke-linecap="round" stroke-linejoin="round"/>
<path d="M94.1934 160.639L129.056 112.838" stroke="#263238" stroke-miterlimit="10"/>
<path d="M7.08008 274.468H286.74" stroke="#263238" stroke-linecap="round" stroke-linejoin="round"/>
</svg>
