<svg width="233" height="210" viewBox="0 0 233 210" fill="none" xmlns="http://www.w3.org/2000/svg">
<path d="M104.491 101.07C99.6864 101.391 95.0157 99.3317 93.2809 98.2622H92.48L91.6794 102.674V107.487L93.6811 112.701C93.6811 112.701 95.2825 114.706 95.6828 114.706C96.0831 114.706 90.078 127.139 90.078 127.139V149.599L88.877 160.428L90.4785 164.84C89.0106 164.439 88.3166 164.358 97.2843 167.246C106.252 170.134 110.362 161.23 111.296 156.417C111.697 151.07 112.497 140.695 112.497 141.979C112.497 143.262 118.102 145.722 120.905 146.792C127.577 148.931 141.562 153.209 144.125 153.209C146.687 153.209 149.729 152.139 150.93 151.604C154.934 147.995 152.532 137.968 152.131 136.765C151.811 135.802 149.863 134.225 148.929 133.556C147.636 132.814 146.673 132.378 144.124 131.551L133.315 128.743L132.515 130.749C132.474 130.381 132.224 130.115 131.314 129.546L129.712 126.738L128.111 128.743L126.509 129.546V128.342L127.31 125.936L126.509 124.733C126.243 124.599 125.629 124.252 125.308 123.931C124.988 123.61 124.641 122.995 124.508 122.727L124.107 119.118C125.08 117.265 127.102 112.636 128.511 109.492C129.93 106.326 130.113 100 129.712 97.059L126.509 92.6472C113.298 101.872 110.496 100.669 104.491 101.07Z" fill="#263238"/>
<path d="M95.0497 115.444C94.9764 115.443 94.9042 115.426 94.8389 115.392C94.7736 115.359 94.7169 115.311 94.6734 115.252C93.4163 113.487 91.1184 108.337 90.8782 105.963C90.6379 103.588 91.9911 97.9414 92.0472 97.6847C92.0776 97.5675 92.1525 97.4668 92.2558 97.4041C92.3592 97.3413 92.4829 97.3214 92.6007 97.3485C92.7185 97.3757 92.8211 97.4478 92.8867 97.5495C92.9522 97.6512 92.9757 97.7745 92.9519 97.8932C92.9519 97.9574 91.5828 103.653 91.7989 105.915C92.0151 108.177 94.2571 113.134 95.4261 114.738C95.4618 114.788 95.4875 114.844 95.5016 114.903C95.5157 114.963 95.518 115.024 95.5084 115.085C95.4987 115.145 95.4773 115.203 95.4453 115.255C95.4133 115.307 95.3714 115.352 95.322 115.388C95.2387 115.433 95.144 115.453 95.0497 115.444Z" fill="#263238"/>
<path d="M101.639 167.88L98.5889 167.663C101.896 166.773 103.945 161.438 105.227 157.773C105.467 157.083 105.699 156.425 105.931 155.823C107.068 152.847 107.172 143.583 107.108 140.021C106.636 138.345 105.363 134.262 104.466 132.938C104.279 132.671 104.149 132.367 104.083 132.048C104.017 131.728 104.016 131.398 104.082 131.077C104.362 129.73 105.739 128.855 106.948 128.093C107.357 127.851 107.75 127.583 108.125 127.291C108.397 125.575 110.391 125.037 111.872 124.644C112.337 124.516 112.777 124.396 113.121 124.267C114.555 122.952 120.832 110.936 122.209 104.478C123.378 99.032 121.408 97.1068 121.408 97.0908L123.218 94.9731C123.554 95.2539 126.477 97.9411 124.955 105.064C123.77 110.599 116.909 125.759 114.298 126.81C113.748 127.016 113.187 127.19 112.617 127.331C112.019 127.464 111.436 127.66 110.879 127.917C110.703 129.04 109.614 129.73 108.477 130.46C107.915 130.771 107.384 131.137 106.892 131.551C108.205 133.684 109.67 138.834 109.839 139.436L109.887 139.781C109.887 141.096 110.095 152.727 108.525 156.818C108.309 157.396 108.085 158.021 107.853 158.679C106.42 162.834 106.372 166.612 101.639 167.88Z" fill="white"/>
<path d="M153.243 140.061C151.058 138.986 145.365 137.863 141.954 137.142C140.497 136.837 139.239 136.564 138.295 136.339C136.727 135.966 135.077 136.165 133.643 136.901C133.217 137.088 132.778 137.243 132.33 137.366C130.6 137.799 129.423 136.099 128.574 134.855C128.478 134.719 128.374 134.559 128.262 134.414C127.181 135.048 125.692 135.914 124.259 135.505C123.926 135.405 123.618 135.237 123.354 135.012C123.089 134.787 122.874 134.51 122.721 134.198C122.356 133.409 122.087 132.58 121.921 131.727C121.656 130.612 121.472 129.906 120.92 129.465C119.03 127.957 119.038 127.243 118.998 127.059L120.415 124.74C121.057 125.688 121.809 126.556 122.657 127.323C123.747 128.314 124.445 129.663 124.627 131.126C124.748 131.716 124.925 132.293 125.155 132.85C125.746 132.651 126.31 132.382 126.837 132.048C127.229 131.789 127.655 131.584 128.102 131.438C129.359 131.126 130.128 132.24 130.864 133.307C131.166 133.776 131.509 134.216 131.889 134.623C132.089 134.559 132.33 134.462 132.594 134.35C134.584 133.38 136.851 133.142 138.999 133.676C139.888 133.901 141.121 134.158 142.546 134.478C145.941 135.126 149.25 136.159 152.411 137.559L153.243 140.061Z" fill="white"/>
<path d="M169.018 155.158C168.927 155.157 168.839 155.133 168.762 155.086C163.589 151.709 151.947 150.754 151.819 150.746C151.754 150.748 151.689 150.736 151.629 150.711C151.569 150.686 151.515 150.649 151.47 150.601C151.425 150.554 151.39 150.498 151.369 150.437C151.347 150.375 151.338 150.31 151.343 150.245C151.348 150.18 151.367 150.116 151.398 150.059C151.429 150.002 151.472 149.952 151.524 149.912C151.575 149.872 151.635 149.844 151.698 149.828C151.761 149.813 151.827 149.812 151.891 149.824C152.38 149.824 163.901 150.802 169.266 154.307C169.318 154.34 169.362 154.383 169.397 154.433C169.432 154.483 169.457 154.54 169.469 154.6C169.482 154.659 169.483 154.721 169.471 154.781C169.46 154.841 169.436 154.898 169.402 154.949C169.36 155.013 169.303 155.065 169.236 155.102C169.169 155.138 169.094 155.157 169.018 155.158Z" fill="#263238"/>
<path d="M164.853 146.029C164.492 146.021 164.133 145.962 163.789 145.853C162.131 145.38 153.38 140.671 153.027 140.471C152.919 140.413 152.839 140.314 152.803 140.197C152.767 140.08 152.778 139.953 152.835 139.845C152.894 139.736 152.994 139.655 153.112 139.619C153.23 139.583 153.358 139.595 153.468 139.652C156.582 141.337 162.796 144.602 164.037 144.962C164.369 145.098 164.733 145.134 165.086 145.067C165.114 144.959 165.181 144.865 165.273 144.802C165.365 144.74 165.476 144.712 165.587 144.725C165.698 144.737 165.8 144.789 165.875 144.871C165.951 144.953 165.995 145.06 165.998 145.171C165.994 145.294 165.962 145.415 165.903 145.523C165.845 145.632 165.762 145.725 165.662 145.797C165.425 145.961 165.141 146.043 164.853 146.029Z" fill="#263238"/>
<path d="M169.747 139.829C169.747 139.829 165.343 144.128 165.343 144.594C165.343 145.059 168.473 147.842 168.706 148.773C168.938 149.703 171.028 148.54 171.604 148.773C172.181 149.005 172.069 150.634 170.443 150.979C168.818 151.323 168.938 155.511 169.514 156.088C170.091 156.666 175.119 159.225 177.866 162.128C180.612 165.032 182.157 167.936 183.31 168.401C184.463 168.866 185.632 169.203 185.976 166.893C186.321 164.583 186.673 159.577 183.662 155.976C180.652 152.374 179.371 152.021 178.442 152.021C177.513 152.021 176.04 152.142 176.592 150.866C177.145 149.591 178.442 148.46 177.978 147.377C177.513 146.294 173.886 139.484 169.747 139.829Z" fill="#263238"/>
<path d="M185.824 170.102C185.486 170.119 185.149 170.042 184.851 169.881C184.553 169.72 184.305 169.48 184.134 169.187C184.107 169.133 184.091 169.074 184.087 169.013C184.082 168.953 184.09 168.892 184.109 168.835C184.129 168.777 184.159 168.724 184.199 168.679C184.239 168.633 184.288 168.596 184.343 168.569C184.451 168.516 184.576 168.507 184.692 168.544C184.807 168.582 184.903 168.663 184.959 168.77C184.999 168.834 185.311 169.356 186.288 169.115C187.625 168.778 188.69 168.393 188.963 166.805C189.338 163.338 188.63 159.841 186.937 156.794C185.908 155.239 184.675 153.831 183.27 152.607C182.013 151.428 181.028 150.497 180.956 149.503C180.956 149.142 180.956 148.781 180.916 148.404C180.983 146.964 180.709 145.529 180.115 144.217C179.066 142.123 176.576 139.404 174.214 138.401C172.044 137.511 171.059 137.904 170.21 140.005C170.163 140.119 170.072 140.209 169.958 140.256C169.843 140.303 169.716 140.302 169.602 140.254C169.488 140.206 169.398 140.115 169.352 140.001C169.305 139.886 169.306 139.758 169.354 139.644C170.435 137.061 171.956 136.436 174.598 137.535C177.24 138.634 179.867 141.545 181.004 143.799C181.673 145.227 181.992 146.795 181.933 148.372C181.933 148.735 181.949 149.088 181.981 149.43C182.021 150.056 182.941 150.922 183.998 151.917C185.468 153.198 186.755 154.674 187.826 156.305C189.643 159.543 190.394 163.274 189.971 166.965C189.571 169.091 188.09 169.636 186.609 170.005C186.353 170.075 186.089 170.107 185.824 170.102Z" fill="#263238"/>
<path d="M103.289 97.3315C101.007 97.3315 96.8836 97.0347 94.7297 95.0293C93.8683 94.2328 93.1145 93.3267 92.4878 92.3341C92.0729 91.6479 91.5694 91.0195 90.9905 90.4652C90.4754 90.0201 90.1037 89.4318 89.9227 88.775C89.7417 88.1181 89.7594 87.4221 89.9737 86.7753C90.0199 86.662 90.1089 86.5715 90.2213 86.5234C90.3337 86.4754 90.4605 86.4736 90.5742 86.5186C90.6316 86.5399 90.6841 86.5725 90.7287 86.6146C90.7733 86.6566 90.8089 86.7072 90.8336 86.7633C90.8582 86.8194 90.8714 86.88 90.8722 86.9413C90.873 87.0026 90.8615 87.0635 90.8384 87.1202C90.695 87.5938 90.6946 88.0992 90.837 88.573C90.9795 89.0468 91.2585 89.4679 91.6391 89.7833C92.2574 90.3913 92.7956 91.076 93.2405 91.8208C93.825 92.7524 94.5304 93.602 95.3383 94.3475C97.5642 96.417 102.544 96.4411 103.97 96.393C104.093 96.393 104.211 96.442 104.298 96.5292C104.385 96.6165 104.434 96.7348 104.434 96.8582C104.434 96.9816 104.385 97.0999 104.298 97.1872C104.211 97.2744 104.093 97.3235 103.97 97.3235L103.289 97.3315Z" fill="#263238"/>
<path d="M106.699 101.471C102.842 101.513 99.0052 100.912 95.3457 99.6898C90.4375 97.7646 90.5416 95.6791 90.7418 95.1096C90.8027 94.8999 90.8748 94.6937 90.9579 94.4919C91.1501 94.0106 91.2222 93.8342 90.9579 93.401C90.3014 92.4063 90.8378 90.2486 90.9019 90.0079C90.9321 89.8891 91.008 89.7871 91.113 89.724C91.2179 89.6609 91.3435 89.6419 91.4624 89.6711C91.5816 89.7031 91.6835 89.7807 91.7464 89.8871C91.8092 89.9936 91.828 90.1204 91.7987 90.2406C91.5825 91.0427 91.4223 92.4224 91.7346 92.8876C91.9401 93.1663 92.0608 93.4986 92.0821 93.8445C92.1034 94.1903 92.0244 94.5349 91.8547 94.8368C91.7787 95.0051 91.7171 95.1795 91.6706 95.3582C91.4544 96.1603 92.3832 97.516 95.674 98.8234C99.6774 100.428 109.894 101.759 115.939 98.8234C125.748 94.0908 126.444 92.3422 126.42 91.917C126.396 91.4919 126.356 91.1149 126.308 90.6336C126.065 89.3504 126.114 88.0287 126.452 86.7673C126.997 85.3555 127.541 83.9518 126.981 82.1951C126.609 80.5879 126.418 78.9439 126.412 77.294C126.356 76.2031 126.308 75.1684 126.196 74.3823C126.06 72.9658 125.614 71.5966 124.891 70.3716C124.844 70.3335 124.805 70.2863 124.776 70.2329C124.747 70.1794 124.729 70.1207 124.723 70.0602C124.717 69.9997 124.723 69.9386 124.741 69.8805C124.759 69.8224 124.788 69.7685 124.827 69.7219C124.906 69.6275 125.02 69.5679 125.142 69.5559C125.265 69.544 125.387 69.5805 125.484 69.6577C126.156 70.2272 126.845 72.4572 127.085 74.286C127.213 75.0882 127.261 76.1711 127.317 77.286C127.319 78.8571 127.496 80.4229 127.846 81.9545C128.502 84.024 127.846 85.6523 127.317 87.0882C127.025 88.2289 126.986 89.4202 127.205 90.5775C127.253 91.0427 127.301 91.4919 127.325 91.909C127.373 92.9518 126.292 94.893 116.316 99.6978C113.641 100.981 110.142 101.471 106.699 101.471Z" fill="#263238"/>
<path d="M148.424 102.273C146.344 102.219 144.276 101.95 142.251 101.47C140.385 101.037 140.017 98.5908 139.745 96.802C139.698 96.1804 139.549 95.5707 139.304 94.9972C138.2 94.2593 138.023 93.6095 138.023 91.909C137.931 91.0333 137.547 90.2141 136.934 89.5828C136.544 89.0811 136.201 88.544 135.91 87.9785C135.261 86.679 133.011 80.3261 133.556 78.4972C133.94 77.2218 132.387 74.3341 129.824 73.3395C127.038 72.2486 121.473 68.7994 121.241 68.655C121.189 68.6229 121.143 68.5809 121.108 68.5313C121.072 68.4817 121.046 68.4254 121.032 68.3658C121.018 68.3062 121.015 68.2443 121.025 68.1838C121.035 68.1233 121.057 68.0654 121.089 68.0133C121.155 67.9094 121.259 67.8353 121.378 67.8069C121.498 67.7784 121.624 67.7978 121.729 67.8609C121.785 67.8609 127.454 71.4143 130.161 72.4732C133.083 73.6122 134.965 76.9411 134.444 78.7619C134.052 80.0935 135.926 85.9331 136.734 87.5855C137.018 88.098 137.348 88.5839 137.719 89.0373C138.455 89.8291 138.904 90.8464 138.992 91.925C138.992 93.5293 139.144 93.7619 139.865 94.2432C140.377 94.5881 140.513 95.4625 140.666 96.6496C140.914 98.2539 141.218 100.259 142.459 100.548C146.751 101.535 151.603 101.791 152.115 100.043C152.548 98.5748 152.364 96.2486 152.196 94.1951C152.041 92.9204 152.009 91.6337 152.099 90.3528C152.3 88.9331 149.697 79.0587 148.096 73.163C147.335 70.2913 146.735 68.0293 146.543 67.1309C145.982 64.4838 129.792 52.7405 125.645 51.0881C122.074 49.6362 116.741 47.7272 111.617 47.8796C111.549 47.8857 111.48 47.875 111.418 47.8484C111.355 47.8218 111.299 47.7802 111.256 47.7272C110.491 46.8286 109.638 46.009 108.71 45.2806L108.43 45.5854C107.325 46.7806 104.739 49.5961 101.032 49.1149C98.9934 48.8964 96.9976 48.3831 95.1065 47.5908C95.1198 48.0173 94.971 48.433 94.6902 48.7539L94.6181 48.81C94.538 48.8662 92.6404 50.0534 87.4119 49.6122C82.3676 49.155 79.5972 48.9063 74.761 44.0614C73.4079 42.7058 71.8385 41.0534 70.1651 39.2967C66.3058 35.1496 61.902 30.5213 60.2206 29.679C58.2989 28.7165 54.8399 28.3314 53.5909 28.2191C53.4548 29.687 52.7421 33.9705 49.123 35.4384C49.123 36.0159 49.3793 37.7165 51.5972 40.6282L52.8222 42.2325C56.5614 47.1897 65.3289 58.7967 68.1073 59.9919C69.0041 60.3769 70.5094 60.9143 72.2229 61.532C76.9069 63.2165 82.7439 65.3101 84.4814 67.0587C85.9547 68.5266 87.2197 74.1336 88.3407 79.0908C88.9973 81.9785 89.6779 84.9705 90.0782 85.4518C90.9001 86.2326 91.8545 86.8601 92.8966 87.3047C93.594 87.5684 94.2253 87.9818 94.7462 88.5159C94.8127 88.6192 94.8358 88.7447 94.8103 88.8649C94.7848 88.9852 94.7128 89.0904 94.6101 89.1577C94.5074 89.223 94.3834 89.2462 94.2641 89.2223C94.1448 89.1984 94.0392 89.1292 93.9695 89.0293C93.5149 88.6652 93.0142 88.3631 92.4803 88.1309C91.322 87.6351 90.2658 86.9279 89.3656 86.0453C88.8451 85.4277 88.3247 83.1897 87.4359 79.2994C86.4751 74.9197 85.1059 68.9838 83.8248 67.6924C82.2235 66.0881 76.2663 63.9464 71.9106 62.3822C70.1731 61.7566 68.7078 61.2191 67.739 60.778C64.7364 59.4865 56.1851 48.1683 52.0856 42.7298L50.8605 41.1256C47.8019 37.1149 48.1782 35.1336 48.2343 34.925C48.2503 34.8489 48.2862 34.7784 48.3382 34.7206C48.3902 34.6629 48.4566 34.6199 48.5305 34.5961C52.534 33.2485 52.6941 27.7218 52.7021 27.6657C52.7042 27.6038 52.7185 27.5431 52.7442 27.4869C52.77 27.4307 52.8067 27.3802 52.8522 27.3383C52.8977 27.2965 52.951 27.2642 53.0091 27.2433C53.0672 27.2223 53.1289 27.2132 53.1905 27.2165C53.3907 27.2165 58.1067 27.5453 60.6369 28.8207C62.4545 29.7673 66.7301 34.2512 70.8617 38.5908C72.5271 40.3395 74.0644 41.9919 75.4416 43.3395C80.0376 47.9437 82.5357 48.1523 87.516 48.6256C91.9038 49.0266 93.7453 48.1924 94.0576 48.0239C94.153 47.8044 94.1942 47.565 94.1777 47.3261C94.1777 47.0614 94.1777 46.4518 94.7462 46.4518C94.9456 46.477 95.1384 46.5396 95.3147 46.6362C97.1671 47.4359 99.1297 47.9497 101.136 48.1603C104.338 48.5694 106.74 46.0106 107.741 44.9518C107.919 44.7266 108.13 44.5293 108.366 44.3662C108.638 44.2379 109.167 43.9892 111.793 46.9491C117.013 46.8528 122.386 48.7699 125.989 50.2379C130.161 51.9464 146.751 63.7138 147.439 66.9865C147.624 67.8609 148.24 70.1149 148.985 72.9705C151.315 81.6978 153.22 89.0133 152.988 90.5293C152.91 91.7438 152.944 92.963 153.092 94.171C153.26 96.3047 153.453 98.7192 152.972 100.347C152.556 101.823 150.594 102.273 148.424 102.273Z" fill="#263238"/>
<path d="M100.959 52.9974C99.53 53.0045 98.1095 52.7741 96.7556 52.3156C92.1276 50.7113 92.1757 49.1471 92.2317 48.8503C92.2508 48.728 92.3177 48.6183 92.4175 48.5453C92.5174 48.4724 92.6421 48.4421 92.7642 48.4613C92.8863 48.4804 92.9958 48.5474 93.0686 48.6474C93.1415 48.7475 93.1716 48.8724 93.1525 48.9947C93.1525 49.0749 93.3367 50.1498 97.0599 51.4011C99.5821 52.2108 102.291 52.2291 104.824 51.4535C107.357 50.6779 109.593 49.1455 111.232 47.0616C111.269 47.0136 111.316 46.9736 111.369 46.9439C111.422 46.9143 111.481 46.8955 111.541 46.8888C111.602 46.8821 111.663 46.8875 111.721 46.9048C111.779 46.922 111.834 46.9508 111.881 46.9894C111.976 47.0678 112.037 47.1806 112.05 47.3035C112.064 47.4265 112.029 47.5498 111.953 47.6471C110.639 49.3089 108.969 50.6529 107.065 51.5791C105.162 52.5054 103.075 52.9901 100.959 52.9974Z" fill="#263238"/>
<path d="M60.4282 16.2595L3.08301 6.19263L56.0965 8.05359L60.4282 16.2595Z" fill="#E8E8E8"/>
<path d="M50.9881 7.86891V5.26196L3.08301 6.19244L50.9881 7.86891Z" fill="#D9D9D9"/>
<path d="M54.0948 5.20588L44.1983 0L3.08301 6.19251L54.0948 5.20588Z" fill="#E8E8E8"/>
<path d="M48.6821 35.5347C48.615 35.5372 48.5482 35.524 48.487 35.4962C48.4259 35.4683 48.372 35.4266 48.3298 35.3743C48.2577 35.2941 41.2197 27.1042 39.1219 25.4518C38.6895 25.1149 38.2411 24.7459 37.7767 24.3689C35.9084 22.6877 33.8209 21.2683 31.5714 20.1497C28.6889 18.9304 25.0058 12.9946 24.8536 12.7379C24.8221 12.6852 24.8012 12.6269 24.7922 12.5661C24.7832 12.5054 24.7862 12.4434 24.801 12.3838C24.8159 12.3242 24.8424 12.2682 24.8789 12.2188C24.9154 12.1695 24.9612 12.1278 25.0138 12.0962C25.0664 12.0646 25.1246 12.0437 25.1853 12.0346C25.2459 12.0256 25.3077 12.0286 25.3672 12.0435C25.4267 12.0584 25.4827 12.0849 25.5319 12.1215C25.5812 12.158 25.6228 12.204 25.6543 12.2566C25.6543 12.3128 29.3375 18.1844 31.9557 19.2994C34.2457 20.27 36.4396 22.0668 38.3612 23.647L39.6904 24.7219C41.8682 26.4304 48.7381 34.4278 49.0344 34.7727C49.0743 34.8183 49.1047 34.8714 49.1239 34.9289C49.143 34.9864 49.1506 35.0472 49.1461 35.1076C49.1417 35.1681 49.1252 35.227 49.0978 35.2811C49.0704 35.3351 49.0325 35.3832 48.9864 35.4224C48.9025 35.4966 48.794 35.5366 48.6821 35.5347Z" fill="#263238"/>
<path d="M34.6304 11.663L4.31641 6.19238L35.7354 15.6576L34.6304 11.663Z" fill="#9E9E9E"/>
<path d="M40.3553 17.0455L51.621 20.4386L52.4217 14.8637L39.0342 12.4573C39.0342 12.4573 39.3304 14.1979 39.4986 14.8637C39.7324 15.6103 40.0187 16.3394 40.3553 17.0455Z" fill="#9E9E9E"/>
<path d="M96.8831 48.2005H96.755C96.6959 48.1839 96.6408 48.1557 96.5927 48.1176C96.5446 48.0796 96.5045 48.0323 96.4747 47.9786C96.4449 47.9249 96.4261 47.8658 96.4192 47.8048C96.4123 47.7438 96.4176 47.682 96.4347 47.623C96.4347 47.623 97.3074 44.5348 96.4347 42.4091C96.4039 42.3514 96.3857 42.288 96.381 42.2228C96.3764 42.1576 96.3856 42.0922 96.4079 42.0308C96.4302 41.9693 96.4652 41.9133 96.5105 41.8664C96.5559 41.8194 96.6106 41.7825 96.6711 41.7582C96.7316 41.7338 96.7966 41.7225 96.8618 41.7249C96.927 41.7274 96.9909 41.7436 97.0494 41.7725C97.108 41.8013 97.1598 41.8422 97.2014 41.8925C97.2431 41.9428 97.2738 42.0012 97.2914 42.0642C98.2763 44.4706 97.3475 47.7433 97.2914 47.8797C97.263 47.9678 97.2089 48.0454 97.1362 48.1026C97.0634 48.1597 96.9753 48.1939 96.8831 48.2005Z" fill="#263238"/>
<path d="M107.228 46.5802C107.155 46.5802 107.082 46.5627 107.017 46.5293C106.951 46.4958 106.895 46.4473 106.852 46.3876C105.587 44.639 103.473 41.5748 103.553 40.7165C103.567 40.5952 103.627 40.4841 103.721 40.4064C103.816 40.3286 103.936 40.2903 104.057 40.2994C104.179 40.3135 104.291 40.3737 104.37 40.4677C104.449 40.5616 104.489 40.6822 104.482 40.8048C104.482 41.2941 106.083 43.8048 107.604 45.8422C107.64 45.8917 107.666 45.9478 107.68 46.0072C107.694 46.0667 107.696 46.1283 107.687 46.1887C107.677 46.249 107.656 46.3068 107.624 46.3589C107.592 46.4109 107.55 46.4561 107.5 46.4919C107.421 46.5483 107.326 46.5791 107.228 46.5802Z" fill="#263238"/>
<path d="M159.04 118.837C158.93 118.835 158.82 118.821 158.712 118.797C157.431 118.516 152.419 113.374 151.506 112.123C150.8 111.229 149.899 110.51 148.872 110.021C148.361 110.731 148.041 111.559 147.943 112.428C147.847 113.615 147.663 114.778 146.974 115.251C146.809 115.36 146.621 115.429 146.426 115.453C146.23 115.476 146.031 115.454 145.845 115.388C144.42 114.955 144.636 113.631 144.94 111.802L145.044 111.152C145.362 109.721 145.902 108.349 146.646 107.086C146.774 106.845 146.91 106.58 146.982 106.42C146.614 105.802 145.108 103.316 144.075 101.607C144.013 101.501 143.993 101.375 144.022 101.255C144.05 101.135 144.124 101.031 144.228 100.965C144.28 100.933 144.337 100.911 144.398 100.902C144.458 100.892 144.52 100.894 144.579 100.908C144.639 100.922 144.695 100.948 144.745 100.984C144.794 101.02 144.836 101.065 144.868 101.118C145.357 101.92 147.775 105.874 147.887 106.107C147.999 106.34 147.887 106.66 147.462 107.487C146.77 108.663 146.265 109.94 145.965 111.273L145.853 111.922C145.541 113.832 145.525 114.289 146.109 114.465C146.333 114.537 146.413 114.465 146.454 114.465C146.87 114.184 146.982 112.797 147.022 112.34C147.107 111.137 147.608 110.003 148.439 109.131C148.522 109.074 148.617 109.035 148.717 109.019C148.816 109.002 148.918 109.007 149.016 109.035C150.273 109.585 151.373 110.439 152.218 111.521C153.452 113.126 158.128 117.682 158.904 117.85C158.992 117.85 159.144 117.89 159.184 117.81C159.224 117.73 159.184 117.088 158.496 116.439C157.575 115.636 154.54 111.626 154.805 110.703C154.832 110.603 154.888 110.512 154.964 110.441C155.04 110.37 155.135 110.322 155.237 110.302C155.669 110.214 156.102 110.527 158.576 112.709C159.849 113.84 161.779 115.54 162.259 115.636C162.444 115.673 162.631 115.7 162.82 115.717C162.719 115.538 162.607 115.367 162.483 115.203C162.099 114.666 161.338 113.832 160.602 113.021C159.701 112.112 158.884 111.124 158.16 110.07C158.103 109.961 158.091 109.834 158.127 109.717C158.163 109.6 158.244 109.502 158.352 109.444C158.46 109.386 158.587 109.373 158.705 109.407C158.824 109.442 158.924 109.521 158.984 109.628C159.674 110.612 160.442 111.537 161.282 112.396C162.083 113.262 162.82 114.08 163.236 114.658C163.652 115.235 164.037 115.837 163.708 116.262C163.38 116.687 162.731 116.647 162.107 116.511C161.482 116.374 160.097 115.235 157.991 113.374C157.431 112.877 156.758 112.275 156.214 111.826C157.043 113.229 158.025 114.534 159.144 115.717C160.033 116.519 160.393 117.513 160.041 118.195C159.958 118.39 159.818 118.556 159.639 118.67C159.461 118.785 159.252 118.843 159.04 118.837Z" fill="#263238"/>
<path d="M163.732 114.954C163.077 114.919 162.437 114.738 161.859 114.425C161.768 114.357 161.705 114.258 161.682 114.147C161.659 114.036 161.678 113.921 161.734 113.822C161.79 113.724 161.88 113.649 161.987 113.612C162.094 113.576 162.211 113.579 162.315 113.623C162.801 113.904 163.356 114.04 163.917 114.016L163.957 113.968C163.957 113.968 163.957 113.695 163.068 112.885C161.628 111.372 160.291 109.764 159.064 108.072C158.999 107.98 158.963 107.869 158.963 107.755C158.963 107.642 158.999 107.531 159.064 107.438C159.617 106.765 164.341 108.979 164.389 109.043C164.421 109.049 164.453 109.049 164.485 109.043C164.485 109.043 164.485 108.666 163.893 108.168C163.156 107.567 159.032 106.051 152.851 104.11L152.739 104.069C151.426 103.66 150.873 101.791 150.817 101.583C150.799 101.47 150.823 101.355 150.885 101.258C150.946 101.162 151.041 101.092 151.151 101.061C151.261 101.031 151.378 101.041 151.48 101.092C151.583 101.142 151.663 101.228 151.706 101.334C151.834 101.767 152.307 102.938 153.011 103.187H153.123C157.703 104.631 163.396 106.532 164.477 107.414C165.558 108.297 165.534 109.083 165.278 109.532C165.142 109.731 164.937 109.872 164.702 109.925C164.467 109.979 164.221 109.942 164.013 109.821C163.532 109.58 161.755 108.874 160.57 108.465C161.556 109.776 162.626 111.022 163.772 112.195C164.613 112.997 164.965 113.535 164.949 114.016C164.939 114.163 164.896 114.306 164.824 114.435C164.752 114.564 164.653 114.676 164.533 114.762C164.299 114.923 164.014 114.992 163.732 114.954Z" fill="#263238"/>
<path d="M90.2697 7.87713C90.2697 7.87713 84.5368 9.35306 83.7681 12.4974C82.9994 15.6418 83.7681 18.9146 86.2422 18.5857C88.7163 18.2568 91.9591 16.1071 94.121 16.2595C96.2828 16.4119 95.8264 17.2301 95.0498 18.6017C94.2731 19.9734 95.6663 22.2996 99.5336 21.2167C103.401 20.1338 103.537 18.1204 106.331 18.8905C109.126 19.6606 106.58 26.0135 107.228 26.9119C107.877 27.8103 108.029 29.0777 109.486 26.9119C110.943 24.7461 113.137 21.8023 115.451 22.5803C117.765 23.3584 113.289 27.8424 110.975 28.7729L108.653 29.7033C108.653 29.7033 107.725 36.2007 106.331 37.1311C106.331 37.1311 115.611 35.8958 119.142 32.6392C122.673 29.3825 119.607 29.4306 120.223 27.69C120.84 25.9493 124.395 25.8611 124.395 23.7515C124.395 21.6418 123.931 21.9547 120.688 20.4065C117.445 18.8584 118.366 18.0884 118.83 17.3103C119.295 16.5322 119.759 15.1445 117.133 14.3664C114.506 13.5884 108.325 11.7354 109.462 10.0349C110.599 8.33435 111.192 4.92526 107.204 5.22205C103.217 5.51884 99.4055 8.11777 97.1396 7.83702C94.8736 7.55627 92.7838 6.95467 90.2697 7.87713Z" fill="#263238"/>
<path d="M97.836 42.8904H97.7239L96.683 42.6578C93.9847 42.0642 88.3719 40.837 85.3773 38.7113C81.7182 36.1124 82.3827 29.6471 83.0393 27.5856C83.6959 25.5241 85.1771 18.5535 85.1932 18.4493C85.2053 18.388 85.2302 18.33 85.266 18.2789C85.3018 18.2278 85.3479 18.1847 85.4013 18.1525C85.4525 18.1181 85.5105 18.0952 85.5713 18.0855C85.6321 18.0758 85.6944 18.0795 85.7536 18.0963C85.8468 18.1049 85.9407 18.1049 86.0339 18.0963C86.0815 18.0719 86.133 18.0556 86.186 18.0482C87.402 17.8128 88.5851 17.4304 89.709 16.9092C91.3104 16.2514 92.8637 15.6257 94.1528 15.722C94.8654 15.7781 95.7542 15.9065 96.0425 16.5241C96.3307 17.1418 95.9704 17.8637 95.458 18.7701C95.3425 18.9931 95.2954 19.2453 95.3224 19.495C95.3495 19.7447 95.4496 19.9809 95.6101 20.1739C96.2506 20.976 97.6759 21.2086 99.4053 20.7193C100.579 20.3916 101.688 19.8682 102.688 19.1712C103.793 18.4573 104.658 17.8958 106.459 18.3691C108.685 18.9947 108.173 22.1792 107.805 24.5134C107.643 25.2015 107.578 25.909 107.612 26.615C107.732 26.7835 107.837 26.968 107.941 27.1445C108.022 27.3181 108.13 27.4778 108.261 27.6177C108.574 27.3201 108.843 26.9799 109.062 26.607C110.367 24.706 112.793 21.1685 115.563 22.099C115.834 22.1691 116.075 22.3263 116.249 22.5465C116.422 22.7667 116.519 23.0378 116.524 23.3183C116.58 25.1552 113.137 28.3477 111.103 29.1578L109.006 30.0001C108.725 31.1231 107.524 35.8236 106.7 37.3156L106.539 37.6204C106.027 38.6311 104.938 40.7487 102.88 41.8396C102.772 41.8964 102.645 41.9081 102.529 41.872C102.412 41.836 102.314 41.7552 102.256 41.6471C102.199 41.5373 102.187 41.4095 102.223 41.291C102.259 41.1725 102.34 41.0729 102.448 41.0134C104.258 40.0589 105.242 38.1257 105.715 37.1953L105.891 36.8664C106.74 35.3102 108.149 29.6471 108.165 29.5509C108.181 29.4794 108.215 29.413 108.262 29.3572C108.309 29.3013 108.369 29.2577 108.437 29.23L110.759 28.2995C112.545 27.5856 115.635 24.6017 115.563 23.3423C115.563 23.222 115.563 23.0776 115.235 22.9733C113.385 22.3557 111.528 24.5776 109.798 27.1364C109.086 28.1712 108.589 28.5562 108.109 28.5402C107.628 28.5241 107.308 28.0348 107.06 27.6017C106.972 27.4493 106.884 27.2888 106.78 27.1364C106.459 26.6872 106.571 25.8771 106.78 24.361C107.1 22.3798 107.532 19.6685 106.107 19.2675C104.682 18.8664 104.137 19.2675 103.089 19.9252C102.05 20.6889 100.892 21.2744 99.6616 21.6578C96.627 22.5081 95.3058 21.337 94.8574 20.7915C94.5853 20.4585 94.4179 20.052 94.3766 19.6236C94.3353 19.1952 94.4218 18.7642 94.6252 18.3851C94.9055 17.8798 95.2898 17.1979 95.1937 17.0215C95.1937 17.0215 95.0496 16.8049 94.0648 16.7327C93.0799 16.6605 91.4866 17.2621 90.0613 17.8557C88.8862 18.3852 87.6564 18.7833 86.3942 19.0429C86.2712 19.0883 86.1408 19.1101 86.0098 19.107C85.6656 20.7113 84.4805 26.1177 83.9201 27.8664C83.3596 29.615 82.719 35.6792 85.9138 37.9573C88.7482 39.9707 94.2409 41.1658 96.8752 41.7514L97.9401 41.984C97.9995 41.9982 98.0556 42.0239 98.1051 42.0598C98.1546 42.0957 98.1966 42.141 98.2286 42.1932C98.2606 42.2453 98.2819 42.3033 98.2915 42.3638C98.3011 42.4242 98.2987 42.486 98.2844 42.5455C98.2592 42.6451 98.2013 42.7333 98.1199 42.7959C98.0386 42.8585 97.9386 42.8918 97.836 42.8904Z" fill="#263238"/>
<path d="M84.2091 25.4198C84.1332 25.4212 84.0585 25.4018 83.9929 25.3637C82.9349 24.7479 82.0118 23.9247 81.2785 22.9434C80.5452 21.9622 80.017 20.8429 79.7252 19.6524C79.4848 18.9588 79.4848 18.2043 79.7252 17.5107C79.8484 17.3306 80.0194 17.1887 80.2189 17.1008C80.4184 17.0129 80.6384 16.9826 80.8542 17.0134C81.6549 17.0856 82.6958 17.8155 83.4324 19.5401C83.8489 20.6214 84.3861 21.652 85.0338 22.6123C85.1092 22.7102 85.1427 22.834 85.1269 22.9566C85.1111 23.0792 85.0474 23.1905 84.9497 23.2661C84.852 23.3416 84.7284 23.3752 84.606 23.3594C84.4836 23.3436 84.3725 23.2797 84.2971 23.1818C83.5848 22.1647 82.9962 21.066 82.5436 19.9091C81.9191 18.4252 81.1104 17.9679 80.7261 17.9359C80.5419 17.9359 80.4779 18 80.4618 18.0241C80.1976 18.6097 81.1344 22.8369 84.4012 24.5455C84.4917 24.5946 84.5634 24.6724 84.6049 24.7667C84.6465 24.861 84.6556 24.9664 84.6309 25.0665C84.6061 25.1665 84.5489 25.2555 84.4682 25.3195C84.3875 25.3834 84.2879 25.4187 84.185 25.4198H84.2091Z" fill="#263238"/>
<path d="M103.113 24.1363H102.873C102.673 24.1014 102.489 24.0056 102.346 23.8621C102.203 23.7185 102.107 23.5342 102.072 23.3342C101.944 22.7887 100.791 22.0107 100.006 21.6337C99.9509 21.6071 99.9012 21.5698 99.8602 21.5238C99.8193 21.4779 99.7878 21.4243 99.7677 21.3661C99.7476 21.3079 99.7393 21.2463 99.7431 21.1848C99.7469 21.1233 99.7629 21.0632 99.7901 21.008C99.8158 20.9527 99.8523 20.9031 99.8974 20.8622C99.9426 20.8212 99.9954 20.7897 100.053 20.7695C100.11 20.7494 100.171 20.7409 100.232 20.7447C100.293 20.7484 100.352 20.7643 100.407 20.7914C100.791 20.9759 102.705 21.9625 102.977 23.1256C102.977 23.1978 102.977 23.1978 103.041 23.2059C103.142 23.2091 103.242 23.1874 103.333 23.1427C103.424 23.0979 103.502 23.0314 103.561 22.9492C103.613 22.8734 103.64 22.784 103.64 22.6925C103.64 22.601 103.613 22.5115 103.561 22.4358C102.953 21.3048 102.537 20.6711 102.024 20.5347C101.961 20.5232 101.902 20.4989 101.849 20.4632C101.796 20.4276 101.75 20.3814 101.716 20.3275C101.682 20.2736 101.659 20.2132 101.649 20.15C101.639 20.0869 101.642 20.0223 101.658 19.9604C101.674 19.8985 101.703 19.8406 101.742 19.7903C101.781 19.7399 101.83 19.6982 101.887 19.6678C101.943 19.6374 102.005 19.6189 102.068 19.6135C102.132 19.6081 102.196 19.6158 102.256 19.6363C103.185 19.877 103.746 20.8075 104.378 22.0026C104.512 22.2359 104.574 22.504 104.555 22.7725C104.537 23.0411 104.439 23.2981 104.274 23.5107C104.139 23.6947 103.965 23.8463 103.764 23.9545C103.563 24.0627 103.341 24.1248 103.113 24.1363Z" fill="#263238"/>
<path d="M86.4744 20.9039C86.4239 20.9116 86.3726 20.9116 86.3222 20.9039C86.0824 20.8512 85.8605 20.7369 85.678 20.5724C85.4955 20.4079 85.3588 20.1987 85.2813 19.9654C85.2444 19.7313 85.2597 19.4919 85.3262 19.2644C85.3926 19.037 85.5086 18.8271 85.6657 18.6499C85.7537 18.5646 85.8714 18.5169 85.9939 18.5169C86.1164 18.5169 86.2341 18.5646 86.3222 18.6499C86.4068 18.7368 86.4542 18.8533 86.4542 18.9747C86.4542 19.0961 86.4068 19.2127 86.3222 19.2996C86.2422 19.3959 86.106 19.6285 86.1461 19.7568C86.1861 19.8852 86.2662 19.9173 86.4183 19.9894C87.2711 19.5993 88.1887 19.3709 89.1246 19.3156C89.2616 19.3104 89.3935 19.2629 89.5025 19.1796C89.6114 19.0963 89.692 18.9813 89.7331 18.8504C89.8537 18.5749 89.8763 18.2663 89.7972 17.9761C89.6919 17.9921 89.5843 17.9713 89.4925 17.9173C89.4006 17.8632 89.3301 17.7792 89.2928 17.6793C89.2502 17.5685 89.2522 17.4454 89.2986 17.3362C89.3449 17.2269 89.4318 17.1399 89.541 17.0937C89.6868 17.0323 89.8475 17.0155 90.0028 17.0455C90.1582 17.0755 90.3011 17.1509 90.4137 17.2622C90.6118 17.5299 90.7349 17.8459 90.7701 18.1774C90.8053 18.5088 90.7514 18.8437 90.6139 19.1472C90.512 19.4559 90.3188 19.7263 90.06 19.9226C89.8012 20.1189 89.4889 20.2317 89.1647 20.2461C88.2942 20.2981 87.4426 20.5217 86.6585 20.9039C86.5979 20.9177 86.535 20.9177 86.4744 20.9039Z" fill="#263238"/>
<path d="M87.635 23.671C87.1671 23.4773 86.6853 23.3191 86.1938 23.1978C85.9802 23.1406 85.7637 23.0951 85.5452 23.0614C85.297 23.0133 85.0328 22.9892 84.6885 22.8929C84.8705 22.6071 85.1382 22.3863 85.4533 22.2624C85.7683 22.1384 86.1144 22.1177 86.442 22.2031C86.7783 22.2745 87.08 22.4591 87.297 22.7262C87.5141 22.9932 87.6333 23.3266 87.635 23.671Z" fill="#263238"/>
<path d="M96.083 24.9547C96.3721 24.5638 96.7837 24.2813 97.252 24.1525C97.7236 24.0161 98.2217 23.9996 98.7013 24.1044C99.1746 24.2137 99.6142 24.4367 99.9824 24.7541C100.352 25.0594 100.63 25.4623 100.783 25.9172C100.327 25.7568 99.9824 25.5723 99.582 25.4359C99.2294 25.2945 98.865 25.1845 98.4931 25.1071C98.1257 25.0161 97.7502 24.9623 97.3721 24.9466C96.9397 24.9466 96.5314 24.9466 96.083 24.9547Z" fill="#263238"/>
<path d="M90.3421 30.4814H90.254C89.4326 30.3161 88.6285 30.0745 87.8519 29.7595C87.7084 29.6977 87.5806 29.6043 87.4781 29.4863C87.3755 29.3682 87.3008 29.2286 87.2594 29.0777C87.1852 28.5114 87.3282 27.938 87.6598 27.4734L89.9497 22.9574L90.0298 22.8451C90.1813 22.6667 90.3726 22.5265 90.5882 22.4359C90.8038 22.3453 91.0377 22.3069 91.2709 22.3237C91.5187 22.3748 91.7531 22.4776 91.9587 22.6255C92.1642 22.7734 92.3364 22.963 92.4639 23.1819C92.514 23.2752 92.5336 23.3818 92.52 23.4868C92.52 23.4868 91.9995 26.9039 91.9435 28.2996C91.9667 28.7729 91.8365 29.2411 91.5725 29.6343C91.3084 30.0274 90.9246 30.3246 90.4782 30.4814H90.3421ZM90.7184 23.4226L88.4364 27.9226C88.2396 28.1806 88.1327 28.4962 88.1322 28.821C88.1322 28.821 88.1322 28.8771 88.2202 28.9092C88.8923 29.1848 89.5895 29.3944 90.302 29.5349C90.5269 29.4088 90.7111 29.2211 90.8331 28.9937C90.9551 28.7664 91.0097 28.5089 90.9906 28.2515C91.0467 26.9681 91.439 24.2408 91.5511 23.5108C91.4472 23.372 91.3011 23.2707 91.1348 23.2221C91.0547 23.2259 90.9763 23.2465 90.9046 23.2824C90.8329 23.3183 90.7695 23.3688 90.7184 23.4306V23.4226Z" fill="#263238"/>
<path d="M84.6892 24.9305C84.8697 24.8715 85.0606 24.851 85.2495 24.8703C85.4384 24.8897 85.6212 24.9484 85.7861 25.0428C86.2953 25.3233 86.7019 25.7593 86.9468 26.2873C87.1916 26.8153 87.2618 27.4078 87.1473 27.9786C86.8911 28.6363 86.0584 27.8904 84.8573 27.4171C84.465 27.2647 84.425 27.4171 84.0566 27.2887L84.6892 24.9305Z" fill="#263238"/>
<path d="M94.1767 29.4144C94.0405 30.2165 95.5218 30.024 97.2593 30.3047C98.9968 30.5855 100.318 31.2673 100.462 30.4331C100.606 29.5989 99.4852 27.5454 97.7557 27.2646C96.0262 26.9839 94.3128 28.5801 94.1767 29.4144Z" fill="#263238"/>
<path d="M89.8457 33.9867C90.8946 33.6659 91.7834 33.5054 92.6321 33.2407C93.0578 33.1186 93.4751 32.9685 93.8812 32.7915C94.3056 32.6231 94.6819 32.3825 95.2103 32.1338C95.104 32.686 94.8233 33.1894 94.4096 33.5696C93.9974 33.9448 93.5041 34.2193 92.9684 34.3718C92.4488 34.5224 91.9046 34.5687 91.367 34.5081C90.8239 34.4667 90.3003 34.2873 89.8457 33.9867Z" fill="#263238"/>
<path d="M110.199 72.7939C110.199 77.2377 108.341 80.8152 101.687 80.8152C96.9954 80.8152 94.1689 77.2217 94.1689 72.7939C94.1689 68.366 96.0586 64.7725 101.687 64.7725C107.316 64.7725 110.199 68.358 110.199 72.7939Z" fill="#E8E8E8"/>
<path d="M100.887 73.797H100.735C100.479 73.797 99.9903 73.7969 99.8462 73.3558C99.702 72.9146 100.03 72.706 100.255 72.5536C100.368 72.4624 100.473 72.3603 100.567 72.2488L100.495 72.2007C99.8942 71.7836 95.8747 71.9119 92.3357 72.2809C92.2751 72.2887 92.2135 72.2842 92.1547 72.2678C92.0958 72.2513 92.0409 72.2231 91.9931 72.185C91.9453 72.1468 91.9056 72.0995 91.8765 72.0457C91.8473 71.9919 91.8292 71.9327 91.8233 71.8718C91.812 71.7487 91.8493 71.6261 91.9271 71.5302C92.0049 71.4342 92.117 71.3726 92.2396 71.3584C93.4967 71.2301 99.8381 70.6124 101.047 71.4387C101.187 71.522 101.303 71.6391 101.386 71.7793C101.468 71.9194 101.514 72.0781 101.52 72.2408C101.523 72.3675 101.502 72.4937 101.456 72.6121C101.411 72.7305 101.343 72.8388 101.255 72.9306C101.64 72.9306 102.168 72.8424 102.777 72.7702C105.459 72.4494 109.983 71.9119 113.906 72.9627C114.022 72.9975 114.119 73.0761 114.178 73.1817C114.237 73.2874 114.253 73.4118 114.221 73.5287C114.19 73.6456 114.115 73.7456 114.011 73.8077C113.907 73.8698 113.784 73.8889 113.666 73.8611C109.879 72.8584 105.507 73.3798 102.889 73.6927C101.976 73.7087 101.311 73.797 100.887 73.797Z" fill="#263238"/>
<path d="M36.1597 19.508C36.0692 19.5086 35.9805 19.4823 35.9049 19.4323C35.8293 19.3823 35.7703 19.3109 35.7354 19.2272C35.3954 18.091 35.2386 16.9076 35.271 15.7219L34.174 11.8556C34.1546 11.7798 34.1542 11.7005 34.1729 11.6245C34.1916 11.5486 34.2288 11.4785 34.2812 11.4205C34.3335 11.3625 34.3994 11.3184 34.4729 11.2921C34.5464 11.2659 34.6253 11.2583 34.7025 11.27L38.5778 11.9518C38.77 11.9518 39.6988 12.2566 39.8669 14.3582C39.9439 15.2488 40.2471 16.1049 40.7477 16.8449C40.7805 16.8965 40.8024 16.9543 40.8121 17.0148C40.8218 17.0752 40.8191 17.137 40.8041 17.1963C40.7891 17.2557 40.7621 17.3113 40.7249 17.3599C40.6877 17.4084 40.6409 17.4488 40.5875 17.4786C40.5357 17.5103 40.478 17.5314 40.4179 17.5405C40.3578 17.5496 40.2965 17.5466 40.2376 17.5316C40.1786 17.5167 40.1233 17.4901 40.0748 17.4534C40.0262 17.4168 39.9855 17.3708 39.955 17.3181C39.3791 16.4601 39.0319 15.4688 38.9461 14.4385C38.834 13.0508 38.3856 12.8342 38.3776 12.8342L35.271 12.2887L36.1837 15.4973C36.1876 15.5427 36.1876 15.5883 36.1837 15.6336C36.148 16.7165 36.2776 17.7985 36.5681 18.8422C36.6164 18.955 36.6183 19.0824 36.5733 19.1966C36.5283 19.3108 36.4401 19.4025 36.3279 19.4518C36.2756 19.4805 36.2187 19.4995 36.1597 19.508Z" fill="#263238"/>
<path d="M53.1654 28.1794C53.0807 28.183 52.9969 28.1606 52.9252 28.1152C51.8683 27.4895 42.5643 21.8906 41.3152 19.5804C41.2738 19.5085 41.252 19.4269 41.252 19.3438C41.252 19.2607 41.2738 19.1791 41.3152 19.1072C41.5746 18.6378 41.7302 18.118 41.7716 17.5831C41.7769 17.522 41.7941 17.4626 41.8223 17.4081C41.8505 17.3537 41.8891 17.3054 41.936 17.2659C41.9828 17.2264 42.0369 17.1966 42.0953 17.178C42.1537 17.1595 42.2151 17.1527 42.2761 17.158C42.3371 17.1632 42.3964 17.1805 42.4507 17.2087C42.5051 17.237 42.5533 17.2757 42.5927 17.3226C42.6321 17.3695 42.6619 17.4238 42.6804 17.4822C42.6989 17.5407 42.7057 17.6022 42.7004 17.6633C42.6454 18.2442 42.491 18.8113 42.244 19.3398C43.6052 21.2409 50.6753 25.7008 53.3816 27.3612C53.435 27.391 53.4817 27.4314 53.519 27.4799C53.5562 27.5284 53.5832 27.5841 53.5982 27.6434C53.6132 27.7028 53.6159 27.7645 53.6062 27.825C53.5965 27.8854 53.5746 27.9432 53.5417 27.9949C53.4978 28.053 53.4409 28.1 53.3755 28.1321C53.3102 28.1641 53.2382 28.1803 53.1654 28.1794Z" fill="#263238"/>
<path d="M100.263 187.203C100.263 187.203 99.8225 180.417 99.4622 180.088C99.1019 179.759 94.4979 180.385 93.5531 179.912C92.6083 179.439 92.0879 182.029 91.4793 182.318C90.8708 182.607 89.5897 181.372 90.4625 179.759C91.3352 178.147 87.7481 175.251 86.8514 175.324C85.9546 175.396 80.2377 177.73 75.8179 178.003C71.3981 178.275 67.8831 177.441 66.6661 178.083C65.449 178.725 64.32 179.447 66.0175 181.404C67.715 183.361 71.6223 187.235 76.8108 187.283C81.9992 187.332 83.2163 186.481 83.8568 185.727C84.4974 184.973 85.4582 183.602 86.1548 185.005C86.8514 186.409 86.8674 188.31 88.0764 188.671C89.2855 189.032 97.5646 190.957 100.263 187.203Z" fill="#263238"/>
<path d="M92.5276 194.118C91.3154 194.127 90.1062 193.995 88.9245 193.725C87.258 193.26 85.7244 192.408 84.4487 191.238C84.1444 190.989 83.8402 190.741 83.5359 190.516C82.9594 190.091 81.5662 190.243 79.9648 190.42C77.8427 190.735 75.6873 190.757 73.5593 190.484C69.5641 189.694 65.9206 187.659 63.1504 184.668C61.6691 182.832 62.2776 181.219 63.0223 179.719C63.1949 179.256 63.5215 178.865 63.9471 178.614C64.3728 178.363 64.8717 178.266 65.3603 178.34C65.467 178.379 65.5556 178.456 65.6092 178.557C65.6628 178.658 65.6777 178.774 65.651 178.885C65.6243 178.996 65.558 179.093 65.4646 179.158C65.3711 179.223 65.2571 179.252 65.1441 179.238C65.064 179.238 64.3434 179.11 63.847 180.136C63.1664 181.508 62.734 182.671 63.847 184.083C66.4837 186.893 69.9288 188.811 73.7035 189.57C75.7472 189.822 77.8155 189.798 79.8527 189.497C81.7183 189.289 83.1996 189.128 84.0643 189.77C84.3846 190.003 84.6969 190.259 85.0172 190.516C86.1869 191.602 87.5975 192.394 89.1327 192.826C91.6469 193.452 95.7544 193.324 98.2685 192.024C100.599 190.821 100.975 189.698 99.8699 187.412C99.8478 187.311 99.8596 187.206 99.9035 187.113C99.9474 187.02 100.021 186.944 100.112 186.897C100.204 186.85 100.308 186.835 100.409 186.855C100.51 186.874 100.602 186.926 100.671 187.003C102.032 189.73 101.471 191.423 98.7009 192.842C96.7665 193.732 94.6554 194.168 92.5276 194.118Z" fill="#263238"/>
<path d="M88.5159 178.524C88.4305 178.524 88.3467 178.501 88.2744 178.455C88.202 178.41 88.1442 178.344 88.1076 178.267C88.0798 178.215 88.0628 178.157 88.0575 178.098C88.0521 178.039 88.0586 177.979 88.0765 177.922C88.0944 177.865 88.1233 177.813 88.1616 177.767C88.1999 177.722 88.2469 177.685 88.2997 177.658C88.3638 177.609 90.4536 176.182 92.7355 166.781C92.7434 166.715 92.7649 166.653 92.7987 166.596C92.8325 166.54 92.8778 166.492 92.9316 166.454C92.9854 166.417 93.0466 166.391 93.111 166.379C93.1755 166.367 93.2417 166.368 93.3055 166.384C93.3692 166.399 93.4289 166.428 93.4808 166.468C93.5326 166.508 93.5754 166.559 93.6063 166.617C93.6372 166.675 93.6554 166.739 93.6599 166.804C93.6644 166.87 93.655 166.936 93.6323 166.997C91.2302 176.976 88.9723 178.355 88.7241 178.476C88.6594 178.508 88.5881 178.524 88.5159 178.524Z" fill="#263238"/>
<path d="M97.9243 181.765C97.8073 181.765 97.6947 181.72 97.6098 181.639C97.5248 181.559 97.474 181.449 97.4679 181.332C97.2437 177.834 101.856 168.144 102.056 167.735C102.124 167.66 102.215 167.609 102.315 167.59C102.414 167.571 102.518 167.585 102.608 167.631C102.699 167.676 102.773 167.75 102.818 167.842C102.862 167.933 102.876 168.037 102.857 168.136C102.808 168.233 98.1565 178.019 98.3566 181.267C98.361 181.329 98.3532 181.39 98.3338 181.448C98.3145 181.506 98.2838 181.56 98.2436 181.606C98.2034 181.652 98.1545 181.69 98.0997 181.717C98.0449 181.745 97.9853 181.761 97.9243 181.765Z" fill="#263238"/>
<path d="M101.544 168.449C98.5013 168.449 93.0326 166.845 90.4143 165.297C87.676 163.692 88.5087 157.773 89.2373 152.543C89.3254 151.901 89.4135 151.267 89.4936 150.666C89.8138 148.179 89.7338 143.398 89.6457 138.77C89.5496 133.307 89.4615 128.142 89.966 126C90.8948 121.989 98.9417 107.23 99.286 106.604C99.3136 106.55 99.3521 106.502 99.399 106.463C99.4458 106.424 99.5002 106.395 99.5586 106.377C99.6171 106.36 99.6784 106.355 99.7389 106.362C99.7994 106.369 99.8578 106.389 99.9105 106.42C99.964 106.448 100.011 106.487 100.05 106.534C100.088 106.581 100.116 106.636 100.134 106.694C100.151 106.752 100.156 106.813 100.149 106.873C100.143 106.934 100.124 106.992 100.095 107.045C100.015 107.198 91.7675 122.366 90.8627 126.208C90.3903 128.238 90.4864 133.588 90.5745 138.754C90.6546 143.414 90.7426 148.235 90.4143 150.786C90.3343 151.396 90.2462 152.029 90.1501 152.671C89.5016 157.364 88.6849 163.211 90.8787 164.495C93.6091 166.099 100.023 167.888 102.385 167.454C103.546 167.246 107.485 166.107 109.687 160.315C111.48 155.607 111.977 140.029 111.977 138.409C111.665 137.465 111.22 136.571 110.656 135.754C109.543 133.877 109.054 132.954 109.503 132.433C109.951 131.912 110.536 132.305 110.776 132.433C111.782 132.939 112.721 133.57 113.57 134.31L114.115 134.735C114.115 134.735 114.115 134.647 114.115 134.599C113.915 133.869 113.69 133.219 113.506 132.698C113.122 131.567 112.906 130.941 113.266 130.524C113.386 130.408 113.534 130.326 113.696 130.288C113.859 130.25 114.028 130.257 114.187 130.307C115.404 130.548 116.068 130.46 116.589 129.97C117.213 129.297 128.207 111.521 128.983 107.671C129.864 103.404 129.784 98.6549 128.815 97.0988C127.678 95.2779 126.301 93.433 126.285 93.417C126.212 93.318 126.181 93.194 126.199 93.0722C126.217 92.9504 126.283 92.8408 126.381 92.7672C126.429 92.7295 126.484 92.7019 126.543 92.6859C126.602 92.6699 126.664 92.6659 126.724 92.6741C126.785 92.6823 126.843 92.7026 126.895 92.7338C126.948 92.7649 126.994 92.8063 127.03 92.8555C127.03 92.8555 128.447 94.7485 129.6 96.6015C130.873 98.6469 130.705 103.925 129.896 107.831C129.088 111.738 117.862 129.946 117.173 130.636C116.277 131.535 115.116 131.438 113.971 131.23C114.065 131.628 114.186 132.019 114.331 132.401C114.515 132.938 114.747 133.604 114.955 134.366C115.116 134.968 115.236 135.577 114.811 135.85C114.387 136.123 113.858 135.762 112.97 135.048C112.178 134.357 111.304 133.767 110.367 133.291H110.319C110.646 133.997 111.018 134.68 111.432 135.337C112.329 136.861 112.882 137.831 112.882 138.465C112.882 138.626 112.521 155.47 110.536 160.7C108.134 166.949 103.81 168.192 102.529 168.425C102.202 168.463 101.872 168.471 101.544 168.449Z" fill="#263238"/>
<path d="M143.659 153.81C143.251 153.81 142.859 153.81 142.546 153.762C140.625 153.618 133.947 151.42 128.054 149.487C124.515 148.323 121.176 147.224 119.511 146.783C116.618 145.94 114.035 144.267 112.08 141.97C112.034 141.924 111.998 141.869 111.974 141.808C111.951 141.746 111.941 141.681 111.944 141.616C111.948 141.55 111.965 141.486 111.995 141.428C112.025 141.37 112.067 141.318 112.118 141.277C112.169 141.236 112.228 141.207 112.291 141.19C112.355 141.174 112.421 141.171 112.485 141.182C112.55 141.193 112.611 141.217 112.665 141.254C112.72 141.29 112.766 141.337 112.801 141.393C114.644 143.516 117.051 145.071 119.743 145.877C121.44 146.326 124.795 147.425 128.342 148.596C133.899 150.417 140.809 152.695 142.618 152.831C145.325 153.04 149.913 152.462 151.426 150.024C152.939 147.585 153.18 141.642 152.763 140.182L152.707 139.981C152.211 138.224 151.05 134.093 147.262 132.834C142.522 131.23 134.251 128.976 133.371 129.128C133.186 129.128 132.986 129.626 132.866 129.89C132.682 130.307 132.49 130.733 132.065 130.741C131.641 130.749 131.361 130.251 131.265 130.043C131.097 129.706 130.928 129.313 130.76 128.904C130.504 128.286 129.96 127.003 129.663 126.93C129.282 127.283 128.936 127.673 128.63 128.093C127.894 129.04 127.397 129.698 126.837 129.465C126.276 129.232 126.34 128.663 126.34 128.438C126.357 127.877 126.426 127.318 126.549 126.77C126.805 125.47 126.813 125.021 125.948 124.692C123.898 123.89 123.442 120.513 123.442 119.27C123.442 119.147 123.491 119.028 123.578 118.941C123.665 118.854 123.783 118.805 123.906 118.805C124.03 118.805 124.148 118.854 124.235 118.941C124.322 119.028 124.371 119.147 124.371 119.27C124.371 120.072 124.699 123.232 126.276 123.826C127.854 124.42 127.686 125.775 127.461 126.946C127.376 127.407 127.325 127.874 127.309 128.342C127.509 128.118 127.75 127.805 127.934 127.54C128.274 127.057 128.669 126.616 129.111 126.224C129.223 126.137 129.353 126.075 129.491 126.045C129.63 126.014 129.773 126.015 129.912 126.048C130.648 126.249 131.097 127.323 131.617 128.559C131.761 128.904 131.905 129.249 132.041 129.545C132.258 129.064 132.554 128.414 133.178 128.254C134.363 127.965 144.46 130.941 147.591 131.984C151.834 133.404 153.14 138.024 153.628 139.765L153.684 139.957C154.164 141.626 153.988 147.802 152.243 150.553C150.585 153.144 146.382 153.81 143.659 153.81Z" fill="#263238"/>
<path d="M205.545 184.163C205.383 184.175 205.219 184.175 205.057 184.163C204.935 184.145 204.825 184.079 204.751 183.98C204.678 183.881 204.646 183.756 204.664 183.634C204.682 183.512 204.748 183.401 204.847 183.328C204.946 183.254 205.071 183.223 205.193 183.241C205.257 183.241 210.798 183.915 215.674 174.562C219.877 166.54 220.078 164.134 220.014 163.524C219.861 163.637 219.661 163.821 219.477 163.99C219.002 164.476 218.443 164.873 217.828 165.161C216.907 165.53 206.97 173.984 204.937 182.888C204.923 182.947 204.899 183.003 204.864 183.053C204.829 183.102 204.784 183.144 204.733 183.176C204.681 183.208 204.624 183.23 204.564 183.24C204.504 183.249 204.443 183.247 204.384 183.233C204.324 183.22 204.268 183.196 204.217 183.162C204.167 183.127 204.124 183.082 204.091 183.031C204.058 182.979 204.036 182.921 204.026 182.861C204.016 182.801 204.018 182.739 204.032 182.679C206.162 173.358 216.394 164.735 217.483 164.294C217.994 164.052 218.455 163.717 218.845 163.308C219.155 162.937 219.563 162.659 220.022 162.506C220.154 162.477 220.291 162.489 220.417 162.539C220.542 162.589 220.65 162.675 220.726 162.786C221.831 164.262 218.548 171.056 216.491 174.971C212.047 183.441 207.098 184.163 205.545 184.163Z" fill="#263238"/>
<path d="M206.25 183.072C206.182 183.071 206.116 183.056 206.055 183.027C205.994 182.998 205.94 182.956 205.897 182.904C205.858 182.857 205.828 182.803 205.809 182.744C205.79 182.686 205.784 182.624 205.789 182.563C205.794 182.502 205.811 182.442 205.839 182.388C205.868 182.334 205.906 182.285 205.953 182.246C206.017 182.198 212.287 176.864 215.001 171.088C215.057 170.982 215.151 170.902 215.264 170.864C215.377 170.826 215.501 170.832 215.609 170.883C215.717 170.934 215.801 171.024 215.845 171.135C215.888 171.247 215.887 171.371 215.842 171.481C213.04 177.449 206.818 182.711 206.554 182.96C206.469 183.032 206.361 183.072 206.25 183.072Z" fill="#263238"/>
<path d="M205.153 171.866H205.113C205.052 171.862 204.993 171.846 204.938 171.819C204.884 171.791 204.836 171.753 204.796 171.707C204.756 171.661 204.727 171.607 204.708 171.549C204.69 171.491 204.683 171.43 204.688 171.369C205.321 163.741 209.036 155.872 215.73 147.995C216.01 147.658 216.202 147.433 216.282 147.321C216.444 147.062 216.591 146.794 216.723 146.519C217.267 145.492 217.708 144.69 218.324 144.866C218.941 145.043 219.125 145.668 218.957 148.877C218.62 155.294 214.257 167.711 214.072 168.233C214.057 168.296 214.029 168.355 213.99 168.407C213.95 168.458 213.9 168.501 213.843 168.532C213.786 168.563 213.724 168.582 213.659 168.587C213.594 168.592 213.529 168.584 213.468 168.563C213.407 168.541 213.351 168.507 213.303 168.463C213.256 168.419 213.219 168.365 213.193 168.305C213.168 168.245 213.156 168.181 213.157 168.116C213.158 168.051 213.172 167.987 213.2 167.928C213.248 167.799 217.708 155.134 218.004 148.829C218.077 147.908 218.077 146.982 218.004 146.061C217.836 146.326 217.635 146.703 217.507 146.944C217.379 147.184 217.155 147.61 217.011 147.818C216.867 148.027 216.707 148.195 216.394 148.564C209.829 156.297 206.194 163.981 205.577 171.409C205.576 171.524 205.531 171.635 205.453 171.72C205.374 171.804 205.268 171.856 205.153 171.866Z" fill="#263238"/>
<path d="M205.385 176.471H205.257C205.139 176.435 205.04 176.355 204.982 176.246C204.923 176.138 204.91 176.011 204.945 175.893C207.643 166.636 213.937 155.037 214.001 154.893C214.029 154.839 214.068 154.792 214.115 154.754C214.162 154.715 214.216 154.687 214.274 154.67C214.332 154.652 214.393 154.647 214.454 154.654C214.514 154.66 214.572 154.679 214.625 154.709C214.679 154.737 214.726 154.776 214.764 154.823C214.803 154.87 214.831 154.924 214.848 154.983C214.865 155.041 214.871 155.102 214.864 155.162C214.857 155.223 214.839 155.281 214.809 155.334C214.745 155.454 208.508 166.997 205.834 176.19C205.797 176.277 205.734 176.352 205.654 176.402C205.574 176.452 205.48 176.476 205.385 176.471Z" fill="#263238"/>
<path d="M202.574 183.225C202.455 183.226 202.34 183.18 202.254 183.096C201.934 182.792 194.439 175.436 195.312 166.252C196.073 158.23 198.018 150.682 199.556 149.695C199.658 149.621 199.777 149.572 199.902 149.552C200.028 149.533 200.156 149.543 200.276 149.583C201.197 149.904 201.389 151.26 201.629 152.984C201.761 154.355 202.067 155.703 202.542 156.995C203.831 160.035 206.946 173.96 205.272 181.5C205.239 181.613 205.164 181.71 205.063 181.77C204.962 181.83 204.841 181.849 204.727 181.823C204.612 181.798 204.511 181.73 204.444 181.632C204.377 181.535 204.35 181.416 204.368 181.3C205.969 173.944 202.95 160.332 201.685 157.356C201.182 155.997 200.854 154.579 200.709 153.137C200.556 152.07 200.372 150.73 200.028 150.514C199.163 151.059 197.081 157.444 196.233 166.364C195.432 175.075 202.822 182.35 202.894 182.407C202.966 182.469 203.017 182.552 203.039 182.644C203.061 182.737 203.054 182.834 203.019 182.922C202.984 183.01 202.922 183.085 202.842 183.136C202.763 183.188 202.669 183.213 202.574 183.209V183.225Z" fill="#263238"/>
<path d="M203.215 182.126C203.126 182.125 203.039 182.099 202.964 182.051C202.889 182.002 202.829 181.934 202.791 181.853C198.787 172.981 198.139 160.524 198.139 160.404C198.135 160.343 198.142 160.282 198.162 160.224C198.181 160.167 198.212 160.114 198.252 160.068C198.293 160.022 198.342 159.985 198.396 159.959C198.451 159.933 198.511 159.917 198.571 159.914C198.691 159.912 198.807 159.957 198.894 160.04C198.98 160.122 199.031 160.236 199.036 160.356C199.036 160.476 199.716 172.765 203.616 181.476C203.664 181.588 203.667 181.714 203.624 181.828C203.581 181.942 203.494 182.035 203.383 182.085C203.331 182.11 203.273 182.124 203.215 182.126Z" fill="#263238"/>
<path d="M202.67 159.168C202.552 159.169 202.439 159.124 202.353 159.044C202.266 158.963 202.214 158.853 202.206 158.735C201.493 146.495 206.561 135.93 208.996 130.861C209.442 129.985 209.84 129.085 210.189 128.166C210.725 126.361 211.414 126.056 211.886 126.12C212.583 126.209 213.527 127.059 213.696 133.275C213.912 141.12 211.63 154.837 211.614 154.933C211.604 154.994 211.582 155.052 211.55 155.104C211.517 155.156 211.475 155.201 211.425 155.237C211.375 155.273 211.319 155.298 211.259 155.312C211.2 155.326 211.138 155.328 211.077 155.318C211.017 155.308 210.959 155.286 210.907 155.254C210.855 155.221 210.81 155.179 210.774 155.129C210.738 155.079 210.713 155.023 210.699 154.963C210.685 154.903 210.683 154.841 210.693 154.781C210.693 154.644 212.975 141.008 212.767 133.259C212.615 127.476 211.758 127.003 211.75 126.995C211.415 127.398 211.184 127.877 211.077 128.39C210.718 129.358 210.301 130.304 209.828 131.222C207.426 136.227 202.438 146.639 203.134 158.639C203.138 158.7 203.129 158.761 203.109 158.819C203.088 158.877 203.057 158.93 203.016 158.975C202.975 159.021 202.925 159.058 202.87 159.084C202.815 159.11 202.755 159.125 202.694 159.128L202.67 159.168Z" fill="#263238"/>
<path d="M204.976 169.885C204.861 169.884 204.751 169.841 204.665 169.764C204.58 169.687 204.525 169.582 204.512 169.468C204.359 168.08 204.856 165.963 205.769 162.112C206.225 160.171 206.785 157.757 207.426 154.773C208.764 147.876 209.75 140.915 210.381 133.917C210.395 133.795 210.455 133.683 210.548 133.604C210.642 133.525 210.763 133.485 210.885 133.492C210.946 133.497 211.005 133.514 211.059 133.542C211.113 133.571 211.161 133.61 211.2 133.657C211.238 133.704 211.267 133.758 211.285 133.817C211.302 133.875 211.308 133.937 211.301 133.997C210.67 141.032 209.681 148.031 208.339 154.965C207.69 157.957 207.122 160.372 206.665 162.313C205.785 166.067 205.296 168.128 205.432 169.364C205.446 169.486 205.41 169.609 205.334 169.705C205.257 169.801 205.146 169.863 205.024 169.877L204.976 169.885Z" fill="#263238"/>
<path d="M212.119 186.489C212.019 186.489 211.922 186.457 211.841 186.398C211.761 186.339 211.701 186.256 211.67 186.161C211.636 186.042 211.649 185.915 211.708 185.807C211.766 185.699 211.865 185.618 211.983 185.583L212.928 185.286C212.882 185.261 212.839 185.232 212.799 185.198C212.709 185.114 212.643 185.007 212.609 184.888C212.575 184.769 212.575 184.643 212.607 184.524C212.766 184.045 213.001 183.596 213.304 183.193L213.408 183.04C211.67 183.698 209.26 184.412 207.603 183.69C207.547 183.666 207.496 183.632 207.453 183.588C207.41 183.545 207.376 183.493 207.353 183.437C207.33 183.38 207.318 183.319 207.318 183.258C207.319 183.197 207.331 183.137 207.355 183.08C207.406 182.967 207.499 182.879 207.614 182.834C207.729 182.789 207.858 182.791 207.971 182.84C209.573 183.53 212.343 182.455 213.264 182.102C213.592 181.973 214.193 181.741 214.513 182.15C214.833 182.559 214.513 183.04 214.081 183.706C213.928 183.931 213.76 184.187 213.64 184.412C213.904 184.348 214.265 184.235 214.553 184.147C215.325 183.863 216.134 183.69 216.955 183.634C217.467 183.634 217.62 183.882 217.644 184.091C217.708 184.524 217.756 184.805 212.263 186.497L212.119 186.489Z" fill="#263238"/>
<path d="M201.053 182.952C200.977 182.953 200.902 182.934 200.837 182.896C199.572 182.202 198.421 181.318 197.426 180.273C196.665 179.471 196.105 179.254 195.824 179.326C195.773 179.347 195.728 179.383 195.695 179.428C195.663 179.474 195.644 179.527 195.64 179.583C195.627 179.703 195.581 179.818 195.508 179.914C195.434 180.01 195.336 180.084 195.224 180.129C194.783 180.297 194.351 179.944 193.847 179.535L193.718 179.439C193.718 179.495 193.718 179.551 193.718 179.599C193.799 180.538 193.927 181.949 192.918 182.415C192.862 182.44 192.802 182.454 192.741 182.456C192.68 182.458 192.619 182.448 192.561 182.426C192.504 182.405 192.452 182.372 192.407 182.33C192.362 182.288 192.326 182.238 192.301 182.182C192.276 182.126 192.262 182.066 192.26 182.005C192.258 181.943 192.268 181.882 192.29 181.825C192.311 181.768 192.344 181.715 192.386 181.67C192.428 181.626 192.478 181.59 192.533 181.564C192.942 181.38 192.846 180.313 192.79 179.679C192.734 179.046 192.694 178.532 193.078 178.316C193.462 178.099 193.919 178.42 194.415 178.813L194.799 179.118C194.866 178.955 194.968 178.809 195.099 178.692C195.229 178.574 195.384 178.486 195.552 178.436C195.96 178.316 196.825 178.316 198.058 179.639C198.984 180.594 200.048 181.405 201.213 182.046C201.268 182.074 201.317 182.112 201.357 182.159C201.397 182.207 201.427 182.261 201.446 182.32C201.465 182.379 201.471 182.441 201.466 182.503C201.46 182.565 201.442 182.625 201.413 182.679C201.381 182.751 201.33 182.814 201.268 182.862C201.205 182.909 201.131 182.94 201.053 182.952Z" fill="#263238"/>
<path d="M40.4507 182.382C39.6231 182.382 38.7966 182.326 37.9766 182.214C34.3414 181.725 29.0409 179.807 24.461 173.679C16.8624 163.468 16.5662 155.158 16.4541 151.604C16.4541 151.067 16.4541 150.65 16.382 150.345C16.1818 148.741 16.382 146.847 17.3188 146.454C17.559 146.342 18.0475 146.262 18.5679 146.896C18.905 147.366 19.1046 147.922 19.1444 148.5C19.3125 149.527 19.5047 150.698 21.7706 152.021C26.5107 154.773 42.3003 164.928 46.672 180.008C46.6955 180.068 46.7061 180.133 46.7033 180.197C46.7005 180.262 46.6842 180.325 46.6556 180.383C46.627 180.441 46.5866 180.492 46.5371 180.534C46.4876 180.575 46.43 180.606 46.368 180.624C46.306 180.642 46.2409 180.647 46.1769 180.638C46.113 180.629 46.0515 180.607 45.9965 180.573C45.9415 180.54 45.8941 180.495 45.8574 180.442C45.8207 180.388 45.7954 180.328 45.7833 180.265C41.5076 165.521 25.9663 155.535 21.3062 152.823C18.656 151.283 18.4078 149.759 18.2316 148.652C18.2074 148.246 18.0777 147.854 17.8553 147.513C17.8017 147.436 17.7303 147.373 17.6471 147.329C17.495 147.425 17.0786 148.468 17.3028 150.257C17.3028 150.577 17.3589 151.059 17.3829 151.596C17.503 155.061 17.7912 163.171 25.2136 173.15C29.5854 179.037 34.6137 180.834 38.0646 181.315C40.2458 181.638 42.4698 181.507 44.5982 180.93C44.715 180.892 44.8421 180.902 44.9517 180.958C45.0612 181.014 45.1443 181.11 45.1827 181.227C45.2027 181.285 45.2107 181.346 45.2065 181.407C45.2024 181.469 45.186 181.528 45.1583 181.583C45.1307 181.637 45.0924 181.686 45.0457 181.725C44.999 181.765 44.9449 181.795 44.8865 181.813C43.4444 182.223 41.9493 182.414 40.4507 182.382Z" fill="#263238"/>
<path d="M44.8391 180.746H44.759C44.4628 180.69 37.3847 179.423 29.7541 172.604C25.0257 168.22 21.5864 162.622 19.8096 156.417C19.7954 156.358 19.7931 156.296 19.8027 156.236C19.8123 156.175 19.8337 156.117 19.8657 156.065C19.8976 156.013 19.9396 155.968 19.989 155.932C20.0385 155.896 20.0945 155.87 20.1539 155.856C20.2133 155.842 20.2749 155.839 20.3353 155.849C20.3956 155.858 20.4534 155.88 20.5055 155.912C20.5575 155.944 20.6027 155.986 20.6386 156.036C20.6744 156.085 20.7002 156.141 20.7144 156.201C22.4374 162.227 25.7773 167.665 30.3707 171.923C37.785 178.556 44.8471 179.832 44.9192 179.84C45.0391 179.863 45.1453 179.932 45.2155 180.032C45.2856 180.133 45.3143 180.256 45.2955 180.377C45.2748 180.483 45.2177 180.577 45.1343 180.645C45.0508 180.712 44.9463 180.748 44.8391 180.746Z" fill="#263238"/>
<path d="M49.371 180.586C49.2499 180.596 49.1296 180.558 49.0365 180.48C48.9434 180.402 48.8851 180.29 48.8745 180.168C48.8639 180.047 48.9018 179.927 48.9799 179.833C49.058 179.74 49.1698 179.682 49.2909 179.671C49.379 179.671 58.0984 177.834 58.4267 161.639C58.8271 143.775 55.224 135.217 52.9901 132.979C52.5257 132.505 52.1173 132.281 51.9171 132.361C51.0604 132.698 50.9883 136.636 50.9483 138.987C50.8843 142.131 49.3469 145.155 47.2812 149.35C46.5685 150.778 45.7679 152.398 44.9271 154.163C41.7964 160.909 43.4779 172.548 43.4939 172.66C43.5108 172.724 43.5141 172.79 43.5037 172.855C43.4933 172.919 43.4694 172.981 43.4335 173.036C43.3976 173.091 43.3505 173.137 43.2954 173.172C43.2403 173.208 43.1784 173.231 43.1137 173.241C43.049 173.25 42.983 173.246 42.9201 173.228C42.8571 173.211 42.7985 173.18 42.7483 173.138C42.698 173.096 42.6571 173.044 42.6283 172.985C42.5995 172.927 42.5834 172.862 42.5811 172.797C42.5091 172.315 40.8356 160.765 44.0864 153.77C44.8871 151.965 45.7438 150.345 46.4885 148.909C48.5222 144.826 49.9955 141.882 50.0515 138.947C50.1236 134.775 50.2757 132 51.6049 131.471C52.5096 131.11 53.3904 132.008 53.6786 132.273C56.7773 135.409 59.7399 145.701 59.3875 161.607C59.0032 178.612 49.8754 180.457 49.4911 180.529L49.371 180.586Z" fill="#263238"/>
<path d="M38.5535 184.725C35.8232 184.628 35.7271 184.147 35.679 183.923C35.631 183.698 35.8232 183.313 36.2956 183.12C36.9583 182.824 37.6881 182.71 38.4094 182.792C38.948 182.85 39.4928 182.798 40.0108 182.639C41.2358 182.262 41.428 181.797 41.428 181.797C41.4421 181.738 41.4675 181.683 41.503 181.635C41.5384 181.586 41.583 181.545 41.6344 181.513C41.6857 181.482 41.7427 181.461 41.8021 181.452C41.8615 181.443 41.9221 181.446 41.9805 181.46C42.1 181.492 42.2026 181.569 42.2668 181.675C42.3309 181.782 42.3517 181.908 42.3247 182.029C42.3247 182.182 42.0285 182.992 40.283 183.529C39.6531 183.72 38.9922 183.785 38.3373 183.722C37.9944 183.678 37.6473 183.678 37.3044 183.722C37.6808 183.77 38.1051 183.802 38.5615 183.818C38.6847 183.818 38.8028 183.867 38.8899 183.955C38.977 184.042 39.0259 184.16 39.0259 184.284C39.0259 184.407 38.977 184.525 38.8899 184.612C38.8028 184.7 38.6847 184.749 38.5615 184.749L38.5535 184.725Z" fill="#263238"/>
<path d="M52.589 182.086C52.5262 182.086 52.4639 182.073 52.4061 182.048C52.3483 182.023 52.2961 181.987 52.2528 181.941C52.1657 181.854 52.1168 181.736 52.1168 181.612C52.1168 181.489 52.1657 181.371 52.2528 181.284C52.546 181.015 52.814 180.719 53.0534 180.401L53.0054 180.449C52.6771 180.842 52.2047 181.428 51.5402 181.099C51.2798 180.942 51.053 180.735 50.873 180.49C50.693 180.245 50.5632 179.967 50.4913 179.671C50.4626 179.551 50.4828 179.424 50.5473 179.319C50.6119 179.214 50.7156 179.138 50.8355 179.11C50.9555 179.081 51.082 179.101 51.1871 179.166C51.2922 179.231 51.3674 179.334 51.396 179.455C51.4827 179.784 51.6881 180.07 51.9725 180.257C52.0687 180.105 52.1786 179.963 52.3008 179.832C52.6371 179.439 53.2056 178.773 53.9022 179.238C54.0008 179.306 54.083 179.396 54.1426 179.5C54.2022 179.604 54.2377 179.72 54.2465 179.84C54.2945 180.586 53.3337 181.564 52.9173 181.949C52.8284 182.034 52.7115 182.082 52.589 182.086Z" fill="#263238"/>
<path d="M49.3145 178.556C49.2538 178.568 49.1912 178.568 49.1304 178.556C49.0738 178.532 49.0227 178.496 48.9802 178.452C48.9376 178.407 48.9045 178.355 48.8828 178.297C48.8611 178.239 48.8513 178.178 48.8539 178.116C48.8566 178.055 48.8716 177.994 48.8982 177.938C53.3928 166.666 55.0802 154.467 53.8144 142.396C53.8008 142.273 53.8359 142.149 53.9123 142.051C53.9886 141.954 54.1001 141.89 54.2228 141.874C54.2834 141.867 54.3449 141.871 54.4038 141.887C54.4626 141.904 54.5176 141.932 54.5654 141.97C54.6132 142.008 54.6528 142.056 54.682 142.11C54.7112 142.163 54.7293 142.223 54.7352 142.283C57.0412 161.84 49.811 178.155 49.7389 178.324C49.6963 178.398 49.6342 178.459 49.5593 178.5C49.4845 178.541 49.3998 178.56 49.3145 178.556Z" fill="#263238"/>
<path d="M42.749 170.904C42.6634 170.905 42.5793 170.882 42.5058 170.838C42.4324 170.794 42.3724 170.731 42.3326 170.655C42.2765 170.535 36.2153 158.471 38.169 140.398C38.9545 132.542 40.769 124.823 43.5657 117.441C44.4945 114.866 45.103 113.166 44.9348 112.107C44.8468 111.561 44.1341 106.749 45.4553 106.155C45.7195 106.035 46.1519 106.019 46.6483 106.628C48.0415 108.345 52.2531 121.34 52.0049 132.064C52.0049 132.125 51.9929 132.186 51.9696 132.242C51.9462 132.299 51.912 132.35 51.8689 132.393C51.8258 132.436 51.7746 132.471 51.7182 132.494C51.6619 132.517 51.6015 132.529 51.5405 132.529C51.4795 132.529 51.4191 132.517 51.3628 132.494C51.3064 132.471 51.2552 132.436 51.2121 132.393C51.169 132.35 51.1348 132.299 51.1115 132.242C51.0881 132.186 51.0761 132.125 51.0761 132.064C51.3243 121.251 47.0006 108.553 45.9277 107.198L45.7996 107.061C45.5594 107.575 45.4713 109.532 45.8556 111.946C46.0558 113.238 45.4152 115.027 44.4384 117.738C41.6717 125.052 39.8736 132.697 39.0898 140.479C37.1682 158.262 43.0933 170.094 43.1573 170.214C43.1862 170.268 43.2039 170.327 43.2095 170.388C43.215 170.449 43.2082 170.511 43.1895 170.569C43.1709 170.628 43.1407 170.682 43.1007 170.728C43.0608 170.774 43.012 170.812 42.9571 170.84C42.8938 170.877 42.8224 170.899 42.749 170.904Z" fill="#263238"/>
<path d="M42.9015 160.476C42.781 160.476 42.6653 160.429 42.5786 160.345C42.492 160.261 42.4412 160.147 42.4371 160.027C42.4371 159.858 42.333 155.952 43.8463 147.497C45.3596 139.043 47.049 119.029 47.049 118.821C47.0631 118.699 47.1232 118.587 47.217 118.508C47.3107 118.429 47.4311 118.389 47.5535 118.396C47.6142 118.401 47.6734 118.418 47.7274 118.446C47.7815 118.474 47.8293 118.513 47.8681 118.56C47.9069 118.607 47.9359 118.662 47.9534 118.72C47.9709 118.779 47.9764 118.84 47.9698 118.901C47.9698 119.101 46.2483 139.243 44.7671 147.666C43.2858 156.088 43.3659 159.954 43.3739 159.994C43.374 160.118 43.3267 160.237 43.2418 160.327C43.1568 160.416 43.0407 160.47 42.9175 160.476H42.9015Z" fill="#263238"/>
<path d="M31.451 159.858C31.3844 159.857 31.3187 159.843 31.258 159.815C31.1973 159.787 31.1431 159.748 31.0987 159.698C31.0346 159.618 24.3889 151.893 22.7635 141.521C21.1381 131.15 20.4495 127.692 19.4006 126.2C18.7921 125.326 18.7681 124.388 19.3446 123.85C19.6569 123.553 20.946 122.767 23.7884 125.11C27.5596 128.198 36.4473 139.548 38.6892 146.952C38.7163 147.067 38.6982 147.189 38.6388 147.292C38.5793 147.394 38.483 147.47 38.3694 147.504C38.2559 147.538 38.1337 147.527 38.0279 147.473C37.9222 147.42 37.8408 147.328 37.8004 147.217C35.6466 140.102 26.807 128.767 23.1959 125.831C21.3944 124.356 20.2814 124.227 19.9932 124.532C19.817 124.7 19.817 125.142 20.1853 125.663C21.3543 127.323 22.0189 130.684 23.7003 141.377C25.3017 151.484 31.7633 159.024 31.8273 159.088C31.8674 159.134 31.898 159.188 31.9173 159.246C31.9366 159.305 31.9442 159.366 31.9397 159.427C31.9353 159.488 31.9188 159.548 31.8913 159.603C31.8637 159.657 31.8257 159.706 31.7793 159.746C31.688 159.824 31.5707 159.864 31.451 159.858Z" fill="#263238"/>
<path d="M41.6365 168.345C41.5678 168.345 41.4998 168.331 41.4375 168.301C41.3751 168.272 41.3201 168.23 41.2762 168.177C41.2762 168.128 37.3689 163.444 32.2284 155.96C27.088 148.476 24.2936 134.888 24.1735 134.302C24.1619 134.242 24.1622 134.18 24.1744 134.12C24.1867 134.061 24.2106 134.004 24.2448 133.953C24.279 133.902 24.3228 133.859 24.3738 133.825C24.4248 133.792 24.4819 133.768 24.5418 133.757C24.6615 133.735 24.7849 133.761 24.8863 133.828C24.9878 133.895 25.0594 133.999 25.0863 134.118C25.0863 134.262 27.9288 148.043 32.9971 155.431C38.0655 162.818 41.9568 167.527 41.9968 167.575C42.0739 167.671 42.1103 167.794 42.0984 167.917C42.0864 168.04 42.027 168.153 41.9328 168.233C41.8502 168.304 41.7454 168.344 41.6365 168.345Z" fill="#263238"/>
<path d="M28.1208 130.869C28.0213 130.866 27.9252 130.832 27.8461 130.772C27.767 130.711 27.709 130.627 27.6804 130.532C27.6804 130.436 24.7339 120.601 23.8211 114.2C23.6049 112.652 23.3967 111.385 23.2286 110.342C22.7802 107.623 22.6121 106.596 23.1485 106.083C23.2921 105.963 23.463 105.881 23.6459 105.843C23.8289 105.805 24.0183 105.813 24.1974 105.866C25.7027 106.163 38.3776 115.853 41.4362 127.043C41.4541 127.102 41.4598 127.165 41.4531 127.227C41.4463 127.289 41.4273 127.349 41.397 127.403C41.3667 127.457 41.3259 127.505 41.2768 127.543C41.2278 127.582 41.1716 127.61 41.1116 127.626C41.0515 127.642 40.9889 127.646 40.9273 127.637C40.8658 127.629 40.8066 127.608 40.7532 127.576C40.6998 127.544 40.6534 127.501 40.6167 127.451C40.58 127.401 40.5537 127.344 40.5394 127.283C37.6329 116.679 25.4065 107.045 24.0213 106.773C23.9392 106.758 23.8551 106.758 23.7731 106.773C23.6129 107.005 23.8611 108.489 24.1414 110.214C24.3095 111.249 24.5177 112.532 24.7419 114.088C25.6387 120.425 28.5371 130.187 28.5692 130.283C28.604 130.401 28.5907 130.528 28.5321 130.637C28.4736 130.745 28.3746 130.826 28.2569 130.861C28.2124 130.872 28.1663 130.875 28.1208 130.869Z" fill="#263238"/>
<path d="M38.3295 144.738C38.2211 144.74 38.1157 144.703 38.032 144.634C37.9484 144.565 37.8921 144.468 37.8731 144.361C37.0194 140.785 35.4951 137.404 33.3812 134.399C29.666 128.976 27.4081 116.88 27.32 116.366C27.3084 116.306 27.3087 116.245 27.3209 116.185C27.3332 116.125 27.3571 116.068 27.3913 116.017C27.4255 115.967 27.4693 115.923 27.5203 115.889C27.5713 115.856 27.6284 115.833 27.6883 115.821C27.81 115.802 27.9344 115.83 28.0357 115.901C28.137 115.971 28.2076 116.077 28.2328 116.198C28.2328 116.318 30.5388 128.615 34.1419 133.845C36.343 136.952 37.9203 140.458 38.7859 144.169C38.7973 144.229 38.7967 144.291 38.7838 144.35C38.771 144.41 38.7463 144.467 38.7112 144.517C38.6761 144.567 38.6313 144.61 38.5795 144.642C38.5277 144.675 38.4699 144.696 38.4095 144.706L38.3295 144.738Z" fill="#263238"/>
<path d="M43.7975 118.62C43.7365 118.618 43.6765 118.604 43.6209 118.579C43.5654 118.553 43.5154 118.517 43.4737 118.473C43.4321 118.428 43.3996 118.376 43.3782 118.318C43.3569 118.261 43.347 118.2 43.3491 118.139C43.5172 113.703 42.9728 110.775 41.4034 107.711L41.2193 107.366C38.1286 101.278 34.5015 93.9625 33.9731 91.4277C33.6288 89.8235 33.0923 89.1737 32.8361 89.1657C32.78 89.1657 32.1155 89.2218 31.3068 91.909C29.9296 96.4491 33.1644 113.366 33.2044 113.567C33.2278 113.688 33.2021 113.814 33.133 113.916C33.0639 114.018 32.9571 114.089 32.8361 114.112C32.715 114.136 32.5897 114.11 32.4876 114.041C32.3855 113.972 32.315 113.865 32.2916 113.743C32.1555 113.037 28.9768 96.4251 30.418 91.6684C31.1066 89.3743 31.8993 88.2593 32.8201 88.2593H32.8281C34.0291 88.3074 34.5976 90.1603 34.8298 91.2593C35.4063 93.9946 40.1944 103.42 42.036 106.965L42.2121 107.318C43.8615 110.527 44.438 113.615 44.2619 118.219C44.2463 118.331 44.1906 118.434 44.1051 118.507C44.0197 118.581 43.9103 118.621 43.7975 118.62Z" fill="#263238"/>
<path d="M40.4835 126.048C40.3674 126.047 40.256 126.003 40.1703 125.924C40.0847 125.846 40.0308 125.739 40.0191 125.623C40.0191 125.567 39.5707 119.679 39.1303 115.925C38.6899 112.171 34.3262 105.257 34.2621 105.192C34.1963 105.086 34.1753 104.958 34.2039 104.836C34.2324 104.714 34.3081 104.609 34.4142 104.543C34.5204 104.477 34.6484 104.456 34.77 104.484C34.8917 104.513 34.997 104.589 35.0628 104.695C35.247 104.984 39.6107 111.914 40.0671 115.813C40.5235 119.711 40.9559 125.495 40.9639 125.551C40.9727 125.673 40.9331 125.794 40.8537 125.887C40.7742 125.98 40.6613 126.038 40.5395 126.048H40.4835Z" fill="#263238"/>
<ellipse cx="126.909" cy="129.546" rx="0.400345" ry="0.401062" fill="#263238"/>
<ellipse cx="132.113" cy="130.749" rx="0.800674" ry="0.802139" fill="#263238"/>
<ellipse cx="126.509" cy="129.145" rx="0.800678" ry="0.802124" fill="#263238"/>
<ellipse cx="0.602558" cy="3.01608" rx="0.602558" ry="3.01608" transform="matrix(0.894665 0.446738 -0.445442 0.895311 94.1084 118.055)" fill="#263238"/>
</svg>
