<svg width="202" height="134" viewBox="0 0 202 134" fill="none" xmlns="http://www.w3.org/2000/svg">
<path d="M108.272 57.9095C105.804 56.2616 102.846 55.4975 99.8843 55.7425C96.9223 55.9875 94.1319 57.2271 91.9711 59.2579C89.8103 61.2886 88.4073 63.99 87.9925 66.9186C87.5777 69.8472 88.1757 72.8291 89.6883 75.375" stroke="#263238" stroke-width="0.969642" stroke-linecap="round" stroke-linejoin="round"/>
<path d="M112.931 63.441C112.676 62.87 112.381 62.3174 112.048 61.7875" stroke="#263238" stroke-width="0.969642" stroke-linecap="round" stroke-linejoin="round"/>
<path d="M111.814 76.0101C112.791 74.5638 113.468 72.9377 113.805 71.2276C114.141 69.5174 114.131 67.7575 113.775 66.0513" stroke="#263238" stroke-width="0.969642" stroke-linecap="round" stroke-linejoin="round"/>
<path d="M87.9402 55.7761C87.0492 56.6658 86.2506 57.6427 85.5566 58.692" stroke="#263238" stroke-width="0.969642" stroke-linecap="round" stroke-linejoin="round"/>
<path d="M115.496 79.9257C118.133 76.534 119.49 72.3288 119.329 68.0436C119.169 63.7583 117.503 59.665 114.62 56.4774C111.737 53.2899 107.821 51.2105 103.555 50.6019C99.2894 49.9932 94.9441 50.894 91.2773 53.1471" stroke="#263238" stroke-width="0.969642" stroke-linecap="round" stroke-linejoin="round"/>
<path d="M86.3691 79.9257C84.55 77.5828 83.3276 74.8368 82.806 71.922C82.2845 69.0071 82.4794 66.01 83.3742 63.1864" stroke="#263238" stroke-width="0.969642" stroke-linecap="round" stroke-linejoin="round"/>
<path d="M80.6035 84.5541C81.7481 86.0087 83.0466 87.3367 84.4765 88.5151" stroke="#263238" stroke-width="0.969642" stroke-linecap="round" stroke-linejoin="round"/>
<path d="M115.56 47.5245C110.95 44.3826 105.439 42.813 99.8561 43.051C94.2728 43.2891 88.9176 45.322 84.5938 48.8448C80.2699 52.3677 77.2105 57.1905 75.8743 62.5899C74.5382 67.9894 74.9975 73.6743 77.1832 78.792" stroke="#263238" stroke-width="0.969642" stroke-linecap="round" stroke-linejoin="round"/>
<path d="M125.041 59.437C124.347 57.6564 123.455 55.9584 122.383 54.3745" stroke="#263238" stroke-width="0.969642" stroke-linecap="round" stroke-linejoin="round"/>
<path d="M118.803 87.2903C121.327 84.8941 123.336 82.0124 124.706 78.8202C126.077 75.6281 126.782 72.192 126.778 68.7206" stroke="#263238" stroke-width="0.969642" stroke-linecap="round" stroke-linejoin="round"/>
<path d="M64.8555 68.7206C64.8555 77.2488 67.8903 85.5015 73.4218 92.0157C78.9533 98.5299 86.6243 102.885 95.0747 104.308" stroke="#263238" stroke-width="0.969642" stroke-linecap="round" stroke-linejoin="round"/>
<path d="M130.088 90.1954C134.506 84.2464 136.981 77.0904 137.178 69.6956C137.376 62.3009 135.285 55.0244 131.19 48.8506C127.095 42.6769 121.192 37.904 114.281 35.1776C107.371 32.4512 99.785 31.903 92.5508 33.6072" stroke="#263238" stroke-width="0.969642" stroke-linecap="round" stroke-linejoin="round"/>
<path d="M64.8555 68.7206C64.8558 60.6304 67.5872 52.7748 72.6114 46.4141C77.6357 40.0535 84.6616 35.5565 92.5618 33.6448" stroke="#263238" stroke-width="0.969642" stroke-linecap="round" stroke-linejoin="round"/>
<path d="M122.383 97.82C123.304 97.1465 124.19 96.4318 125.041 95.676" stroke="#263238" stroke-width="0.969642" stroke-linecap="round" stroke-linejoin="round"/>
<path d="M106.981 104.308C111.106 103.621 115.079 102.225 118.722 100.181" stroke="#263238" stroke-width="0.969642" stroke-linecap="round" stroke-linejoin="round"/>
<path d="M100.949 101.076C97.2761 101.072 93.7546 99.6182 91.1573 97.0338C88.56 94.4493 87.099 90.9453 87.0947 87.2903V82.6486C87.0947 82.4496 87.1742 82.2587 87.3156 82.118C87.457 81.9773 87.6489 81.8982 87.8489 81.8982H89.7342C89.9342 81.8982 90.126 81.9773 90.2674 82.118C90.4089 82.2587 90.4883 82.4496 90.4883 82.6486C90.4883 82.8476 90.4089 83.0385 90.2674 83.1792C90.126 83.3199 89.9342 83.399 89.7342 83.399H88.6111V87.2903C88.6111 90.5486 89.9118 93.6733 92.2272 95.9772C94.5426 98.2811 97.6829 99.5755 100.957 99.5755C104.232 99.5755 107.372 98.2811 109.687 95.9772C112.003 93.6733 113.304 90.5486 113.304 87.2903V83.399H112.172C111.972 83.399 111.781 83.3199 111.639 83.1792C111.498 83.0385 111.418 82.8476 111.418 82.6486C111.418 82.4496 111.498 82.2587 111.639 82.118C111.781 81.9773 111.972 81.8982 112.172 81.8982H114.058C114.258 81.8982 114.45 81.9773 114.591 82.118C114.732 82.2587 114.812 82.4496 114.812 82.6486V87.2903C114.808 90.9467 113.345 94.4519 110.746 97.0366C108.147 99.6213 104.624 101.074 100.949 101.076Z" fill="#263238"/>
<path d="M115.558 112.611V111.11C115.558 110.913 115.52 110.718 115.444 110.535C115.368 110.353 115.257 110.188 115.117 110.048C114.977 109.909 114.811 109.798 114.627 109.723C114.444 109.648 114.248 109.609 114.05 109.609H87.8491C87.6509 109.609 87.4546 109.648 87.2715 109.723C87.0883 109.798 86.9219 109.909 86.7818 110.048C86.6417 110.188 86.5306 110.353 86.4549 110.535C86.3792 110.718 86.3405 110.913 86.3408 111.11V112.611H115.558Z" fill="#263238"/>
<path d="M102.419 111.437C102.444 111.33 102.457 111.22 102.457 111.11V100.326H99.4404V111.11C99.4405 111.22 99.4532 111.33 99.4781 111.437H102.419Z" fill="#263238"/>
<path d="M110.279 68.7206C110.3 67.488 110.074 66.2636 109.614 65.1187C109.155 63.9739 108.471 62.9315 107.602 62.0525C106.734 61.1734 105.698 60.4752 104.556 59.9987C103.413 59.5221 102.187 59.2766 100.948 59.2766C99.7087 59.2766 98.4823 59.5221 97.3397 59.9987C96.1971 60.4752 95.1614 61.1734 94.2928 62.0525C93.4243 62.9315 92.7403 63.9739 92.2808 65.1187C91.8213 66.2636 91.5955 67.488 91.6166 68.7206V87.2903C91.6582 89.7255 92.6595 92.0469 94.4049 93.7544C96.1503 95.4619 98.5 96.4187 100.948 96.4187C103.395 96.4187 105.745 95.4619 107.49 93.7544C109.236 92.0469 110.237 89.7255 110.279 87.2903V68.7206Z" stroke="#263238" stroke-width="0.969642" stroke-linecap="round" stroke-linejoin="round"/>
<path d="M110.279 68.7206C110.3 67.488 110.074 66.2636 109.614 65.1187C109.155 63.9739 108.471 62.9315 107.602 62.0525C106.734 61.1734 105.698 60.4752 104.556 59.9987C103.413 59.5221 102.187 59.2766 100.948 59.2766C99.7087 59.2766 98.4823 59.5221 97.3397 59.9987C96.1971 60.4752 95.1614 61.1734 94.2928 62.0525C93.4243 62.9315 92.7403 63.9739 92.2808 65.1187C91.8213 66.2636 91.5955 67.488 91.6166 68.7206V87.2903C91.6582 89.7255 92.6595 92.0469 94.4049 93.7544C96.1503 95.4619 98.5 96.4187 100.948 96.4187C103.395 96.4187 105.745 95.4619 107.49 93.7544C109.236 92.0469 110.237 89.7255 110.279 87.2903V68.7206Z" fill="#E8E8E8"/>
<path d="M97.0846 69.6989H91.6172V71.95H97.0846C97.3847 71.95 97.6724 71.8315 97.8845 71.6204C98.0967 71.4093 98.2158 71.123 98.2158 70.8244C98.2158 70.5259 98.0967 70.2396 97.8845 70.0285C97.6724 69.8174 97.3847 69.6989 97.0846 69.6989Z" fill="white"/>
<path d="M110.28 69.6989H104.815C104.515 69.6989 104.227 69.8174 104.015 70.0285C103.803 70.2396 103.684 70.5259 103.684 70.8244C103.684 71.123 103.803 71.4093 104.015 71.6204C104.227 71.8315 104.515 71.95 104.815 71.95H110.28V69.6989Z" fill="white"/>
<path d="M100.95 69.6989C100.726 69.6989 100.507 69.7649 100.321 69.8885C100.135 70.0122 99.9901 70.188 99.9045 70.3937C99.8189 70.5994 99.7964 70.8257 99.8401 71.044C99.8837 71.2624 99.9915 71.4629 100.15 71.6204C100.308 71.7778 100.509 71.885 100.729 71.9284C100.948 71.9718 101.176 71.9496 101.382 71.8644C101.589 71.7792 101.766 71.6349 101.89 71.4498C102.014 71.2647 102.081 71.0471 102.081 70.8244C102.081 70.5259 101.962 70.2396 101.749 70.0285C101.537 69.8174 101.25 69.6989 100.95 69.6989Z" fill="white"/>
<path d="M100.95 74.2495C100.726 74.2495 100.507 74.3155 100.321 74.4392C100.135 74.5629 99.9901 74.7387 99.9045 74.9444C99.8189 75.15 99.7964 75.3764 99.8401 75.5947C99.8837 75.813 99.9915 76.0136 100.15 76.171C100.308 76.3284 100.509 76.4357 100.729 76.4791C100.948 76.5225 101.176 76.5002 101.382 76.415C101.589 76.3298 101.766 76.1856 101.89 76.0005C102.014 75.8154 102.081 75.5977 102.081 75.3751C102.081 75.0766 101.962 74.7903 101.749 74.5792C101.537 74.3681 101.25 74.2495 100.95 74.2495Z" fill="white"/>
<path d="M100.95 78.7921C100.726 78.7921 100.507 78.8581 100.321 78.9818C100.135 79.1055 99.9901 79.2813 99.9045 79.487C99.8189 79.6926 99.7964 79.919 99.8401 80.1373C99.8837 80.3557 99.9915 80.5562 100.15 80.7136C100.308 80.8711 100.509 80.9783 100.729 81.0217C100.948 81.0651 101.176 81.0428 101.382 80.9576C101.589 80.8724 101.766 80.7282 101.89 80.5431C102.014 80.358 102.081 80.1403 102.081 79.9177C102.081 79.6192 101.962 79.3329 101.749 79.1218C101.537 78.9107 101.25 78.7921 100.95 78.7921Z" fill="white"/>
<path d="M97.0846 74.2495H91.6172V76.5007H97.0846C97.3847 76.5007 97.6724 76.3821 97.8845 76.171C98.0967 75.9599 98.2158 75.6736 98.2158 75.3751C98.2158 75.0766 98.0967 74.7903 97.8845 74.5792C97.6724 74.3681 97.3847 74.2495 97.0846 74.2495Z" fill="white"/>
<path d="M110.28 74.2495H104.815C104.515 74.2495 104.227 74.3681 104.015 74.5792C103.803 74.7903 103.684 75.0766 103.684 75.3751C103.684 75.6736 103.803 75.9599 104.015 76.171C104.227 76.3821 104.515 76.5007 104.815 76.5007H110.28V74.2495Z" fill="white"/>
<path d="M97.0846 78.7921H91.6172V81.0433H97.0846C97.3847 81.0433 97.6724 80.9247 97.8845 80.7136C98.0967 80.5025 98.2158 80.2162 98.2158 79.9177C98.2158 79.6192 98.0967 79.3329 97.8845 79.1218C97.6724 78.9107 97.3847 78.7921 97.0846 78.7921Z" fill="white"/>
<path d="M110.28 78.7921H104.815C104.515 78.7921 104.227 78.9107 104.015 79.1218C103.803 79.3329 103.684 79.6192 103.684 79.9177C103.684 80.2162 103.803 80.5025 104.015 80.7136C104.227 80.9247 104.515 81.0433 104.815 81.0433H110.28V78.7921Z" fill="white"/>
<path d="M110.279 68.7206C110.3 67.488 110.074 66.2636 109.614 65.1187C109.155 63.9739 108.471 62.9315 107.602 62.0525C106.734 61.1734 105.698 60.4752 104.556 59.9987C103.413 59.5221 102.187 59.2766 100.948 59.2766C99.7087 59.2766 98.4823 59.5221 97.3397 59.9987C96.1971 60.4752 95.1614 61.1734 94.2928 62.0525C93.4243 62.9315 92.7403 63.9739 92.2808 65.1187C91.8213 66.2636 91.5955 67.488 91.6166 68.7206V87.2903C91.6582 89.7255 92.6595 92.0469 94.4049 93.7544C96.1503 95.4619 98.5 96.4187 100.948 96.4187C103.395 96.4187 105.745 95.4619 107.49 93.7544C109.236 92.0469 110.237 89.7255 110.279 87.2903V68.7206Z" stroke="#263238" stroke-width="0.969642" stroke-miterlimit="10"/>
<path d="M91.6172 87.2903C91.6588 89.7255 92.6601 92.0469 94.4055 93.7544C96.1509 95.4619 98.5006 96.4187 100.948 96.4187C103.396 96.4187 105.746 95.4619 107.491 93.7544C109.236 92.0469 110.238 89.7255 110.279 87.2903H91.6172Z" fill="#263238" stroke="#263238" stroke-width="0.969642" stroke-miterlimit="10"/>
<path d="M180.098 82.6132C191.75 71.0189 191.75 52.2208 180.098 40.6266C168.446 29.0323 149.554 29.0323 137.902 40.6266C126.25 52.2209 126.25 71.0189 137.902 82.6132C149.554 94.2075 168.446 94.2075 180.098 82.6132Z" fill="#E8E8E8"/>
<path d="M154.722 49.3362H133.878C132.828 49.3362 131.977 50.1833 131.977 51.2283V71.9688C131.977 73.0138 132.828 73.8609 133.878 73.8609H154.722C155.772 73.8609 156.623 73.0138 156.623 71.9688V51.2283C156.623 50.1833 155.772 49.3362 154.722 49.3362Z" fill="white"/>
<g opacity="0.1">
<path opacity="0.1" d="M134.301 73.8635H142.527L147.768 49.3362H139.209L133.976 73.8367C134.083 73.8538 134.192 73.8627 134.301 73.8635Z" fill="black"/>
<path opacity="0.1" d="M151.253 49.3362H149.196L143.957 73.8635H146.015L151.253 49.3362Z" fill="black"/>
</g>
<path d="M154.299 74.4746H134.301C133.523 74.4731 132.777 74.1654 132.226 73.6185C131.676 73.0716 131.365 72.3301 131.362 71.556V51.649C131.364 50.874 131.674 50.1311 132.225 49.583C132.775 49.035 133.522 48.7265 134.301 48.7251H154.299C155.078 48.7258 155.825 49.034 156.377 49.5821C156.928 50.1302 157.238 50.8735 157.24 51.649V71.556C157.237 72.3306 156.926 73.0725 156.375 73.6194C155.824 74.1664 155.077 74.4739 154.299 74.4746ZM134.301 49.9499C133.848 49.9499 133.413 50.1288 133.092 50.4474C132.772 50.7659 132.591 51.1981 132.59 51.649V71.556C132.59 72.0076 132.771 72.4408 133.091 72.7603C133.412 73.0799 133.847 73.2598 134.301 73.2605H154.299C154.524 73.2605 154.746 73.2164 154.954 73.1307C155.162 73.045 155.35 72.9194 155.509 72.7611C155.668 72.6028 155.794 72.4149 155.88 72.2081C155.965 72.0013 156.009 71.7797 156.009 71.556V51.649C156.009 51.4256 155.965 51.2045 155.879 50.9981C155.793 50.7918 155.667 50.6044 155.508 50.4466C155.349 50.2888 155.161 50.1637 154.953 50.0784C154.746 49.9932 154.523 49.9495 154.299 49.9499H134.301Z" fill="white" stroke="#263238" stroke-width="0.932567" stroke-miterlimit="10"/>
<path d="M183.71 49.3362H162.866C161.816 49.3362 160.965 50.1833 160.965 51.2283V71.9688C160.965 73.0138 161.816 73.8609 162.866 73.8609H183.71C184.76 73.8609 185.612 73.0138 185.612 71.9688V51.2283C185.612 50.1833 184.76 49.3362 183.71 49.3362Z" fill="white"/>
<g opacity="0.1">
<path opacity="0.1" d="M165.441 73.8635H173.666L178.905 49.3362H170.348L165.102 73.8367C165.214 73.8543 165.327 73.8632 165.441 73.8635Z" fill="black"/>
<path opacity="0.1" d="M182.393 49.3362H180.335L175.094 73.8635H177.154L182.393 49.3362Z" fill="black"/>
</g>
<path d="M183.287 74.4746H163.289C162.511 74.4731 161.765 74.1654 161.215 73.6185C160.664 73.0716 160.353 72.3301 160.351 71.556V51.649C160.352 50.874 160.662 50.1311 161.213 49.583C161.764 49.035 162.51 48.7265 163.289 48.7251H183.287C184.066 48.7258 184.814 49.034 185.365 49.5821C185.916 50.1302 186.227 50.8735 186.228 51.649V71.556C186.225 72.3306 185.914 73.0725 185.363 73.6194C184.812 74.1664 184.065 74.4739 183.287 74.4746ZM163.289 49.9499C162.836 49.9499 162.401 50.1288 162.081 50.4474C161.76 50.7659 161.579 51.1981 161.579 51.649V71.556C161.579 72.0076 161.759 72.4408 162.08 72.7603C162.4 73.0799 162.835 73.2598 163.289 73.2605H183.287C183.512 73.2605 183.734 73.2164 183.942 73.1307C184.15 73.045 184.338 72.9194 184.497 72.7611C184.656 72.6028 184.782 72.4149 184.868 72.2081C184.954 72.0013 184.998 71.7797 184.997 71.556V51.649C184.997 51.4256 184.953 51.2045 184.867 50.9981C184.781 50.7918 184.655 50.6044 184.496 50.4466C184.337 50.2888 184.149 50.1637 183.941 50.0784C183.734 49.9932 183.511 49.9495 183.287 49.9499H163.289Z" fill="white" stroke="#263238" stroke-width="0.932567" stroke-miterlimit="10"/>
<path d="M159.807 118.85C167.219 118.85 173.228 117.971 173.228 116.886C173.228 115.801 167.219 114.921 159.807 114.921C152.394 114.921 146.386 115.801 146.386 116.886C146.386 117.971 152.394 118.85 159.807 118.85Z" fill="#E8E8E8"/>
<path d="M165.738 105.442C165.738 105.442 165.703 110.944 165.118 111.85C164.421 112.922 163.925 114.42 165.773 114.827C167.62 115.235 168.719 117.263 170.92 117.397C173.12 117.531 173.344 116.593 172.385 115.84C171.426 115.087 168.991 113 168.671 111.984C168.35 110.968 168.973 105.442 168.973 105.442H165.738Z" fill="white"/>
<path opacity="0.1" d="M168.678 108.637C168.797 107.015 168.972 105.442 168.972 105.442H165.74C165.74 105.442 165.74 106.849 165.646 108.358C166.647 108.534 167.661 108.627 168.678 108.637Z" fill="black"/>
<path d="M165.738 105.442C165.738 105.442 165.703 110.944 165.118 111.85C164.421 112.922 163.925 114.42 165.773 114.827C167.62 115.235 168.719 117.263 170.92 117.397C173.12 117.531 173.344 116.593 172.385 115.84C171.426 115.087 168.991 113 168.671 111.984C168.35 110.968 168.973 105.442 168.973 105.442H165.738Z" stroke="#263238" stroke-width="0.932567" stroke-linecap="round" stroke-linejoin="round"/>
<path d="M172.374 115.84C171.476 115.132 170.623 114.369 169.821 113.554C169.053 114.133 166.804 113.586 166.142 113.067C165.334 112.434 165.504 112.11 165.121 111.826L165.108 111.85C164.41 112.922 163.914 114.42 165.762 114.827C167.61 115.235 168.709 117.263 170.909 117.397C173.11 117.531 173.338 116.58 172.374 115.84Z" fill="#BFBFBF" stroke="#263238" stroke-width="0.932567" stroke-miterlimit="10"/>
<path d="M153.313 103.448C153.313 103.448 150.889 108.481 149.973 109.095C148.866 109.829 147.768 111.011 149.284 112.064C150.8 113.117 150.935 115.385 152.893 116.32C154.851 117.255 155.462 116.465 154.91 115.433C154.358 114.401 153.025 111.576 153.173 110.526C153.321 109.475 156.303 104.52 156.303 104.52L153.313 103.448Z" fill="white"/>
<path opacity="0.1" d="M153.313 103.448C153.313 103.448 152.446 105.254 151.555 106.833C152.274 107.543 153.104 108.134 154.011 108.583C154.94 106.793 156.303 104.528 156.303 104.528L153.313 103.448Z" fill="black"/>
<path d="M153.313 103.448C153.313 103.448 150.889 108.481 149.973 109.095C148.866 109.829 147.768 111.011 149.284 112.064C150.8 113.117 150.935 115.385 152.893 116.32C154.851 117.255 155.462 116.465 154.91 115.433C154.358 114.401 153.025 111.576 153.173 110.526C153.321 109.475 156.303 104.52 156.303 104.52L153.313 103.448Z" stroke="#263238" stroke-width="0.932567" stroke-linecap="round" stroke-linejoin="round"/>
<path d="M154.911 115.42C154.395 114.437 153.945 113.422 153.564 112.38C152.608 112.63 150.62 111.357 150.402 110.58C149.979 109.081 150.23 109.467 150.001 109.065L149.979 109.081C148.872 109.816 147.773 110.998 149.29 112.051C150.806 113.104 150.941 115.371 152.899 116.307C154.857 117.242 155.463 116.451 154.911 115.42Z" fill="#BFBFBF" stroke="#263238" stroke-width="0.932567" stroke-miterlimit="10"/>
<path d="M166.128 67.8335C166.128 67.8335 169.837 85.5215 170.085 91.2915C170.332 97.0616 169.368 107.353 169.368 107.353L165.25 107.085C165.25 107.085 165.223 104.043 164.811 99.8086C164.566 97.2921 163.796 94.3548 163.882 91.3853C163.882 91.3853 159.968 79.8372 160.111 74.7693C160.254 69.7015 160.111 68.2435 160.111 68.2435L166.128 67.8335Z" fill="#263238" stroke="#263238" stroke-width="0.932567" stroke-linecap="round" stroke-linejoin="round"/>
<path d="M156.214 67.8336C156.214 67.8336 152.368 70.996 154.598 77.3717C155.476 79.9017 158.864 91.4739 158.864 91.4739C157.933 92.5331 157.146 93.7089 156.521 94.9713C154.975 98.0104 153.849 102.743 151.942 105.458L154.765 107.353C154.765 107.353 163.879 95.9843 164.461 92.3744C165.043 88.7644 162.306 74.3299 162.306 74.3299L161.431 68.4634L156.214 67.8336Z" fill="#263238" stroke="#263238" stroke-width="0.932567" stroke-linecap="round" stroke-linejoin="round"/>
<path d="M173.271 55.846C173.22 55.2469 173.017 54.6705 172.681 54.171C172.964 53.8012 173.208 53.4044 173.411 52.9864C173.616 52.496 173.344 51.8018 172.776 52.6326C172.207 53.4634 171.582 54.0691 171.809 55.1063C171.927 55.7759 171.805 56.4657 171.464 57.0546L172.776 58.0757L175.391 56.0121L173.271 55.846Z" fill="white" stroke="#263238" stroke-width="0.932567" stroke-linecap="round" stroke-linejoin="round"/>
<path d="M174.503 50.5445L172.304 51.1394C172.102 51.1941 171.982 51.4018 172.037 51.6032L173.29 56.1884C173.345 56.3897 173.554 56.5086 173.756 56.4539L175.955 55.859C176.157 55.8043 176.277 55.5966 176.222 55.3952L174.969 50.8101C174.914 50.6087 174.705 50.4898 174.503 50.5445Z" fill="#263238" stroke="#263238" stroke-width="0.932567" stroke-linecap="round" stroke-linejoin="round"/>
<path d="M174.984 50.867L172.053 51.6602L173.275 56.1342L176.207 55.341L174.984 50.867Z" fill="#E8E8E8" stroke="#263238" stroke-width="0.932567" stroke-linecap="round" stroke-linejoin="round"/>
<path d="M174.396 52.4155C174.36 52.2776 174.271 52.1595 174.148 52.0871C174.025 52.0147 173.877 51.994 173.739 52.0296C173.6 52.0651 173.482 52.154 173.409 52.2766C173.336 52.3992 173.315 52.5456 173.351 52.6835C173.386 52.8175 173.561 53.4473 173.62 53.6697L174.665 53.3883C174.606 53.182 174.428 52.528 174.396 52.4155Z" fill="#263238"/>
<path d="M174.3 54.1146C174.429 54.0798 174.541 53.9982 174.613 53.8856C174.686 53.7731 174.713 53.6378 174.69 53.5062L173.653 53.7742C173.698 53.9015 173.79 54.0072 173.91 54.0703C174.029 54.1334 174.169 54.1492 174.3 54.1146Z" fill="#263238"/>
<path d="M175.274 54.672L174.596 54.8569L174.456 54.3477C174.649 54.2729 174.807 54.1297 174.901 53.9457C174.994 53.7617 175.016 53.5498 174.962 53.3507L174.887 53.0827C174.885 53.077 174.883 53.0716 174.879 53.0668C174.876 53.0621 174.872 53.0581 174.867 53.0551C174.862 53.052 174.856 53.0501 174.85 53.0493C174.844 53.0486 174.838 53.049 174.833 53.0506L174.72 53.0801C174.714 53.0816 174.708 53.0843 174.704 53.088C174.699 53.0917 174.695 53.0964 174.692 53.1017C174.689 53.107 174.688 53.1128 174.687 53.1188C174.687 53.1247 174.688 53.1307 174.69 53.1363C174.691 53.1421 174.694 53.1475 174.697 53.1522C174.7 53.157 174.705 53.161 174.71 53.164C174.715 53.167 174.721 53.169 174.726 53.1697C174.732 53.1705 174.738 53.1701 174.744 53.1685L174.811 53.1497L174.873 53.3775C174.899 53.472 174.906 53.5707 174.893 53.6678C174.881 53.7649 174.849 53.8587 174.8 53.9437C174.751 54.0286 174.686 54.1032 174.608 54.1631C174.53 54.223 174.441 54.2671 174.347 54.2928C174.252 54.3184 174.152 54.3253 174.055 54.3128C173.957 54.3004 173.863 54.269 173.778 54.2203C173.692 54.1717 173.617 54.1068 173.557 54.0293C173.497 53.9518 173.453 53.8633 173.427 53.7688L173.362 53.541L173.429 53.5249C173.441 53.5212 173.451 53.5134 173.456 53.503C173.462 53.4926 173.464 53.4804 173.462 53.4687C173.46 53.4628 173.457 53.4574 173.454 53.4526C173.45 53.4478 173.445 53.4438 173.44 53.4408C173.435 53.4378 173.429 53.4359 173.423 53.4352C173.417 53.4344 173.411 53.4349 173.405 53.4365L173.295 53.466C173.289 53.4675 173.283 53.4702 173.279 53.4739C173.274 53.4776 173.27 53.4822 173.267 53.4874C173.264 53.4926 173.262 53.4984 173.261 53.5044C173.26 53.5104 173.261 53.5164 173.262 53.5223L173.338 53.7903C173.392 53.9891 173.519 54.1608 173.693 54.2726C173.867 54.3844 174.076 54.4283 174.281 54.3959L174.418 54.9051L173.739 55.0874C173.727 55.0905 173.716 55.0959 173.707 55.1032C173.697 55.1106 173.689 55.1197 173.683 55.1302C173.677 55.1407 173.673 55.1522 173.672 55.1642C173.67 55.1762 173.671 55.1883 173.675 55.1999L173.699 55.2884L175.412 54.8247L175.388 54.7363C175.384 54.7246 175.379 54.7137 175.372 54.7042C175.364 54.6946 175.355 54.6866 175.344 54.6806C175.334 54.6746 175.322 54.6708 175.31 54.6693C175.298 54.6678 175.286 54.6687 175.274 54.672Z" fill="#263238"/>
<path d="M175.552 51.9117C175.283 51.9412 175.059 52.3619 175.143 52.9542C175.226 53.5465 175.773 52.9033 175.805 52.7157C175.838 52.5281 176.067 51.8608 175.552 51.9117Z" fill="white" stroke="#263238" stroke-width="0.932567" stroke-linecap="round" stroke-linejoin="round"/>
<path d="M176.144 52.796C176.072 52.7949 176.001 52.8099 175.936 52.8398C175.871 52.8698 175.813 52.9139 175.767 52.9689C175.721 53.024 175.689 53.0886 175.671 53.1579C175.654 53.2272 175.653 53.2995 175.667 53.3695C175.718 53.9457 175.831 53.8117 175.831 53.8117C175.834 54.0492 175.883 54.2839 175.974 54.5032C176.109 54.7578 176.464 54.3718 176.464 54.1414C176.464 53.9109 176.427 52.6995 176.144 52.796Z" fill="white" stroke="#263238" stroke-width="0.932567" stroke-linecap="round" stroke-linejoin="round"/>
<path d="M175.835 53.801C175.835 53.801 176.301 53.6643 176.411 53.3267L175.835 53.801Z" fill="white"/>
<path d="M175.835 53.801C175.835 53.801 176.301 53.6643 176.411 53.3267" stroke="#263238" stroke-width="0.932567" stroke-linecap="round" stroke-linejoin="round"/>
<path d="M171.786 56.2371C171.876 55.8663 171.884 55.4802 171.807 55.1062C171.581 54.069 172.203 53.4607 172.774 52.6325C173.345 51.8044 173.615 52.4959 173.41 52.9863C173.207 53.4043 172.962 53.8011 172.68 54.1709C173.044 54.6561 173.25 55.2407 173.27 55.8459C173.27 56.0415 173.27 56.6257 173.27 56.6257" fill="white"/>
<path d="M171.786 56.2371C171.876 55.8663 171.884 55.4802 171.807 55.1062C171.581 54.069 172.203 53.4607 172.774 52.6325C173.345 51.8044 173.615 52.4959 173.41 52.9863C173.207 53.4043 172.962 53.8011 172.68 54.1709C173.044 54.6561 173.25 55.2407 173.27 55.8459C173.27 56.0415 173.27 56.6257 173.27 56.6257" stroke="#263238" stroke-width="0.932567" stroke-linecap="round" stroke-linejoin="round"/>
<path d="M164.563 49.7596C165.5 49.5639 165.788 49.3254 165.788 49.3254C165.086 46.5087 167.606 37.0349 159.661 36.5981C151.716 36.1612 156.16 49.5854 156.16 49.5854L157.024 49.6952L156.58 46.9965L157.614 49.7622C160.674 50.0919 162.635 50.0302 163.868 49.8748C163.701 48.6576 163.683 47.4246 163.817 46.2032C163.972 47.4062 164.222 48.5952 164.563 49.7596Z" fill="#263238"/>
<path d="M159.658 36.7669C159.35 36.462 158.947 36.2697 158.515 36.221C158.082 36.1724 157.647 36.2703 157.277 36.4989" stroke="#263238" stroke-width="0.932567" stroke-linecap="round" stroke-linejoin="round"/>
<path d="M165.71 51.4771V51.3917C165.694 51.4291 165.678 51.4557 165.71 51.4771Z" fill="white" stroke="#263238" stroke-width="0.932567" stroke-linecap="round" stroke-linejoin="round"/>
<path d="M171.464 57.0546L167.693 60.5386L167.763 55.3179C167.776 54.5295 167.588 53.7507 167.216 53.0539C166.845 52.3572 166.303 51.7651 165.641 51.3328L165.783 65.0731C169.487 65.3063 172.786 58.0756 172.786 58.0756C172.652 57.8214 172.464 57.5987 172.236 57.4226C172.008 57.2465 171.745 57.121 171.464 57.0546Z" fill="white"/>
<path opacity="0.1" d="M167.114 63.3874C166.554 63.4383 166.427 62.3717 166.435 61.3345C166.278 61.7247 166.174 62.1338 166.125 62.5512C166.077 63.7331 166.077 64.9043 166.096 65.9066C170.313 64.0038 170.365 62.3073 171.447 60.576C170.758 61.4471 168.194 63.2882 167.114 63.3874Z" fill="black"/>
<path d="M171.464 57.0546L167.693 60.5386L167.763 55.3179C167.776 54.5295 167.588 53.7507 167.216 53.0539C166.845 52.3572 166.303 51.7651 165.641 51.3328L165.783 65.0731C169.487 65.3063 172.786 58.0756 172.786 58.0756C172.652 57.8214 172.464 57.5987 172.236 57.4226C172.008 57.2465 171.745 57.121 171.464 57.0546V57.0546Z" stroke="#263238" stroke-width="0.932567" stroke-linecap="round" stroke-linejoin="round"/>
<path d="M170.664 57.5047L171.491 56.7249L173.304 57.963L172.776 58.8367L170.664 57.5047Z" fill="#E8E8E8" stroke="#263238" stroke-width="0.932567" stroke-linecap="round" stroke-linejoin="round"/>
<path d="M167.129 57.888C165.61 64.588 166.364 68.9912 166.364 68.9912C166.364 68.9912 162.699 71.5774 154.993 69.3852C154.993 69.3852 156.394 65.92 156.017 63.2775C155.788 61.6507 154.252 55.803 154.252 55.803C154.252 55.803 153.525 53.2462 153.859 51.1826C154.503 50.7672 155.882 50.2661 158.319 50.0892C158.36 49.9535 158.388 49.8145 158.403 49.6738C158.48 48.9923 158.497 48.3054 158.454 47.6209C158.419 46.8169 158.352 46.1764 158.352 46.1764H161.293C161.293 46.1764 161.331 46.9161 161.425 47.7844C161.476 48.2963 161.549 48.8564 161.64 49.3388C161.686 49.5803 161.744 49.8191 161.815 50.0544C164.751 50.4939 165.855 51.255 166.068 51.917C167.067 54.9025 167.452 56.4569 167.129 57.888Z" fill="white" stroke="#263238" stroke-width="0.932567" stroke-linecap="round" stroke-linejoin="round"/>
<path d="M161.433 48.2561C161.193 48.7921 160.894 49.2156 159.858 49.2102C159.087 49.2102 158.392 48.5322 158.314 48.2722C158.398 47.6853 158.314 47.4682 158.279 46.8036C159.27 46.7758 160.261 46.8331 161.242 46.9751C161.284 47.4051 161.348 47.8326 161.433 48.2561Z" fill="#263238"/>
<path d="M163.389 42.5183C163.389 42.1216 163.389 41.8778 163.389 41.8778C163.171 40.8379 161.878 40.7843 161.283 40.787C160.655 40.8072 160.03 40.6986 159.446 40.4681C159.637 40.9231 159.954 41.3151 160.359 41.599C158.145 41.1086 157.973 39.9455 158.056 39.3184C157.27 42.0546 156.249 42.1699 156.249 42.1699C156.249 42.1699 156.249 42.4138 156.295 42.8077C156.03 42.8681 155.797 43.0215 155.637 43.2396C155.477 43.4577 155.402 43.726 155.425 43.995C155.422 44.2847 155.533 44.5641 155.734 44.7734C155.936 44.9827 156.211 45.1054 156.502 45.1152C156.56 45.1126 156.618 45.1045 156.675 45.0911C157.143 46.9028 158.105 48.8726 160.074 48.7948C162.043 48.7171 162.845 46.675 163.163 44.8311C163.221 44.8364 163.28 44.8364 163.338 44.8311C163.63 44.802 163.898 44.659 164.084 44.4335C164.271 44.208 164.36 43.9183 164.332 43.6278C164.333 43.3616 164.239 43.1037 164.066 42.9004C163.893 42.697 163.653 42.5616 163.389 42.5183Z" fill="white" stroke="#263238" stroke-width="0.932567" stroke-linecap="round" stroke-linejoin="round"/>
<path d="M159.446 45.5868L159.786 45.8307C159.828 45.8624 159.88 45.8796 159.934 45.8796C159.987 45.8796 160.039 45.8624 160.082 45.8307L160.394 45.5921" stroke="#263238" stroke-width="0.932567" stroke-linecap="round" stroke-linejoin="round"/>
<path d="M160.739 44.062C160.739 44.062 161.159 43.5099 161.997 43.8985" stroke="#263238" stroke-width="0.932567" stroke-linecap="round" stroke-linejoin="round"/>
<path d="M158.907 44.062C158.907 44.062 158.49 43.5099 157.649 43.8985" stroke="#263238" stroke-width="0.932567" stroke-linecap="round" stroke-linejoin="round"/>
<path d="M160.754 46.5597C160.521 46.7437 160.234 46.8493 159.937 46.8613C159.639 46.8734 159.345 46.7912 159.098 46.6267" stroke="#263238" stroke-width="0.932567" stroke-linecap="round" stroke-linejoin="round"/>
<path d="M164.313 92.9612C164.217 93.2553 164.106 93.5443 163.979 93.8268" stroke="white" stroke-width="0.932567" stroke-linecap="round" stroke-linejoin="round"/>
<path d="M160.38 73.432L161.258 74.2146C162.042 74.9125 162.557 75.86 162.715 76.8946C163.466 81.6516 164.673 86.5426 164.525 91.7096" stroke="white" stroke-width="0.932567" stroke-linecap="round" stroke-linejoin="round"/>
<path d="M163.704 73.5713L162.312 75.5518L162.487 75.3079" stroke="white" stroke-width="0.932567" stroke-linecap="round" stroke-linejoin="round"/>
<path d="M158.202 65.6252L158.601 66.0326" stroke="#263238" stroke-width="0.932567" stroke-linecap="round" stroke-linejoin="round"/>
<path d="M155.317 60.0106C155.737 61.7202 156.483 63.3334 157.515 64.7623" stroke="#263238" stroke-width="0.932567" stroke-linecap="round" stroke-linejoin="round"/>
<path d="M155.394 41.8875L155.096 41.8994L155.138 42.9572L155.437 42.9452L155.394 41.8875Z" fill="white" stroke="#263238" stroke-width="0.932567" stroke-linecap="round" stroke-linejoin="round"/>
<path d="M164.512 41.5057L164.213 41.5177L164.256 42.5754L164.554 42.5635L164.512 41.5057Z" fill="white" stroke="#263238" stroke-width="0.932567" stroke-linecap="round" stroke-linejoin="round"/>
<path d="M159.615 37.0859C158.347 37.1372 157.148 37.6757 156.27 38.5882C155.392 39.5008 154.903 40.7163 154.907 41.9796C154.908 42.0033 154.913 42.0267 154.922 42.0483C154.932 42.07 154.946 42.0896 154.963 42.1058C154.98 42.1221 155.001 42.1347 155.023 42.1429C155.046 42.1512 155.069 42.1549 155.093 42.1538H155.408C155.454 42.1517 155.498 42.1318 155.53 42.0983C155.561 42.0647 155.579 42.0202 155.578 41.9742C155.585 40.8905 156.012 39.8512 156.769 39.0723C157.527 38.2933 158.556 37.8345 159.645 37.791C160.733 37.7475 161.796 38.1228 162.614 38.8389C163.431 39.555 163.94 40.5569 164.035 41.6365C164.038 41.6823 164.059 41.7251 164.093 41.7557C164.127 41.7863 164.172 41.8022 164.218 41.8H164.533C164.557 41.7994 164.58 41.7939 164.602 41.784C164.623 41.7741 164.643 41.76 164.658 41.7424C164.674 41.7249 164.686 41.7043 164.694 41.682C164.702 41.6596 164.705 41.636 164.703 41.6124C164.612 40.348 164.03 39.1684 163.081 38.3234C162.131 37.4785 160.888 37.0346 159.615 37.0859Z" fill="#E8E8E8" stroke="#263238" stroke-width="0.932567" stroke-linecap="round" stroke-linejoin="round"/>
<path d="M155.945 42.5343H155.875C155.672 42.5426 155.472 42.5906 155.288 42.6755C155.103 42.7604 154.938 42.8807 154.8 43.0294C154.522 43.3297 154.375 43.7276 154.392 44.1356C154.409 44.5436 154.588 44.9282 154.889 45.2049C155.191 45.4816 155.591 45.6276 156.001 45.6109H156.069L155.945 42.5343Z" fill="#E8E8E8" stroke="#263238" stroke-width="0.932567" stroke-linecap="round" stroke-linejoin="round"/>
<path d="M156.363 44.0538C156.408 45.1955 156.489 45.9298 156.093 45.9539C155.697 45.978 155.53 45.233 155.485 44.0779C155.439 42.9228 155.544 42.2019 155.94 42.1751C156.336 42.1483 156.317 42.9121 156.363 44.0538Z" fill="white" stroke="#263238" stroke-width="0.932567" stroke-linecap="round" stroke-linejoin="round"/>
<path d="M163.729 42.2234H163.799C164.002 42.2153 164.204 42.2471 164.395 42.3169C164.586 42.3867 164.761 42.4933 164.91 42.6304C165.059 42.7675 165.18 42.9325 165.265 43.1161C165.35 43.2996 165.398 43.4981 165.406 43.7001C165.415 43.9021 165.383 44.1037 165.312 44.2935C165.242 44.4832 165.135 44.6573 164.997 44.8059C164.86 44.9545 164.694 45.0746 164.509 45.1594C164.325 45.2441 164.125 45.292 163.922 45.3H163.852L163.729 42.2234Z" fill="#E8E8E8" stroke="#263238" stroke-width="0.932567" stroke-linecap="round" stroke-linejoin="round"/>
<path d="M163.422 43.7725C163.467 44.9142 163.448 45.6485 163.844 45.6485C164.24 45.6485 164.345 44.8847 164.3 43.743C164.254 42.6013 164.087 41.867 163.694 41.8804C163.3 41.8938 163.376 42.6308 163.422 43.7725Z" fill="white" stroke="#263238" stroke-width="0.932567" stroke-linecap="round" stroke-linejoin="round"/>
<path d="M157.067 43.0489C157.067 43.0489 158.094 42.2047 159.066 42.9685" stroke="#263238" stroke-width="0.932567" stroke-linecap="round" stroke-linejoin="round"/>
<path d="M162.7 42.88C162.7 42.88 161.622 42.1216 160.701 42.9604" stroke="#263238" stroke-width="0.932567" stroke-linecap="round" stroke-linejoin="round"/>
<path d="M157.932 49.7167C157.932 49.7167 158.547 51.2496 160.825 51.5927C160.825 51.5927 159.915 53.4687 158.67 52.7317C157.181 51.8526 156.896 50.0276 156.896 50.0276L157.932 49.7167Z" fill="#E8E8E8" stroke="#263238" stroke-width="0.932567" stroke-linecap="round" stroke-linejoin="round"/>
<path d="M162.107 49.907C162.116 50.3151 161.979 50.7131 161.722 51.0312C161.465 51.3492 161.104 51.567 160.701 51.6463C160.701 51.6463 161.808 53.4526 162.716 52.4503C163.623 51.448 162.918 50.0839 162.918 50.0839L162.107 49.907Z" fill="#E8E8E8" stroke="#263238" stroke-width="0.932567" stroke-linecap="round" stroke-linejoin="round"/>
<path d="M161.601 55.2269C161.601 55.2799 161.585 55.3317 161.556 55.3757C161.526 55.4198 161.484 55.4542 161.435 55.4745C161.386 55.4947 161.332 55.5 161.279 55.4897C161.227 55.4794 161.179 55.4538 161.141 55.4164C161.104 55.3789 161.078 55.3311 161.068 55.2791C161.057 55.2272 161.063 55.1733 161.083 55.1243C161.103 55.0753 161.138 55.0335 161.182 55.004C161.226 54.9746 161.279 54.9589 161.332 54.9589C161.403 54.9589 161.472 54.9871 161.522 55.0374C161.573 55.0876 161.601 55.1558 161.601 55.2269Z" fill="#E8E8E8" stroke="#263238" stroke-width="0.932567" stroke-linecap="round" stroke-linejoin="round"/>
<path d="M161.966 60.5037C161.966 60.5567 161.951 60.6085 161.921 60.6526C161.891 60.6967 161.849 60.731 161.8 60.7513C161.751 60.7716 161.697 60.7769 161.645 60.7666C161.592 60.7562 161.544 60.7307 161.507 60.6932C161.469 60.6557 161.443 60.608 161.433 60.556C161.423 60.504 161.428 60.4501 161.448 60.4012C161.469 60.3522 161.503 60.3103 161.547 60.2809C161.592 60.2514 161.644 60.2357 161.697 60.2357C161.769 60.2357 161.837 60.264 161.888 60.3142C161.938 60.3645 161.966 60.4326 161.966 60.5037Z" fill="#E8E8E8" stroke="#263238" stroke-width="0.932567" stroke-linecap="round" stroke-linejoin="round"/>
<path d="M162.311 65.9066C162.311 65.9596 162.295 66.0114 162.266 66.0555C162.236 66.0995 162.194 66.1339 162.145 66.1542C162.096 66.1744 162.041 66.1798 161.989 66.1694C161.937 66.1591 161.889 66.1335 161.851 66.0961C161.814 66.0586 161.788 66.0108 161.778 65.9588C161.767 65.9069 161.773 65.853 161.793 65.804C161.813 65.755 161.848 65.7132 161.892 65.6837C161.936 65.6543 161.989 65.6385 162.042 65.6385C162.113 65.6385 162.182 65.6668 162.232 65.717C162.283 65.7673 162.311 65.8355 162.311 65.9066Z" fill="#E8E8E8" stroke="#263238" stroke-width="0.932567" stroke-linecap="round" stroke-linejoin="round"/>
<path d="M186.045 29.9758H131.473C131.22 29.9758 131.015 30.1798 131.015 30.4314V31.4096C131.015 31.6613 131.22 31.8652 131.473 31.8652H186.045C186.298 31.8652 186.503 31.6613 186.503 31.4096V30.4314C186.503 30.1798 186.298 29.9758 186.045 29.9758Z" fill="white"/>
<path d="M185.954 31.8652H131.564" stroke="#263238" stroke-width="0.932567" stroke-linecap="round" stroke-linejoin="round"/>
<path d="M131.564 29.9758H185.954" stroke="#263238" stroke-width="0.932567" stroke-linecap="round" stroke-linejoin="round"/>
<path d="M148.495 42.6897C148.495 42.6897 146.246 42.3762 146.125 42.9765C146.004 43.5768 146.071 44.5389 146.459 44.8525C147.192 45.4474 147.057 46.5597 147.057 46.5597L148.942 46.3774L148.991 45.4394C149.088 45.1334 149.261 44.8568 149.494 44.6354C150.173 44.0002 149.904 43.2954 149.788 42.4458C149.672 41.5963 149.109 41.9742 149.063 42.4137C149.05 42.8056 149.082 43.1978 149.16 43.5822L148.495 42.6897Z" fill="white" stroke="#263238" stroke-width="0.932567" stroke-linecap="round" stroke-linejoin="round"/>
<path d="M149.022 43.5153C149.022 43.5153 148.483 43.6251 148.058 44.3836L149.022 43.5153Z" fill="white"/>
<path d="M149.022 43.5153C149.022 43.5153 148.483 43.6251 148.058 44.3836" stroke="#263238" stroke-width="0.932567" stroke-linecap="round" stroke-linejoin="round"/>
<path d="M149.023 43.7135H146.297C146.108 43.7192 145.921 43.6799 145.75 43.5988C145.58 43.5176 145.431 43.3971 145.317 43.2472C145.219 43.111 145.167 42.948 145.167 42.7809C145.167 42.6137 145.219 42.4507 145.317 42.3146L146.68 40.3233C146.797 40.1755 146.947 40.056 147.118 39.9739C147.289 39.8918 147.476 39.8491 147.665 39.8491C147.855 39.8491 148.042 39.8918 148.213 39.9739C148.384 40.056 148.533 40.1755 148.651 40.3233L150.017 42.3146C150.114 42.4507 150.166 42.6137 150.166 42.7809C150.166 42.948 150.114 43.111 150.017 43.2472C149.901 43.3993 149.751 43.5213 149.578 43.6025C149.404 43.6838 149.214 43.7219 149.023 43.7135ZM145.791 42.5343C145.74 42.6054 145.712 42.6907 145.712 42.7782C145.712 42.8657 145.74 42.951 145.791 43.0221C145.85 43.0997 145.927 43.162 146.016 43.2039C146.105 43.2459 146.202 43.2662 146.3 43.2633H149.023C149.121 43.2665 149.218 43.2462 149.307 43.2043C149.395 43.1623 149.473 43.0998 149.532 43.0221C149.584 42.9512 149.611 42.8658 149.611 42.7782C149.611 42.6906 149.584 42.6052 149.532 42.5343L148.169 40.5458C148.11 40.4663 148.032 40.4023 147.942 40.3594C147.853 40.3164 147.754 40.2958 147.655 40.2992C147.556 40.2955 147.457 40.3161 147.368 40.3591C147.279 40.402 147.201 40.4662 147.143 40.5458L145.777 42.537L145.791 42.5343Z" fill="#263238"/>
<path d="M146.843 42.7165C146.983 43.424 146.897 43.6759 146.574 43.6384C146.251 43.6009 145.925 42.7326 146.372 42.5342C146.819 42.3359 147.18 42.1832 147.18 42.1832C147.323 42.1061 147.482 42.0634 147.645 42.0583C147.808 42.0531 147.969 42.0858 148.117 42.1537C148.758 41.9312 148.871 42.3949 148.871 42.3949C148.871 42.3949 149.335 43.7349 148.949 43.7804C148.564 43.826 148.247 42.6629 148.247 42.6629C148.247 42.6629 148.729 43.9386 148.287 43.96C147.845 43.9814 147.589 42.7218 147.589 42.7218C147.589 42.7218 147.878 43.8287 147.46 43.8662C147.043 43.9037 146.843 42.7165 146.843 42.7165Z" fill="white" stroke="#263238" stroke-width="0.932567" stroke-linecap="round" stroke-linejoin="round"/>
<path d="M147.862 31.3588H147.42V40.1572H147.862V31.3588Z" fill="white" stroke="#263238" stroke-width="0.932567" stroke-linecap="round" stroke-linejoin="round"/>
<path d="M148.106 40.0204L147.818 40.4412C147.799 40.4651 147.775 40.4845 147.748 40.4978C147.72 40.5112 147.69 40.5181 147.659 40.5181C147.629 40.5181 147.598 40.5112 147.571 40.4978C147.543 40.4845 147.519 40.4651 147.5 40.4412L147.215 40.0204C147.145 39.9213 147.234 39.798 147.371 39.798H147.948C148.088 39.798 148.174 39.932 148.106 40.0204Z" fill="white" stroke="#263238" stroke-width="0.932567" stroke-linecap="round" stroke-linejoin="round"/>
<path d="M147.897 37.0671H147.426C147.296 37.0671 147.191 37.1715 147.191 37.3003V39.2513C147.191 39.3801 147.296 39.4845 147.426 39.4845H147.897C148.026 39.4845 148.131 39.3801 148.131 39.2513V37.3003C148.131 37.1715 148.026 37.0671 147.897 37.0671Z" fill="white" stroke="#263238" stroke-width="0.932567" stroke-linecap="round" stroke-linejoin="round"/>
<path d="M147.897 29.673H147.426C147.296 29.673 147.191 29.7774 147.191 29.9061V31.8572C147.191 31.9859 147.296 32.0903 147.426 32.0903H147.897C148.026 32.0903 148.131 31.9859 148.131 31.8572V29.9061C148.131 29.7774 148.026 29.673 147.897 29.673Z" fill="white" stroke="#263238" stroke-width="0.932567" stroke-linecap="round" stroke-linejoin="round"/>
<path d="M142.616 43.7135H139.89C139.701 43.7192 139.513 43.6798 139.343 43.5987C139.172 43.5176 139.024 43.397 138.91 43.2471C138.812 43.111 138.76 42.948 138.76 42.7808C138.76 42.6137 138.812 42.4507 138.91 42.3145L140.272 40.3233C140.39 40.1754 140.54 40.0559 140.711 39.9738C140.882 39.8917 141.07 39.849 141.259 39.849C141.449 39.849 141.637 39.8917 141.808 39.9738C141.978 40.0559 142.129 40.1754 142.247 40.3233L143.609 42.3145C143.707 42.4507 143.759 42.6137 143.759 42.7808C143.759 42.948 143.707 43.111 143.609 43.2471C143.494 43.3993 143.344 43.5212 143.17 43.6025C142.997 43.6837 142.807 43.7218 142.616 43.7135ZM139.384 42.5343C139.332 42.6053 139.305 42.6906 139.305 42.7781C139.305 42.8656 139.332 42.9509 139.384 43.022C139.443 43.0996 139.52 43.1619 139.609 43.2039C139.697 43.2458 139.795 43.2662 139.893 43.2632H142.618C142.717 43.2662 142.814 43.2458 142.903 43.2039C142.992 43.162 143.07 43.0996 143.13 43.022C143.181 42.9509 143.209 42.8656 143.209 42.7781C143.209 42.6906 143.181 42.6053 143.13 42.5343L141.767 40.5457C141.708 40.4662 141.63 40.4023 141.541 40.3593C141.451 40.3164 141.352 40.2957 141.253 40.2991C141.154 40.2955 141.055 40.316 140.966 40.359C140.877 40.402 140.8 40.4661 140.741 40.5457L139.375 42.5369L139.384 42.5343Z" fill="#263238"/>
<path d="M141.454 31.3588H141.013V40.1572H141.454V31.3588Z" fill="white" stroke="#263238" stroke-width="0.932567" stroke-linecap="round" stroke-linejoin="round"/>
<path d="M141.699 40.0204L141.4 40.4412C141.381 40.4651 141.357 40.4845 141.33 40.4978C141.302 40.5112 141.272 40.5181 141.241 40.5181C141.211 40.5181 141.181 40.5112 141.153 40.4978C141.125 40.4845 141.101 40.4651 141.082 40.4412L140.797 40.0204C140.727 39.9213 140.816 39.798 140.953 39.798H141.529C141.67 39.798 141.766 39.932 141.699 40.0204Z" fill="white" stroke="#263238" stroke-width="0.932567" stroke-linecap="round" stroke-linejoin="round"/>
<path d="M141.49 37.0671H141.018C140.889 37.0671 140.784 37.1715 140.784 37.3003V39.2513C140.784 39.3801 140.889 39.4845 141.018 39.4845H141.49C141.619 39.4845 141.724 39.3801 141.724 39.2513V37.3003C141.724 37.1715 141.619 37.0671 141.49 37.0671Z" fill="white" stroke="#263238" stroke-width="0.932567" stroke-linecap="round" stroke-linejoin="round"/>
<path d="M141.49 29.673H141.018C140.889 29.673 140.784 29.7774 140.784 29.9061V31.8572C140.784 31.9859 140.889 32.0903 141.018 32.0903H141.49C141.619 32.0903 141.724 31.9859 141.724 31.8572V29.9061C141.724 29.7774 141.619 29.673 141.49 29.673Z" fill="white" stroke="#263238" stroke-width="0.932567" stroke-linecap="round" stroke-linejoin="round"/>
<path d="M170.383 43.7135H167.658C167.469 43.7197 167.281 43.6805 167.11 43.5994C166.94 43.5182 166.791 43.3974 166.677 43.2472C166.58 43.111 166.527 42.948 166.527 42.7809C166.527 42.6137 166.58 42.4507 166.677 42.3146L168.04 40.3233C168.158 40.1755 168.308 40.056 168.478 39.9739C168.649 39.8918 168.836 39.8491 169.026 39.8491C169.215 39.8491 169.402 39.8918 169.573 39.9739C169.744 40.056 169.894 40.1755 170.011 40.3233L171.374 42.3146C171.472 42.4507 171.524 42.6137 171.524 42.7809C171.524 42.948 171.472 43.111 171.374 43.2472C171.259 43.399 171.109 43.5207 170.937 43.6019C170.764 43.6831 170.574 43.7214 170.383 43.7135ZM167.151 42.5343C167.099 42.6052 167.072 42.6906 167.072 42.7782C167.072 42.8658 167.099 42.9512 167.151 43.0221C167.21 43.0998 167.288 43.1623 167.376 43.2043C167.465 43.2462 167.562 43.2665 167.66 43.2633H170.386C170.484 43.2665 170.581 43.2462 170.67 43.2043C170.758 43.1623 170.836 43.0998 170.895 43.0221C170.947 42.9512 170.974 42.8658 170.974 42.7782C170.974 42.6906 170.947 42.6052 170.895 42.5343L169.532 40.5458C169.471 40.4687 169.392 40.4065 169.303 40.3638C169.214 40.321 169.117 40.2988 169.018 40.2988C168.919 40.2988 168.821 40.321 168.732 40.3638C168.643 40.4065 168.565 40.4687 168.503 40.5458L167.14 42.537L167.151 42.5343Z" fill="#263238"/>
<path d="M169.22 31.3588H168.778V40.1572H169.22V31.3588Z" fill="white" stroke="#263238" stroke-width="0.932567" stroke-linecap="round" stroke-linejoin="round"/>
<path d="M169.465 40.0204L169.18 40.4412C169.161 40.4651 169.137 40.4845 169.109 40.4978C169.081 40.5112 169.051 40.5181 169.021 40.5181C168.99 40.5181 168.96 40.5112 168.932 40.4978C168.905 40.4845 168.881 40.4651 168.862 40.4412L168.576 40.0204C168.506 39.9213 168.595 39.798 168.732 39.798H169.309C169.446 39.798 169.535 39.932 169.465 40.0204Z" fill="white" stroke="#263238" stroke-width="0.932567" stroke-linecap="round" stroke-linejoin="round"/>
<path d="M169.257 37.0671H168.786C168.657 37.0671 168.552 37.1715 168.552 37.3003V39.2513C168.552 39.3801 168.657 39.4845 168.786 39.4845H169.257C169.387 39.4845 169.492 39.3801 169.492 39.2513V37.3003C169.492 37.1715 169.387 37.0671 169.257 37.0671Z" fill="white" stroke="#263238" stroke-width="0.932567" stroke-linecap="round" stroke-linejoin="round"/>
<path d="M169.257 29.673H168.786C168.657 29.673 168.552 29.7774 168.552 29.9061V31.8572C168.552 31.9859 168.657 32.0903 168.786 32.0903H169.257C169.387 32.0903 169.492 31.9859 169.492 31.8572V29.9061C169.492 29.7774 169.387 29.673 169.257 29.673Z" fill="white" stroke="#263238" stroke-width="0.932567" stroke-linecap="round" stroke-linejoin="round"/>
<path d="M176.489 43.7135H173.763C173.574 43.7192 173.386 43.6798 173.216 43.5987C173.045 43.5176 172.897 43.397 172.783 43.2471C172.685 43.111 172.633 42.948 172.633 42.7808C172.633 42.6137 172.685 42.4507 172.783 42.3145L174.145 40.3233C174.263 40.1754 174.414 40.0559 174.584 39.9738C174.755 39.8917 174.943 39.849 175.133 39.849C175.322 39.849 175.51 39.8917 175.681 39.9738C175.852 40.0559 176.002 40.1754 176.12 40.3233L177.482 42.3145C177.58 42.4507 177.632 42.6137 177.632 42.7808C177.632 42.948 177.58 43.111 177.482 43.2471C177.367 43.3993 177.217 43.5212 177.043 43.6025C176.87 43.6837 176.68 43.7218 176.489 43.7135ZM173.257 42.5343C173.205 42.6053 173.178 42.6906 173.178 42.7781C173.178 42.8656 173.205 42.9509 173.257 43.022C173.316 43.0996 173.393 43.1619 173.482 43.2039C173.57 43.2458 173.668 43.2662 173.766 43.2632H176.491C176.59 43.2662 176.687 43.2458 176.776 43.2039C176.865 43.162 176.943 43.0996 177.003 43.022C177.054 42.9509 177.082 42.8656 177.082 42.7781C177.082 42.6906 177.054 42.6053 177.003 42.5343L175.64 40.5457C175.581 40.4662 175.503 40.4023 175.414 40.3593C175.324 40.3164 175.225 40.2957 175.126 40.2991C175.027 40.2955 174.928 40.316 174.839 40.359C174.75 40.402 174.673 40.4661 174.614 40.5457L173.249 42.5369L173.257 42.5343Z" fill="#263238"/>
<path d="M175.328 31.3586H174.887V40.1571H175.328V31.3586Z" fill="white" stroke="#263238" stroke-width="0.932567" stroke-linecap="round" stroke-linejoin="round"/>
<path d="M175.574 40.0204L175.286 40.4412C175.267 40.4651 175.243 40.4845 175.215 40.4978C175.188 40.5112 175.158 40.5181 175.127 40.5181C175.096 40.5181 175.066 40.5112 175.039 40.4978C175.011 40.4845 174.987 40.4651 174.968 40.4412L174.683 40.0204C174.613 39.9213 174.702 39.798 174.839 39.798H175.415C175.555 39.798 175.642 39.932 175.574 40.0204Z" fill="white" stroke="#263238" stroke-width="0.932567" stroke-linecap="round" stroke-linejoin="round"/>
<path d="M175.364 37.0671H174.893C174.763 37.0671 174.658 37.1715 174.658 37.3003V39.2513C174.658 39.3801 174.763 39.4845 174.893 39.4845H175.364C175.493 39.4845 175.598 39.3801 175.598 39.2513V37.3003C175.598 37.1715 175.493 37.0671 175.364 37.0671Z" fill="white" stroke="#263238" stroke-width="0.932567" stroke-linecap="round" stroke-linejoin="round"/>
<path d="M175.364 29.673H174.893C174.763 29.673 174.658 29.7774 174.658 29.9061V31.8572C174.658 31.9859 174.763 32.0903 174.893 32.0903H175.364C175.493 32.0903 175.598 31.9859 175.598 31.8572V29.9061C175.598 29.7774 175.493 29.673 175.364 29.673Z" fill="white" stroke="#263238" stroke-width="0.932567" stroke-linecap="round" stroke-linejoin="round"/>
<path d="M149.233 45.954L149.376 47.0983L146.445 47.235L146.69 46.088L149.233 45.954Z" fill="#E8E8E8" stroke="#263238" stroke-width="0.932567" stroke-linecap="round" stroke-linejoin="round"/>
<path d="M154.202 55.5726C154.202 55.5726 149.115 60.2277 147.94 60.3001C147.652 60.3189 147.402 60.4984 147.159 60.3349C146.621 59.9705 145.842 59.1986 145.955 56.063C146.015 54.3478 147.057 47.2003 147.057 47.2003L148.942 47.1172L149.4 55.1572C151.016 53.4902 153.825 51.1801 153.828 51.1801C154.706 53.9726 154.202 55.5726 154.202 55.5726Z" fill="white" stroke="#263238" stroke-width="0.932567" stroke-linecap="round" stroke-linejoin="round"/>
<path d="M167.033 62.0447C167.16 61.4887 167.401 60.965 167.742 60.5063L167.033 62.0447Z" fill="white"/>
<path d="M167.033 62.0447C167.16 61.4887 167.401 60.965 167.742 60.5063" stroke="#263238" stroke-width="0.932567" stroke-linecap="round" stroke-linejoin="round"/>
<path d="M148.823 57.0491C149.02 56.9607 149.488 56.0897 149.392 54.6023" stroke="#263238" stroke-width="0.932567" stroke-linecap="round" stroke-linejoin="round"/>
<path d="M150.63 37.9569V34.7543C150.631 34.5995 150.693 34.4514 150.803 34.3419C150.913 34.2325 151.062 34.1707 151.217 34.17H156.27C156.425 34.1707 156.574 34.2325 156.684 34.3419C156.794 34.4514 156.856 34.5995 156.857 34.7543V37.9569C156.857 38.1118 156.795 38.2604 156.685 38.37C156.575 38.4796 156.425 38.5411 156.27 38.5411H154.511L154.651 39.7605H153.743V40.9129L152.666 39.0369H153.547L153.455 38.5438H151.214C151.137 38.5435 151.061 38.528 150.99 38.4983C150.919 38.4686 150.854 38.4253 150.8 38.3708C150.746 38.3163 150.703 38.2517 150.674 38.1807C150.644 38.1097 150.63 38.0336 150.63 37.9569Z" fill="white" stroke="#263238" stroke-width="0.932567" stroke-linecap="round" stroke-linejoin="round"/>
<path d="M155.01 35.2661H151.595" stroke="#263238" stroke-width="0.932567" stroke-linecap="round" stroke-linejoin="round"/>
<path d="M155.893 36.1747H151.595" stroke="#263238" stroke-width="0.932567" stroke-linecap="round" stroke-linejoin="round"/>
<path d="M155.231 37.0806H151.595" stroke="#263238" stroke-width="0.932567" stroke-linecap="round" stroke-linejoin="round"/>
<path d="M38.2558 117.223C45.2009 117.223 50.831 116.399 50.831 115.382C50.831 114.365 45.2009 113.541 38.2558 113.541C31.3108 113.541 25.6807 114.365 25.6807 115.382C25.6807 116.399 31.3108 117.223 38.2558 117.223Z" fill="#E8E8E8"/>
<path d="M37.1544 86.0414C49.2491 86.0414 59.0539 76.2852 59.0539 64.2503C59.0539 52.2154 49.2491 42.4592 37.1544 42.4592C25.0596 42.4592 15.2549 52.2154 15.2549 64.2503C15.2549 76.2852 25.0596 86.0414 37.1544 86.0414Z" fill="#E8E8E8"/>
<path d="M27.0546 78.5C27.0546 78.5 27.6121 81.716 25.7295 85.3313H49.2719C49.2719 85.3313 48.1946 83.6456 47.0661 78.5H27.0546Z" fill="white" stroke="#263238" stroke-width="0.87381" stroke-linecap="round" stroke-linejoin="round"/>
<path d="M32.4217 79.2423C31.133 79.345 29.8979 79.7997 28.8524 80.5563C27.8069 81.3129 26.9916 82.3421 26.4964 83.5303C26.2432 84.1414 25.9792 84.7604 25.7288 85.3393C24.2959 88.6384 25.6507 93.4383 29.3136 93.4383H46.1092C49.4301 93.4383 50.3377 89.2548 49.5432 86.1031C49.0315 84.077 47.9999 82.0429 46.2385 80.6172C43.8845 78.701 37.0057 78.8778 32.4217 79.2423Z" fill="#263238" stroke="#263238" stroke-width="0.87381" stroke-linecap="round" stroke-linejoin="round"/>
<path d="M16.3862 75.702C16.3862 75.702 13.375 77.5137 13.2754 78.4999H16.968L18.4358 77.452L17.9402 78.5053H19.0634C19.0634 78.5053 20.2565 77.5834 20.3212 76.5623L20.2 75.702L18.0453 74.7479L16.3862 75.702Z" fill="white" stroke="#263238" stroke-width="0.87381" stroke-linecap="round" stroke-linejoin="round"/>
<path d="M51.658 69.0476C51.658 69.0476 51.1759 65.8933 50.1175 61.3507C49.059 56.8081 46.9905 56.4516 46.9905 56.4516H46.9716C44.2783 55.2992 37.2756 54.6775 37.2756 54.6775H36.9524C36.9524 54.6775 29.9336 55.2992 27.2564 56.4516H27.2376C27.2376 56.4516 25.1503 56.8161 24.0918 61.3507C23.0333 65.8852 22.5485 69.0476 22.5485 69.0476C22.5485 69.0476 20.6362 69.5622 17.1941 73.8716C16.6537 74.555 16.1938 75.2978 15.8232 76.0853C15.8232 76.0853 18.4681 75.2197 20.3211 76.5463C20.3211 76.5463 26.3919 73.9842 26.6962 71.2828C26.6962 71.1863 26.7205 71.0791 26.7339 70.9638C26.9063 75.0642 27.0544 78.4893 27.0544 78.4893H47.1521C47.1521 78.4893 47.3029 75.0642 47.4753 70.9638C47.4753 71.0791 47.4995 71.1863 47.5103 71.2828C47.8173 73.9842 54.5372 77.0126 54.5372 77.0126C56.3795 74.1932 59.0539 75.7503 59.0539 75.7503L51.658 69.0476Z" fill="white"/>
<path opacity="0.3" d="M26.6964 71.288C26.6964 71.2076 26.718 71.1165 26.7287 71.02L26.2897 61.5302C26.2897 61.5302 25.0777 61.7767 25.4252 64.6899C25.7726 67.603 26.5025 67.1019 26.0958 68.2248C25.6891 69.3477 24.1108 68.0613 23.5883 69.0288C23.0658 69.9963 26.5079 69.7899 25.0858 72.2823C23.6637 74.7747 20.3213 76.5703 20.3213 76.5703C20.3213 76.5703 26.3948 73.9948 26.6964 71.288Z" fill="black"/>
<g opacity="0.3">
<path opacity="0.3" d="M47.6045 71.288C47.6045 71.2076 48.3963 71.3469 47.6045 71.288L47.8442 63.1649C47.8442 63.1649 47.7849 67.0938 48.2078 68.2248C48.6307 69.3557 50.1928 68.0613 50.7126 69.0288C51.2324 69.9962 47.793 69.7899 49.2178 72.2823C50.6426 74.7747 53.9796 76.5703 53.9796 76.5703C53.9796 76.5703 47.9115 73.9948 47.6045 71.288Z" fill="black"/>
</g>
<path opacity="0.3" d="M47.2973 73.1372C47.1653 76.2112 47.0657 78.4972 47.0657 78.4972H28.9961C41.1161 78.4972 47.3108 73.1372 47.3108 73.1372H47.2973Z" fill="black"/>
<path d="M51.658 69.0476C51.658 69.0476 51.1759 65.8933 50.1175 61.3507C49.059 56.8081 46.9905 56.4516 46.9905 56.4516H46.9716C44.2783 55.2992 37.2756 54.6775 37.2756 54.6775H36.9524C36.9524 54.6775 29.9336 55.2992 27.2564 56.4516H27.2376C27.2376 56.4516 25.1503 56.8161 24.0918 61.3507C23.0333 65.8852 22.5485 69.0476 22.5485 69.0476C22.5485 69.0476 20.6362 69.5622 17.1941 73.8716C16.6537 74.555 16.1938 75.2978 15.8232 76.0853V76.0853C15.8232 76.0853 18.4681 75.2197 20.3211 76.5463C20.3211 76.5463 26.3919 73.9842 26.6962 71.2828C26.6962 71.1863 26.7205 71.0791 26.7339 70.9638C26.9063 75.0642 27.0544 78.4893 27.0544 78.4893H47.1521C47.1521 78.4893 47.3029 75.0642 47.4753 70.9638C47.4753 71.0791 47.4995 71.1863 47.5103 71.2828C47.8173 73.9842 54.5372 77.0126 54.5372 77.0126C56.3795 74.1932 59.0539 75.7503 59.0539 75.7503L51.658 69.0476Z" stroke="#263238" stroke-width="0.87381" stroke-linecap="round" stroke-linejoin="round"/>
<path d="M23.1914 69.0288C24.1606 68.9804 25.1105 69.3102 25.839 69.9481" stroke="#263238" stroke-width="0.87381" stroke-linecap="round" stroke-linejoin="round"/>
<path d="M25.085 61.8143C25.085 61.8143 26.3293 62.0823 26.6148 68.1016L26.2404 60.2009" stroke="#263238" stroke-width="0.87381" stroke-linecap="round" stroke-linejoin="round"/>
<path d="M26.6318 68.9377L26.6888 70.1571" stroke="#263238" stroke-width="0.87381" stroke-linecap="round" stroke-linejoin="round"/>
<path d="M51.0167 69.0289C50.0494 68.9768 49.0997 69.3017 48.3691 69.9347" stroke="#263238" stroke-width="0.87381" stroke-linecap="round" stroke-linejoin="round"/>
<path d="M47.8926 61.8143C47.9161 61.2783 47.9414 60.7423 47.9685 60.2063" stroke="#263238" stroke-width="0.87381" stroke-linecap="round" stroke-linejoin="round"/>
<path d="M40.876 55.1115C40.5501 56.7356 38.9718 57.3225 37.0703 57.3225C35.1688 57.3225 33.5959 56.7382 33.2646 55.1195H33.3401C33.537 55.0928 33.7212 55.0073 33.8684 54.8743C34.0155 54.7413 34.1187 54.567 34.1642 54.3745C34.1906 54.2977 34.2043 54.2171 34.2046 54.1359V52.2305H40.0222V54.1359C40.0215 54.2551 40.0435 54.3733 40.0869 54.4844C40.1496 54.6498 40.256 54.7954 40.3949 54.9058C40.5338 55.0161 40.7 55.0872 40.876 55.1115Z" fill="white"/>
<path d="M39.9744 53.6564C39.0101 54.5998 37.9355 55.1867 36.8986 55.2322C35.8212 55.2805 34.5715 54.4014 34.0625 53.5385C34.0835 53.4635 34.0935 53.3858 34.0921 53.308V52.7238L39.9097 52.7854V53.308C39.9097 53.4313 40.0579 53.576 39.9744 53.6564Z" fill="#263238"/>
<path d="M40.876 55.1115C40.5501 56.7356 38.9718 57.3225 37.0703 57.3225C35.1688 57.3225 33.5959 56.7382 33.2646 55.1195H33.3401C33.537 55.0928 33.7212 55.0073 33.8684 54.8743C34.0155 54.7413 34.1187 54.567 34.1642 54.3745C34.1906 54.2977 34.2043 54.2171 34.2046 54.136V52.2305H40.0222V54.136C40.0215 54.2551 40.0435 54.3733 40.0869 54.4844C40.1496 54.6498 40.256 54.7954 40.3949 54.9058C40.5338 55.0161 40.7 55.0872 40.876 55.1115V55.1115Z" stroke="#263238" stroke-width="0.87381" stroke-linecap="round" stroke-linejoin="round"/>
<path d="M32.8211 48.1382C32.8211 48.1382 30.8038 45.8683 31.0678 42.7407C31.3317 39.6131 33.9119 39.6131 33.9119 39.6131C33.9119 39.6131 37.0227 36.8822 40.4944 38.5921C43.9661 40.3019 43.7264 46.2301 41.157 47.7041L32.8211 48.1382Z" fill="#263238"/>
<path d="M41.7143 46.6106C41.7412 46.0907 41.7385 45.7691 41.7385 45.7691C41.5069 44.3862 39.8074 44.2468 39.0263 44.2227C35.7539 44.1128 34.892 42.1162 34.892 42.1162C32.9071 41.524 32.3441 45.7691 32.3441 45.7691C32.3441 45.7691 32.3441 46.0907 32.3711 46.6106C32.0205 46.6772 31.7056 46.8671 31.4841 47.1456C31.2625 47.4241 31.1491 47.7726 31.1645 48.1275C31.1645 48.9744 31.7785 49.6578 32.5381 49.6578C32.6149 49.6574 32.6915 49.6502 32.767 49.6363L33.1225 51.6302C33.1899 52.0778 33.6127 53.1364 33.9925 53.3883C34.8005 53.9243 36.0798 54.6881 37.0413 54.6881C37.8709 54.6881 39.0344 54.0074 39.8936 53.5438C40.373 53.2758 40.9009 52.2493 40.9467 51.7106L41.1702 49.6953C41.2965 49.6893 41.4223 49.6768 41.5473 49.6578C42.3041 49.6578 42.9209 48.9744 42.9209 48.1275C42.9363 47.7726 42.8228 47.4241 42.6013 47.1456C42.3797 46.8671 42.0649 46.6772 41.7143 46.6106Z" fill="white" stroke="#263238" stroke-width="0.87381" stroke-linecap="round" stroke-linejoin="round"/>
<path d="M31.6915 45.3242H31.3359V46.5838H31.6915V45.3242Z" fill="white" stroke="#263238" stroke-width="0.87381" stroke-linecap="round" stroke-linejoin="round"/>
<path d="M42.5547 45.3242H42.1992V46.5838H42.5547V45.3242Z" fill="white" stroke="#263238" stroke-width="0.87381" stroke-linecap="round" stroke-linejoin="round"/>
<path d="M36.944 39.8221C35.432 39.8218 33.9789 40.4051 32.8903 41.4493C31.8017 42.4935 31.1627 43.9171 31.1076 45.4207C31.1065 45.4487 31.1111 45.4766 31.1212 45.5027C31.1313 45.5289 31.1467 45.5527 31.1663 45.5728C31.186 45.5928 31.2095 45.6087 31.2356 45.6194C31.2616 45.6301 31.2895 45.6354 31.3177 45.6351H31.6947C31.7495 45.6351 31.8022 45.6138 31.8414 45.5757C31.8807 45.5377 31.9034 45.4859 31.9048 45.4314C31.9648 44.1416 32.5219 42.9244 33.4603 42.0328C34.3988 41.1412 35.6465 40.6437 36.944 40.6437C38.2416 40.6437 39.4893 41.1412 40.4277 42.0328C41.3662 42.9244 41.9233 44.1416 41.9833 45.4314C41.9854 45.4861 42.0087 45.5379 42.0484 45.5759C42.0881 45.6139 42.141 45.6351 42.196 45.6351H42.5704C42.5987 45.6354 42.6267 45.6301 42.6529 45.6194C42.6791 45.6088 42.7028 45.5929 42.7227 45.5729C42.7425 45.5529 42.7581 45.5291 42.7685 45.5029C42.7789 45.4768 42.7839 45.4488 42.7832 45.4207C42.7274 43.9169 42.0878 42.4933 40.9988 41.4491C39.9098 40.405 38.4563 39.8218 36.944 39.8221Z" fill="white" stroke="#263238" stroke-width="0.87381" stroke-linecap="round" stroke-linejoin="round"/>
<path d="M32.2986 46.131H32.2178C31.7411 46.1491 31.2899 46.3503 30.959 46.6924C30.6282 47.0344 30.4434 47.4907 30.4434 47.9654C30.4434 48.4402 30.6282 48.8965 30.959 49.2385C31.2899 49.5806 31.7411 49.7818 32.2178 49.7999H32.2986V46.131Z" fill="#263238" stroke="#263238" stroke-width="0.87381" stroke-miterlimit="10"/>
<path d="M32.7374 47.9722C32.7374 49.3309 32.7967 50.2153 32.3253 50.2153C31.854 50.2153 31.6924 49.3309 31.6924 47.9722C31.6924 46.6134 31.854 45.7263 32.3253 45.7263C32.7967 45.7263 32.7374 46.6 32.7374 47.9722Z" fill="white" stroke="#263238" stroke-width="0.87381" stroke-linecap="round" stroke-linejoin="round"/>
<path d="M41.5928 46.131H41.6736C42.1503 46.1491 42.6015 46.3503 42.9323 46.6924C43.2632 47.0344 43.448 47.4907 43.448 47.9654C43.448 48.4402 43.2632 48.8965 42.9323 49.2385C42.6015 49.5806 42.1503 49.7818 41.6736 49.7999H41.5928V46.131Z" fill="#263238" stroke="#263238" stroke-width="0.87381" stroke-miterlimit="10"/>
<path d="M41.1515 47.9722C41.1515 49.3309 41.095 50.2153 41.5663 50.2153C42.0377 50.2153 42.1992 49.3309 42.1992 47.9722C42.1992 46.6134 42.0377 45.7263 41.5663 45.7263C41.095 45.7263 41.1515 46.6 41.1515 47.9722Z" fill="white" stroke="#263238" stroke-width="0.87381" stroke-linecap="round" stroke-linejoin="round"/>
<path d="M33.793 48.3018C33.793 48.3018 34.5606 49.2424 35.9988 48.5001" stroke="#263238" stroke-width="0.87381" stroke-linecap="round" stroke-linejoin="round"/>
<path d="M35.998 51.9598C36.3155 52.1893 36.6978 52.3129 37.0902 52.3129C37.4826 52.3129 37.8649 52.1893 38.1824 51.9598" stroke="#263238" stroke-width="0.75" stroke-linecap="round" stroke-linejoin="round"/>
<path d="M33.5801 47.0395C33.5801 47.0395 34.9725 45.9836 36.2115 47.0395" stroke="#263238" stroke-width="0.87381" stroke-linecap="round" stroke-linejoin="round"/>
<path d="M40.4185 47.0743C40.4185 47.0743 39.026 46.0023 37.7871 47.0743" stroke="#263238" stroke-width="0.87381" stroke-linecap="round" stroke-linejoin="round"/>
<path d="M38.1021 50.4806C38.1021 50.4806 38.226 51.1667 36.9628 51.1506C36.6531 51.1506 36.0901 50.9308 36.0713 50.4806" stroke="#263238" stroke-width="0.75" stroke-linecap="round" stroke-linejoin="round"/>
<path d="M34.0947 48.5509C34.2105 48.7787 34.4718 49.0413 35.0562 49.0547C35.6407 49.0681 35.743 48.8377 35.7538 48.6125C35.4934 48.7383 35.2058 48.7985 34.9165 48.7877C34.6272 48.777 34.345 48.6956 34.0947 48.5509Z" fill="#263238"/>
<path d="M40.2166 48.3018C40.2166 48.3018 39.449 49.2425 38.0107 48.5001" stroke="#263238" stroke-width="0.87381" stroke-linecap="round" stroke-linejoin="round"/>
<path d="M39.915 48.5509C39.7991 48.7787 39.5379 49.0413 38.9534 49.0547C38.369 49.0681 38.2666 48.8377 38.2559 48.6125C38.5163 48.7385 38.8038 48.7988 39.0931 48.7881C39.3825 48.7773 39.6647 48.6959 39.915 48.5509Z" fill="#263238"/>
<path d="M34.5735 38.308C34.5735 38.308 33.8652 38.7019 33.9433 39.8222C33.9433 39.8222 33.6955 39.0664 32.7852 39.3961" stroke="#263238" stroke-width="0.87381" stroke-linecap="round" stroke-linejoin="round"/>
<path d="M37.1028 58.1561C38.0311 58.1559 38.9367 57.8702 39.6956 57.3382C40.4545 56.8062 41.0296 56.0538 41.3421 55.184C41.097 55.1465 40.8546 55.1143 40.6203 55.0822C40.2512 55.6802 39.7342 56.1742 39.1186 56.5168C38.5031 56.8595 37.8095 57.0394 37.1042 57.0394C36.3988 57.0394 35.7053 56.8595 35.0897 56.5168C34.4741 56.1742 33.9571 55.6802 33.588 55.0822C33.3537 55.1143 33.1113 55.1465 32.8662 55.184C33.1786 56.0533 33.7533 56.8054 34.5117 57.3374C35.27 57.8694 36.175 58.1554 37.1028 58.1561Z" fill="#263238" stroke="#263238" stroke-width="0.87381" stroke-linecap="round" stroke-linejoin="round"/>
<path d="M47.4746 70.9745C47.5931 68.3624 47.7125 65.7494 47.8328 63.1355" stroke="#263238" stroke-width="0.87381" stroke-linecap="round" stroke-linejoin="round"/>
<path d="M47.5636 44.2764V41.39C47.5636 41.2478 47.5069 41.1115 47.4058 41.011C47.3048 40.9105 47.1678 40.854 47.0249 40.854H42.484C42.3411 40.854 42.2041 40.9105 42.1031 41.011C42.0021 41.1115 41.9453 41.2478 41.9453 41.39V44.2764C41.9453 44.4185 42.0021 44.5549 42.1031 44.6554C42.2041 44.7559 42.3411 44.8124 42.484 44.8124H44.0677L43.9411 45.9112H44.7491V46.9483L45.716 45.2572H44.9214L45.0049 44.8124H47.0222C47.0932 44.8127 47.1636 44.7991 47.2292 44.7723C47.2949 44.7456 47.3546 44.7061 47.4049 44.6563C47.4552 44.6065 47.4951 44.5473 47.5223 44.4821C47.5496 44.4169 47.5636 44.347 47.5636 44.2764Z" fill="white" stroke="#263238" stroke-width="0.87381" stroke-linecap="round" stroke-linejoin="round"/>
<path d="M42.8232 41.8536H45.9017" stroke="#263238" stroke-width="0.87381" stroke-linecap="round" stroke-linejoin="round"/>
<path d="M42.8232 42.671H46.6936" stroke="#263238" stroke-width="0.87381" stroke-linecap="round" stroke-linejoin="round"/>
<path d="M42.8232 43.4884H46.0983" stroke="#263238" stroke-width="0.87381" stroke-linecap="round" stroke-linejoin="round"/>
<path d="M61.5154 77.1036C61.5154 77.9559 60.1687 78.4892 58.515 78.4892C56.8613 78.4892 55.5146 77.9532 55.5146 77.1036C55.5146 76.2541 56.8613 75.5573 58.515 75.5573C60.1687 75.5573 61.5154 76.2487 61.5154 77.1036Z" fill="white" stroke="#263238" stroke-width="0.87381" stroke-linecap="round" stroke-linejoin="round"/>
<path d="M56.5727 78.181C56.6535 78.1622 56.7182 77.712 55.9883 77.377C55.4819 77.1465 55.4685 76.9026 55.7594 76.6024C56.0502 76.3023 56.5458 76.0504 56.9283 76.1602C57.5504 76.3371 57.9625 77.6262 58.2399 77.3475C58.6574 77.2403 58.1537 76.0584 57.4077 75.6698C58.7543 76.0021 58.819 77.5458 59.4385 77.4225C59.9125 77.3314 59.0937 75.7984 58.3854 75.3455C58.8393 75.556 59.2363 75.8711 59.5435 76.2648C59.9933 76.916 60.0445 77.1358 60.3515 77.042C60.7501 76.916 59.7994 75.4849 59.6809 75.3294C60.2788 75.5653 60.3919 76.0638 60.575 76.2648C60.7582 76.4658 60.8444 76.8008 61.0975 76.6694C61.3507 76.5381 61.1164 76.0718 60.9467 75.7984C60.1387 74.4986 58.7921 74.2816 57.51 74.4424C56.4973 74.571 55.3338 74.9944 54.717 75.7984C54.5601 75.9988 54.4679 76.2418 54.4525 76.4953C54.4371 76.7489 54.4993 77.0012 54.6309 77.2188C54.8463 77.6718 55.6166 78.3954 56.5727 78.181Z" fill="white" stroke="#263238" stroke-width="0.87381" stroke-linecap="round" stroke-linejoin="round"/>
<path d="M62.3018 78.5H12.7364C12.5891 78.5 12.4697 78.6188 12.4697 78.7653V79.1914C12.4697 79.338 12.5891 79.4568 12.7364 79.4568H62.3018C62.4491 79.4568 62.5684 79.338 62.5684 79.1914V78.7653C62.5684 78.6188 62.4491 78.5 62.3018 78.5Z" fill="#BFBFBF" stroke="#263238" stroke-width="0.87381" stroke-miterlimit="10"/>
<path d="M14.1909 78.4999L10.5441 67.4717C10.5304 67.4288 10.5268 67.3833 10.5337 67.3387C10.5406 67.2941 10.5577 67.2518 10.5838 67.2149C10.6099 67.1781 10.6442 67.1477 10.684 67.1263C10.7239 67.1048 10.7682 67.0928 10.8134 67.0912H22.3328L26.4348 78.4999H14.1909Z" fill="#263238"/>
<path d="M22.6478 67.0912L26.4185 77.8594H36.5185V78.2373C36.5185 78.3084 36.4901 78.3766 36.4396 78.4268C36.3891 78.4771 36.3206 78.5053 36.2491 78.5053H25.7721L22.1441 67.5361C22.1281 67.4868 22.1239 67.4345 22.1319 67.3833C22.1399 67.3321 22.16 67.2835 22.1904 67.2415C22.2209 67.1995 22.2608 67.1652 22.3071 67.1414C22.3533 67.1176 22.4045 67.105 22.4566 67.1046L22.6478 67.0912Z" fill="white" stroke="#263238" stroke-width="0.87381" stroke-linecap="round" stroke-linejoin="round"/>
<path d="M17.2991 72.7968C17.2635 72.6095 17.1758 72.4358 17.0459 72.2957C17.1023 72.2294 17.173 72.1766 17.2527 72.1413C17.3325 72.1061 17.4192 72.0892 17.5065 72.092C17.71 72.1006 17.9052 72.1751 18.0622 72.3043C18.2193 72.4335 18.3296 72.6102 18.3764 72.8075C18.4013 72.893 18.4054 72.9831 18.3883 73.0705C18.3712 73.1578 18.3335 73.2398 18.2782 73.3098C18.2229 73.3797 18.1517 73.4355 18.0704 73.4726C17.9891 73.5097 17.9001 73.527 17.8108 73.5231C17.6043 73.5183 17.406 73.4415 17.2506 73.306C17.3283 73.1477 17.3455 72.9668 17.2991 72.7968Z" fill="white"/>
<path d="M40.6366 78.4999H44.3184C44.8089 78.1426 45.2063 77.6738 45.4776 77.1325C45.7489 76.5912 45.8861 75.9933 45.8778 75.3885V73.6652C45.8778 73.5998 45.8649 73.5349 45.8397 73.4745C45.8145 73.414 45.7776 73.359 45.7311 73.3127C45.6846 73.2665 45.6294 73.2297 45.5686 73.2047C45.5078 73.1796 45.4427 73.1667 45.3769 73.1667H39.5916C39.5259 73.1667 39.4609 73.1797 39.4003 73.2047C39.3397 73.2298 39.2846 73.2666 39.2383 73.3129C39.192 73.3592 39.1554 73.4142 39.1305 73.4747C39.1056 73.5351 39.093 73.5999 39.0933 73.6652V75.3885C39.083 75.9919 39.2176 76.5891 39.4861 77.1303C39.7545 77.6715 40.149 78.1411 40.6366 78.4999Z" fill="white" stroke="#263238" stroke-width="0.87381" stroke-linecap="round" stroke-linejoin="round"/>
<path d="M46.9228 73.9011C46.7676 73.8039 46.5898 73.7484 46.4067 73.7399C46.2235 73.7314 46.0413 73.7704 45.8778 73.8528V74.4746C46.0373 74.448 46.2011 74.4804 46.3383 74.5657C46.8581 74.8659 46.7477 75.4796 46.3841 76.104C46.2178 76.458 45.9318 76.7425 45.5761 76.908C45.4698 77.1659 45.3352 77.4112 45.1748 77.6397C45.867 77.7897 46.4999 77.2055 46.9955 76.3533C47.5773 75.3509 47.7523 74.3781 46.9228 73.9011Z" fill="white" stroke="#263238" stroke-width="0.87381" stroke-linecap="round" stroke-linejoin="round"/>
<path d="M42.5544 70.4519C42.6882 70.0178 42.7545 69.5659 42.751 69.1119C42.751 66.5927 40.3701 66.2952 40.3701 63.433" stroke="#263238" stroke-width="0.87381" stroke-linecap="round" stroke-linejoin="round"/>
<path d="M40.8652 72.6737C41.2965 72.4064 41.6693 72.0555 41.9614 71.6418" stroke="#263238" stroke-width="0.87381" stroke-linecap="round" stroke-linejoin="round"/>
<path d="M42.3485 65.8343C42.2145 65.5883 42.1587 65.3081 42.1885 65.0303" stroke="#263238" stroke-width="0.87381" stroke-linecap="round" stroke-linejoin="round"/>
<path d="M44.2019 69.3718C44.0807 68.5839 43.6256 67.8442 43.1758 67.1715" stroke="#263238" stroke-width="0.87381" stroke-linecap="round" stroke-linejoin="round"/>
<path d="M42.8232 72.7031C42.8232 72.7031 43.6097 72.3735 44.0406 70.8861" stroke="#263238" stroke-width="0.87381" stroke-linecap="round" stroke-linejoin="round"/>
<path d="M47.6339 93.4302H27.4662C25.9936 93.4302 24.7998 94.6181 24.7998 96.0834V109.349C24.7998 110.815 25.9936 112.003 27.4662 112.003H47.6339C49.1065 112.003 50.3003 110.815 50.3003 109.349V96.0834C50.3003 94.6181 49.1065 93.4302 47.6339 93.4302Z" fill="white" stroke="#263238" stroke-width="0.87381" stroke-miterlimit="10"/>
<path d="M31.1748 106.208L31.4792 111.507L31.5142 111.552C31.7552 111.874 32.0692 112.135 32.4307 112.313C32.7922 112.491 33.1909 112.582 33.5943 112.577C33.9977 112.573 34.3942 112.473 34.7517 112.287C35.1092 112.101 35.4173 111.834 35.6511 111.507L35.7642 106.208H31.1748Z" fill="white" stroke="#263238" stroke-width="0.87381" stroke-linecap="round" stroke-linejoin="round"/>
<path d="M36.7717 116.685C34.7287 117.041 32.6389 117.041 30.5959 116.685C30.4051 116.497 30.2411 116.284 30.1084 116.052C29.9019 115.686 29.7852 115.277 29.7679 114.858C29.7506 114.439 29.8331 114.022 30.0087 113.64L31.2396 111.456L36.1172 111.51L37.2161 113.503C37.4798 113.977 37.5934 114.518 37.5419 115.057C37.4905 115.595 37.2764 116.106 36.9279 116.521C36.8787 116.578 36.8266 116.633 36.7717 116.685Z" fill="#BFBFBF" stroke="#263238" stroke-width="0.87381" stroke-miterlimit="10"/>
<path d="M35.5732 113.935C35.875 114.067 36.1628 114.229 36.4324 114.417L35.5732 113.935Z" fill="#BFBFBF"/>
<path d="M35.5732 113.935C35.875 114.067 36.1628 114.229 36.4324 114.417" stroke="#263238" stroke-width="0.87381" stroke-miterlimit="10"/>
<path d="M30.9727 114.417C31.508 114.053 32.1108 113.797 32.746 113.666C33.3813 113.535 34.0364 113.531 34.6733 113.653" fill="#BFBFBF"/>
<path d="M30.9727 114.417C31.508 114.053 32.1108 113.797 32.746 113.666C33.3813 113.535 34.0364 113.531 34.6733 113.653" stroke="#263238" stroke-width="0.87381" stroke-miterlimit="10"/>
<path d="M28.5487 84.3423L30.7033 108.913H36.2758C36.2758 108.913 36.828 93.9046 37.1781 84.1601C37.201 83.5821 37.1061 83.0054 36.8991 82.4648C36.6922 81.9241 36.3774 81.4308 35.9738 81.0144C35.5702 80.598 35.0861 80.2672 34.5506 80.0419C34.0151 79.8166 33.4394 79.7014 32.858 79.7033C32.2611 79.7013 31.6703 79.8227 31.1231 80.0598C30.5759 80.2969 30.0841 80.6445 29.679 81.0807C29.2738 81.5168 28.9642 82.0319 28.7696 82.5934C28.575 83.1549 28.4998 83.7504 28.5487 84.3423Z" fill="#263238"/>
<path d="M34.0942 79.8774C33.6884 79.7589 33.2674 79.7002 32.8445 79.7032V79.7032C32.2488 79.7031 31.6595 79.8259 31.1139 80.0638C30.5682 80.3017 30.0781 80.6496 29.6744 81.0856C29.2707 81.5215 28.9623 82.036 28.7685 82.5965C28.5747 83.1571 28.4999 83.7515 28.5486 84.3423L29.3136 93.4302" stroke="white" stroke-width="0.87381" stroke-linecap="round" stroke-linejoin="round"/>
<path d="M36.4216 81.5525C36.2009 81.2404 35.9412 80.9577 35.6486 80.7109C35.6486 80.7109 35.312 80.4429 35.1611 80.3572" stroke="white" stroke-width="0.87381" stroke-linecap="round" stroke-linejoin="round"/>
<path d="M36.8096 93.4303C36.92 90.3885 37.0924 86.8295 37.1866 84.1602C37.2124 83.4975 37.0833 82.8379 36.8096 82.2333" stroke="white" stroke-width="0.87381" stroke-linecap="round" stroke-linejoin="round"/>
<path d="M40.2402 106.208L40.5446 111.507L40.5796 111.552C40.8206 111.874 41.1347 112.135 41.4962 112.313C41.8577 112.491 42.2564 112.582 42.6597 112.577C43.0631 112.573 43.4597 112.473 43.8171 112.287C44.1746 112.101 44.4828 111.834 44.7166 111.507L44.8297 106.208H40.2402Z" fill="white" stroke="#263238" stroke-width="0.87381" stroke-linecap="round" stroke-linejoin="round"/>
<path d="M45.8379 116.685C43.7948 117.041 41.7051 117.041 39.662 116.685C39.4718 116.497 39.3086 116.284 39.1772 116.052C38.9697 115.687 38.8522 115.278 38.8344 114.858C38.8166 114.439 38.899 114.022 39.0749 113.64L40.3084 111.456L45.1834 111.51L46.2823 113.503C46.546 113.977 46.6596 114.518 46.6081 115.057C46.5567 115.595 46.3426 116.106 45.9941 116.521C45.9449 116.578 45.8928 116.633 45.8379 116.685Z" fill="#BFBFBF" stroke="#263238" stroke-width="0.87381" stroke-miterlimit="10"/>
<path d="M44.6387 113.935C44.9407 114.066 45.2286 114.228 45.4978 114.417L44.6387 113.935Z" fill="#BFBFBF"/>
<path d="M44.6387 113.935C44.9407 114.066 45.2286 114.228 45.4978 114.417" stroke="#263238" stroke-width="0.87381" stroke-miterlimit="10"/>
<path d="M40.0439 114.417C40.5794 114.053 41.1821 113.798 41.8174 113.666C42.4526 113.535 43.1076 113.531 43.7446 113.653" fill="#BFBFBF"/>
<path d="M40.0439 114.417C40.5794 114.053 41.1821 113.798 41.8174 113.666C42.4526 113.535 43.1076 113.531 43.7446 113.653" stroke="#263238" stroke-width="0.87381" stroke-miterlimit="10"/>
<path d="M37.6229 84.3424L39.7775 108.913H45.35C45.35 108.913 45.9022 93.9046 46.255 84.1601C46.2761 83.5807 46.1792 83.0031 45.9702 82.4619C45.7612 81.9207 45.4445 81.4271 45.0389 81.0108C44.6334 80.5945 44.1475 80.2641 43.6103 80.0394C43.0732 79.8147 42.496 79.7004 41.9133 79.7033C41.3181 79.7039 40.7294 79.8272 40.1844 80.0655C39.6394 80.3037 39.1499 80.6518 38.7468 81.0876C38.3437 81.5235 38.0357 82.0377 37.8423 82.5979C37.6488 83.1581 37.5741 83.752 37.6229 84.3424Z" fill="#263238"/>
<path d="M43.6909 80.0732C43.1315 79.8256 42.5256 79.6996 41.9133 79.7033C41.3181 79.7039 40.7294 79.8273 40.1844 80.0655C39.6394 80.3038 39.1499 80.6518 38.7468 81.0876C38.3437 81.5235 38.0357 82.0377 37.8423 82.5979C37.6488 83.1581 37.5741 83.7521 37.6229 84.3424L38.4309 93.4303" stroke="white" stroke-width="0.87381" stroke-linecap="round" stroke-linejoin="round"/>
<path d="M45.4878 81.5525C45.2685 81.2393 45.0086 80.9564 44.7148 80.7109" stroke="white" stroke-width="0.87381" stroke-linecap="round" stroke-linejoin="round"/>
<path d="M46.1093 93.4301C46.2197 90.3883 46.1578 86.8293 46.2547 84.16C46.2765 83.5736 46.1776 82.989 45.9639 82.4421" stroke="white" stroke-width="0.87381" stroke-linecap="round" stroke-linejoin="round"/>
<path d="M112.111 42.5236V31.0881C112.111 30.5351 111.89 30.0048 111.497 29.6137C111.104 29.2227 110.571 29.0031 110.015 29.0031H91.986C91.4303 29.0031 90.8973 29.2227 90.5044 29.6137C90.1114 30.0048 89.8906 30.5351 89.8906 31.0881V42.5236C89.8906 43.0766 90.1114 43.607 90.5044 43.998C90.8973 44.389 91.4303 44.6087 91.986 44.6087H98.2642L97.7686 48.961H101.001V53.0641L104.836 46.3641H101.69L102.021 44.606H110.015C110.571 44.606 111.103 44.3867 111.496 43.9963C111.889 43.6058 112.11 43.0762 112.111 42.5236Z" fill="white" stroke="#263238" stroke-width="1.02547" stroke-linecap="round" stroke-linejoin="round"/>
<path d="M93.332 32.9158H105.522" stroke="#263238" stroke-width="1.02547" stroke-linecap="round" stroke-linejoin="round"/>
<path d="M93.332 36.1559H108.668" stroke="#263238" stroke-width="1.02547" stroke-linecap="round" stroke-linejoin="round"/>
<path d="M93.332 39.396H106.309" stroke="#263238" stroke-width="1.02547" stroke-linecap="round" stroke-linejoin="round"/>
<path d="M125.881 91.4897L136.773 95.1024L134.071 97.7931L139.113 102.81L128.221 99.1974L130.923 96.5067L125.881 91.4897Z" fill="#E8E8E8" stroke="#263238" stroke-width="1.02547" stroke-linecap="round" stroke-linejoin="round"/>
<path d="M76.1191 91.4899L65.2272 95.1025L67.9286 97.7932L62.8867 102.81L73.7786 99.1976L71.0771 96.5068L76.1191 91.4899Z" fill="#E8E8E8" stroke="#263238" stroke-width="1.02547" stroke-linecap="round" stroke-linejoin="round"/>
<path d="M100.696 8.61353L95.5596 18.835H99.3841V25.9317L104.518 15.7102H100.696V8.61353Z" fill="#E8E8E8" stroke="#263238" stroke-width="1.02547" stroke-linecap="round" stroke-linejoin="round"/>
</svg>
