<svg width="210" height="210" viewBox="0 0 210 210" fill="none" xmlns="http://www.w3.org/2000/svg">
<path d="M200.621 96.9529C198.42 86.1883 194.556 75.6799 189.962 66.0199C182.04 49.3543 169.062 35.5153 152.46 27.3001C111.72 7.14009 82.3199 15.5401 66.3599 31.9201C50.3999 48.3001 55.0199 76.4401 37.7999 88.6201C20.5799 100.8 8.39988 106.26 7.55988 128.52C6.71988 150.78 17.6399 167.58 35.2799 173.04C52.9199 178.5 79.3799 196.14 132.3 186.06C185.22 175.98 198.24 147.84 201.6 127.68C203.28 117.537 202.7 107.129 200.621 96.9529Z" fill="#CBCBCB"/>
<path opacity="0.7" d="M200.621 96.9529C198.42 86.1883 194.556 75.6799 189.962 66.0199C182.04 49.3543 169.062 35.5153 152.46 27.3001C111.72 7.14009 82.3199 15.5401 66.3599 31.9201C50.3999 48.3001 55.0199 76.4401 37.7999 88.6201C20.5799 100.8 8.39988 106.26 7.55988 128.52C6.71988 150.78 17.6399 167.58 35.2799 173.04C52.9199 178.5 79.3799 196.14 132.3 186.06C185.22 175.98 198.24 147.84 201.6 127.68C203.28 117.537 202.7 107.129 200.621 96.9529Z" fill="white"/>
<path d="M76.5748 35.4984H72.7695V52.3614H76.5748V35.4984Z" fill="#C9C9C9" stroke="#263238" stroke-linecap="round" stroke-linejoin="round"/>
<path d="M76.5748 38.0353H72.7695V39.6817H76.5748V38.0353Z" fill="white" stroke="#263238" stroke-linecap="round" stroke-linejoin="round"/>
<path d="M76.5748 48.4974H72.7695V50.1438H76.5748V48.4974Z" fill="white" stroke="#263238" stroke-linecap="round" stroke-linejoin="round"/>
<path d="M81.0151 35.4984H75.6895V52.3614H81.0151V35.4984Z" fill="#878787" stroke="#263238" stroke-linecap="round" stroke-linejoin="round"/>
<path d="M80.6363 35.4984H76.8311V52.3614H80.6363V35.4984Z" fill="#C9C9C9" stroke="#263238" stroke-linecap="round" stroke-linejoin="round"/>
<path d="M80.6363 38.0353H76.8311V39.6817H80.6363V38.0353Z" fill="white" stroke="#263238" stroke-linecap="round" stroke-linejoin="round"/>
<path d="M80.6363 48.4974H76.8311V50.1438H80.6363V48.4974Z" fill="white" stroke="#263238" stroke-linecap="round" stroke-linejoin="round"/>
<path d="M85.0717 35.4984H79.7461V52.3614H85.0717V35.4984Z" fill="#878787" stroke="#263238" stroke-linecap="round" stroke-linejoin="round"/>
<path d="M84.6929 35.4984H80.8877V52.3614H84.6929V35.4984Z" fill="#C9C9C9" stroke="#263238" stroke-linecap="round" stroke-linejoin="round"/>
<path d="M84.6929 38.0353H80.8877V39.6817H84.6929V38.0353Z" fill="white" stroke="#263238" stroke-linecap="round" stroke-linejoin="round"/>
<path d="M84.6929 48.4974H80.8877V50.1438H84.6929V48.4974Z" fill="white" stroke="#263238" stroke-linecap="round" stroke-linejoin="round"/>
<path d="M89.1283 35.4984H83.8027V52.3614H89.1283V35.4984Z" fill="#C9C9C9" stroke="#263238" stroke-linecap="round" stroke-linejoin="round"/>
<path d="M92.5977 52.5337H101.535L103.912 50.3833H92.5977V52.5337Z" fill="white" stroke="#263238" stroke-linecap="round" stroke-linejoin="round"/>
<path d="M102.9 52.6429L102.615 52.1515L92.4131 52.1305L92.7071 52.6429H102.9Z" fill="white" stroke="#263238" stroke-linecap="round" stroke-linejoin="round"/>
<path d="M87.424 35.8496L84.1299 37.7545L92.5716 52.3524L95.8657 50.4475L87.424 35.8496Z" fill="#C9C9C9" stroke="#263238" stroke-linecap="round" stroke-linejoin="round"/>
<path d="M88.6945 38.0398L85.4004 39.9447L86.2246 41.37L89.5186 39.465L88.6945 38.0398Z" fill="white" stroke="#263238" stroke-linecap="round" stroke-linejoin="round"/>
<path d="M93.9357 47.0956L90.6416 49.0005L91.4658 50.4257L94.7599 48.5208L93.9357 47.0956Z" fill="white" stroke="#263238" stroke-linecap="round" stroke-linejoin="round"/>
<path d="M103.854 50.5302L95.777 50.5092L87.335 35.91L95.4116 35.931L103.854 50.5302Z" fill="#C9C9C9" stroke="#263238" stroke-linecap="round" stroke-linejoin="round"/>
<path d="M108.255 43.9951C108.255 43.9951 106.785 43.4701 106.365 41.1601C105.945 38.8501 105.21 35.5951 106.05 34.8601C106.89 34.1251 108.465 33.7051 108.675 35.1751C108.885 36.6451 108.57 39.4801 108.885 40.1101C109.2 40.7401 110.25 40.3201 110.25 39.0601C110.25 36.9853 109.41 34.8601 109.708 32.7601C110.128 29.8579 113.068 29.5387 113.383 32.7601C113.56 34.5409 113.61 36.3595 113.61 38.1487C113.61 38.8837 114.87 39.3037 114.765 37.5187C114.689 36.2587 115.605 34.7887 116.865 35.2087C118.125 35.6287 117.075 41.1937 116.655 42.1387C116.235 43.0837 113.61 43.2601 113.61 43.2601V45.6751L110.46 45.7801L110.355 43.3651C109.714 43.7358 108.995 43.9515 108.255 43.9951Z" fill="#CBCBCB" stroke="#263238" stroke-linecap="round" stroke-linejoin="round"/>
<path d="M111.091 39.3918C111.129 39.9168 111.154 40.2318 111.154 40.2318" stroke="#263238" stroke-linecap="round" stroke-linejoin="round"/>
<path d="M111.3 31.2482C111.3 31.2482 110.611 31.727 110.662 33.1634C110.695 34.037 110.863 36.4562 110.994 38.2244" stroke="#263238" stroke-linecap="round" stroke-linejoin="round"/>
<path d="M112.484 36.2L112.594 39.7154" stroke="#263238" stroke-linecap="round" stroke-linejoin="round"/>
<path d="M114.022 42.0001C113.779 42.038 113.533 42.059 113.287 42.0631" stroke="#263238" stroke-linecap="round" stroke-linejoin="round"/>
<path d="M116.214 36.0948C115.972 36.5546 115.843 37.066 115.841 37.5858C115.841 38.4258 115.895 40.782 115.362 41.4204C115.231 41.5638 115.073 41.6782 114.896 41.7564" stroke="#263238" stroke-linecap="round" stroke-linejoin="round"/>
<path d="M107.101 40.8198C107.227 41.4513 107.53 42.0339 107.974 42.4998C108.237 42.7102 108.562 42.829 108.898 42.8381C109.235 42.8472 109.565 42.7461 109.839 42.5502" stroke="#263238" stroke-linecap="round" stroke-linejoin="round"/>
<path d="M107 35.1375C107 35.1375 105.937 35.1374 106.307 36.998C106.466 37.7834 106.613 38.7495 106.802 39.6609" stroke="#263238" stroke-linecap="round" stroke-linejoin="round"/>
<path d="M110.994 42.2184L111.208 44.5074" stroke="#263238" stroke-linecap="round" stroke-linejoin="round"/>
<path d="M116.446 44.7299L116.064 47.8631L115.803 49.9967L115.501 52.4789H107.945L107.643 49.9967L107.382 47.8631L107 44.7299H116.446Z" fill="white" stroke="#263238" stroke-linecap="round" stroke-linejoin="round"/>
<path d="M116.063 47.8633L115.803 49.9969H107.642L107.382 47.8633H116.063Z" fill="#CBCBCB" stroke="#263238" stroke-linecap="round" stroke-linejoin="round"/>
<path d="M120.595 52.479H72.0977V55.692H120.595V52.479Z" fill="white" stroke="#263238" stroke-linecap="round" stroke-linejoin="round"/>
<path d="M120.594 52.479H109.414V55.692H120.594V52.479Z" fill="white" stroke="#263238" stroke-linecap="round" stroke-linejoin="round"/>
<path d="M108.327 55.7046C113.523 57.6198 112.586 61.2402 112.586 61.2402H117.504V55.7046H108.327Z" fill="#919191" stroke="#263238" stroke-linecap="round" stroke-linejoin="round"/>
<path d="M109.986 55.7046C115.178 57.6198 114.241 61.2402 114.241 61.2402H119.163V55.7046H109.986Z" fill="white" stroke="#263238" stroke-linecap="round" stroke-linejoin="round"/>
<path d="M75.042 55.7048C80.2374 57.62 79.3008 61.2404 79.3008 61.2404H84.219V55.7048H75.042Z" fill="#919191" stroke="#263238" stroke-linecap="round" stroke-linejoin="round"/>
<path d="M76.7012 55.7048C81.8924 57.62 80.9558 61.2404 80.9558 61.2404H85.8782V55.7048H76.7012Z" fill="white" stroke="#263238" stroke-linecap="round" stroke-linejoin="round"/>
<path d="M188.177 36.099H144.682V96.4782H188.177V36.099Z" fill="#919191" stroke="#263238" stroke-linecap="round" stroke-linejoin="round"/>
<path d="M186.291 38.7198H146.571V93.8574H186.291V38.7198Z" fill="#CBCBCB"/>
<path opacity="0.5" d="M186.291 38.7198H146.571V93.8574H186.291V38.7198Z" fill="white"/>
<path d="M155.303 89.6699C154.238 91.2944 152.893 92.7166 151.33 93.8699H186.291V38.7197H179.848L179.008 38.9843C172.708 40.9709 166.198 46.7207 162.506 57.1703" stroke="#263238" stroke-linecap="round" stroke-linejoin="round"/>
<path d="M161.893 59.0017C160.426 63.9851 159.616 69.1386 159.482 74.3317C159.251 80.5645 157.924 85.0459 156.151 88.2673" stroke="#263238" stroke-linecap="round" stroke-linejoin="round"/>
<path d="M182.406 52.7141C176.631 56.0741 169.907 61.7189 167.395 70.3751C166.047 74.9951 167.311 79.1615 169.81 82.7273" stroke="#263238" stroke-linecap="round" stroke-linejoin="round"/>
<path d="M171.163 84.4661C174.628 88.5233 179.563 91.7153 183.557 93.8615H186.291V50.6771C185.51 51.0425 184.679 51.4541 183.813 51.9371" stroke="#263238" stroke-linecap="round" stroke-linejoin="round"/>
<path d="M153.174 53.0963C156.215 46.8971 156.534 41.9789 156.185 38.7197H146.58V63.9449C148 61.9247 149.738 59.2241 151.838 55.6037C151.969 55.3811 152.09 55.1837 152.212 54.9485" stroke="#263238" stroke-linecap="round" stroke-linejoin="round"/>
<path d="M156.937 76.9734C156.471 80.0268 155.068 82.2444 153.413 82.2444C151.376 82.2444 149.722 78.8844 149.722 74.7264C149.722 70.5684 151.376 67.2084 153.413 67.2084C155.451 67.2084 157.105 70.5684 157.105 74.7264" stroke="#263238" stroke-linecap="round" stroke-linejoin="round"/>
<path d="M158.689 59.2956C158.689 60.8958 157.983 62.1978 157.106 62.1978C156.228 62.1978 155.526 60.8958 155.526 59.2956C155.526 57.6954 156.232 56.3934 157.106 56.3934C157.979 56.3934 158.689 57.6912 158.689 59.2956Z" stroke="#263238" stroke-linecap="round" stroke-linejoin="round"/>
<path d="M178.841 71.5555C180.365 72.2821 181.361 73.5505 181.361 74.9911C181.361 77.2465 178.883 79.0777 175.821 79.0777C172.759 79.0777 170.285 77.2465 170.285 74.9911C170.285 72.7357 172.763 70.9003 175.821 70.9003C176.309 70.8999 176.795 70.9478 177.274 71.0431" stroke="#263238" stroke-linecap="round" stroke-linejoin="round"/>
<path d="M178.156 74.991C178.156 75.936 177.119 76.7046 175.833 76.7046C174.548 76.7046 173.511 75.936 173.511 74.991C173.511 74.046 174.552 73.2732 175.833 73.2732C177.114 73.2732 178.156 74.0418 178.156 74.991Z" stroke="#263238" stroke-linecap="round" stroke-linejoin="round"/>
<path d="M181.902 64.5708C181.902 65.8812 180.604 66.9438 179 66.9438C177.395 66.9438 176.098 65.8812 176.098 64.5708C176.098 63.2604 177.395 62.1978 179 62.1978C180.604 62.1978 181.902 63.2604 181.902 64.5708Z" stroke="#263238" stroke-linecap="round" stroke-linejoin="round"/>
<path d="M160.931 51.3827C162.024 51.3827 162.91 49.1977 162.91 46.5023C162.91 43.807 162.024 41.6219 160.931 41.6219C159.839 41.6219 158.953 43.807 158.953 46.5023C158.953 49.1977 159.839 51.3827 160.931 51.3827Z" stroke="#263238" stroke-linecap="round" stroke-linejoin="round"/>
<path d="M166.341 88.4435C166.341 88.9918 166.178 89.5277 165.874 89.9836C165.569 90.4394 165.136 90.7947 164.63 91.0045C164.123 91.2143 163.566 91.2692 163.028 91.1623C162.49 91.0553 161.996 90.7913 161.609 90.4036C161.221 90.0159 160.957 89.522 160.85 88.9843C160.743 88.4466 160.798 87.8892 161.008 87.3827C161.218 86.8762 161.573 86.4433 162.029 86.1387C162.485 85.8341 163.021 85.6715 163.569 85.6715C164.304 85.6715 165.009 85.9636 165.529 86.4834C166.049 87.0033 166.341 87.7083 166.341 88.4435Z" stroke="#263238" stroke-linecap="round" stroke-linejoin="round"/>
<path d="M179.265 47.292C179.266 47.6321 179.165 47.9648 178.977 48.2479C178.789 48.531 178.52 48.7519 178.206 48.8824C177.892 49.0129 177.546 49.0473 177.213 48.9812C176.879 48.915 176.573 48.7513 176.332 48.5108C176.092 48.2703 175.928 47.9639 175.862 47.6303C175.796 47.2967 175.83 46.9509 175.961 46.6369C176.091 46.3228 176.312 46.0546 176.595 45.8661C176.878 45.6777 177.211 45.5775 177.551 45.5784C178.005 45.5795 178.44 45.7604 178.762 46.0815C179.083 46.4026 179.264 46.8378 179.265 47.292Z" stroke="#263238" stroke-linecap="round" stroke-linejoin="round"/>
<path d="M168.45 59.4257C168.45 59.6086 168.397 59.7877 168.296 59.9402C168.195 60.0927 168.051 60.2117 167.882 60.2823C167.713 60.3529 167.527 60.3718 167.348 60.3366C167.168 60.3014 167.003 60.2138 166.874 60.0847C166.744 59.9557 166.656 59.791 166.62 59.6117C166.584 59.4323 166.602 59.2463 166.671 59.0772C166.741 58.9082 166.86 58.7636 167.012 58.6619C167.164 58.5602 167.343 58.5059 167.526 58.5059C167.647 58.5053 167.767 58.5287 167.879 58.5747C167.991 58.6206 168.093 58.6883 168.179 58.7738C168.265 58.8593 168.333 58.9608 168.379 59.0727C168.426 59.1846 168.45 59.3045 168.45 59.4257V59.4257Z" stroke="#263238" stroke-linecap="round" stroke-linejoin="round"/>
<path d="M186.291 38.7198H146.571V93.8574H186.291V38.7198Z" stroke="#263238" stroke-linecap="round" stroke-linejoin="round"/>
<path d="M121.377 117.344H110.587V121.405H121.377V117.344Z" fill="#263238" stroke="#263238" stroke-linecap="round" stroke-linejoin="round"/>
<path d="M135.853 117.957H92.9082L94.941 84.6678H137.89L135.853 117.957Z" fill="#919191" stroke="#263238" stroke-linecap="round" stroke-linejoin="round"/>
<path d="M134.623 117.957H91.6777L93.7105 84.6678H136.656L134.623 117.957Z" fill="#263238" stroke="#263238" stroke-linecap="round" stroke-linejoin="round"/>
<path d="M132.351 116.105H94.1768L95.9828 86.5159H134.157L132.351 116.105Z" fill="white" stroke="#263238" stroke-linecap="round" stroke-linejoin="round"/>
<path d="M121.246 111.695H95.3154L96.7056 88.8932H122.641L121.246 111.695Z" fill="#919191" stroke="#263238" stroke-linecap="round" stroke-linejoin="round"/>
<path d="M105.546 101.9C105.546 101.9 100.145 104.038 100.112 104.614C100.078 105.189 99.0195 111.695 99.0195 111.695H115.08L113.728 104.202L107.785 101.732L105.546 101.9Z" fill="white" stroke="#263238" stroke-linecap="round" stroke-linejoin="round"/>
<path d="M105.705 100.582C105.299 100.689 104.922 100.885 104.601 101.157C104.181 101.577 103.668 102.967 103.668 102.967L103.647 104.614L105.777 103.463L107.94 103.32L109.964 105.214L110.225 102.333C110.225 102.333 109.914 100.687 109.259 100.603C108.603 100.519 105.705 100.582 105.705 100.582Z" fill="white" stroke="#263238" stroke-linecap="round" stroke-linejoin="round"/>
<path d="M105.639 99.0193L105.547 101.9L106.819 103.958L108.924 101.816L109.251 99.1831L105.639 99.0193Z" fill="white" stroke="#263238" stroke-linecap="round" stroke-linejoin="round"/>
<path d="M110.83 95.6508C110.679 98.0658 109.074 100.993 107.314 100.993C105.555 100.993 104.307 98.0532 104.454 95.6508C104.601 93.2484 106.134 91.2786 107.907 91.2786C109.679 91.2786 110.977 93.24 110.83 95.6508Z" fill="white" stroke="#263238" stroke-linecap="round" stroke-linejoin="round"/>
<path d="M104.424 95.9699C104.424 95.9699 103.858 94.4915 103.622 95.6423C103.387 96.7931 104.546 98.0279 104.546 98.0279L104.424 95.9699Z" fill="white" stroke="#263238" stroke-linecap="round" stroke-linejoin="round"/>
<path d="M110.83 95.6508C110.83 95.6508 112.22 95.067 111.813 96.3018C111.709 96.6512 111.529 96.973 111.284 97.2434C111.04 97.5138 110.738 97.7259 110.401 97.8642L110.83 95.6508Z" fill="white" stroke="#263238" stroke-linecap="round" stroke-linejoin="round"/>
<path d="M107.142 95.97C107.153 95.8217 107.133 95.6728 107.083 95.5326C107.034 95.3924 106.955 95.2641 106.853 95.1559C106.752 95.0476 106.628 94.9618 106.491 94.9038C106.354 94.8459 106.207 94.817 106.058 94.8192C105.749 94.8273 105.453 94.9492 105.228 95.1614C105.002 95.3737 104.863 95.6615 104.836 95.97C104.825 96.1185 104.845 96.2676 104.894 96.408C104.944 96.5484 105.022 96.6769 105.124 96.7855C105.226 96.8941 105.349 96.9803 105.486 97.0388C105.623 97.0972 105.771 97.1266 105.92 97.125C106.23 97.1168 106.526 96.9944 106.752 96.7812C106.977 96.5681 107.116 96.2792 107.142 95.97Z" fill="white" stroke="#263238" stroke-linecap="round" stroke-linejoin="round"/>
<path d="M109.94 95.9702L111.196 95.6426" stroke="#263238" stroke-linecap="round" stroke-linejoin="round"/>
<path d="M109.94 95.9702C109.951 95.8223 109.931 95.6737 109.882 95.5338C109.832 95.3939 109.754 95.2658 109.653 95.1576C109.551 95.0495 109.428 94.9635 109.292 94.9053C109.156 94.8471 109.009 94.8178 108.86 94.8194C108.55 94.8265 108.253 94.9479 108.027 95.1602C107.801 95.3726 107.661 95.661 107.634 95.9702C107.623 96.1187 107.643 96.2678 107.692 96.4082C107.742 96.5486 107.82 96.6771 107.922 96.7857C108.024 96.8943 108.147 96.9805 108.284 97.039C108.421 97.0974 108.569 97.1268 108.717 97.1252C109.028 97.117 109.324 96.9945 109.549 96.7814C109.775 96.5683 109.914 96.2794 109.94 95.9702Z" fill="white" stroke="#263238" stroke-linecap="round" stroke-linejoin="round"/>
<path d="M107.622 90.783C107.622 90.783 106.362 90.1278 105.417 90.5394C104.472 90.951 103.774 93.1728 103.821 93.7482C103.969 94.5023 104.171 95.2448 104.425 95.97L105.425 93.0888L108.046 91.938L107.622 90.783Z" fill="#263238" stroke="#263238" stroke-linecap="round" stroke-linejoin="round"/>
<path d="M106.353 91.3626C106.353 91.3626 108.428 89.7162 110.108 90.5226C110.622 90.7461 111.047 91.1347 111.316 91.6269C111.584 92.119 111.681 92.6867 111.591 93.24C111.565 93.66 111.532 95.5416 111.532 95.5416L110.532 95.7096L110.041 94.1598C109.473 93.9352 108.92 93.6743 108.386 93.3786C108.386 93.3786 106.164 93.0888 106.353 91.3626Z" fill="#263238" stroke="#263238" stroke-linecap="round" stroke-linejoin="round"/>
<path d="M107.142 95.97L106.995 98.3598H107.571" fill="white"/>
<path d="M107.142 95.97L106.995 98.3598H107.571" stroke="#263238" stroke-linecap="round" stroke-linejoin="round"/>
<path d="M106.693 99.2627H107.928" stroke="#263238" stroke-linecap="round" stroke-linejoin="round"/>
<path d="M106.819 103.958L106.361 111.447" stroke="#263238" stroke-linecap="round" stroke-linejoin="round"/>
<path d="M113.72 104.202C113.72 104.202 112.002 108.074 111.952 108.897C111.901 109.721 111.708 111.531 111.708 111.531" stroke="#263238" stroke-linecap="round" stroke-linejoin="round"/>
<path d="M100.111 104.614C100.111 104.614 101.821 107.579 102.043 107.974C102.266 108.368 101.993 111.514 101.993 111.514" stroke="#263238" stroke-linecap="round" stroke-linejoin="round"/>
<path d="M114.866 107.003L115.433 104.45L116.399 103.463L117.311 101.98H117.722L117.218 103.547L118.495 102.803L119.318 101.489L119.797 101.732L118.621 104.782L116.756 105.685L116.433 106.919L114.866 107.003Z" fill="white" stroke="#263238" stroke-linecap="round" stroke-linejoin="round"/>
<path d="M116.463 111.695L116.618 106.592L114.745 106.26L113.267 111.695H116.463Z" fill="white" stroke="#263238" stroke-linecap="round" stroke-linejoin="round"/>
<path d="M121.133 113.589H95.1982L95.3158 111.695H121.247L121.133 113.589Z" fill="white" stroke="#263238" stroke-linecap="round" stroke-linejoin="round"/>
<path d="M96.2568 112.438H120.05" stroke="#263238" stroke-linecap="round" stroke-linejoin="round"/>
<path d="M132.393 94.9787H123.665L124.035 88.9685H132.762L132.393 94.9787Z" fill="#CBCBCB" stroke="#263238" stroke-linecap="round" stroke-linejoin="round"/>
<path d="M132.393 94.979H123.665L123.728 93.9919H132.456L132.393 94.979Z" fill="white" stroke="#263238" stroke-linecap="round" stroke-linejoin="round"/>
<path d="M129.574 91.623L127.306 90.2664L127.143 92.9796L129.574 91.623Z" fill="white" stroke="#263238" stroke-linecap="round" stroke-linejoin="round"/>
<path d="M131.825 104.282H123.098L123.463 98.2759H132.191L131.825 104.282Z" fill="#CBCBCB" stroke="#263238" stroke-linecap="round" stroke-linejoin="round"/>
<path d="M131.825 104.282H123.098L123.161 103.295H131.884L131.825 104.282Z" fill="white" stroke="#263238" stroke-linecap="round" stroke-linejoin="round"/>
<path d="M129.008 100.93L126.74 99.5737L126.576 102.287L129.008 100.93Z" fill="white" stroke="#263238" stroke-linecap="round" stroke-linejoin="round"/>
<path d="M131.255 113.589H122.531L122.897 107.579H131.624L131.255 113.589Z" fill="#CBCBCB" stroke="#263238" stroke-linecap="round" stroke-linejoin="round"/>
<path d="M131.255 113.589H122.531L122.59 112.602H131.318L131.255 113.589Z" fill="white" stroke="#263238" stroke-linecap="round" stroke-linejoin="round"/>
<path d="M128.437 110.233L126.173 108.877L126.005 111.59L128.437 110.233Z" fill="white" stroke="#263238" stroke-linecap="round" stroke-linejoin="round"/>
<path d="M123.69 95.97H132.166" stroke="#263238" stroke-linecap="round" stroke-linejoin="round"/>
<path d="M123.628 96.9614H132.108" stroke="#263238" stroke-linecap="round" stroke-linejoin="round"/>
<path d="M123.115 105.357H131.595" stroke="#263238" stroke-linecap="round" stroke-linejoin="round"/>
<path d="M123.057 106.344H131.536" stroke="#263238" stroke-linecap="round" stroke-linejoin="round"/>
<path d="M119.356 121.405H112.98C112.98 120.769 113.233 120.159 113.683 119.709C114.133 119.26 114.743 119.007 115.379 119.007H116.949C117.586 119.007 118.195 119.26 118.645 119.709C119.095 120.159 119.348 120.769 119.348 121.405H119.356Z" fill="white" stroke="#263238" stroke-linecap="round" stroke-linejoin="round"/>
<path d="M109.944 120.099H78.7715V121.405H109.944V120.099Z" fill="#919191" stroke="#263238" stroke-linecap="round" stroke-linejoin="round"/>
<path d="M109.936 120.099H102.103V121.405H109.936V120.099Z" fill="white" stroke="#263238" stroke-linecap="round" stroke-linejoin="round"/>
<path d="M65.9941 57.3848V32.567" stroke="#263238" stroke-linecap="round" stroke-linejoin="round"/>
<path d="M65.9941 181.591V59.8544" stroke="#263238" stroke-linecap="round" stroke-linejoin="round"/>
<path d="M122.67 130.116L126.45 181.075C126.47 181.261 126.559 181.432 126.701 181.554C126.843 181.677 127.026 181.74 127.212 181.732C127.399 181.724 127.576 181.645 127.707 181.511C127.837 181.377 127.912 181.199 127.916 181.012L127.349 130.116H122.67Z" fill="#919191" stroke="#263238" stroke-linecap="round" stroke-linejoin="round"/>
<path d="M125.521 130.116L127.516 181.663C127.634 181.6 127.732 181.506 127.801 181.391C127.869 181.276 127.904 181.145 127.903 181.012L127.348 130.116H125.521Z" fill="white" stroke="#263238" stroke-linecap="round" stroke-linejoin="round"/>
<path d="M146.43 130.116L150.21 181.075C150.229 181.261 150.319 181.432 150.461 181.554C150.602 181.676 150.785 181.74 150.972 181.732C151.159 181.724 151.336 181.645 151.466 181.511C151.597 181.377 151.672 181.199 151.675 181.012L151.108 130.116H146.43Z" fill="#919191" stroke="#263238" stroke-linecap="round" stroke-linejoin="round"/>
<path d="M149.059 130.116L151.385 181.587C151.473 181.519 151.543 181.432 151.591 181.332C151.639 181.232 151.664 181.123 151.663 181.012L151.108 130.116H149.059Z" fill="white" stroke="#263238" stroke-linecap="round" stroke-linejoin="round"/>
<path d="M83.7984 130.671L80.0184 181.071C80.0057 181.256 79.923 181.429 79.7874 181.555C79.6517 181.682 79.473 181.752 79.2876 181.751C79.1904 181.753 79.0938 181.735 79.0035 181.699C78.9131 181.663 78.8308 181.61 78.7612 181.542C78.6917 181.474 78.6364 181.393 78.5984 181.303C78.5604 181.214 78.5406 181.118 78.54 181.02L79.0986 130.536L83.7984 130.671Z" fill="#263238" stroke="#263238" stroke-linecap="round" stroke-linejoin="round"/>
<path d="M60.061 130.671L56.281 181.071C56.2682 181.256 56.1856 181.429 56.0499 181.555C55.9142 181.681 55.7356 181.752 55.5502 181.751C55.4533 181.751 55.3575 181.731 55.2682 181.693C55.179 181.655 55.0981 181.6 55.0302 181.531C54.9623 181.462 54.9087 181.38 54.8725 181.291C54.8363 181.201 54.8183 181.105 54.8194 181.008L55.378 130.524L60.061 130.671Z" fill="#263238" stroke="#263238" stroke-linecap="round" stroke-linejoin="round"/>
<path d="M152.499 122.59H53.9541V130.528H152.499V122.59Z" fill="#919191" stroke="#263238" stroke-linecap="round" stroke-linejoin="round"/>
<path d="M152.498 122.59H124.257V130.528H152.498V122.59Z" fill="white" stroke="#263238" stroke-linecap="round" stroke-linejoin="round"/>
<path d="M152.499 123.85H53.9541V126.038H152.499V123.85Z" fill="#263238" stroke="#263238" stroke-linecap="round" stroke-linejoin="round"/>
<path d="M153.918 121.452H52.5342V124.106H153.918V121.452Z" fill="#919191" stroke="#263238" stroke-linecap="round" stroke-linejoin="round"/>
<path d="M153.913 121.452H126.071V124.106H153.913V121.452Z" fill="white" stroke="#263238" stroke-linecap="round" stroke-linejoin="round"/>
<path d="M124.022 72.24H110.338C109.625 72.24 108.942 72.5232 108.438 73.0273C107.934 73.5314 107.65 74.2151 107.65 74.928V79.968C107.65 80.3211 107.719 80.6709 107.854 80.9973C107.989 81.3237 108.187 81.6202 108.436 81.8699C108.686 82.1196 108.983 82.3176 109.309 82.4525C109.635 82.5874 109.985 82.6565 110.338 82.656H117.504L114.82 90.153L119.961 82.656H124.022C124.375 82.6565 124.725 82.5874 125.051 82.4525C125.378 82.3176 125.674 82.1196 125.924 81.8699C126.174 81.6202 126.372 81.3237 126.507 80.9973C126.641 80.6709 126.711 80.3211 126.71 79.968V74.928C126.71 74.2151 126.427 73.5314 125.923 73.0273C125.419 72.5232 124.735 72.24 124.022 72.24Z" fill="white" stroke="#263238" stroke-linecap="round" stroke-linejoin="round"/>
<path d="M113.514 78.5945C114.054 78.5945 114.492 78.1564 114.492 77.6159C114.492 77.0755 114.054 76.6373 113.514 76.6373C112.973 76.6373 112.535 77.0755 112.535 77.6159C112.535 78.1564 112.973 78.5945 113.514 78.5945Z" fill="#263238"/>
<path d="M117.181 78.5945C117.721 78.5945 118.159 78.1564 118.159 77.6159C118.159 77.0755 117.721 76.6373 117.181 76.6373C116.64 76.6373 116.202 77.0755 116.202 77.6159C116.202 78.1564 116.64 78.5945 117.181 78.5945Z" fill="#263238"/>
<path d="M121.821 77.6159C121.821 77.4222 121.764 77.2328 121.656 77.0718C121.549 76.9108 121.395 76.7854 121.216 76.7114C121.037 76.6375 120.84 76.6183 120.65 76.6564C120.46 76.6945 120.286 76.7882 120.149 76.9254C120.013 77.0627 119.92 77.2375 119.883 77.4276C119.845 77.6177 119.865 77.8146 119.94 77.9933C120.015 78.1721 120.141 78.3246 120.302 78.4316C120.464 78.5387 120.653 78.5954 120.847 78.5945C120.975 78.5945 121.102 78.5692 121.221 78.52C121.339 78.4707 121.447 78.3986 121.538 78.3076C121.628 78.2167 121.7 78.1088 121.749 77.9901C121.797 77.8714 121.822 77.7442 121.821 77.6159Z" fill="#263238"/>
<path d="M189 181.86H200.34" stroke="#263238" stroke-linecap="round" stroke-linejoin="round"/>
<path d="M10.0801 181.86H183.12" stroke="#263238" stroke-linecap="round" stroke-linejoin="round"/>
<path d="M76.7086 107.638C75.478 105.538 71.8576 97.4527 71.8576 97.4527C71.9668 96.5889 72.1437 95.7351 72.3868 94.8991C72.685 94.0591 73.4368 91.5139 73.2856 90.9847C73.1344 90.4555 70.9546 89.4811 70.732 89.4055C70.5094 89.3299 71.0302 88.0531 70.2028 87.7507C69.3754 87.4483 69.0772 87.9019 69.0772 87.9019L68.7622 90.0019L67.7962 91.5139C67.394 91.2081 66.9732 90.9276 66.5362 90.6739C65.86 90.2959 64.2808 90.1447 64.2052 90.7495C64.1296 91.3543 65.4652 91.8751 65.9314 92.2531C66.3976 92.6311 66.9856 94.4329 67.5148 94.9621C67.9957 95.487 68.4472 96.038 68.8672 96.6127L69.1696 97.5913C69.1696 97.5913 70.1986 107.499 70.3204 109.964C70.4422 112.43 70.8118 118.952 71.551 119.935C72.2902 120.918 72.4162 121.54 74.491 120.8C76.5658 120.061 76.9522 119.074 77.431 116.857C77.9098 114.639 77.9392 109.729 76.7086 107.638Z" fill="white" stroke="#263238" stroke-linecap="round" stroke-linejoin="round"/>
<path d="M77.4478 116.869C77.9392 114.656 77.9392 109.729 76.7086 107.629C76.5742 107.398 76.4104 107.1 76.2256 106.747C73.441 105.937 70.795 107.26 70.795 107.26L70.123 107.554C70.2112 108.583 70.2784 109.444 70.3036 109.969C70.4296 112.43 70.795 118.957 71.5342 119.939C72.2734 120.922 72.3994 121.544 74.4742 120.805C76.549 120.065 76.9522 119.087 77.4478 116.869Z" fill="#CBCBCB" stroke="#263238" stroke-linecap="round" stroke-linejoin="round"/>
<path d="M67.7291 74.34C68.0324 75.4541 68.2016 76.6004 68.2331 77.7546C68.2331 79.3968 67.7291 80.409 68.4893 80.913C69.2495 81.417 69.8795 81.4212 69.7493 82.4334C69.6995 82.9921 69.4779 83.5217 69.1151 83.9496C69.1151 83.9496 68.8631 89.1323 68.6111 89.6405C68.3591 90.1487 65.0705 89.5145 64.3103 89.3843C63.5501 89.2541 61.4039 90.2705 60.0095 87.4901C58.6151 84.7097 59.7575 80.535 62.2859 78.3846C64.025 76.9379 65.8421 75.5877 67.7291 74.34Z" fill="white" stroke="#263238" stroke-linecap="round" stroke-linejoin="round"/>
<path d="M68.2333 77.7336C68.2333 77.7336 67.5487 77.2212 67.1875 78.12" stroke="#263238" stroke-linecap="round" stroke-linejoin="round"/>
<path d="M67.6193 79.8252C67.5211 80.3345 67.5528 80.8603 67.7117 81.354" stroke="#263238" stroke-linecap="round" stroke-linejoin="round"/>
<path d="M68.8792 85.7639C68.767 85.7999 68.6484 85.8119 68.5312 85.7991C68.414 85.7863 68.3009 85.749 68.199 85.6896C68.0972 85.6302 68.0091 85.55 67.9403 85.4542C67.8715 85.3585 67.8236 85.2494 67.7998 85.1339" stroke="#263238" stroke-linecap="round" stroke-linejoin="round"/>
<path d="M70.3114 109.536C70.3114 109.536 69.8914 111.459 69.5176 112.476C69.1438 113.492 62.4406 115.357 59.5216 115.743C57.5987 115.984 55.6634 116.111 53.7256 116.126L53.9104 121.443C53.9104 121.443 59.5636 121.556 59.9626 121.443C60.3616 121.329 69.8788 117.075 69.8788 117.075L73.9864 116.537C73.9864 116.537 75.7126 116.117 75.7798 114.777C75.847 113.438 74.3224 109.628 73.6294 109.036C72.9364 108.444 71.4748 106.873 70.597 107.839C69.7192 108.805 70.3114 109.536 70.3114 109.536Z" fill="white" stroke="#263238" stroke-linecap="round" stroke-linejoin="round"/>
<path d="M57.7082 119.083C57.7082 116.785 58.2962 116.726 58.9682 115.815C57.2317 116.009 55.4864 116.113 53.7392 116.126L53.6006 121.006C53.6006 121.006 56.696 121.292 58.5818 121.426C58.4264 121.666 57.7082 120.561 57.7082 119.083Z" fill="#CBCBCB" stroke="#263238" stroke-linecap="round" stroke-linejoin="round"/>
<path d="M75.9606 129.415C73.7243 126.901 70.8816 125.003 67.7034 123.9L60.3282 127.046C59.7555 125.64 58.9954 124.317 58.0686 123.115L56.691 121.435L57.5772 116.617C57.5772 116.617 62.886 112.98 63.5706 111.405L63.5958 111.355C64.6626 113.005 69.291 120.149 70.1604 120.842C71.1432 121.632 74.0916 121.729 75.3684 120.548C76.6452 119.368 77.2374 118.583 76.9434 116.815C76.9434 116.815 74.9778 112.585 73.8942 110.716C72.8106 108.847 70.4544 102.165 69.2742 100.099C68.4342 98.6201 68.0856 97.5785 67.4892 96.8813C67.0752 96.1681 66.5866 95.5007 66.0318 94.8905C64.8516 93.6305 61.605 93.3155 60.9162 93.0215C60.2274 92.7275 60.1308 92.6267 56.1996 91.4507C52.2684 90.2747 47.8416 89.5817 44.6958 92.0387C44.6958 92.0387 40.4706 97.0535 38.8158 105.311C37.161 113.568 37.0434 121.926 36.8502 123.4C36.657 124.874 34.9812 132.052 34.4898 136.181C33.9984 140.309 38.3076 144.455 40.962 145.74C43.6164 147.025 55.0194 147.214 61.7058 145.74C68.3922 144.266 79.0098 137.579 79.0098 137.579C79.0098 137.579 79.4004 133.447 75.9606 129.415Z" fill="#CBCBCB" stroke="#263238" stroke-linecap="round" stroke-linejoin="round"/>
<path d="M58.5777 111.25L57.2295 111.203" stroke="#263238" stroke-linecap="round" stroke-linejoin="round"/>
<path d="M58.0693 109.103C59.9579 109.74 61.7969 110.514 63.5713 111.422L60.1105 111.304" stroke="#263238" stroke-linecap="round" stroke-linejoin="round"/>
<path d="M76.3347 111.586C76.7226 112.195 76.9615 112.887 77.0319 113.606C77.0319 114.534 77.1873 115.777 76.8009 115.391C76.4145 115.004 76.2549 113.682 76.2549 113.682L76.3347 111.586Z" fill="white" stroke="#263238" stroke-linecap="round" stroke-linejoin="round"/>
<path d="M74.0078 110.502C74.0078 110.502 75.461 109.712 76.1078 110.661C76.7546 111.611 76.5824 113.505 76.1078 114.441C75.6332 115.378 75.0914 114.483 75.1586 113.652C75.2258 112.82 74.0078 110.502 74.0078 110.502Z" fill="white" stroke="#263238" stroke-linecap="round" stroke-linejoin="round"/>
<path d="M73.4619 109.494C73.4619 109.494 74.9193 108.704 75.5619 109.653C76.2045 110.603 76.0323 112.493 75.5619 113.433C75.0915 114.374 74.5455 113.475 74.6127 112.644C74.6799 111.812 73.4619 109.494 73.4619 109.494Z" fill="white" stroke="#263238" stroke-linecap="round" stroke-linejoin="round"/>
<path d="M72.7939 108.406C72.7939 108.406 74.2513 107.617 74.8939 108.566C75.5365 109.515 75.3685 111.409 74.8939 112.346C74.4193 113.282 73.8775 112.388 73.9447 111.556C74.0119 110.725 72.7939 108.406 72.7939 108.406Z" fill="white" stroke="#263238" stroke-linecap="round" stroke-linejoin="round"/>
<path d="M69.1068 70.3962C69.131 71.9056 68.7418 73.3929 67.9812 74.697C65.8308 77.9856 63.8106 77.6034 62.9412 80.262C62.0718 82.9206 60.774 85.68 62.16 87.2172C63.546 88.7544 64.68 87.8472 64.68 87.8472C64.68 87.8472 65.5662 90.1236 63.2899 92.4C61.0135 94.6764 57.0948 93.7902 56.0827 93.4122C55.4452 93.1666 54.849 92.8253 54.3145 92.4C54.3145 92.4 53.6803 94.1724 50.5345 94.1724C47.3887 94.1724 43.8145 92.022 43.8145 88.0992C43.8145 84.1764 45.9607 81.5262 46.4689 80.0058C46.9771 78.4854 45.5827 73.8108 47.7289 70.9044C49.8751 67.998 53.1889 65.8644 55.7088 65.8644C58.2288 65.8644 63.147 67.2462 63.168 67.2546C63.4998 67.4352 65.625 66.57 66.2004 66.6078C68.313 66.7254 69.0816 68.46 69.1068 70.3962Z" fill="#263238" stroke="#263238" stroke-linecap="round" stroke-linejoin="round"/>
<path d="M60.8994 88.3849C61.358 88.446 61.8226 88.446 62.2812 88.3849" stroke="#919191" stroke-linecap="round" stroke-linejoin="round"/>
<path d="M67.2834 72.6012C67.084 73.727 66.669 74.8038 66.0612 75.7722C64.0956 78.8592 61.8612 79.9722 59.1858 82.9122C57.468 84.8148 57.7914 86.7132 59.1858 87.7086" stroke="#919191" stroke-linecap="round" stroke-linejoin="round"/>
<path d="M67.3213 69.321C67.4031 69.7841 67.4439 70.2536 67.4431 70.7239" stroke="#919191" stroke-linecap="round" stroke-linejoin="round"/>
<path d="M64.6795 72.2653C64.6795 72.2653 64.2595 76.6123 62.4367 79.1365C60.6139 81.6607 56.9767 82.9164 57.1069 85.5876" stroke="#919191" stroke-linecap="round" stroke-linejoin="round"/>
<path d="M81.6054 145.03C81.6054 145.03 84.2262 158.495 86.469 165.039C88.7118 171.582 90.9546 177.567 91.509 178.13C92.0634 178.693 93.567 180.747 93.567 180.747C92.8721 181.302 92.0228 181.629 91.1352 181.683C89.8248 181.683 88.1448 180.003 86.6454 179.063C85.146 178.122 84.9654 177.567 81.9708 176.446C78.9762 175.325 81.4122 172.334 82.1598 170.835C82.5921 170.026 82.8469 169.134 82.9074 168.218C81.7187 164.007 79.6116 160.111 76.7376 156.811C72.0714 151.578 71.1348 139.44 71.1348 139.44L80.1102 136.08L81.6054 145.03Z" fill="white" stroke="#263238" stroke-linecap="round" stroke-linejoin="round"/>
<path d="M91.1395 177.458L90.5977 177.567C90.5977 177.567 87.4183 173.267 84.9907 171.772C84.1632 171.2 83.1899 170.877 82.1851 170.839C81.4333 172.334 79.0057 175.325 81.9961 176.446C84.9865 177.567 85.1755 178.126 86.6707 179.063C88.1659 179.999 89.8501 181.683 91.1605 181.683C92.0481 181.629 92.8974 181.302 93.5923 180.747C93.5923 180.747 92.0929 178.689 91.5343 178.13C91.3752 177.924 91.2425 177.698 91.1395 177.458Z" fill="#CBCBCB" stroke="#263238" stroke-linecap="round" stroke-linejoin="round"/>
<path d="M89.6315 181.15C88.1531 180.13 86.8175 177.862 84.4109 176.446C82.2227 175.161 81.0971 175.111 80.6309 175.207C80.7451 175.507 80.9287 175.776 81.1667 175.991C81.4046 176.207 81.6902 176.362 82.0001 176.446C84.9947 177.568 85.1795 178.126 86.6747 179.063C87.6197 179.668 88.6613 180.6 89.6315 181.15Z" fill="#CBCBCB" stroke="#263238" stroke-linecap="round" stroke-linejoin="round"/>
<path d="M91.1401 181.684C91.0444 181.68 90.9489 181.67 90.8545 181.654C90.9487 181.672 91.0442 181.682 91.1401 181.684Z" fill="#CBCBCB" stroke="#263238" stroke-linecap="round" stroke-linejoin="round"/>
<path d="M64.9401 124.74C64.9401 124.74 73.9281 121.556 74.7681 123.656C75.6081 125.756 79.4553 133.589 78.0525 136.807C76.6497 140.024 66.7881 127.567 65.3853 127.298C63.9825 127.029 64.7763 125.681 64.9401 124.74Z" fill="white" stroke="#263238" stroke-linecap="round" stroke-linejoin="round"/>
<path d="M73.7481 128.843C73.7481 128.843 83.9667 128.003 85.9281 129.826C87.8895 131.649 81.1695 153.485 77.5281 160.343C71.8203 171.07 73.5465 173.88 73.5465 173.88C73.5465 173.88 73.9665 175.56 76.7679 178.223C79.5693 180.886 80.4093 181.301 79.4265 181.721C78.4437 182.141 74.2479 181.721 73.8279 181.44C73.4079 181.159 70.3293 178.643 67.5279 177.803C64.7265 176.963 65.1465 176.4 66.4065 173.88C67.6665 171.36 67.5279 173.46 68.9265 169.121C70.6031 163.775 71.9275 158.324 72.8913 152.804C73.6347 148.306 74.7687 143.367 74.4495 138.793L73.7481 128.843Z" fill="white" stroke="#263238" stroke-linecap="round" stroke-linejoin="round"/>
<path d="M81.2319 135.681C80.1618 133.099 78.321 130.911 75.9609 129.415C71.4921 126.563 67.7037 123.9 67.7037 123.9L60.3285 127.046C60.3285 127.046 62.1261 130.095 52.8861 131.636C45.7713 132.821 39.2403 131.103 35.7165 129.032C35.2251 131.473 34.7127 134.186 34.4565 136.172C33.9651 140.301 38.2911 144.43 40.9455 145.711C43.5999 146.992 64.9863 149.642 70.7445 145.942C81.2319 139.234 81.2319 135.681 81.2319 135.681Z" fill="#263238" stroke="#263238" stroke-linecap="round" stroke-linejoin="round"/>
<path d="M59.4931 129.36C58.5061 130.17 56.5825 131.04 52.8865 131.64C45.7717 132.825 39.2407 131.107 35.7169 129.036C35.5909 129.662 35.4649 130.296 35.3389 130.947C37.7539 132.401 42.8275 134.862 48.5479 134.16C55.3729 133.325 58.4053 131.46 59.4931 129.36Z" fill="#CBCBCB" stroke="#263238" stroke-linecap="round" stroke-linejoin="round"/>
<path d="M54.0415 138.356C53.7139 138.776 53.3737 139.196 53.0293 139.616" stroke="white" stroke-linecap="round" stroke-linejoin="round"/>
<path d="M59.1858 130.385C57.8932 132.761 56.4511 135.054 54.8682 137.248" stroke="white" stroke-linecap="round" stroke-linejoin="round"/>
<path d="M56.1083 133.043C56.1083 133.043 53.5883 136.403 50.9297 138.365" stroke="white" stroke-linecap="round" stroke-linejoin="round"/>
<path d="M76.7679 178.215C73.9665 175.56 73.5465 173.88 73.5465 173.88C73.4527 173.793 73.3783 173.687 73.3281 173.569C73.1391 173.767 72.5679 174.141 71.1693 173.603C69.9555 173.137 68.8047 172.343 67.5909 171.81C67.3011 172.326 67.0197 172.65 66.4065 173.88C65.1465 176.4 64.7265 176.963 67.5279 177.803C70.3293 178.643 73.4079 181.163 73.8279 181.44C74.2479 181.717 78.4479 182.142 79.4265 181.722C80.4051 181.302 79.5693 180.873 76.7679 178.215Z" fill="#CBCBCB" stroke="#263238" stroke-linecap="round" stroke-linejoin="round"/>
<path d="M79.3467 137.105L84.1095 134.165" stroke="#263238" stroke-linecap="round" stroke-linejoin="round"/>
<path d="M22.4492 110.485C22.4492 110.485 37.6196 108.587 47.3132 111.325L48.7874 148.205H26.0402C26.0402 148.205 27.506 128.394 22.4492 110.485Z" fill="#919191" stroke="#263238" stroke-linecap="round" stroke-linejoin="round"/>
<path d="M47.3132 111.325C37.6196 108.587 22.4492 110.485 22.4492 110.485C24.0726 116.454 25.1509 122.558 25.6706 128.722C34.1415 132.951 41.9 138.478 48.6656 145.102L47.3132 111.325Z" fill="#757575" stroke="#263238" stroke-linecap="round" stroke-linejoin="round"/>
<path d="M75.9184 182.7C75.7468 182.7 75.5791 182.648 75.438 182.551C75.2968 182.453 75.1889 182.315 75.1288 182.154C71.7688 173.099 70.9288 149.591 70.8784 148.596C70.8706 148.373 70.9517 148.156 71.1037 147.993C71.2557 147.83 71.4663 147.734 71.689 147.727C71.9118 147.719 72.1286 147.8 72.2916 147.952C72.4547 148.104 72.5506 148.314 72.5584 148.537C72.5584 148.781 73.432 172.767 76.7038 181.566C76.7812 181.775 76.7725 182.006 76.6795 182.208C76.5866 182.411 76.4171 182.568 76.2082 182.645C76.116 182.682 76.0176 182.701 75.9184 182.7Z" fill="white" stroke="#263238" stroke-linecap="round" stroke-linejoin="round"/>
<path d="M57.6284 182.7C57.4575 182.7 57.2907 182.647 57.1504 182.55C57.0101 182.452 56.9028 182.314 56.843 182.154C53.483 173.099 52.643 149.591 52.5884 148.596C52.5806 148.373 52.6616 148.156 52.8136 147.993C52.9657 147.83 53.1762 147.734 53.399 147.727C53.6218 147.719 53.8385 147.8 54.0016 147.952C54.1646 148.104 54.2606 148.314 54.2684 148.537C54.2684 148.781 55.142 172.767 58.418 181.566C58.4954 181.775 58.4866 182.006 58.3937 182.208C58.3008 182.411 58.1312 182.568 57.9224 182.645C57.8288 182.682 57.729 182.701 57.6284 182.7Z" fill="white" stroke="#263238" stroke-linecap="round" stroke-linejoin="round"/>
<path d="M75.692 148.189H25.6406V146.509H74.0204C74.466 146.509 74.8933 146.686 75.2084 147.001C75.5234 147.316 75.7004 147.743 75.7004 148.189H75.692Z" fill="#919191" stroke="#263238" stroke-linecap="round" stroke-linejoin="round"/>
<path d="M75.6878 147.781H25.6406V149.449H75.6878V147.781Z" fill="white" stroke="#263238" stroke-linecap="round" stroke-linejoin="round"/>
<path d="M46.9389 182.7C46.8125 182.703 46.6871 182.677 46.5721 182.624C46.4571 182.572 46.3554 182.494 46.2747 182.397C46.1939 182.299 46.1362 182.185 46.1057 182.062C46.0753 181.94 46.073 181.812 46.0989 181.688C50.8491 159.184 46.5189 111.863 46.4601 111.388C46.4499 111.278 46.4616 111.167 46.4943 111.061C46.5271 110.955 46.5804 110.857 46.6512 110.772C46.722 110.686 46.8089 110.616 46.9069 110.564C47.0049 110.513 47.1121 110.481 47.2224 110.471C47.4452 110.45 47.6671 110.519 47.8392 110.662C48.0113 110.805 48.1195 111.01 48.1401 111.233C48.1863 111.712 52.5501 159.281 47.7495 182.032C47.7104 182.219 47.6088 182.387 47.4615 182.509C47.3141 182.63 47.1298 182.697 46.9389 182.7Z" fill="white" stroke="#263238" stroke-linecap="round" stroke-linejoin="round"/>
<path d="M20.899 182.087C20.8207 182.088 20.7427 182.076 20.668 182.053C20.4544 181.993 20.2736 181.85 20.165 181.656C20.0564 181.463 20.0289 181.234 20.0884 181.02C31.0084 142.254 21.739 111.04 21.6466 110.729C21.5936 110.52 21.6231 110.298 21.7289 110.111C21.8347 109.923 22.0087 109.783 22.2149 109.719C22.421 109.656 22.6436 109.675 22.8365 109.771C23.0294 109.868 23.1778 110.035 23.251 110.237C23.3476 110.552 32.7766 142.212 21.7054 181.474C21.656 181.65 21.5505 181.805 21.405 181.915C21.2595 182.026 21.0818 182.086 20.899 182.087Z" fill="white" stroke="#263238" stroke-linecap="round" stroke-linejoin="round"/>
<path d="M174.46 112.833C174.46 112.833 169.298 109.964 168.916 116.466C168.533 122.968 167.58 165.224 167.58 165.224" stroke="#263238" stroke-width="2" stroke-linecap="round" stroke-linejoin="round"/>
<path d="M166.236 117.037C166.236 117.037 170.436 126.407 168.534 164.653" stroke="#263238" stroke-width="2" stroke-linecap="round" stroke-linejoin="round"/>
<path d="M170.372 114.143C170.372 114.143 168.394 115.403 167.273 113.959C166.151 112.514 168.033 109.859 166.374 108.725C164.715 107.591 161.846 109.322 161.846 109.322C161.846 109.322 164.051 109.969 163.98 111.174C163.909 112.379 162.846 112.833 162.72 112.308C162.594 111.783 161.523 109.129 159.734 110.233C159.217 110.538 158.767 110.944 158.412 111.428C158.057 111.912 157.803 112.463 157.667 113.047C157.667 113.047 161.838 112.602 162.09 114.169C162.342 115.735 160.381 113.896 158.659 113.795C156.937 113.694 155.366 113.946 155.479 114.988C155.518 115.909 155.463 116.832 155.315 117.743C156.258 116.96 157.45 116.54 158.675 116.558C160.57 116.672 160.498 117.877 158.776 117.776C157.054 117.676 155.576 119.314 155.576 119.314C155.576 119.314 157.147 121.997 159.142 123.325C161.137 124.652 161.855 124.165 162.082 123.152C162.308 122.14 161.779 119.507 162.985 119.578C164.19 119.65 160.99 124.123 162.527 124.387C164.064 124.652 165.303 124.207 165.706 123.194L166.126 122.182C166.126 122.182 165.589 119.557 165.824 118.537C166.059 117.516 166.34 118.566 166.613 119.797C166.886 121.027 167.059 123.967 167.584 123.824C168.109 123.682 169.793 121.54 170.188 120.695C170.582 119.851 167.97 117.285 167.999 116.768C168.029 116.252 170.045 117.235 170.36 117.772C170.589 118.18 170.795 118.601 170.977 119.032C170.977 119.032 172.237 118.243 172.204 115.823C172.17 113.404 170.372 114.143 170.372 114.143Z" fill="#CBCBCB"/>
<path opacity="0.3" d="M170.372 114.143C170.372 114.143 168.394 115.403 167.273 113.959C166.151 112.514 168.033 109.859 166.374 108.725C164.715 107.591 161.846 109.322 161.846 109.322C161.846 109.322 164.051 109.969 163.98 111.174C163.909 112.379 162.846 112.833 162.72 112.308C162.594 111.783 161.523 109.129 159.734 110.233C159.217 110.538 158.767 110.944 158.412 111.428C158.057 111.912 157.803 112.463 157.667 113.047C157.667 113.047 161.838 112.602 162.09 114.169C162.342 115.735 160.381 113.896 158.659 113.795C156.937 113.694 155.366 113.946 155.479 114.988C155.518 115.909 155.463 116.832 155.315 117.743C156.258 116.96 157.45 116.54 158.675 116.558C160.57 116.672 160.498 117.877 158.776 117.776C157.054 117.676 155.576 119.314 155.576 119.314C155.576 119.314 157.147 121.997 159.142 123.325C161.137 124.652 161.855 124.165 162.082 123.152C162.308 122.14 161.779 119.507 162.985 119.578C164.19 119.65 160.99 124.123 162.527 124.387C164.064 124.652 165.303 124.207 165.706 123.194L166.126 122.182C166.126 122.182 165.589 119.557 165.824 118.537C166.059 117.516 166.34 118.566 166.613 119.797C166.886 121.027 167.059 123.967 167.584 123.824C168.109 123.682 169.793 121.54 170.188 120.695C170.582 119.851 167.97 117.285 167.999 116.768C168.029 116.252 170.045 117.235 170.36 117.772C170.589 118.18 170.795 118.601 170.977 119.032C170.977 119.032 172.237 118.243 172.204 115.823C172.17 113.404 170.372 114.143 170.372 114.143Z" fill="#263238"/>
<path d="M160.359 119.817C161.649 118.226 163.543 116.071 165.135 115.042" stroke="#263238" stroke-linecap="round" stroke-linejoin="round"/>
<path d="M158.869 121.754C158.869 121.754 159.197 121.296 159.734 120.607" stroke="#263238" stroke-linecap="round" stroke-linejoin="round"/>
<path d="M165.976 115.437C165.976 115.437 167.891 118.142 168.244 120.926" stroke="#263238" stroke-linecap="round" stroke-linejoin="round"/>
<path d="M163.801 117.037C163.801 117.037 164.338 116.722 164.137 120.166" stroke="#263238" stroke-linecap="round" stroke-linejoin="round"/>
<path d="M165.207 113.82C165.207 113.82 166.303 112.85 165.724 110.914" stroke="#263238" stroke-linecap="round" stroke-linejoin="round"/>
<path d="M163.728 115.479L162.947 114.051" stroke="#263238" stroke-linecap="round" stroke-linejoin="round"/>
<path d="M162.086 116.936C162.086 116.936 159.608 115.063 158.059 114.971" stroke="#263238" stroke-linecap="round" stroke-linejoin="round"/>
<path d="M177.412 109.04C177.412 109.04 177.332 111.879 175.115 112.018C172.897 112.157 171.528 108.461 169.26 109.351C166.992 110.241 166.773 114.29 166.773 114.29C166.773 114.29 168.924 112.522 170.083 113.412C171.242 114.303 170.973 115.68 170.348 115.462C169.722 115.244 166.353 114.492 166.236 117.037C166.189 117.763 166.289 118.49 166.531 119.176C166.773 119.862 167.151 120.491 167.643 121.027C167.643 121.027 170.041 116.546 171.788 117.36C173.535 118.175 170.348 118.889 169.071 120.544C167.794 122.199 166.971 123.942 168.101 124.542C169.05 125.13 169.936 125.812 170.747 126.579C170.747 126.579 170.444 124.236 171.847 122.417C173.25 120.599 174.405 121.489 173.132 123.144C171.86 124.799 172.49 127.398 172.49 127.398C172.49 127.398 176.244 127.655 178.932 126.558C181.62 125.462 181.637 124.421 180.772 123.492C179.907 122.564 176.916 121.313 177.807 120.132C178.697 118.952 180.999 125.227 182.313 123.866C183.628 122.505 184.023 120.964 183.284 119.868L182.544 118.776C182.544 118.776 179.554 117.516 178.689 116.592C177.824 115.668 179.071 116.096 180.486 116.659C181.902 117.222 184.964 119.057 185.182 118.431C185.4 117.806 184.397 114.651 183.825 113.694C183.254 112.736 178.895 113.589 178.399 113.207C177.903 112.824 180.26 111.476 181.011 111.527C181.575 111.573 182.136 111.651 182.691 111.758C182.691 111.758 182.759 109.96 180.314 108.343C177.87 106.726 177.412 109.04 177.412 109.04Z" fill="#CBCBCB"/>
<path opacity="0.2" d="M177.412 109.04C177.412 109.04 177.332 111.879 175.115 112.018C172.897 112.157 171.528 108.461 169.26 109.351C166.992 110.241 166.773 114.29 166.773 114.29C166.773 114.29 168.924 112.522 170.083 113.412C171.242 114.303 170.973 115.68 170.348 115.462C169.722 115.244 166.353 114.492 166.236 117.037C166.189 117.763 166.289 118.49 166.531 119.176C166.773 119.862 167.151 120.491 167.643 121.027C167.643 121.027 170.041 116.546 171.788 117.36C173.535 118.175 170.348 118.889 169.071 120.544C167.794 122.199 166.971 123.942 168.101 124.542C169.05 125.13 169.936 125.812 170.747 126.579C170.747 126.579 170.444 124.236 171.847 122.417C173.25 120.599 174.405 121.489 173.132 123.144C171.86 124.799 172.49 127.398 172.49 127.398C172.49 127.398 176.244 127.655 178.932 126.558C181.62 125.462 181.637 124.421 180.772 123.492C179.907 122.564 176.916 121.313 177.807 120.132C178.697 118.952 180.999 125.227 182.313 123.866C183.628 122.505 184.023 120.964 183.284 119.868L182.544 118.776C182.544 118.776 179.554 117.516 178.689 116.592C177.824 115.668 179.071 116.096 180.486 116.659C181.902 117.222 184.964 119.057 185.182 118.431C185.4 117.806 184.397 114.651 183.825 113.694C183.254 112.736 178.895 113.589 178.399 113.207C177.903 112.824 180.26 111.476 181.011 111.527C181.575 111.573 182.136 111.651 182.691 111.758C182.691 111.758 182.759 109.96 180.314 108.343C177.87 106.726 177.412 109.04 177.412 109.04Z" fill="#263238"/>
<path d="M176.27 122.93C175.56 120.54 174.686 117.18 174.745 114.895" stroke="#263238" stroke-linecap="round" stroke-linejoin="round"/>
<path d="M177.189 125.748C177.189 125.748 176.954 125.101 176.631 124.097" stroke="#263238" stroke-linecap="round" stroke-linejoin="round"/>
<path d="M175.711 114.324C175.711 114.324 179.722 114.248 182.75 115.794" stroke="#263238" stroke-linecap="round" stroke-linejoin="round"/>
<path d="M175.837 117.6C175.837 117.6 175.887 116.848 179.197 119.398" stroke="#263238" stroke-linecap="round" stroke-linejoin="round"/>
<path d="M173.586 114C173.586 114 173.359 112.245 171.028 111.506" stroke="#263238" stroke-linecap="round" stroke-linejoin="round"/>
<path d="M174.22 116.6L172.259 116.407" stroke="#263238" stroke-linecap="round" stroke-linejoin="round"/>
<path d="M174.56 119.238C174.56 119.238 170.994 120.443 169.848 121.934" stroke="#263238" stroke-linecap="round" stroke-linejoin="round"/>
<path d="M153.619 127.94C153.619 127.94 164.9 135.395 164.711 164.27" stroke="#263238" stroke-width="2" stroke-linecap="round" stroke-linejoin="round"/>
<path d="M167.529 125.97C167.529 125.97 167.168 129.238 164.589 129.188C162.01 129.137 160.809 124.744 158.088 125.559C155.366 126.374 154.749 131.019 154.749 131.019C154.749 131.019 157.403 129.179 158.655 130.322C159.906 131.464 159.465 133.022 158.764 132.711C158.062 132.401 154.245 131.212 153.871 134.139C153.749 134.973 153.798 135.822 154.015 136.636C154.231 137.449 154.611 138.21 155.131 138.873C155.131 138.873 158.323 133.929 160.259 135.038C162.195 136.147 158.453 136.664 156.823 138.453C155.194 140.242 154.089 142.174 155.324 142.972C156.365 143.74 157.325 144.613 158.188 145.576C158.188 145.576 158.058 142.846 159.847 140.876C161.637 138.906 162.892 140.036 161.263 141.838C159.633 143.64 160.12 146.685 160.12 146.685C160.12 146.685 164.434 147.336 167.638 146.328C170.843 145.32 170.956 144.119 170.045 142.968C169.134 141.817 165.803 140.087 166.941 138.835C168.079 137.583 170.142 145.017 171.788 143.568C173.434 142.119 174.031 140.385 173.283 139.049L172.536 137.714C172.536 137.714 169.205 135.987 168.294 134.832C167.382 133.677 168.781 134.299 170.36 135.08C171.939 135.861 175.303 138.268 175.61 137.571C175.917 136.874 175.06 133.144 174.493 131.972C173.926 130.8 168.814 131.384 168.277 130.897C167.739 130.41 170.591 129.078 171.452 129.217C172.093 129.324 172.728 129.464 173.355 129.637C173.355 129.637 173.598 127.571 170.931 125.471C168.264 123.371 167.529 125.97 167.529 125.97Z" fill="#CBCBCB"/>
<path opacity="0.3" d="M167.529 125.97C167.529 125.97 167.168 129.238 164.589 129.188C162.01 129.137 160.809 124.744 158.088 125.559C155.366 126.374 154.749 131.019 154.749 131.019C154.749 131.019 157.403 129.179 158.655 130.322C159.906 131.464 159.465 133.022 158.764 132.711C158.062 132.401 154.245 131.212 153.871 134.139C153.749 134.973 153.798 135.822 154.015 136.636C154.231 137.449 154.611 138.21 155.131 138.873C155.131 138.873 158.323 133.929 160.259 135.038C162.195 136.147 158.453 136.664 156.823 138.453C155.194 140.242 154.089 142.174 155.324 142.972C156.365 143.74 157.325 144.613 158.188 145.576C158.188 145.576 158.058 142.846 159.847 140.876C161.637 138.906 162.892 140.036 161.263 141.838C159.633 143.64 160.12 146.685 160.12 146.685C160.12 146.685 164.434 147.336 167.638 146.328C170.843 145.32 170.956 144.119 170.045 142.968C169.134 141.817 165.803 140.087 166.941 138.835C168.079 137.583 170.142 145.017 171.788 143.568C173.434 142.119 174.031 140.385 173.283 139.049L172.536 137.714C172.536 137.714 169.205 135.987 168.294 134.832C167.382 133.677 168.781 134.299 170.36 135.08C171.939 135.861 175.303 138.268 175.61 137.571C175.917 136.874 175.06 133.144 174.493 131.972C173.926 130.8 168.814 131.384 168.277 130.897C167.739 130.41 170.591 129.078 171.452 129.217C172.093 129.324 172.728 129.464 173.355 129.637C173.355 129.637 173.598 127.571 170.931 125.471C168.264 123.371 167.529 125.97 167.529 125.97Z" fill="#263238"/>
<path d="M164.901 141.889C164.296 139.083 163.62 135.114 163.897 132.472" stroke="#263238" stroke-linecap="round" stroke-linejoin="round"/>
<path d="M165.698 145.227C165.698 145.227 165.488 144.459 165.207 143.27" stroke="#263238" stroke-linecap="round" stroke-linejoin="round"/>
<path d="M165.06 131.905C165.06 131.905 169.68 132.199 173.04 134.265" stroke="#263238" stroke-linecap="round" stroke-linejoin="round"/>
<path d="M164.904 135.66C164.904 135.66 165.034 134.799 168.613 138.054" stroke="#263238" stroke-linecap="round" stroke-linejoin="round"/>
<path d="M162.645 131.334C162.645 131.334 162.548 129.284 159.932 128.209" stroke="#263238" stroke-linecap="round" stroke-linejoin="round"/>
<path d="M163.132 134.392L160.89 133.984" stroke="#263238" stroke-linecap="round" stroke-linejoin="round"/>
<path d="M163.279 137.466C163.279 137.466 159.05 138.524 157.584 140.133" stroke="#263238" stroke-linecap="round" stroke-linejoin="round"/>
<path d="M158.017 150.692C158.017 150.692 165.283 156.236 166.047 164.459L164.518 136.92" stroke="#263238" stroke-width="2" stroke-linecap="round" stroke-linejoin="round"/>
<path d="M175.606 146.677C166.047 144.955 166.047 164.459 166.047 164.459" stroke="#263238" stroke-width="2" stroke-linecap="round" stroke-linejoin="round"/>
<path d="M167.193 164.27C167.193 164.27 161.649 123.925 177.693 123.925" stroke="#263238" stroke-width="2" stroke-linecap="round" stroke-linejoin="round"/>
<path d="M171.965 145.517C170.659 144.047 167.882 144.047 166.253 147.802C164.623 151.557 166.089 150.906 166.089 150.906C166.089 150.906 169.189 149.923 171.15 149.272C173.111 148.621 175.72 146.987 175.883 147.966C176.047 148.945 174.577 149.923 172.78 150.251C170.982 150.578 166.253 151.885 166.74 152.88C167.227 153.875 168.374 156.799 168.374 156.799C169.768 155.614 171.24 154.524 172.78 153.535C174.905 152.229 176.211 152.716 175.069 154.186C173.926 155.656 170.659 157.286 171.314 159.247C171.969 161.209 175.883 163.653 175.883 163.653C175.883 163.653 176.375 159.575 177.517 158.269C178.66 156.962 178.66 158.432 178.332 160.717C178.168 161.69 178.059 162.672 178.004 163.657L182.574 165.291C183.321 164.153 184.139 163.063 185.023 162.028L185.863 161.188C185.863 161.188 182.272 158.088 182.108 156.148C181.944 154.207 184.556 156.148 185.371 156.475C186.186 156.803 187.492 159.088 187.492 159.088C187.492 159.088 188.311 155.333 188.475 154.027L188.639 152.72C188.639 152.72 185.207 151.414 183.901 151.414C182.595 151.414 181.944 152.393 181.944 151.091C181.944 149.789 183.25 148.966 184.72 149.129C186.05 149.352 187.36 149.679 188.639 150.108C188.639 150.108 189.617 149.293 189.29 146.845C188.962 144.396 188.147 144.396 186.19 145.047C184.233 145.698 182.923 147.172 181.453 147.172C179.983 147.172 180.802 145.375 181.78 144.887C182.759 144.4 185.207 143.417 185.699 143.254C186.19 143.09 183.086 140.805 181.453 140.477C179.819 140.15 177.706 141.317 177.862 142.926C178.168 146.332 173.271 147 171.965 145.517Z" fill="#CBCBCB"/>
<path d="M182.473 162.326C182.523 162.816 182.557 163.307 182.573 163.8" stroke="#263238" stroke-linecap="round" stroke-linejoin="round"/>
<path d="M179.193 150.608C180.632 153.84 181.669 157.236 182.28 160.721" stroke="#263238" stroke-linecap="round" stroke-linejoin="round"/>
<path d="M178.605 149.297C177.798 147.559 177.189 146.496 177.189 146.496C178.08 146.076 178.821 145.393 179.31 144.539C179.692 143.765 180.252 143.093 180.944 142.577" stroke="#263238" stroke-linecap="round" stroke-linejoin="round"/>
<path d="M171.478 152.04C171.478 152.04 177.358 149.591 177.358 150.079" stroke="#263238" stroke-linecap="round" stroke-linejoin="round"/>
<path d="M180.6 148.944C180.6 148.944 183.212 147.638 185.497 147.638" stroke="#263238" stroke-linecap="round" stroke-linejoin="round"/>
<path d="M179.638 152.88C178.505 153.811 177.465 154.851 176.534 155.984C175.581 157.107 174.81 158.373 174.249 159.734" stroke="#263238" stroke-linecap="round" stroke-linejoin="round"/>
<path d="M181.439 153.518C181.439 153.518 184.871 152.536 186.664 154.169" stroke="#263238" stroke-linecap="round" stroke-linejoin="round"/>
<path d="M187.643 131.46C185.866 130.41 183.9 130.385 182.934 129.276C181.968 128.167 183.863 127.596 184.875 128.016C185.887 128.436 188.235 129.641 188.676 129.902C189.117 130.162 188.814 126.327 187.991 124.862C187.168 123.396 184.913 122.573 183.791 123.757C181.418 126.248 177.714 122.98 177.966 121.031C178.218 119.082 176.399 116.987 172.506 118.213C168.612 119.439 170.057 120.124 170.057 120.124C170.057 120.124 172.829 121.825 174.61 122.875C176.391 123.925 179.331 124.828 178.697 125.592C178.062 126.357 176.361 125.891 174.938 124.752C173.514 123.614 169.427 120.893 169.007 121.905C168.587 122.917 167.117 125.706 167.117 125.706C168.926 125.983 170.715 126.38 172.472 126.894C174.849 127.642 175.337 128.948 173.48 129.049C171.624 129.15 168.247 127.755 167.18 129.532C166.113 131.309 166.848 135.87 166.848 135.87C166.848 135.87 170.25 133.568 171.985 133.572C173.72 133.577 172.611 134.543 170.67 135.794C169.829 136.308 169.017 136.869 168.239 137.474L170.003 141.998C171.352 141.815 172.711 141.717 174.072 141.704L175.223 141.788C175.223 141.788 175.223 137.042 176.584 135.635C177.945 134.228 178.188 137.483 178.478 138.314C178.768 139.146 177.899 141.628 177.899 141.628C177.899 141.628 181.259 139.784 182.359 139.049L183.455 138.318C183.455 138.318 182.195 134.87 181.334 133.887C180.473 132.905 179.314 133.047 180.297 132.207C181.28 131.367 182.758 131.787 183.598 133.022C184.302 134.171 184.913 135.375 185.425 136.622C185.425 136.622 186.685 136.827 188.319 134.975C189.953 133.123 189.419 132.51 187.643 131.46ZM172.199 136.685C170.893 136.029 173.993 134.723 173.993 134.723C175.139 134.564 173.501 137.34 172.199 136.685ZM174.396 130.59C173.841 130.313 175.509 129.75 175.509 129.75C177.92 130.2 174.95 130.868 174.392 130.59H174.396Z" fill="#CBCBCB"/>
<path d="M172.158 140.011C171.822 140.368 171.469 140.717 171.112 141.053" stroke="#263238" stroke-linecap="round" stroke-linejoin="round"/>
<path d="M178.857 129.851C177.357 133.054 175.468 136.06 173.233 138.802" stroke="#263238" stroke-linecap="round" stroke-linejoin="round"/>
<path d="M179.462 128.549C180.247 126.798 180.646 125.643 180.646 125.643C181.549 126.039 182.551 126.15 183.519 125.962C184.353 125.742 185.226 125.723 186.069 125.907" stroke="#263238" stroke-linecap="round" stroke-linejoin="round"/>
<path d="M178.042 128.121C178.411 127.798 172.712 124.967 172.712 124.967" stroke="#263238" stroke-linecap="round" stroke-linejoin="round"/>
<path d="M181.045 129.834C181.045 129.834 183.746 130.952 185.245 132.678" stroke="#263238" stroke-linecap="round" stroke-linejoin="round"/>
<path d="M177.446 131.666C176.001 131.421 174.535 131.316 173.07 131.355C171.596 131.373 170.133 131.621 168.735 132.09" stroke="#263238" stroke-linecap="round" stroke-linejoin="round"/>
<path d="M178.131 133.451C178.131 133.451 181.117 135.395 181.071 137.823" stroke="#263238" stroke-linecap="round" stroke-linejoin="round"/>
<path d="M162.275 154.077C160.847 153.237 159.263 153.216 158.495 152.321C157.726 151.427 159.238 150.977 160.053 151.313C160.868 151.649 162.758 152.624 163.115 152.834C163.472 153.044 163.224 149.953 162.56 148.789C161.897 147.626 160.082 146.95 159.179 147.899C157.268 149.906 154.286 147.273 154.492 145.706C154.698 144.14 153.232 142.451 150.086 143.438C146.941 144.425 148.117 144.976 148.117 144.976C148.117 144.976 150.347 146.345 151.779 147.189C153.211 148.033 155.58 148.764 155.068 149.377C154.555 149.99 153.19 149.621 152.044 148.701C150.897 147.781 147.608 145.593 147.272 146.408C146.936 147.223 145.752 149.465 145.752 149.465C147.208 149.69 148.647 150.01 150.061 150.423C151.972 151.024 152.363 152.074 150.868 152.153C149.372 152.233 146.668 151.112 145.828 152.544C144.988 153.976 145.559 157.647 145.559 157.647C145.559 157.647 148.297 155.791 149.692 155.795C151.086 155.799 150.196 156.576 148.637 157.584C147.96 157.998 147.307 158.449 146.68 158.936L148.096 162.574C149.182 162.428 150.276 162.351 151.372 162.343L152.3 162.406C152.3 162.406 152.3 158.588 153.396 157.454C154.492 156.32 154.685 158.941 154.916 159.613C155.147 160.285 154.45 162.28 154.45 162.28C154.45 162.28 157.163 160.793 158.041 160.205L158.923 159.613C158.923 159.613 157.907 156.841 157.218 156.047C156.529 155.253 155.588 155.375 156.378 154.686C157.168 153.997 158.356 154.358 159.032 155.337C159.599 156.263 160.092 157.232 160.507 158.235C160.507 158.235 161.519 158.399 162.833 156.912C164.148 155.425 163.707 154.925 162.275 154.077ZM149.843 158.277C148.793 157.752 151.288 156.702 151.288 156.702C152.207 156.576 150.893 158.81 149.843 158.281V158.277ZM151.619 153.38C151.17 153.153 152.514 152.708 152.514 152.708C154.45 153.082 152.06 153.602 151.619 153.38Z" fill="#CBCBCB"/>
<path d="M149.818 160.961C149.545 161.246 149.263 161.528 148.978 161.801" stroke="#263238" stroke-linecap="round" stroke-linejoin="round"/>
<path d="M155.206 152.783C154 155.361 152.481 157.78 150.683 159.986" stroke="#263238" stroke-linecap="round" stroke-linejoin="round"/>
<path d="M155.693 151.733C156.323 150.326 156.647 149.398 156.647 149.398C157.373 149.716 158.179 149.805 158.957 149.654C159.627 149.477 160.33 149.462 161.006 149.612" stroke="#263238" stroke-linecap="round" stroke-linejoin="round"/>
<path d="M150.259 148.852C150.259 148.852 154.849 151.133 154.551 151.372" stroke="#263238" stroke-linecap="round" stroke-linejoin="round"/>
<path d="M156.967 152.771C156.967 152.771 159.138 153.669 160.327 155.06" stroke="#263238" stroke-linecap="round" stroke-linejoin="round"/>
<path d="M154.068 154.245C152.906 154.048 151.727 153.965 150.549 153.997C149.362 154.008 148.186 154.208 147.062 154.589" stroke="#263238" stroke-linecap="round" stroke-linejoin="round"/>
<path d="M154.623 155.681C154.623 155.681 157.025 157.248 156.979 159.197" stroke="#263238" stroke-linecap="round" stroke-linejoin="round"/>
<path d="M156.446 127.121C156.446 127.121 154.648 128.427 153.506 127.121C152.363 125.815 153.997 123.203 152.363 122.224C150.729 121.245 148.121 123.039 148.121 123.039C148.121 123.039 150.242 123.53 150.242 124.673C150.242 125.815 149.264 126.306 149.1 125.815C148.936 125.324 147.794 122.875 146.16 124.022C145.689 124.339 145.288 124.748 144.979 125.224C144.671 125.7 144.463 126.234 144.366 126.794C144.366 126.794 148.281 126.143 148.608 127.613C148.936 129.083 146.979 127.449 145.345 127.449C143.711 127.449 142.241 127.776 142.405 128.755C142.494 129.624 142.494 130.499 142.405 131.367C143.251 130.576 144.352 130.112 145.509 130.061C147.302 130.061 147.302 131.204 145.673 131.204C144.043 131.204 142.733 132.837 142.733 132.837C142.733 132.837 144.366 135.286 146.324 136.428C148.281 137.571 148.936 137.079 149.1 136.101C149.264 135.122 148.608 132.674 149.751 132.674C150.893 132.674 148.121 137.079 149.587 137.243C151.053 137.407 152.199 136.916 152.527 135.937L152.855 134.958C152.855 134.958 152.199 132.51 152.363 131.531C152.527 130.553 152.855 131.531 153.178 132.674C153.501 133.816 153.833 136.588 154.325 136.428C154.816 136.269 156.282 134.139 156.609 133.325C156.937 132.51 154.325 130.225 154.325 129.734C154.325 129.242 156.282 130.061 156.609 130.548C156.937 131.036 157.26 131.691 157.26 131.691C157.26 131.691 158.403 130.876 158.239 128.591C158.075 126.306 156.446 127.121 156.446 127.121Z" fill="#CBCBCB"/>
<path d="M147.299 133.043C148.429 131.468 150.104 129.326 151.549 128.264" stroke="#263238" stroke-linecap="round" stroke-linejoin="round"/>
<path d="M145.996 134.958C145.996 134.958 146.286 134.505 146.752 133.824" stroke="#263238" stroke-linecap="round" stroke-linejoin="round"/>
<path d="M152.363 128.591C152.363 128.591 154.325 131.04 154.812 133.652" stroke="#263238" stroke-linecap="round" stroke-linejoin="round"/>
<path d="M150.406 130.225C150.406 130.225 150.893 129.898 150.893 133.165" stroke="#263238" stroke-linecap="round" stroke-linejoin="round"/>
<path d="M151.548 127.121C151.548 127.121 152.526 126.143 151.875 124.345" stroke="#263238" stroke-linecap="round" stroke-linejoin="round"/>
<path d="M150.242 128.755L149.427 127.449" stroke="#263238" stroke-linecap="round" stroke-linejoin="round"/>
<path d="M148.772 130.225C148.772 130.225 146.324 128.591 144.854 128.591" stroke="#263238" stroke-linecap="round" stroke-linejoin="round"/>
<path d="M172.931 163.695H160.31V181.86H172.931V163.695Z" fill="#263238" stroke="#263238" stroke-width="2" stroke-linecap="round" stroke-linejoin="round"/>
</svg>
