<svg width="197" height="197" viewBox="0 0 197 197" fill="none" xmlns="http://www.w3.org/2000/svg">
<path d="M158.27 171.098C164.574 166.651 169.736 160.775 173.336 153.952C195.857 111.758 190.771 49.5416 147.399 22.8559C127.353 10.5237 98.5 2.7186 76.83 15.3857C59.2576 25.6573 48.4856 44.9987 39.5733 62.5948C33.9746 73.678 29.3609 85.5729 22.458 95.9272C13.5063 109.355 3.65236 127.29 13.6009 142.892C27.1584 164.144 52.7645 173.849 75.9829 180.239C101.175 187.17 129.504 188.155 152.773 174.633C154.657 173.537 156.489 172.359 158.27 171.098Z" fill="#C8C8C8"/>
<path opacity="0.7" d="M158.27 171.098C164.574 166.651 169.736 160.775 173.336 153.952C195.857 111.758 190.771 49.5416 147.399 22.8559C127.353 10.5237 98.5 2.7186 76.83 15.3857C59.2576 25.6573 48.4856 44.9987 39.5733 62.5948C33.9746 73.678 29.3609 85.5729 22.458 95.9272C13.5063 109.355 3.65236 127.29 13.6009 142.892C27.1584 164.144 52.7645 173.849 75.9829 180.239C101.175 187.17 129.504 188.155 152.773 174.633C154.657 173.537 156.489 172.359 158.27 171.098Z" fill="white"/>
<g opacity="0.3">
<path opacity="0.3" d="M178.088 31.7051H137.506V85.0015H178.088V31.7051Z" stroke="black" stroke-miterlimit="10"/>
<path opacity="0.3" d="M170.641 41.4841H144.952V75.2224H170.641V41.4841Z" stroke="black" stroke-miterlimit="10"/>
</g>
<path d="M127.998 25.7321H20.5547V121.372H127.998V25.7321Z" fill="#263238" stroke="#263238" stroke-miterlimit="10"/>
<path d="M125.961 23.4036H18.5176V119.043H125.961V23.4036Z" fill="white" stroke="#263238" stroke-linecap="round" stroke-linejoin="round"/>
<path d="M105.04 61.9999H110.383V56.6572H105.04V61.9999Z" fill="white" stroke="#263238" stroke-linecap="round" stroke-linejoin="round"/>
<path d="M112.033 61.9999H117.376V56.6572H112.033V61.9999Z" fill="white" stroke="#263238" stroke-linecap="round" stroke-linejoin="round"/>
<path d="M102.904 59.6517H75.7617" stroke="#263238" stroke-linecap="round" stroke-linejoin="round"/>
<path d="M105.04 74.6116H110.383V69.2689H105.04V74.6116Z" fill="white" stroke="#263238" stroke-linecap="round" stroke-linejoin="round"/>
<path d="M112.033 74.6116H117.376V69.2689H112.033V74.6116Z" fill="white" stroke="#263238" stroke-linecap="round" stroke-linejoin="round"/>
<path d="M102.904 72.2595H75.7617" stroke="#263238" stroke-linecap="round" stroke-linejoin="round"/>
<path d="M105.04 87.2236H110.383V81.881H105.04V87.2236Z" fill="white" stroke="#263238" stroke-linecap="round" stroke-linejoin="round"/>
<path d="M112.033 87.2236H117.376V81.881H112.033V87.2236Z" fill="white" stroke="#263238" stroke-linecap="round" stroke-linejoin="round"/>
<path d="M102.904 84.8716H75.7617" stroke="#263238" stroke-linecap="round" stroke-linejoin="round"/>
<path d="M53.9621 61.9999H59.3047V56.6572H53.9621V61.9999Z" fill="white" stroke="#263238" stroke-linecap="round" stroke-linejoin="round"/>
<path d="M60.9591 61.9999H66.3018V56.6572H60.9591V61.9999Z" fill="white" stroke="#263238" stroke-linecap="round" stroke-linejoin="round"/>
<path d="M51.8263 59.6516H24.6836" stroke="#263238" stroke-linecap="round" stroke-linejoin="round"/>
<path d="M53.9621 74.6116H59.3047V69.2689H53.9621V74.6116Z" fill="white" stroke="#263238" stroke-linecap="round" stroke-linejoin="round"/>
<path d="M60.9591 74.6116H66.3018V69.2689H60.9591V74.6116Z" fill="white" stroke="#263238" stroke-linecap="round" stroke-linejoin="round"/>
<path d="M51.8263 72.2595H24.6836" stroke="#263238" stroke-linecap="round" stroke-linejoin="round"/>
<path d="M53.9621 87.2236H59.3047V81.881H53.9621V87.2236Z" fill="white" stroke="#263238" stroke-linecap="round" stroke-linejoin="round"/>
<path d="M60.9591 87.2236H66.3018V81.881H60.9591V87.2236Z" fill="white" stroke="#263238" stroke-linecap="round" stroke-linejoin="round"/>
<path d="M51.8263 84.8716H24.6836" stroke="#263238" stroke-linecap="round" stroke-linejoin="round"/>
<path d="M32.2565 105.592H26.3701V111.478H32.2565V105.592Z" fill="white" stroke="#263238" stroke-linecap="round" stroke-linejoin="round"/>
<path d="M56.278 105.592H50.3916V111.478H56.278V105.592Z" fill="white" stroke="#263238" stroke-linecap="round" stroke-linejoin="round"/>
<path d="M81.2545 105.592H75.3682V111.478H81.2545V105.592Z" fill="white" stroke="#263238" stroke-linecap="round" stroke-linejoin="round"/>
<path d="M62.7119 58.4459L63.6221 60.274L68.0309 56.0149" stroke="#263238" stroke-width="2" stroke-linecap="round" stroke-linejoin="round"/>
<path d="M62.7119 70.9161L63.6221 72.7403L68.0309 68.4812" stroke="#263238" stroke-width="2" stroke-linecap="round" stroke-linejoin="round"/>
<path d="M55.1084 83.9929L56.0225 85.8171L60.4314 81.558" stroke="#263238" stroke-width="2" stroke-linecap="round" stroke-linejoin="round"/>
<path d="M113.495 58.2963L114.405 60.1205L118.814 55.8613" stroke="#263238" stroke-width="2" stroke-linecap="round" stroke-linejoin="round"/>
<path d="M106.136 71.0657L107.046 72.89L111.455 68.6348" stroke="#263238" stroke-width="2" stroke-linecap="round" stroke-linejoin="round"/>
<path d="M106.136 83.8786L107.046 85.7028L111.455 81.4476" stroke="#263238" stroke-width="2" stroke-linecap="round" stroke-linejoin="round"/>
<path d="M125.961 23.4036H18.5176V38.344H125.961V23.4036Z" fill="white" stroke="#263238" stroke-linecap="round" stroke-linejoin="round"/>
<path d="M125.961 23.4036H121.915V119.043H125.961V23.4036Z" fill="#DBDBDB" stroke="#263238" stroke-linecap="round" stroke-linejoin="round"/>
<path d="M125.961 37.7769H121.915V56.2358H125.961V37.7769Z" fill="#949494" stroke="#263238" stroke-linecap="round" stroke-linejoin="round"/>
<path d="M125.961 23.4036H18.5176V30.6689H125.961V23.4036Z" fill="#DBDBDB" stroke="#263238" stroke-linecap="round" stroke-linejoin="round"/>
<path d="M66.3366 25.5193H23.9658V28.5452H66.3366V25.5193Z" fill="white" stroke="#263238" stroke-linecap="round" stroke-linejoin="round"/>
<path d="M119.618 25.661H123.338" stroke="#263238" stroke-linecap="round" stroke-linejoin="round"/>
<path d="M119.618 27.2333H123.338" stroke="#263238" stroke-linecap="round" stroke-linejoin="round"/>
<path d="M119.618 28.8093H123.338" stroke="#263238" stroke-linecap="round" stroke-linejoin="round"/>
<path d="M56.0498 44.388C56.0498 43.4543 56.5423 42.9224 57.4406 42.9224C58.3389 42.9224 58.8275 43.4543 58.8275 44.388V47.414C58.8275 48.3438 58.3389 48.8757 57.4406 48.8757C56.5423 48.8757 56.0498 48.3438 56.0498 47.414V44.388ZM56.9678 47.4731C56.9678 47.8868 57.1491 48.0444 57.4406 48.0444C57.7322 48.0444 57.9134 47.8868 57.9134 47.4731V44.3211C57.9134 43.9034 57.7322 43.7458 57.4406 43.7458C57.1491 43.7458 56.9678 43.9034 56.9678 44.3211V47.4731Z" fill="#263238"/>
<path d="M60.2346 44.5969V48.8088H59.4111V42.9894H60.5577L61.4993 46.4723V42.9894H62.3149V48.8088H61.3733L60.2346 44.5969Z" fill="#263238"/>
<path d="M62.9688 42.9894H63.8868V47.9774H65.4037V48.8088H62.9806L62.9688 42.9894Z" fill="#263238"/>
<path d="M65.7979 42.9894H66.7119V48.8088H65.7979V42.9894Z" fill="#263238"/>
<path d="M68.1857 44.5969V48.8088H67.374V42.9894H68.5206L69.4622 46.4723V42.9894H70.2739V48.8088H69.344L68.1857 44.5969Z" fill="#263238"/>
<path d="M71.834 45.444H73.0909V46.2753H71.834V47.9774H73.41V48.8088H70.9199V42.9894H73.4139V43.8207H71.8379L71.834 45.444Z" fill="#263238"/>
<path d="M75.0049 42.9894H77.8299V43.8207H76.8724V48.8088H75.9584V43.8207H75.0049V42.9894Z" fill="#263238"/>
<path d="M79.1465 45.444H80.3994V46.2753H79.1465V47.9774H80.7225V48.8088H78.2285V42.9894H80.7225V43.8207H79.1465V45.444Z" fill="#263238"/>
<path d="M82.5194 42.9224C83.4099 42.9224 83.8669 43.4543 83.8669 44.388V44.5693H83.004V44.3289C83.004 43.9113 82.8386 43.7537 82.547 43.7537C82.2554 43.7537 82.09 43.9113 82.09 44.3289C82.09 45.5109 83.8748 45.7513 83.8748 47.414C83.8748 48.3438 83.4099 48.8757 82.5115 48.8757C81.6132 48.8757 81.1641 48.3438 81.1641 47.414V47.0554H82.0309V47.4731C82.0309 47.8868 82.2121 48.0365 82.5037 48.0365C82.7952 48.0365 82.9765 47.8868 82.9765 47.4731C82.9765 46.2911 81.1916 46.0507 81.1916 44.388C81.1641 43.4543 81.6329 42.9224 82.5194 42.9224Z" fill="#263238"/>
<path d="M84.1348 42.9893H86.9597V43.8206H86.0063V48.8086H85.104V43.8206H84.1466L84.1348 42.9893Z" fill="#263238"/>
<path d="M30.9522 104.174H30.0263L29.8687 103.118H28.7616L28.604 104.174H27.749L28.6789 98.3542H30.0185L30.9522 104.174ZM28.864 102.326H29.7466L29.3053 99.3826L28.864 102.326Z" fill="#263238"/>
<path d="M54.5879 99.682V99.8869C54.5879 100.486 54.4066 100.868 53.9969 101.069C54.4894 101.258 54.6785 101.699 54.6785 102.314V102.791C54.6785 103.689 54.2057 104.17 53.2916 104.17H51.8535V98.3542H53.2325C54.1821 98.3542 54.5879 98.7955 54.5879 99.682ZM52.7676 99.1738V100.71H53.1261C53.465 100.71 53.6738 100.561 53.6738 100.096V99.7726C53.6738 99.355 53.532 99.1738 53.2089 99.1738H52.7676ZM52.7676 101.538V103.327H53.2916C53.5989 103.327 53.7644 103.185 53.7644 102.751V102.247C53.7644 101.703 53.5911 101.538 53.1774 101.538H52.7676Z" fill="#263238"/>
<path d="M79.8007 102.003V102.791C79.8007 103.724 79.3358 104.256 78.4375 104.256C77.5391 104.256 77.0742 103.724 77.0742 102.791V99.7647C77.0742 98.8349 77.5391 98.303 78.4375 98.303C79.3358 98.303 79.8007 98.8349 79.8007 99.7647V100.332H78.9378V99.682C78.9378 99.2643 78.7527 99.1067 78.4611 99.1067C78.1695 99.1067 77.9883 99.2643 77.9883 99.682V102.834C77.9883 103.252 78.1735 103.401 78.4611 103.401C78.7487 103.401 78.9378 103.252 78.9378 102.834V102.003H79.8007Z" fill="#263238"/>
<path d="M25.0967 95.2534H94.9332" stroke="#263238" stroke-linecap="round" stroke-linejoin="round"/>
<path opacity="0.3" d="M139.803 23.8726H147.514V16.162H139.803V23.8726Z" stroke="black" stroke-linecap="round" stroke-linejoin="round"/>
<path opacity="0.3" d="M149.901 23.8726H157.611V16.162H149.901V23.8726Z" stroke="black" stroke-linecap="round" stroke-linejoin="round"/>
<path opacity="0.3" d="M141.462 19.2113L142.778 21.8432L146.647 17.5841" stroke="black" stroke-width="2" stroke-linecap="round" stroke-linejoin="round"/>
<path opacity="0.3" d="M23.0804 136.998H30.791V129.287H23.0804V136.998Z" stroke="black" stroke-linecap="round" stroke-linejoin="round"/>
<path opacity="0.3" d="M33.1742 136.998H40.8848V129.287H33.1742V136.998Z" stroke="black" stroke-linecap="round" stroke-linejoin="round"/>
<path opacity="0.3" d="M24.7314 132.337L26.0474 134.969L29.9165 130.709" stroke="black" stroke-width="2" stroke-linecap="round" stroke-linejoin="round"/>
<path opacity="0.3" d="M59.6078 136.998H67.3184V129.287H59.6078V136.998Z" stroke="black" stroke-linecap="round" stroke-linejoin="round"/>
<path opacity="0.3" d="M69.7064 136.998H77.417V129.287H69.7064V136.998Z" stroke="black" stroke-linecap="round" stroke-linejoin="round"/>
<path opacity="0.3" d="M61.2627 132.337L62.5787 134.969L66.4477 130.709" stroke="black" stroke-width="2" stroke-linecap="round" stroke-linejoin="round"/>
<g opacity="0.3">
<path opacity="0.3" d="M71.5658 20.0184C74.2638 19.5824 76.0976 17.0417 75.6616 14.3436C75.2255 11.6456 72.6849 9.81184 69.9868 10.2479C67.2888 10.6839 65.455 13.2246 65.8911 15.9226C66.3271 18.6207 68.8677 20.4544 71.5658 20.0184Z" stroke="black" stroke-linecap="round" stroke-linejoin="round"/>
<path opacity="0.3" d="M72.1603 16.9223L70.7773 15.1335V12.3164" stroke="black" stroke-linecap="round" stroke-linejoin="round"/>
</g>
<g opacity="0.3">
<path opacity="0.3" d="M163.147 110.052H162.414L162.288 109.217H161.397L161.271 110.052H160.605L161.346 105.438H162.406L163.147 110.052ZM161.492 108.59H162.189L161.839 106.254L161.492 108.59Z" fill="black"/>
<path opacity="0.3" d="M173.466 106.498V106.664C173.494 106.848 173.464 107.036 173.381 107.202C173.298 107.369 173.165 107.506 173.001 107.594C173.186 107.678 173.339 107.82 173.436 107.998C173.533 108.176 173.57 108.382 173.541 108.583V108.977C173.559 109.125 173.543 109.276 173.493 109.418C173.444 109.559 173.363 109.688 173.257 109.793C173.15 109.898 173.021 109.978 172.879 110.026C172.737 110.073 172.586 110.088 172.437 110.068H171.299V105.438H172.394C173.143 105.438 173.466 105.785 173.466 106.498ZM172.024 106.104V107.326H172.307C172.575 107.326 172.741 107.208 172.741 106.837V106.581C172.741 106.25 172.631 106.104 172.371 106.104H172.024ZM172.024 107.984V109.402H172.437C172.682 109.402 172.831 109.292 172.831 108.949V108.555C172.831 108.13 172.69 107.996 172.363 107.996L172.024 107.984Z" fill="black"/>
<path opacity="0.3" d="M183.915 108.35V108.961C183.915 109.701 183.549 110.123 182.835 110.123C182.122 110.123 181.752 109.701 181.752 108.961V106.561C181.752 105.82 182.122 105.399 182.835 105.399C183.549 105.399 183.915 105.82 183.915 106.561V107.01H183.229V106.498C183.229 106.167 183.084 106.045 182.855 106.045C182.627 106.045 182.461 106.167 182.461 106.498V108.992C182.461 109.323 182.607 109.441 182.855 109.441C183.103 109.441 183.229 109.323 183.229 108.992V108.35H183.915Z" fill="black"/>
<path opacity="0.3" d="M164.589 112.57H158.982V118.176H164.589V112.57Z" stroke="black" stroke-miterlimit="10"/>
<path opacity="0.3" d="M175.019 112.57H169.412V118.176H175.019V112.57Z" stroke="black" stroke-miterlimit="10"/>
<path opacity="0.3" d="M185.447 112.57H179.841V118.176H185.447V112.57Z" stroke="black" stroke-miterlimit="10"/>
</g>
<path d="M31.6934 177.521H19.8301" stroke="#263238" stroke-miterlimit="10"/>
<path d="M186.492 177.521H35.5586" stroke="#263238" stroke-miterlimit="10"/>
<path d="M140.91 177.387L143.447 138.853L145.315 120.532L140.193 114.816L137.624 112.948C137.624 112.948 134.007 116.1 131.442 116.797C128.877 117.495 126.41 118.2 126.41 118.2C126.41 118.2 117.66 134.653 116.954 142.12C116.249 149.586 115.087 177.245 115.087 177.245L116.06 177.387H140.91Z" fill="#9E9E9E" stroke="#263238" stroke-miterlimit="10"/>
<path d="M128.882 145.619C128.882 145.619 128.444 145.394 129.319 143.14" stroke="#263238" stroke-miterlimit="10"/>
<path d="M127.854 117.806C128.289 120.919 128.529 124.056 128.575 127.199C128.575 127.199 131.203 126.147 133.303 122.471C134.463 120.498 135.461 118.435 136.289 116.301L127.854 117.806Z" fill="#263238" stroke="#263238" stroke-miterlimit="10"/>
<path d="M140.911 177.387L143.192 142.742C140.954 143.885 136.537 145.772 131.663 145.855C125.824 145.953 118.594 141.418 118.594 141.418L116.967 142.057C116.967 142.076 116.967 142.1 116.967 142.12C116.266 149.606 115.1 177.245 115.1 177.245L116.073 177.387H140.911Z" fill="white" stroke="#263238" stroke-miterlimit="10"/>
<path d="M137.112 157.994C137.112 166.918 137.42 175.504 137.506 177.379H154.704C154.941 174.597 156.422 157.285 157.183 151.079C158.014 144.299 163.467 134.204 163.467 130.591C163.467 126.978 164.574 127.55 159.594 124.922C154.614 122.294 143.629 116.62 142.108 115.927C140.587 115.233 138.925 113.563 138.925 113.563C138.925 113.563 139.476 117.022 139.319 126.427C139.161 135.832 137.112 147.904 137.112 157.994Z" fill="white"/>
<g opacity="0.2">
<path opacity="0.2" d="M138.924 113.598C139.129 115.235 139.247 116.882 139.278 118.531V113.933C139.058 113.732 138.924 113.598 138.924 113.598Z" fill="black"/>
<path opacity="0.2" d="M161.54 136.115V137.297C161.674 136.939 161.808 136.592 161.934 136.249V136.107H161.985C162.036 135.977 162.083 135.844 162.131 135.713H161.934V130.808H163.459C163.459 130.749 163.459 130.686 163.459 130.627C163.459 130.568 163.459 130.485 163.459 130.414H161.934V126.214C161.812 126.139 161.682 126.068 161.54 125.99V130.414H157.403V125.489H160.602L159.861 125.095H157.403V123.795L157.009 123.586V125.083H152.872V121.435L152.478 121.23V125.083H148.341V120.17H150.401L149.637 119.776H148.341V119.11L147.947 118.905V119.776H143.81V116.801C143.672 116.731 143.542 116.664 143.416 116.604V119.776H139.318C139.318 119.906 139.318 120.036 139.318 120.17H143.416V125.095H139.354C139.354 125.225 139.354 125.355 139.354 125.489H143.416V130.414H139.279V128.543C139.2 130.465 139.058 132.483 138.885 134.535V135.717H138.782L138.747 136.111H138.885V141.052H138.294L138.254 141.446H138.904V146.371H137.785L137.75 146.765H138.904V151.69H137.368L137.344 152.084H138.92V157.009H137.175C137.175 157.143 137.175 157.273 137.175 157.403H138.924V162.328H137.187C137.187 162.462 137.187 162.592 137.187 162.722H138.92V167.647H137.265C137.265 167.781 137.265 167.911 137.265 168.041H138.912V177.399H139.306V168.029H143.416V177.387H143.81V168.029H147.947V177.387H148.341V168.029H152.478V177.387H152.872V168.029H155.523C155.523 167.899 155.523 167.769 155.559 167.635H152.872V162.722H156.024C156.024 162.592 156.051 162.462 156.063 162.328H152.872V157.403H156.512C156.512 157.269 156.536 157.143 156.552 157.009H152.872V152.084H157.009V152.608L157.182 151.099C157.237 150.658 157.312 150.201 157.403 149.732V146.765H158.14L158.258 146.371H157.403V141.446H159.964C160.015 141.316 160.062 141.182 160.113 141.052H157.403V136.127L161.54 136.115ZM157.403 130.808H161.54V135.733H157.403V130.808ZM143.416 167.635H139.279V162.722H143.416V167.635ZM143.416 162.316H139.279V157.391H143.416V162.316ZM143.416 156.997H139.279V152.084H143.416V156.997ZM143.416 151.678H139.279V146.753H143.416V151.678ZM143.416 146.359H139.279V141.446H143.416V146.359ZM143.416 141.04H139.279V136.115H143.416V141.04ZM143.416 135.721H139.279V130.808H143.416V135.721ZM147.947 167.635H143.81V162.722H147.947V167.635ZM147.947 162.316H143.81V157.391H147.947V162.316ZM147.947 156.997H143.81V152.084H147.947V156.997ZM147.947 151.678H143.81V146.753H147.947V151.678ZM147.947 146.359H143.81V141.446H147.947V146.359ZM147.947 141.04H143.81V136.115H147.947V141.04ZM147.947 135.721H143.81V130.808H147.947V135.721ZM147.947 130.402H143.81V125.477H147.947V130.402ZM147.947 125.083H143.81V120.17H147.947V125.083ZM152.478 167.635H148.341V162.722H152.478V167.635ZM152.478 162.316H148.341V157.391H152.478V162.316ZM152.478 156.997H148.341V152.084H152.478V156.997ZM152.478 151.678H148.341V146.753H152.478V151.678ZM152.478 146.359H148.341V141.446H152.478V146.359ZM152.478 141.04H148.341V136.115H152.478V141.04ZM152.478 135.721H148.341V130.808H152.478V135.721ZM152.478 130.402H148.341V125.477H152.478V130.402ZM157.009 151.678H152.872V146.753H157.009V151.678ZM157.009 146.359H152.872V141.446H157.009V146.359ZM157.009 141.04H152.872V136.115H157.009V141.04ZM157.009 135.721H152.872V130.808H157.009V135.721ZM157.009 130.402H152.872V125.477H157.009V130.402Z" fill="black"/>
</g>
<path d="M137.112 157.994C137.112 166.918 137.42 175.504 137.506 177.379H154.704C154.941 174.597 156.422 157.285 157.183 151.079C158.014 144.299 163.467 134.204 163.467 130.591C163.467 126.978 164.574 127.55 159.594 124.922C154.614 122.294 143.629 116.62 142.108 115.927C140.587 115.233 138.925 113.563 138.925 113.563C138.925 113.563 139.476 117.022 139.319 126.427C139.161 135.832 137.112 147.904 137.112 157.994Z" stroke="#263238" stroke-miterlimit="10"/>
<path d="M138.925 113.598C138.925 113.598 139.476 117.057 139.319 126.462C139.287 128.826 139.126 131.379 138.925 134.011C139.398 133.361 140.922 131.285 141.289 131.167C141.703 131.029 143.917 133.105 145.713 133.381C147.51 133.657 148.203 133.657 146.269 131.58C144.334 129.504 143.511 123.421 142.81 118.854C142.676 117.877 142.461 116.912 142.167 115.97H142.12C140.584 115.261 138.925 113.598 138.925 113.598Z" fill="#263238" stroke="#263238" stroke-miterlimit="10"/>
<path d="M150.275 156.386C151.548 155.807 152.549 155.307 152.549 155.307L153.018 158.924C153.018 158.924 146.13 161.958 142.281 162.19C138.432 162.423 138.081 162.541 138.081 162.541L138.195 159.042" stroke="#263238" stroke-miterlimit="10"/>
<path d="M146.828 157.801C147.533 157.564 148.361 157.23 149.168 156.879" stroke="#263238" stroke-miterlimit="10"/>
<path d="M139.477 158.691C141.491 158.64 143.499 158.457 145.489 158.144" stroke="#263238" stroke-miterlimit="10"/>
<path d="M153.018 158.924L153.25 161.725" stroke="#263238" stroke-miterlimit="10"/>
<path d="M100.229 177.387H119.583C119.626 175.87 120.186 156.591 120.564 146.753C120.958 136.509 127.908 120.97 127.908 120.97C127.908 120.97 128.838 118.779 127.853 117.794C126.868 116.809 124.504 117.203 122.731 118.582C120.958 119.961 104.607 127.053 103.622 128.038C102.637 129.023 102.834 132.372 102.44 136.312C102.046 140.252 95.5448 167.438 95.5448 167.438C95.5448 167.438 93.7718 167.832 93.1808 168.226C92.5898 168.62 92.5898 169.802 92.5898 169.802C92.5898 169.802 93.3778 169.999 95.7418 171.181C97.9167 172.269 99.9222 176.681 100.229 177.387Z" fill="white"/>
<path opacity="0.2" d="M125.292 125.477V127.491C125.426 127.128 125.556 126.777 125.686 126.439V125.477H126.057L126.21 125.083H125.686V120.17H128.168C128.196 120.048 128.227 119.914 128.247 119.776H125.686V117.302C125.556 117.321 125.426 117.341 125.292 117.373V119.776H121.155V119.508L120.761 119.709V119.776H120.627L119.839 120.17H120.761V125.095H116.624V121.707L116.23 121.892V125.083H112.093V123.826L111.699 124.012V125.083H109.41L108.575 125.477H111.699V130.414H107.562V125.962L107.168 126.151V130.414H103.031V129.421C102.81 130.856 102.678 132.304 102.637 133.755V135.725H102.495L102.46 136.119H102.637V141.052H101.577L101.495 141.446H102.637V146.371H100.427C100.399 146.501 100.368 146.635 100.34 146.765H102.637V151.69H99.2291C99.1975 151.824 99.17 151.954 99.1384 152.084H102.637V157.009H98.5002V154.842L98.1062 156.544V156.989H98.0037L97.9131 157.383H98.1062V162.328H96.7587L96.6641 162.722H98.1062V167.647H94.7611C94.3595 167.754 93.9648 167.886 93.5791 168.041V170.184C93.6973 170.232 93.8273 170.287 93.9731 170.354V168.041H98.1062V173.557C98.2441 173.754 98.3741 173.951 98.5002 174.152V168.045H102.637V177.402H103.031V168.029H107.168V177.387H107.562V168.029H111.699V177.387H112.093V168.029H116.23V177.387H116.624V168.029H119.859V167.635H116.624V162.722H120.024V162.328H116.624V157.403H120.194V157.009H116.624V152.084H120.371C120.371 151.954 120.371 151.82 120.371 151.69H116.624V146.765H120.564C120.564 146.635 120.564 146.505 120.584 146.371H116.624V141.446H120.761V144.358C120.864 143.519 120.994 142.656 121.155 141.781V141.446H121.218C121.242 141.316 121.269 141.186 121.293 141.052H121.155V136.127H122.475C122.511 135.997 122.55 135.867 122.585 135.733H121.155V130.808H124.11C124.157 130.678 124.201 130.544 124.244 130.414H121.155V125.489L125.292 125.477ZM121.155 120.17H125.292V125.095H121.155V120.17ZM102.637 167.647H98.5002V162.722H102.637V167.647ZM102.637 162.328H98.5002V157.403H102.637V162.328ZM107.168 167.647H103.031V162.722H107.168V167.647ZM107.168 162.328H103.031V157.403H107.168V162.328ZM107.168 157.009H103.031V152.084H107.168V157.009ZM107.168 151.69H103.031V146.765H107.168V151.69ZM107.168 146.371H103.031V141.446H107.168V146.371ZM107.168 141.052H103.031V136.127H107.168V141.052ZM107.168 135.733H103.031V130.808H107.168V135.733ZM111.699 167.647H107.562V162.722H111.699V167.647ZM111.699 162.328H107.562V157.403H111.699V162.328ZM111.699 157.009H107.562V152.084H111.699V157.009ZM111.699 151.69H107.562V146.765H111.699V151.69ZM111.699 146.371H107.562V141.446H111.699V146.371ZM111.699 141.052H107.562V136.127H111.699V141.052ZM111.699 135.733H107.562V130.808H111.699V135.733ZM116.23 167.647H112.093V162.722H116.23V167.647ZM116.23 162.328H112.093V157.403H116.23V162.328ZM116.23 157.009H112.093V152.084H116.23V157.009ZM116.23 151.69H112.093V146.765H116.23V151.69ZM116.23 146.371H112.093V141.446H116.23V146.371ZM116.23 141.052H112.093V136.127H116.23V141.052ZM116.23 135.733H112.093V130.808H116.23V135.733ZM116.23 130.414H112.093V125.489H116.23V130.414ZM120.761 141.052H116.624V136.127H120.761V141.052ZM120.761 135.733H116.624V130.808H120.761V135.733ZM120.761 130.414H116.624V125.489H120.761V130.414Z" fill="black"/>
<path d="M100.229 177.387H119.583C119.626 175.87 120.186 156.591 120.564 146.753C120.958 136.509 127.908 120.97 127.908 120.97C127.908 120.97 128.838 118.779 127.853 117.794C126.868 116.809 124.504 117.203 122.731 118.582C120.958 119.961 104.607 127.053 103.622 128.038C102.637 129.023 102.834 132.372 102.44 136.312C102.046 140.252 95.5448 167.438 95.5448 167.438C95.5448 167.438 93.7718 167.832 93.1808 168.226C92.5898 168.62 92.5898 169.802 92.5898 169.802C92.5898 169.802 93.3778 169.999 95.7418 171.181C97.9167 172.269 99.9222 176.681 100.229 177.387Z" stroke="#263238" stroke-miterlimit="10"/>
<path d="M92.5898 169.814C92.5898 169.814 93.3778 170.011 95.7418 171.193C98.1058 172.375 100.273 177.497 100.273 177.497H104.091C104.331 176.78 104.918 174.172 102.243 170.996C99.0908 167.253 95.5448 167.45 95.5448 167.45C95.5448 167.45 93.7718 167.844 93.1808 168.238C92.5898 168.632 92.5898 169.814 92.5898 169.814Z" fill="#263238" stroke="#263238" stroke-miterlimit="10"/>
<path d="M125.474 117.325C124.626 119.567 122.621 124.638 120.958 127.053C118.791 130.205 114.851 132.766 116.23 133.948C117.609 135.13 121.549 131.387 121.549 131.387C121.549 131.387 122.534 134.145 122.731 134.933C122.742 134.969 122.759 135.002 122.783 135.032C124.205 130.245 125.915 125.549 127.905 120.97C127.905 120.97 128.834 118.779 127.849 117.794C127.341 117.282 126.474 117.148 125.474 117.325Z" fill="#263238" stroke="#263238" stroke-miterlimit="10"/>
<path d="M111.085 136.344C111.198 135.615 111.272 134.882 111.306 134.145" stroke="#263238" stroke-miterlimit="10"/>
<path d="M107.956 177.879C107.956 177.879 108.547 165.271 108.547 157.982C108.547 152.73 109.977 143.897 110.781 138.487" stroke="#263238" stroke-miterlimit="10"/>
<path d="M108.941 155.236C108.941 155.236 112.093 156.221 113.669 156.418L118.397 157.009L118.038 161.473C118.038 161.473 117.806 161.343 114.26 160.161C110.714 158.979 108.547 157.994 108.547 157.994" stroke="#263238" stroke-miterlimit="10"/>
<path d="M118.038 161.461C118.038 161.461 117.806 170.208 117.806 171.39C117.806 172.572 114.26 171.784 114.26 171.784" stroke="#263238" stroke-miterlimit="10"/>
<path d="M120.868 113.165C120.868 113.165 124.583 118.507 127.909 120.97C131.234 123.432 134.071 119.985 136.289 116.289C138.507 112.593 139.985 109.883 141.092 106.679C142.199 103.476 141.092 98.1808 136.659 93.9926C132.227 89.8044 121.873 83.6422 119.288 86.8455C116.703 90.0487 114.237 97.0895 115.959 103.106C116.987 106.723 118.649 110.129 120.868 113.165Z" fill="#9E9E9E" stroke="#263238" stroke-miterlimit="10"/>
<path d="M119.304 101.672C120.706 101.251 122.2 101.251 123.602 101.672" stroke="#263238" stroke-width="2" stroke-miterlimit="10" stroke-linecap="round"/>
<path d="M122.482 104.97C122.601 105.608 122.451 106.171 122.147 106.226C121.844 106.282 121.509 105.809 121.391 105.167C121.273 104.524 121.423 103.965 121.726 103.91C122.029 103.854 122.364 104.327 122.482 104.97Z" fill="#263238"/>
<path d="M133.443 105.139C133.558 105.777 133.408 106.321 133.108 106.396C132.809 106.471 132.47 105.978 132.352 105.336C132.234 104.694 132.383 104.134 132.687 104.079C132.99 104.024 133.325 104.497 133.443 105.139Z" fill="#263238"/>
<path d="M125.324 113.827C126.748 114.317 128.253 114.526 129.757 114.441C132.345 114.319 134.564 112.471 134.564 112.471" stroke="#263238" stroke-miterlimit="10"/>
<path d="M119.669 89.5681C119.669 89.5681 125.142 102.05 125.828 102.393C126.513 102.736 127.88 98.6301 127.88 98.6301C127.88 98.6301 129.76 102.046 131.99 103.074C134.22 104.103 134.897 102.393 134.897 102.393C136.015 103.022 137.1 103.707 138.148 104.446L139.003 105.127L139.858 108.204C139.858 108.204 137.293 116.585 138.148 117.613C139.003 118.641 143.79 117.27 143.79 117.27C143.79 117.27 142.608 118.98 144.133 118.98C145.658 118.98 148.408 119.323 152.34 114.02C156.272 108.716 156.615 100.171 156.615 100.171C156.615 100.171 158.494 102.219 158.667 99.6545C158.841 97.0895 156.445 92.8146 156.445 92.8146C156.445 92.8146 160.204 96.5773 159.865 92.6452C159.526 88.7131 157.3 84.2648 156.445 83.2404C155.59 82.216 150.457 79.3004 150.457 79.3004C150.457 79.3004 152.509 78.9576 150.973 76.5621C149.436 74.1666 143.79 73.485 141.737 73.485C139.685 73.485 135.41 74.1705 135.41 74.1705C135.41 74.1705 138.148 68.8673 135.24 68.5245C132.333 68.1817 127.203 73.8278 127.203 73.8278C127.203 73.8278 122.081 69.7223 120.532 70.5773C118.984 71.4322 120.02 72.63 120.02 72.63C120.02 72.63 113.354 73.1422 111.47 76.0499C109.587 78.9576 111.813 80.6676 111.813 80.6676C111.813 80.6676 99.8433 88.8746 101.723 91.9518C103.602 95.0289 107.026 92.1251 107.026 92.1251C107.026 92.1251 102.235 104.438 102.92 105.293C103.606 106.148 106.86 104.95 106.86 104.95C106.86 104.95 106.691 114.867 109.256 115.895C111.821 116.923 112.333 115.04 112.333 115.04C112.333 115.04 113.7 116.407 116.781 116.577C119.862 116.746 120.883 113.157 120.883 113.157C120.883 113.157 117.463 105.119 117.636 98.4528C117.81 91.7863 119.669 89.5681 119.669 89.5681Z" fill="#263238" stroke="#263238" stroke-miterlimit="10"/>
<path d="M126.557 103.969C126.557 103.969 125.323 110.375 126.308 111.731C127.293 113.086 130.745 111.731 130.989 110.994" fill="#9E9E9E"/>
<path d="M126.557 103.969C126.557 103.969 125.323 110.375 126.308 111.731C127.293 113.086 130.745 111.731 130.989 110.994" stroke="#263238" stroke-miterlimit="10"/>
<path d="M121.442 107.913C124.129 107.913 126.308 106.313 126.308 104.339C126.308 102.365 124.129 100.765 121.442 100.765C118.755 100.765 116.576 102.365 116.576 104.339C116.576 106.313 118.755 107.913 121.442 107.913Z" stroke="#263238" stroke-miterlimit="10"/>
<path d="M133.144 107.668C135.832 107.668 138.01 106.068 138.01 104.095C138.01 102.121 135.832 100.521 133.144 100.521C130.457 100.521 128.278 102.121 128.278 104.095C128.278 106.068 130.457 107.668 133.144 107.668Z" stroke="#263238" stroke-miterlimit="10"/>
<path d="M126.557 103.969C126.557 103.969 127.542 103.232 128.278 104.095" stroke="#263238" stroke-miterlimit="10"/>
<path d="M86.0137 172.142C86.0137 172.142 92.1995 170.397 94.1025 170.082C96.0055 169.767 99.8155 173.253 100.45 175.157C101.084 177.06 100.273 177.485 100.273 177.485L87.5976 177.063L86.0137 172.142Z" fill="#9E9E9E" stroke="#263238" stroke-miterlimit="10"/>
<path d="M88.2561 171.528C88.2561 171.528 92.925 173.277 94.0912 173.979C95.2575 174.68 94.9068 176.079 94.2095 176.776C93.3682 177.479 92.3647 177.961 91.2899 178.179C90.202 178.241 89.1115 178.241 88.0237 178.179C86.625 178.06 85.3405 178.297 84.1743 178.297C83.008 178.297 79.5054 177.946 79.5054 177.946L78.4534 177.245C78.4534 177.245 76.4834 177.828 74.9547 178.427C73.426 179.026 73.9027 177.726 75.0689 176.792C76.2352 175.858 79.1547 173.525 79.6236 173.293C80.0924 173.061 86.0418 171.323 86.0418 171.323L88.2561 171.528Z" fill="#9E9E9E" stroke="#263238" stroke-miterlimit="10"/>
<path d="M90.0051 171.993C90.0051 171.993 86.9674 170.594 86.1518 170.594C85.3362 170.594 79.5011 172.564 78.6855 173.159C77.8699 173.754 77.0504 179.345 77.6335 179.696C78.2166 180.046 78.6855 178.994 78.8155 178.297C78.9455 177.6 80.5688 173.86 80.5688 173.86L79.3868 179.814C79.3868 179.814 79.8557 180.744 80.3206 179.928C80.7855 179.113 83.705 173.51 83.9375 173.159C84.2433 172.834 84.5983 172.559 84.9895 172.344C84.9895 172.344 84.4064 174.912 83.9375 177.363C83.4686 179.814 83.8232 180.515 84.5246 180.629C85.2259 180.744 85.5726 179.112 85.9233 178.297C86.2739 177.481 87.7908 172.809 87.7908 172.809" fill="#9E9E9E"/>
<path d="M90.0051 171.993C90.0051 171.993 86.9674 170.594 86.1518 170.594C85.3362 170.594 79.5011 172.564 78.6855 173.159C77.8699 173.754 77.0504 179.345 77.6335 179.696C78.2166 180.046 78.6855 178.994 78.8155 178.297C78.9455 177.6 80.5688 173.86 80.5688 173.86L79.3868 179.814C79.3868 179.814 79.8557 180.744 80.3206 179.928C80.7855 179.113 83.705 173.51 83.9375 173.159C84.2433 172.834 84.5983 172.559 84.9895 172.344C84.9895 172.344 84.4064 174.912 83.9375 177.363C83.4686 179.814 83.8232 180.515 84.5246 180.629C85.2259 180.744 85.5726 179.112 85.9233 178.297C86.2739 177.481 87.7908 172.809 87.7908 172.809" stroke="#263238" stroke-miterlimit="10"/>
<path d="M93.378 174.329C93.378 174.329 89.8793 177.946 89.4104 178.762C88.9416 179.577 88.9455 179.695 90.2299 179.695C91.5144 179.695 95.482 177.127 95.8287 176.776C96.1754 176.425 96.0651 175.377 95.2456 174.676C94.9846 174.473 94.6789 174.336 94.3539 174.275C94.029 174.215 93.6943 174.234 93.378 174.329Z" fill="#9E9E9E" stroke="#263238" stroke-miterlimit="10"/>
<path d="M115.229 173.927C115.229 173.927 110.56 175.436 109.414 176.291C108.267 177.146 106.612 178.088 106.971 178.376C107.329 178.663 108.48 178.376 108.838 178.088C109.197 177.8 110.848 177.513 110.848 177.513C110.848 177.513 112.786 176.362 114.295 175.432C115.804 174.503 116.951 173.494 115.229 173.927Z" fill="#9E9E9E" stroke="#263238" stroke-miterlimit="10"/>
<path d="M141.001 166.024C141.001 166.024 127.999 168.388 123.294 170.039C118.59 171.689 116.719 172.84 114.366 174.503C112.014 176.165 107.247 179.305 107.956 179.857C108.665 180.409 111.136 178.474 111.553 178.06C111.971 177.647 115.009 176.402 115.009 176.402L117.042 175.361C117.042 175.361 113.98 179.132 112.877 180.089C111.774 181.047 112.518 181.646 113.35 181.37C114.181 181.094 115.749 179.443 115.749 179.443L120.804 176.118C120.804 176.118 118.728 179.026 117.759 179.853C116.789 180.68 118.866 181.378 119.283 180.684C119.701 179.991 121.774 178.194 121.774 178.194C121.774 178.194 125.229 176.398 126.06 175.704C126.892 175.011 128.964 173.076 128.964 173.076L144.456 174.321C144.456 174.321 145.425 173.77 144.874 170.586C144.322 167.403 141.001 166.024 141.001 166.024Z" fill="#9E9E9E" stroke="#263238" stroke-miterlimit="10"/>
<path d="M151.513 141.54L159.121 160.358L146.809 164.645L150.268 174.743C150.268 174.743 159.109 174.767 166.028 174.349C172.947 173.931 177.801 169.759 176.694 164.783C175.586 159.806 171.438 152.608 168.116 144.031C164.795 135.453 165.823 130.339 164.302 127.711C162.781 125.083 158.491 124.39 158.491 124.39L156.127 123.996" fill="white"/>
<path opacity="0.2" d="M175.527 170.015V168.045H176.556C176.599 167.915 176.634 167.785 176.666 167.651H175.527V162.722H176.118C176.075 162.596 176.028 162.462 175.984 162.328H175.527V161.127C175.401 160.799 175.271 160.465 175.133 160.13V162.328H170.996V157.403H173.967C173.908 157.273 173.853 157.143 173.794 157.009H170.996V152.084H171.548C171.485 151.954 171.426 151.824 171.367 151.69H170.996V150.867C170.866 150.575 170.732 150.284 170.602 149.988V151.69H166.465V146.765H169.223C169.168 146.635 169.113 146.505 169.062 146.371H166.465V141.446H167.202C167.159 141.316 167.119 141.182 167.08 141.052H166.465V138.806C166.316 138.184 166.186 137.589 166.071 137.018V141.052H161.934V136.127H165.906L165.835 135.733H161.934V130.808H165.169L165.11 130.414H161.934V125.584C161.589 125.398 161.234 125.231 160.87 125.083H157.403V124.201L157.009 124.13V125.083H155.847L155.741 125.477H157.009V130.414H154.448L154.346 130.808H157.013V135.733H153.046L152.939 136.127H157.009V141.052H152.872V136.379L152.478 137.873V141.025H151.643L151.541 141.419H152.478V143.913L152.872 144.886V141.446H157.009V146.371H153.463L153.621 146.765H157.009V151.69H155.63L155.792 152.084H157.029V155.146L157.423 156.119V152.084H161.54V157.009H157.762L157.923 157.403H161.54V162.328H157.403V160.965L157.009 161.103V162.328H153.487L152.352 162.722H152.478V167.647H148.341V164.101L147.947 164.239V167.628H147.833L148.341 169.109V168.022H152.478V174.72H152.872V168.022H157.009V174.668H157.403V168.029H161.54V174.542H161.934V168.029H166.071V174.333L166.465 174.302V168.029H170.602V173.435L170.996 173.285V168.029H175.133V170.504C175.271 170.342 175.405 170.181 175.527 170.015ZM157.009 167.651H152.872V162.722H157.009V167.651ZM161.54 167.651H157.403V162.722H161.54V167.651ZM161.54 151.694H157.403V146.769H161.54V151.694ZM161.54 146.375H157.403V141.446H161.54V146.375ZM161.54 141.056H157.403V136.131H161.54V141.056ZM161.54 135.737H157.403V130.808H161.54V135.737ZM161.54 130.418H157.403V125.493H161.54V130.418ZM166.071 167.651H161.934V162.722H166.071V167.651ZM166.071 162.332H161.934V157.407H166.071V162.332ZM166.071 157.013H161.934V152.084H166.071V157.013ZM166.071 151.694H161.934V146.769H166.071V151.694ZM166.071 146.375H161.934V141.446H166.071V146.375ZM170.602 167.651H166.465V162.722H170.602V167.651ZM170.602 162.332H166.465V157.407H170.602V162.332ZM170.602 157.013H166.465V152.084H170.602V157.013ZM170.996 167.651V162.722H175.133V167.647L170.996 167.651Z" fill="#263238"/>
<path d="M151.513 141.54L159.121 160.358L146.809 164.645L150.268 174.743C150.268 174.743 159.109 174.767 166.028 174.349C172.947 173.931 177.801 169.759 176.694 164.783C175.586 159.806 171.438 152.608 168.116 144.031C164.795 135.453 165.823 130.339 164.302 127.711C162.781 125.083 158.491 124.39 158.491 124.39L156.127 123.996" stroke="#263238" stroke-miterlimit="10"/>
<path d="M166.528 158.443C164.018 158.908 161.543 159.546 159.121 160.354C159.121 160.354 164.377 156.895 167.281 156.619" stroke="#263238" stroke-miterlimit="10"/>
<path d="M170.05 158.278C169.505 158.199 168.953 158.181 168.403 158.223" stroke="#263238" stroke-miterlimit="10"/>
<path d="M150.406 163.116C150.406 163.116 153.203 165.791 154.031 167.864C154.858 169.936 154.555 175.566 154.003 176.118C153.452 176.669 143.156 176.602 141.462 174.487C141.021 173.935 144.043 172.662 142.522 169.617C141.001 166.571 140.308 166.299 140.308 166.299C140.308 166.299 139.063 165.606 141.415 164.085C143.767 162.564 149.161 161.461 150.406 163.116Z" fill="#263238" stroke="#263238" stroke-miterlimit="10"/>
<path d="M174.932 184.447H164.72L163.443 164.259H176.209L174.932 184.447Z" fill="#263238" stroke="#263238" stroke-linejoin="round"/>
<path d="M176.776 164.29H162.88V167.229H176.776V164.29Z" fill="white" stroke="#263238" stroke-linejoin="round"/>
<path d="M176.776 164.4H162.88L164.267 162.659H175.385L176.776 164.4Z" fill="white" stroke="#263238" stroke-linejoin="round"/>
<path d="M175.306 178.525L175.815 170.484H163.837L164.345 178.525H175.306Z" fill="white" stroke="#263238" stroke-linejoin="round"/>
<path d="M116.08 185.791L128.664 182.465V184.167L116.08 187.694V185.791Z" fill="#263238" stroke="#263238" stroke-linejoin="round"/>
<path d="M128.665 182.465H62.8707L50.1523 185.791H116.08L128.665 182.465Z" fill="white" stroke="#263238" stroke-linejoin="round"/>
<path d="M116.08 147.77H50.1523V187.694H116.08V147.77Z" fill="white" stroke="#263238" stroke-linejoin="round"/>
<path d="M116.08 153.546C101.739 154.228 93.1967 167.446 80.506 176.303C68.9381 184.38 54.6517 185.759 50.168 185.976V187.694H116.08V153.546Z" fill="#263238" stroke="#263238" stroke-linejoin="round"/>
<path d="M116.08 185.791H50.1523V187.694H116.08V185.791Z" fill="white" stroke="#263238" stroke-miterlimit="10"/>
<path d="M30.6337 172.619C30.6337 172.619 25.1413 163.833 29.5502 158.888C33.9591 153.944 41.0826 156.323 42.5522 160.902C44.0218 165.48 40.9053 173.171 40.9053 173.171L30.6337 172.619Z" fill="white" stroke="#263238" stroke-linecap="round" stroke-linejoin="round"/>
<path d="M30.8149 162.549C29.9008 162.549 26.4218 161.268 25.3225 159.621C24.2232 157.974 24.0341 154.31 27.1546 154.31C30.2751 154.31 31.3665 159.802 31.3665 159.802L31.5477 161.816" fill="white"/>
<path d="M30.8149 162.549C29.9008 162.549 26.4218 161.268 25.3225 159.621C24.2232 157.974 24.0341 154.31 27.1546 154.31C30.2751 154.31 31.3665 159.802 31.3665 159.802L31.5477 161.816" stroke="#263238" stroke-linecap="round" stroke-linejoin="round"/>
<path d="M33.6321 159.129C32.8126 158.735 30.2713 156.024 30.0231 154.058C29.7749 152.092 31.2484 148.735 34.034 150.118C36.8196 151.501 35.35 156.914 35.35 156.914L34.6132 158.798" fill="white"/>
<path d="M33.6321 159.129C32.8126 158.735 30.2713 156.024 30.0231 154.058C29.7749 152.092 31.2484 148.735 34.034 150.118C36.8196 151.501 35.35 156.914 35.35 156.914L34.6132 158.798" stroke="#263238" stroke-linecap="round" stroke-linejoin="round"/>
<path d="M36.957 160.051C36.5 159.263 35.8853 155.602 36.7679 153.829C37.6505 152.056 40.7394 150.078 42.2839 152.781C43.8284 155.484 39.6086 159.164 39.6086 159.164L37.9499 160.322" fill="white"/>
<path d="M36.957 160.051C36.5 159.263 35.8853 155.602 36.7679 153.829C37.6505 152.056 40.7394 150.078 42.2839 152.781C43.8284 155.484 39.6086 159.164 39.6086 159.164L37.9499 160.322" stroke="#263238" stroke-linecap="round" stroke-linejoin="round"/>
<path d="M38.0485 166.615C37.8988 165.709 38.5844 162.068 40.0185 160.705C41.4527 159.342 45.042 158.557 45.5582 161.627C46.0743 164.696 40.8301 166.694 40.8301 166.694L38.8601 167.206" fill="white"/>
<path d="M38.0485 166.615C37.8988 165.709 38.5844 162.068 40.0185 160.705C41.4527 159.342 45.042 158.557 45.5582 161.627C46.0743 164.696 40.8301 166.694 40.8301 166.694L38.8601 167.206" stroke="#263238" stroke-linecap="round" stroke-linejoin="round"/>
<path d="M25.7246 157.411L26.3432 158.384" stroke="white" stroke-linecap="round" stroke-linejoin="round"/>
<path d="M27.4932 159.799L28.4624 160.59" stroke="white" stroke-linecap="round" stroke-linejoin="round"/>
<path d="M26.4336 155.555L27.4028 156.97" stroke="white" stroke-linecap="round" stroke-linejoin="round"/>
<path d="M28.7305 158.12L29.7903 160.063" stroke="white" stroke-linecap="round" stroke-linejoin="round"/>
<path d="M31.2012 153.436L31.5558 154.495" stroke="white" stroke-linecap="round" stroke-linejoin="round"/>
<path d="M32.4385 156.438L33.0571 157.324" stroke="white" stroke-linecap="round" stroke-linejoin="round"/>
<path d="M32.1738 151.316L32.9697 153.081" stroke="white" stroke-linecap="round" stroke-linejoin="round"/>
<path d="M29.0811 163.774L29.349 165.362" stroke="white" stroke-linecap="round" stroke-linejoin="round"/>
<path d="M29.877 166.863L30.2316 168.191" stroke="white" stroke-linecap="round" stroke-linejoin="round"/>
<path d="M30.7598 163.861L31.1144 165.626" stroke="white" stroke-linecap="round" stroke-linejoin="round"/>
<path d="M31.9102 166.863L32.1741 168.191" stroke="white" stroke-linecap="round" stroke-linejoin="round"/>
<path d="M32.5283 161.564L33.0563 164.038" stroke="white" stroke-linecap="round" stroke-linejoin="round"/>
<path d="M33.7656 166.422L33.8523 167.572" stroke="white" stroke-linecap="round" stroke-linejoin="round"/>
<path d="M34.7354 160.768L35.1766 163.065" stroke="white" stroke-linecap="round" stroke-linejoin="round"/>
<path d="M35.1768 165.452L35.3541 167.836" stroke="white" stroke-linecap="round" stroke-linejoin="round"/>
<path d="M37.2998 161.65V163.597" stroke="white" stroke-linecap="round" stroke-linejoin="round"/>
<path d="M37.0322 166.071L37.1228 167.572" stroke="white" stroke-linecap="round" stroke-linejoin="round"/>
<path d="M39.5067 152.462L39.0654 153.526" stroke="white" stroke-linecap="round" stroke-linejoin="round"/>
<path d="M38.8876 154.759L38.4463 156.264" stroke="white" stroke-linecap="round" stroke-linejoin="round"/>
<path d="M41.4484 154.495L40.7432 155.91" stroke="white" stroke-linecap="round" stroke-linejoin="round"/>
<path d="M39.2422 157.501L38.4463 158.384" stroke="white" stroke-linecap="round" stroke-linejoin="round"/>
<path d="M37.5638 154.409L37.2998 155.555" stroke="white" stroke-linecap="round" stroke-linejoin="round"/>
<path d="M41.4487 160.768L40.4795 162.359" stroke="white" stroke-linecap="round" stroke-linejoin="round"/>
<path d="M39.861 163.329L39.3291 164.743" stroke="white" stroke-linecap="round" stroke-linejoin="round"/>
<path d="M40.6572 165.452L42.245 164.566" stroke="white" stroke-linecap="round" stroke-linejoin="round"/>
<path d="M43.2178 160.768L42.4219 162.095" stroke="white" stroke-linecap="round" stroke-linejoin="round"/>
<path d="M44.014 162.269L42.9541 163.065" stroke="white" stroke-linecap="round" stroke-linejoin="round"/>
<path d="M42.8708 169.554H27.8516V184.573H42.8708V169.554Z" fill="#263238" stroke="#263238" stroke-linecap="round" stroke-linejoin="round"/>
</svg>
