<svg width="216" height="144" viewBox="0 0 216 144" fill="none" xmlns="http://www.w3.org/2000/svg">
<path d="M173.842 88.3123C173.842 88.3123 170.303 86.3453 170.041 90.8006C169.779 95.256 169.122 124.237 169.122 124.237" stroke="#263238" stroke-width="2" stroke-linecap="round" stroke-linejoin="round"/>
<path d="M168.191 91.1952C168.191 91.1952 171.071 97.6205 169.767 123.843" stroke="#263238" stroke-width="2" stroke-linecap="round" stroke-linejoin="round"/>
<path d="M171.04 89.208C171.04 89.208 169.683 90.072 168.914 89.0842C168.145 88.0963 169.435 86.2704 168.298 85.4928C167.16 84.7152 165.193 85.9018 165.193 85.9018C165.193 85.9018 166.705 86.3453 166.656 87.1719C166.607 87.9984 165.879 88.3239 165.792 87.9495C165.706 87.5751 164.971 85.7693 163.742 86.5267C163.388 86.7363 163.08 87.0153 162.837 87.347C162.594 87.6786 162.421 88.056 162.328 88.4563C162.328 88.4563 165.187 88.1511 165.36 89.2282C165.533 90.3053 164.188 89.041 163.007 88.9719C161.827 88.9027 160.749 89.0755 160.827 89.7898C160.853 90.4217 160.816 91.0547 160.715 91.6791C161.361 91.1408 162.178 90.8526 163.019 90.8669C164.318 90.9418 164.269 91.7683 163.088 91.6992C161.907 91.6301 160.893 92.7533 160.893 92.7533C160.893 92.7533 161.971 94.5936 163.339 95.5037C164.707 96.4138 165.199 96.0797 165.355 95.3856C165.51 94.6915 165.147 92.8858 165.974 92.9347C166.8 92.9837 164.606 96.0538 165.66 96.2352C166.714 96.4167 167.563 96.1085 167.84 95.4144L168.128 94.7203C168.128 94.7203 167.759 92.9232 167.921 92.2205C168.082 91.5178 168.275 92.2407 168.462 93.0845C168.649 93.9283 168.767 95.9472 169.127 95.8493C169.487 95.7514 170.642 94.2797 170.913 93.7037C171.184 93.1277 169.392 91.3623 169.412 91.008C169.433 90.6538 170.815 91.3277 171.031 91.6963C171.187 91.9766 171.329 92.265 171.454 92.5603C171.454 92.5603 172.318 92.0189 172.295 90.36C172.272 88.7011 171.04 89.208 171.04 89.208Z" fill="white"/>
<path opacity="0.3" d="M171.04 89.208C171.04 89.208 169.683 90.072 168.914 89.0842C168.145 88.0963 169.435 86.2704 168.298 85.4928C167.16 84.7152 165.193 85.9018 165.193 85.9018C165.193 85.9018 166.705 86.3453 166.656 87.1719C166.607 87.9984 165.879 88.3239 165.792 87.9495C165.706 87.5751 164.971 85.7693 163.742 86.5267C163.388 86.7363 163.08 87.0153 162.837 87.347C162.594 87.6786 162.421 88.056 162.328 88.4563C162.328 88.4563 165.187 88.1511 165.36 89.2282C165.533 90.3053 164.188 89.041 163.007 88.9719C161.827 88.9027 160.749 89.0755 160.827 89.7898C160.853 90.4217 160.816 91.0547 160.715 91.6791C161.361 91.1408 162.178 90.8526 163.019 90.8669C164.318 90.9418 164.269 91.7683 163.088 91.6992C161.907 91.6301 160.893 92.7533 160.893 92.7533C160.893 92.7533 161.971 94.5936 163.339 95.5037C164.707 96.4138 165.199 96.0797 165.355 95.3856C165.51 94.6915 165.147 92.8858 165.974 92.9347C166.8 92.9837 164.606 96.0538 165.66 96.2352C166.714 96.4167 167.563 96.1085 167.84 95.4144L168.128 94.7203C168.128 94.7203 167.759 92.9232 167.921 92.2205C168.082 91.5178 168.275 92.2407 168.462 93.0845C168.649 93.9283 168.767 95.9472 169.127 95.8493C169.487 95.7514 170.642 94.2797 170.913 93.7037C171.184 93.1277 169.392 91.3623 169.412 91.008C169.433 90.6538 170.815 91.3277 171.031 91.6963C171.187 91.9766 171.329 92.265 171.454 92.5603C171.454 92.5603 172.318 92.0189 172.295 90.36C172.272 88.7011 171.04 89.208 171.04 89.208Z" fill="#263238"/>
<path d="M164.175 93.0989C165.059 92.0074 166.358 90.5299 167.449 89.8243" stroke="#263238" stroke-linecap="round" stroke-linejoin="round"/>
<path d="M163.149 94.4295C163.149 94.4295 163.377 94.1127 163.746 93.6404" stroke="#263238" stroke-linecap="round" stroke-linejoin="round"/>
<path d="M168.024 90.095C168.024 90.095 169.338 91.9498 169.58 93.8592" stroke="#263238" stroke-linecap="round" stroke-linejoin="round"/>
<path d="M166.538 91.1923C166.538 91.1923 166.907 90.9792 166.769 93.3379" stroke="#263238" stroke-linecap="round" stroke-linejoin="round"/>
<path d="M167.497 88.992C167.497 88.992 168.246 88.3238 167.851 86.999" stroke="#263238" stroke-linecap="round" stroke-linejoin="round"/>
<path d="M166.484 90.1239L165.948 89.1447" stroke="#263238" stroke-linecap="round" stroke-linejoin="round"/>
<path d="M165.358 91.1232C165.358 91.1232 163.658 89.8388 162.596 89.7754" stroke="#263238" stroke-linecap="round" stroke-linejoin="round"/>
<path d="M175.867 85.7088C175.867 85.7088 175.812 87.6557 174.291 87.7507C172.771 87.8458 171.832 85.3143 170.277 85.9219C168.721 86.5296 168.572 89.3088 168.572 89.3088C168.572 89.3088 170.046 88.0963 170.841 88.7098C171.636 89.3232 171.452 90.265 171.023 90.1152C170.593 89.9654 168.281 89.4499 168.203 91.1952C168.171 91.6923 168.24 92.1908 168.406 92.6606C168.571 93.1303 168.831 93.5616 169.168 93.9283C169.168 93.9283 170.812 90.8583 172.01 91.417C173.208 91.9757 171.023 92.4624 170.147 93.5971C169.272 94.7318 168.707 95.927 169.482 96.3389C170.132 96.7433 170.74 97.2122 171.296 97.7386C171.296 97.7386 171.089 96.1315 172.051 94.8845C173.013 93.6374 173.805 94.248 172.932 95.3827C172.059 96.5174 172.491 98.2973 172.491 98.2973C172.491 98.2973 175.066 98.4758 176.909 97.7213C178.752 96.9667 178.764 96.2554 178.171 95.616C177.577 94.9766 175.527 94.1213 176.137 93.3264C176.748 92.5315 178.326 96.8227 179.228 95.8896C180.129 94.9565 180.397 93.8995 179.893 93.1478L179.386 92.3962C179.386 92.3962 177.336 91.5322 176.742 90.9015C176.149 90.2707 177.004 90.5587 177.975 90.9446C178.945 91.3306 181.045 92.5891 181.195 92.1629C181.344 91.7367 180.656 89.5709 180.264 88.9143C179.873 88.2576 176.883 88.8394 176.544 88.5773C176.204 88.3152 177.819 87.3907 178.335 87.4253C178.85 87.4599 179.487 87.5837 179.487 87.5837C179.487 87.5837 179.533 86.3539 177.857 85.2423C176.181 84.1306 175.867 85.7088 175.867 85.7088Z" fill="white"/>
<path opacity="0.2" d="M175.867 85.7088C175.867 85.7088 175.812 87.6557 174.291 87.7507C172.771 87.8458 171.832 85.3143 170.277 85.9219C168.721 86.5296 168.572 89.3088 168.572 89.3088C168.572 89.3088 170.046 88.0963 170.841 88.7098C171.636 89.3232 171.452 90.265 171.023 90.1152C170.593 89.9654 168.281 89.4499 168.203 91.1952C168.171 91.6923 168.24 92.1908 168.406 92.6606C168.571 93.1303 168.831 93.5616 169.168 93.9283C169.168 93.9283 170.812 90.8583 172.01 91.417C173.208 91.9757 171.023 92.4624 170.147 93.5971C169.272 94.7318 168.707 95.927 169.482 96.3389C170.132 96.7433 170.74 97.2122 171.296 97.7386C171.296 97.7386 171.089 96.1315 172.051 94.8845C173.013 93.6374 173.805 94.248 172.932 95.3827C172.059 96.5174 172.491 98.2973 172.491 98.2973C172.491 98.2973 175.066 98.4758 176.909 97.7213C178.752 96.9667 178.764 96.2554 178.171 95.616C177.577 94.9766 175.527 94.1213 176.137 93.3264C176.748 92.5315 178.326 96.8227 179.228 95.8896C180.129 94.9565 180.397 93.8995 179.893 93.1478L179.386 92.3962C179.386 92.3962 177.336 91.5322 176.742 90.9015C176.149 90.2707 177.004 90.5587 177.975 90.9446C178.945 91.3306 181.045 92.5891 181.195 92.1629C181.344 91.7367 180.656 89.5709 180.264 88.9143C179.873 88.2576 176.883 88.8394 176.544 88.5773C176.204 88.3152 177.819 87.3907 178.335 87.4253C178.85 87.4599 179.487 87.5837 179.487 87.5837C179.487 87.5837 179.533 86.3539 177.857 85.2423C176.181 84.1306 175.867 85.7088 175.867 85.7088Z" fill="#263238"/>
<path d="M175.081 95.2358C174.591 93.6057 173.998 91.296 174.038 89.7235" stroke="#263238" stroke-linecap="round" stroke-linejoin="round"/>
<path d="M175.714 97.1655C175.714 97.1655 175.553 96.7248 175.331 96.0336" stroke="#263238" stroke-linecap="round" stroke-linejoin="round"/>
<path d="M174.7 89.3318C174.7 89.3318 177.451 89.2829 179.527 90.3398" stroke="#263238" stroke-linecap="round" stroke-linejoin="round"/>
<path d="M174.787 91.5668C174.787 91.5668 174.822 91.0541 177.091 92.8023" stroke="#263238" stroke-linecap="round" stroke-linejoin="round"/>
<path d="M173.243 89.113C173.243 89.113 173.088 87.9062 171.489 87.3994" stroke="#263238" stroke-linecap="round" stroke-linejoin="round"/>
<path d="M173.678 90.8957L172.333 90.7632" stroke="#263238" stroke-linecap="round" stroke-linejoin="round"/>
<path d="M173.911 92.7014C173.911 92.7014 171.466 93.5309 170.68 94.5504" stroke="#263238" stroke-linecap="round" stroke-linejoin="round"/>
<path d="M159.552 98.6688C159.552 98.6688 167.287 103.784 167.155 123.581" stroke="#263238" stroke-width="2" stroke-linecap="round" stroke-linejoin="round"/>
<path d="M169.09 97.3181C169.09 97.3181 168.842 99.5587 167.074 99.527C165.306 99.4953 164.465 96.48 162.616 97.0358C160.767 97.5917 160.326 100.78 160.326 100.78C160.326 100.78 162.144 99.5213 163.005 100.302C163.866 101.082 163.56 102.154 163.08 101.94C162.599 101.727 159.981 100.915 159.724 102.923C159.641 103.494 159.675 104.076 159.823 104.634C159.972 105.192 160.232 105.714 160.588 106.168C160.588 106.168 162.777 102.779 164.105 103.536C165.432 104.293 162.866 104.651 161.749 105.877C160.632 107.104 159.874 108.432 160.721 108.979C161.435 109.506 162.093 110.104 162.685 110.765C162.685 110.765 162.596 108.89 163.837 107.542C165.078 106.194 165.922 106.966 164.808 108.199C163.693 109.431 164.024 111.522 164.024 111.522C164.024 111.522 166.982 111.971 169.179 111.28C171.377 110.589 171.455 109.765 170.83 108.976C170.205 108.187 167.921 107.001 168.701 106.142C169.482 105.284 170.896 110.382 172.025 109.391C173.154 108.4 173.563 107.205 173.05 106.289L172.512 105.373C172.512 105.373 170.228 104.19 169.603 103.398C168.978 102.606 169.937 103.029 171.02 103.565C172.103 104.1 174.409 105.754 174.62 105.273C174.83 104.792 174.24 102.24 173.862 101.436C173.485 100.633 169.968 101.033 169.6 100.699C169.231 100.365 171.187 99.4493 171.777 99.5472C172.217 99.6204 172.652 99.7165 173.082 99.8352C173.082 99.8352 173.249 98.4182 171.42 96.9782C169.591 95.5382 169.09 97.3181 169.09 97.3181Z" fill="white"/>
<path opacity="0.3" d="M169.09 97.3181C169.09 97.3181 168.842 99.5587 167.074 99.527C165.306 99.4953 164.465 96.48 162.616 97.0358C160.767 97.5917 160.326 100.78 160.326 100.78C160.326 100.78 162.144 99.5213 163.005 100.302C163.866 101.082 163.56 102.154 163.08 101.94C162.599 101.727 159.981 100.915 159.724 102.923C159.641 103.494 159.675 104.076 159.823 104.634C159.972 105.192 160.232 105.714 160.588 106.168C160.588 106.168 162.777 102.779 164.105 103.536C165.432 104.293 162.866 104.651 161.749 105.877C160.632 107.104 159.874 108.432 160.721 108.979C161.435 109.506 162.093 110.104 162.685 110.765C162.685 110.765 162.596 108.89 163.837 107.542C165.078 106.194 165.922 106.966 164.808 108.199C163.693 109.431 164.024 111.522 164.024 111.522C164.024 111.522 166.982 111.971 169.179 111.28C171.377 110.589 171.455 109.765 170.83 108.976C170.205 108.187 167.921 107.001 168.701 106.142C169.482 105.284 170.896 110.382 172.025 109.391C173.154 108.4 173.563 107.205 173.05 106.289L172.512 105.373C172.512 105.373 170.228 104.19 169.603 103.398C168.978 102.606 169.937 103.029 171.02 103.565C172.103 104.1 174.409 105.754 174.62 105.273C174.83 104.792 174.24 102.24 173.862 101.436C173.485 100.633 169.968 101.033 169.6 100.699C169.231 100.365 171.187 99.4493 171.777 99.5472C172.217 99.6204 172.652 99.7165 173.082 99.8352C173.082 99.8352 173.249 98.4182 171.42 96.9782C169.591 95.5382 169.09 97.3181 169.09 97.3181Z" fill="#263238"/>
<path d="M167.288 108.236C166.873 106.312 166.409 103.591 166.6 101.779" stroke="#263238" stroke-linecap="round" stroke-linejoin="round"/>
<path d="M167.834 110.523C167.834 110.523 167.69 109.999 167.497 109.181" stroke="#263238" stroke-linecap="round" stroke-linejoin="round"/>
<path d="M167.402 101.376C167.402 101.376 170.57 101.581 172.874 102.997" stroke="#263238" stroke-linecap="round" stroke-linejoin="round"/>
<path d="M167.29 103.968C167.29 103.968 167.379 103.392 169.833 105.61" stroke="#263238" stroke-linecap="round" stroke-linejoin="round"/>
<path d="M165.74 100.999C165.74 100.999 165.674 99.5933 163.88 98.856" stroke="#263238" stroke-linecap="round" stroke-linejoin="round"/>
<path d="M166.075 103.095L164.537 102.816" stroke="#263238" stroke-linecap="round" stroke-linejoin="round"/>
<path d="M166.176 105.204C166.176 105.204 163.276 105.926 162.271 107.029" stroke="#263238" stroke-linecap="round" stroke-linejoin="round"/>
<path d="M162.566 114.273C162.566 114.273 167.549 118.074 168.073 123.713L167.039 104.832" stroke="#263238" stroke-width="2" stroke-linecap="round" stroke-linejoin="round"/>
<path d="M174.628 111.519C168.073 110.339 168.073 123.713 168.073 123.713" stroke="#263238" stroke-width="2" stroke-linecap="round" stroke-linejoin="round"/>
<path d="M168.86 123.581C168.86 123.581 165.058 95.9155 176.06 95.9155" stroke="#263238" stroke-width="2" stroke-linecap="round" stroke-linejoin="round"/>
<path d="M172.132 110.722C171.236 109.716 169.332 109.716 168.215 112.291C167.098 114.866 168.103 114.417 168.103 114.417C168.103 114.417 170.228 113.746 171.559 113.296C172.889 112.847 174.692 111.73 174.804 112.404C174.917 113.077 173.909 113.746 172.676 113.97C171.444 114.195 168.201 115.088 168.535 115.762C168.869 116.436 169.655 118.446 169.655 118.446C170.612 117.634 171.621 116.887 172.676 116.208C174.133 115.312 175.029 115.649 174.246 116.654C173.462 117.66 171.222 118.783 171.671 120.125C172.12 121.467 174.816 123.149 174.816 123.149C174.816 123.149 175.15 120.349 175.936 119.454C176.723 118.558 176.72 119.566 176.495 121.133C176.383 121.8 176.308 122.473 176.27 123.149L179.404 124.266C179.916 123.486 180.477 122.739 181.083 122.028L181.659 121.47C181.659 121.47 179.196 119.341 179.084 118.014C178.972 116.686 180.763 118.014 181.322 118.238C181.881 118.463 182.776 120.027 182.776 120.027C182.776 120.027 183.338 117.455 183.45 116.571L183.563 115.675C183.563 115.675 181.21 114.78 180.314 114.78C179.418 114.78 178.972 115.451 178.972 114.555C178.972 113.659 179.867 113.1 180.875 113.213C181.788 113.364 182.686 113.588 183.563 113.884C183.563 113.884 184.234 113.322 184.009 111.643C183.784 109.964 183.226 109.964 181.883 110.413C180.541 110.863 179.643 111.853 178.635 111.853C177.627 111.853 178.188 110.624 178.859 110.287C179.531 109.95 181.21 109.279 181.547 109.166C181.883 109.054 179.755 107.487 178.635 107.266C177.515 107.044 176.066 107.842 176.172 108.945C176.386 111.283 173.028 111.744 172.132 110.722Z" fill="white"/>
<path d="M179.338 122.247C179.373 122.584 179.396 122.924 179.407 123.261" stroke="#263238" stroke-linecap="round" stroke-linejoin="round"/>
<path d="M177.088 114.212C178.072 116.43 178.78 118.76 179.196 121.15" stroke="#263238" stroke-linecap="round" stroke-linejoin="round"/>
<path d="M176.684 113.314C176.131 112.121 175.714 111.396 175.714 111.396C176.319 111.104 176.821 110.635 177.154 110.051C177.416 109.521 177.8 109.061 178.274 108.708" stroke="#263238" stroke-linecap="round" stroke-linejoin="round"/>
<path d="M171.794 115.2C171.794 115.2 175.826 113.521 175.826 113.858" stroke="#263238" stroke-linecap="round" stroke-linejoin="round"/>
<path d="M178.064 113.075C178.064 113.075 179.856 112.179 181.423 112.179" stroke="#263238" stroke-linecap="round" stroke-linejoin="round"/>
<path d="M177.408 115.776C176.631 116.414 175.919 117.126 175.28 117.901C174.626 118.673 174.097 119.541 173.713 120.476" stroke="#263238" stroke-linecap="round" stroke-linejoin="round"/>
<path d="M178.623 116.208C178.623 116.208 180.976 115.537 182.206 116.654" stroke="#263238" stroke-linecap="round" stroke-linejoin="round"/>
<path d="M182.879 101.088C181.661 100.368 180.313 100.351 179.651 99.5904C178.988 98.8301 180.287 98.4384 180.981 98.7264C181.675 99.0144 183.285 99.841 183.588 100.022C183.89 100.204 183.683 97.5686 183.118 96.5664C182.554 95.5642 181.007 94.9968 180.238 95.8061C178.611 97.5168 176.071 95.2733 176.244 93.937C176.417 92.6007 175.17 91.1635 172.5 92.0074C169.83 92.8512 170.821 93.3149 170.821 93.3149C170.821 93.3149 172.721 94.4813 173.943 95.2042C175.164 95.9271 177.18 96.5434 176.745 97.0675C176.31 97.5917 175.144 97.272 174.167 96.4915C173.191 95.7111 170.389 93.8448 170.101 94.5389C169.813 95.233 168.805 97.1309 168.805 97.1309C170.045 97.3211 171.272 97.5933 172.477 97.9459C174.107 98.4557 174.441 99.3514 173.168 99.4205C171.895 99.4896 169.579 98.5334 168.848 99.7517C168.116 100.97 168.62 104.1 168.62 104.1C168.62 104.1 170.953 102.519 172.143 102.525C173.332 102.531 172.572 103.19 171.241 104.049C170.665 104.402 170.108 104.787 169.574 105.201L170.783 108.302C171.708 108.177 172.64 108.111 173.574 108.104L174.363 108.158C174.363 108.158 174.363 104.904 175.296 103.939C176.229 102.974 176.396 105.206 176.595 105.777C176.794 106.347 176.198 108.049 176.198 108.049C176.198 108.049 178.502 106.785 179.256 106.284L180.008 105.78C180.008 105.78 179.144 103.418 178.568 102.741C177.992 102.064 177.183 102.165 177.857 101.589C178.53 101.013 179.544 101.301 180.12 102.145C180.602 102.933 181.021 103.759 181.373 104.613C181.373 104.613 182.237 104.754 183.357 103.484C184.478 102.214 184.1 101.805 182.879 101.088ZM172.287 104.671C171.391 104.224 173.516 103.329 173.516 103.329C174.303 103.211 173.182 105.12 172.29 104.665L172.287 104.671ZM173.793 100.492C173.413 100.302 174.556 99.9159 174.556 99.9159C176.215 100.224 174.179 100.679 173.796 100.486L173.793 100.492Z" fill="white"/>
<path d="M172.264 106.946C172.032 107.194 171.793 107.433 171.547 107.663" stroke="#263238" stroke-linecap="round" stroke-linejoin="round"/>
<path d="M176.858 99.9792C175.83 102.176 174.534 104.239 173.002 106.119" stroke="#263238" stroke-linecap="round" stroke-linejoin="round"/>
<path d="M177.272 99.0865C177.811 97.8855 178.085 97.0935 178.085 97.0935C178.703 97.3666 179.391 97.443 180.055 97.3124C180.626 97.1631 181.225 97.1512 181.803 97.2778" stroke="#263238" stroke-linecap="round" stroke-linejoin="round"/>
<path d="M176.298 98.784C176.552 98.5652 172.644 96.6212 172.644 96.6212" stroke="#263238" stroke-linecap="round" stroke-linejoin="round"/>
<path d="M178.358 99.9706C178.358 99.9706 180.21 100.737 181.238 101.92" stroke="#263238" stroke-linecap="round" stroke-linejoin="round"/>
<path d="M175.89 101.223C174.899 101.057 173.894 100.987 172.889 101.013C171.879 101.024 170.877 101.194 169.92 101.517" stroke="#263238" stroke-linecap="round" stroke-linejoin="round"/>
<path d="M176.359 102.447C176.359 102.447 178.407 103.784 178.375 105.445" stroke="#263238" stroke-linecap="round" stroke-linejoin="round"/>
<path d="M165.487 116.594C164.508 116.018 163.422 116.001 162.895 115.387C162.368 114.774 163.405 114.466 163.964 114.699C164.522 114.932 165.815 115.595 166.063 115.739C166.311 115.883 166.138 113.766 165.683 112.968C165.228 112.17 163.984 111.704 163.379 112.357C162.069 113.731 160.024 111.928 160.165 110.851C160.306 109.774 159.301 108.619 157.144 109.299C154.987 109.979 155.793 110.353 155.793 110.353C155.793 110.353 157.322 111.292 158.304 111.871C159.286 112.45 160.896 112.948 160.559 113.371C160.222 113.795 159.272 113.535 158.486 112.905C157.7 112.274 155.445 110.773 155.211 111.332C154.978 111.891 154.172 113.432 154.172 113.432C155.17 113.584 156.157 113.802 157.126 114.085C158.437 114.497 158.705 115.22 157.679 115.275C156.654 115.33 154.799 114.561 154.223 115.54C153.647 116.519 154.042 119.039 154.042 119.039C154.042 119.039 155.92 117.769 156.876 117.772C157.832 117.775 157.222 118.308 156.153 118.999C155.688 119.282 155.239 119.591 154.808 119.923L155.782 122.42C156.526 122.319 157.276 122.265 158.028 122.259L158.664 122.305C158.664 122.305 158.664 119.684 159.416 118.909C160.168 118.135 160.3 119.929 160.459 120.387C160.617 120.845 160.139 122.216 160.139 122.216C160.139 122.216 161.999 121.199 162.601 120.793L163.206 120.39C163.206 120.39 162.509 118.489 162.037 117.945C161.565 117.4 160.919 117.481 161.461 117.009C162.002 116.536 162.817 116.787 163.281 117.458C163.67 118.093 164.008 118.757 164.292 119.445C164.292 119.445 164.986 119.557 165.887 118.535C166.789 117.513 166.463 117.173 165.487 116.594ZM156.962 119.474C156.242 119.114 157.953 118.394 157.953 118.394C158.584 118.305 157.682 119.837 156.959 119.477L156.962 119.474ZM158.178 116.11C157.87 115.957 158.791 115.649 158.791 115.649C160.127 115.909 158.483 116.269 158.178 116.113V116.11Z" fill="white"/>
<path d="M156.96 121.311C156.773 121.51 156.58 121.703 156.384 121.887" stroke="#263238" stroke-linecap="round" stroke-linejoin="round"/>
<path d="M160.64 115.707C159.81 117.474 158.768 119.133 157.535 120.646" stroke="#263238" stroke-linecap="round" stroke-linejoin="round"/>
<path d="M160.975 114.987C161.407 114.022 161.628 113.383 161.628 113.383C162.126 113.602 162.679 113.664 163.212 113.558C163.672 113.438 164.154 113.429 164.618 113.53" stroke="#263238" stroke-linecap="round" stroke-linejoin="round"/>
<path d="M157.247 113.011C157.247 113.011 160.395 114.575 160.19 114.739" stroke="#263238" stroke-linecap="round" stroke-linejoin="round"/>
<path d="M161.855 115.698C161.855 115.698 163.344 116.315 164.159 117.265" stroke="#263238" stroke-linecap="round" stroke-linejoin="round"/>
<path d="M159.86 116.706C159.063 116.571 158.255 116.514 157.447 116.536C156.634 116.546 155.827 116.683 155.057 116.942" stroke="#263238" stroke-linecap="round" stroke-linejoin="round"/>
<path d="M160.237 117.691C160.237 117.691 161.888 118.765 161.856 120.105" stroke="#263238" stroke-linecap="round" stroke-linejoin="round"/>
<path d="M161.49 98.1101C161.49 98.1101 160.257 99.0058 159.474 98.1101C158.691 97.2144 159.811 95.4231 158.688 94.752C157.564 94.081 155.779 95.3108 155.779 95.3108C155.779 95.3108 157.233 95.6477 157.233 96.4311C157.233 97.2144 156.562 97.5485 156.45 97.2144C156.338 96.8804 155.554 95.1984 154.434 95.9818C154.111 96.1994 153.835 96.4804 153.624 96.8076C153.412 97.1348 153.27 97.5015 153.204 97.8855C153.204 97.8855 155.888 97.4362 156.113 98.4442C156.338 99.4522 154.993 98.3319 153.875 98.3319C152.758 98.3319 151.747 98.5565 151.859 99.2276C151.92 99.8231 151.92 100.423 151.859 101.019C152.439 100.476 153.194 100.158 153.987 100.123C155.217 100.123 155.217 100.907 154.1 100.907C152.982 100.907 152.084 102.027 152.084 102.027C152.084 102.027 153.204 103.706 154.546 104.489C155.888 105.273 156.338 104.939 156.45 104.265C156.562 103.591 156.113 101.915 156.896 101.915C157.68 101.915 155.779 104.939 156.784 105.048C157.789 105.157 158.575 104.826 158.8 104.152L159.025 103.481C159.025 103.481 158.575 101.802 158.688 101.131C158.8 100.46 159.025 101.131 159.246 101.915C159.468 102.698 159.696 104.602 160.03 104.489C160.364 104.377 161.375 102.923 161.599 102.364C161.824 101.805 160.03 100.236 160.03 99.9015C160.03 99.5674 161.375 100.123 161.599 100.46C161.761 100.714 161.91 100.975 162.046 101.244C162.046 101.244 162.829 100.685 162.717 99.1152C162.604 97.5456 161.49 98.1101 161.49 98.1101Z" fill="white"/>
<path d="M155.231 102.168C156.006 101.088 157.152 99.6192 158.146 98.8934" stroke="#263238" stroke-linecap="round" stroke-linejoin="round"/>
<path d="M154.324 103.481C154.324 103.481 154.523 103.17 154.843 102.704" stroke="#263238" stroke-linecap="round" stroke-linejoin="round"/>
<path d="M158.688 99.1152C158.688 99.1152 160.03 100.794 160.367 102.586" stroke="#263238" stroke-linecap="round" stroke-linejoin="round"/>
<path d="M157.349 100.224C157.349 100.224 157.683 99.9994 157.683 102.24" stroke="#263238" stroke-linecap="round" stroke-linejoin="round"/>
<path d="M158.132 98.1101C158.132 98.1101 158.803 97.4362 158.354 96.2064" stroke="#263238" stroke-linecap="round" stroke-linejoin="round"/>
<path d="M157.236 99.2275L156.675 98.3318" stroke="#263238" stroke-linecap="round" stroke-linejoin="round"/>
<path d="M156.228 100.224C156.228 100.224 154.549 99.1037 153.541 99.1037" stroke="#263238" stroke-linecap="round" stroke-linejoin="round"/>
<path d="M172.794 123.186H164.14V135.642H172.794V123.186Z" fill="#263238" stroke="#263238" stroke-width="2" stroke-linecap="round" stroke-linejoin="round"/>
<path d="M94.8433 27.4694C94.8433 27.4694 94.9473 23.7887 94.8173 20.6236C94.6874 17.4585 94.9502 10.6732 94.9502 10.6732" stroke="#263238" stroke-miterlimit="10"/>
<path d="M94.8903 14.6649L93.4531 13.5331" stroke="#263238" stroke-miterlimit="10"/>
<path d="M94.8721 15.4425L95.3847 14.616" stroke="#263238" stroke-miterlimit="10"/>
<path d="M94.7578 18.7171L96.0337 17.6602" stroke="#263238" stroke-miterlimit="10"/>
<path d="M94.9493 12.0643L94.2754 11.4509" stroke="#263238" stroke-miterlimit="10"/>
<path d="M94.7452 19.2902L93.9014 18.3859" stroke="#263238" stroke-miterlimit="10"/>
<path d="M94.8174 22.8441L93.0635 21.2429" stroke="#263238" stroke-miterlimit="10"/>
<path d="M94.8633 24.8169C95.3103 24.6436 95.7451 24.4406 96.165 24.2092" stroke="#263238" stroke-miterlimit="10"/>
<path d="M93.8867 15.2323C93.1811 14.6879 90.8138 14.783 90.3587 15.9148C89.9037 17.0467 91.3523 18.8928 92.7347 18.7631C93.2791 18.7113 93.5152 18.6739 93.7283 18.3686L91.7843 16.4678L93.8896 18.1612C93.9488 18.051 93.997 17.9353 94.0336 17.8156C94.0567 17.7321 94.0797 17.6399 94.097 17.5449C94.2439 16.8681 94.552 15.742 93.8867 15.2323Z" fill="white"/>
<path d="M98.4697 13.919V13.9593C98.2796 14.8032 97.3177 15.2812 96.5026 15.2092C96.3896 15.1997 96.2778 15.1794 96.1686 15.1488C95.9781 15.4503 95.8602 15.7919 95.8243 16.1468C95.7883 16.5016 95.8352 16.8599 95.9612 17.1936C95.9952 17.2889 96.0407 17.3798 96.0966 17.4643C96.3356 17.2684 98.8931 15.0854 98.8931 15.0854L96.2377 17.6428C97.0383 18.5068 98.9161 18.383 99.5699 16.7961C100.224 15.2092 99.3913 14.1465 98.4697 13.919Z" fill="white"/>
<path d="M97.1674 10.967C95.7907 10.679 94.5581 11.2896 94.5754 12.7267C94.583 13.0435 94.6554 13.3554 94.7881 13.6432C94.9209 13.931 95.1112 14.1885 95.3472 14.4L96.7671 12.4646L95.5747 14.5756C95.8419 14.7578 96.1512 14.8689 96.4733 14.8982C97.2855 14.9673 98.2503 14.4892 98.4403 13.6454C98.6391 12.7036 98.544 11.2694 97.1674 10.967Z" fill="white"/>
<path d="M95.56 5.97021C95.56 5.97021 95.4188 6.01342 94.5376 6.44254C94.0216 6.72703 93.6393 7.20422 93.4741 7.7698C93.309 8.33539 93.3745 8.94334 93.6563 9.46077C93.9004 9.9442 94.3227 10.3139 94.8342 10.4918L95.1884 7.0675L95.0387 10.5379C95.1057 10.5448 95.1733 10.5448 95.2403 10.5379C95.8163 10.4803 96.7177 9.79485 96.8041 8.39229C96.8905 6.98973 95.56 5.97021 95.56 5.97021Z" fill="white"/>
<path d="M91.5372 9.08348L94.1955 11.2089C94.2218 11.1153 94.2305 11.0177 94.2214 10.9209C94.0976 9.70556 92.8851 8.99996 92.0845 8.74652C91.2838 8.49308 90.728 8.94524 91.2435 10.1088C91.759 11.2723 93.1098 11.8368 93.7117 11.6611C93.8547 11.6258 93.9834 11.5474 94.0803 11.4364L91.5372 9.08348Z" fill="white"/>
<path d="M93.366 11.808C92.9584 11.7786 92.5629 11.657 92.2092 11.4525C91.8555 11.2479 91.5528 10.9657 91.3241 10.6272C91.0417 10.6004 90.7601 10.6851 90.5395 10.8633C90.3188 11.0414 90.1766 11.2988 90.1433 11.5805C89.8725 12.8477 90.7884 14.1724 92.1103 14.0112C92.5255 13.9895 92.9195 13.8211 93.222 13.536L90.8604 11.3789L93.389 13.3056C93.4386 13.2166 93.4699 13.1187 93.4812 13.0176C93.5628 12.6118 93.5228 12.191 93.366 11.808Z" fill="white"/>
<path d="M93.3515 18.8553C93.1368 18.9473 92.9079 19.0018 92.6747 19.0166C91.8107 19.0972 90.9294 18.4204 90.4917 17.6255C90.2346 17.6429 89.9908 17.746 89.7991 17.9183C89.6075 18.0906 89.4792 18.3221 89.4347 18.5759C89.1726 20.0591 90.5464 22.0147 91.9346 21.7036C92.2955 21.6334 92.6296 21.4638 92.8994 21.214L89.8696 18.2995L93.075 21.0239C93.2583 20.7889 93.3765 20.5098 93.4178 20.2147C93.5696 19.7696 93.5459 19.2835 93.3515 18.8553Z" fill="white"/>
<path d="M99.4485 21.888C98.429 20.7072 97.2165 21.7641 97.2165 21.7641C97.2165 21.7641 96.4735 22.009 96.1912 23.063C96.1048 23.3828 96.1179 23.7214 96.2287 24.0336L99.293 22.248L96.3035 24.2006C96.5915 24.7305 97.1906 25.0646 98.0315 24.8198C99.3736 24.4512 100.465 23.0774 99.4485 21.888Z" fill="white"/>
<path d="M96.9082 26.3577H92.666V32.639H96.9082V26.3577Z" fill="#263238"/>
<path d="M143.732 32.5873H87.7793V136.046H143.732V32.5873Z" fill="white" stroke="#263238" stroke-miterlimit="10"/>
<path d="M135.84 33.8976H88.9424V134.47H135.84V33.8976Z" fill="#263238" stroke="#263238" stroke-linecap="round" stroke-linejoin="round"/>
<path d="M135.84 49.4957H88.9424V50.9789H135.84V49.4957Z" fill="white" stroke="#263238" stroke-miterlimit="10"/>
<path d="M135.84 66.6432H88.9424V68.1264H135.84V66.6432Z" fill="white" stroke="#263238" stroke-miterlimit="10"/>
<path d="M120.726 33.9149H119.729V49.4928H120.726V33.9149Z" fill="white" stroke="#263238" stroke-miterlimit="10"/>
<path d="M104.783 33.9149H103.786V49.4928H104.783V33.9149Z" fill="white" stroke="#263238" stroke-miterlimit="10"/>
<path d="M120.726 68.1437H119.729V83.7216H120.726V68.1437Z" fill="white" stroke="#263238" stroke-miterlimit="10"/>
<path d="M104.783 68.1437H103.786V83.7216H104.783V68.1437Z" fill="white" stroke="#263238" stroke-miterlimit="10"/>
<path d="M112.677 51.0624H111.681V66.6403H112.677V51.0624Z" fill="white" stroke="#263238" stroke-miterlimit="10"/>
<path d="M135.84 83.7244H88.9424V85.2076H135.84V83.7244Z" fill="white" stroke="#263238" stroke-miterlimit="10"/>
<path d="M135.84 100.814H88.9424V134.994H135.84V100.814Z" fill="white" stroke="#263238" stroke-miterlimit="10"/>
<path d="M112.677 85.2336H111.681V100.812H112.677V85.2336Z" fill="white" stroke="#263238" stroke-miterlimit="10"/>
<path d="M136.99 32.5786V136.022L143.735 136.045V32.5786H136.99Z" fill="#263238" stroke="#263238" stroke-linecap="round" stroke-linejoin="round"/>
<path d="M123.825 35.1245H121.417V49.4582H123.825V35.1245Z" fill="white" stroke="#263238" stroke-miterlimit="10"/>
<path d="M123.825 46.3795H121.417V47.5546H123.825V46.3795Z" fill="white" stroke="#263238" stroke-miterlimit="10"/>
<path d="M123.825 36.5789H121.417V37.7539H123.825V36.5789Z" fill="white" stroke="#263238" stroke-miterlimit="10"/>
<path d="M126.288 35.1245H123.88V49.4582H126.288V35.1245Z" fill="white" stroke="#263238" stroke-miterlimit="10"/>
<path d="M126.288 46.3795H123.88V47.5546H126.288V46.3795Z" fill="white" stroke="#263238" stroke-miterlimit="10"/>
<path d="M126.288 36.5789H123.88V37.7539H126.288V36.5789Z" fill="white" stroke="#263238" stroke-miterlimit="10"/>
<path d="M128.753 35.1245H126.346V49.4582H128.753V35.1245Z" fill="white" stroke="#263238" stroke-miterlimit="10"/>
<path d="M128.753 46.3795H126.346V47.5546H128.753V46.3795Z" fill="white" stroke="#263238" stroke-miterlimit="10"/>
<path d="M128.753 36.5789H126.346V37.7539H128.753V36.5789Z" fill="white" stroke="#263238" stroke-miterlimit="10"/>
<path d="M131.215 35.1245H128.808V49.4582H131.215V35.1245Z" fill="white" stroke="#263238" stroke-miterlimit="10"/>
<path d="M135.227 35.1245H131.195V49.4582H135.227V35.1245Z" fill="white" stroke="#263238" stroke-miterlimit="10"/>
<path d="M131.215 46.3795H128.808V47.5546H131.215V46.3795Z" fill="white" stroke="#263238" stroke-miterlimit="10"/>
<path d="M131.215 36.5789H128.808V37.7539H131.215V36.5789Z" fill="white" stroke="#263238" stroke-miterlimit="10"/>
<path d="M107.717 35.1245H105.31V49.4582H107.717V35.1245Z" fill="white" stroke="#263238" stroke-miterlimit="10"/>
<path d="M107.717 46.3795H105.31V47.5546H107.717V46.3795Z" fill="white" stroke="#263238" stroke-miterlimit="10"/>
<path d="M107.717 36.5789H105.31V37.7539H107.717V36.5789Z" fill="white" stroke="#263238" stroke-miterlimit="10"/>
<path d="M110.18 35.1245H107.772V49.4582H110.18V35.1245Z" fill="white" stroke="#263238" stroke-miterlimit="10"/>
<path d="M110.18 46.3795H107.772V47.5546H110.18V46.3795Z" fill="white" stroke="#263238" stroke-miterlimit="10"/>
<path d="M110.18 36.5789H107.772V37.7539H110.18V36.5789Z" fill="white" stroke="#263238" stroke-miterlimit="10"/>
<path d="M112.645 35.1245H110.237V49.4582H112.645V35.1245Z" fill="white" stroke="#263238" stroke-miterlimit="10"/>
<path d="M112.645 46.3795H110.237V47.5546H112.645V46.3795Z" fill="white" stroke="#263238" stroke-miterlimit="10"/>
<path d="M112.645 36.5789H110.237V37.7539H112.645V36.5789Z" fill="white" stroke="#263238" stroke-miterlimit="10"/>
<path d="M115.108 35.1245H112.7V49.4582H115.108V35.1245Z" fill="white" stroke="#263238" stroke-miterlimit="10"/>
<path d="M119.12 35.1245H115.088V49.4582H119.12V35.1245Z" fill="white" stroke="#263238" stroke-miterlimit="10"/>
<path d="M115.108 46.3795H112.7V47.5546H115.108V46.3795Z" fill="white" stroke="#263238" stroke-miterlimit="10"/>
<path d="M115.108 36.5789H112.7V37.7539H115.108V36.5789Z" fill="white" stroke="#263238" stroke-miterlimit="10"/>
<path d="M107.717 69.4051H105.31V83.7389H107.717V69.4051Z" fill="white" stroke="#263238" stroke-miterlimit="10"/>
<path d="M107.717 80.6602H105.31V81.8352H107.717V80.6602Z" fill="white" stroke="#263238" stroke-miterlimit="10"/>
<path d="M107.717 70.8624H105.31V72.0375H107.717V70.8624Z" fill="white" stroke="#263238" stroke-miterlimit="10"/>
<path d="M110.18 69.4051H107.772V83.7389H110.18V69.4051Z" fill="white" stroke="#263238" stroke-miterlimit="10"/>
<path d="M110.18 80.6602H107.772V81.8352H110.18V80.6602Z" fill="white" stroke="#263238" stroke-miterlimit="10"/>
<path d="M110.18 70.8624H107.772V72.0375H110.18V70.8624Z" fill="white" stroke="#263238" stroke-miterlimit="10"/>
<path d="M112.645 69.4051H110.237V83.7389H112.645V69.4051Z" fill="white" stroke="#263238" stroke-miterlimit="10"/>
<path d="M112.645 80.6602H110.237V81.8352H112.645V80.6602Z" fill="white" stroke="#263238" stroke-miterlimit="10"/>
<path d="M112.645 70.8624H110.237V72.0375H112.645V70.8624Z" fill="white" stroke="#263238" stroke-miterlimit="10"/>
<path d="M115.108 69.4051H112.7V83.7389H115.108V69.4051Z" fill="white" stroke="#263238" stroke-miterlimit="10"/>
<path d="M119.12 69.4052H115.088V83.7389H119.12V69.4052Z" fill="white" stroke="#263238" stroke-miterlimit="10"/>
<path d="M115.108 80.6602H112.7V81.8352H115.108V80.6602Z" fill="white" stroke="#263238" stroke-miterlimit="10"/>
<path d="M115.108 70.8624H112.7V72.0375H115.108V70.8624Z" fill="white" stroke="#263238" stroke-miterlimit="10"/>
<path d="M123.619 69.4051H121.211V83.7389H123.619V69.4051Z" fill="white" stroke="#263238" stroke-miterlimit="10"/>
<path d="M123.619 80.6602H121.211V81.8352H123.619V80.6602Z" fill="white" stroke="#263238" stroke-miterlimit="10"/>
<path d="M123.619 70.8624H121.211V72.0375H123.619V70.8624Z" fill="white" stroke="#263238" stroke-miterlimit="10"/>
<path d="M126.083 69.4051H123.676V83.7389H126.083V69.4051Z" fill="white" stroke="#263238" stroke-miterlimit="10"/>
<path d="M126.083 80.6602H123.676V81.8352H126.083V80.6602Z" fill="white" stroke="#263238" stroke-miterlimit="10"/>
<path d="M126.083 70.8624H123.676V72.0375H126.083V70.8624Z" fill="white" stroke="#263238" stroke-miterlimit="10"/>
<path d="M128.545 69.4051H126.138V83.7389H128.545V69.4051Z" fill="white" stroke="#263238" stroke-miterlimit="10"/>
<path d="M128.545 80.6602H126.138V81.8352H128.545V80.6602Z" fill="white" stroke="#263238" stroke-miterlimit="10"/>
<path d="M128.545 70.8624H126.138V72.0375H128.545V70.8624Z" fill="white" stroke="#263238" stroke-miterlimit="10"/>
<path d="M131.011 69.4051H128.604V83.7389H131.011V69.4051Z" fill="white" stroke="#263238" stroke-miterlimit="10"/>
<path d="M135.019 69.4051H130.987V83.7389H135.019V69.4051Z" fill="white" stroke="#263238" stroke-miterlimit="10"/>
<path d="M131.011 80.6602H128.604V81.8352H131.011V80.6602Z" fill="white" stroke="#263238" stroke-miterlimit="10"/>
<path d="M131.011 70.8624H128.604V72.0375H131.011V70.8624Z" fill="white" stroke="#263238" stroke-miterlimit="10"/>
<path d="M91.9175 69.4052H89.5098V83.7389H91.9175V69.4052Z" fill="white" stroke="#263238" stroke-miterlimit="10"/>
<path d="M91.9175 80.6602H89.5098V81.8352H91.9175V80.6602Z" fill="white" stroke="#263238" stroke-miterlimit="10"/>
<path d="M91.9175 70.8624H89.5098V72.0374H91.9175V70.8624Z" fill="white" stroke="#263238" stroke-miterlimit="10"/>
<path d="M94.3833 69.4052H91.9756V83.7389H94.3833V69.4052Z" fill="white" stroke="#263238" stroke-miterlimit="10"/>
<path d="M94.3833 80.6602H91.9756V81.8352H94.3833V80.6602Z" fill="white" stroke="#263238" stroke-miterlimit="10"/>
<path d="M94.3833 70.8624H91.9756V72.0374H94.3833V70.8624Z" fill="white" stroke="#263238" stroke-miterlimit="10"/>
<path d="M96.8461 69.4051H94.4385V83.7389H96.8461V69.4051Z" fill="white" stroke="#263238" stroke-miterlimit="10"/>
<path d="M96.8461 80.6602H94.4385V81.8352H96.8461V80.6602Z" fill="white" stroke="#263238" stroke-miterlimit="10"/>
<path d="M96.8461 70.8624H94.4385V72.0375H96.8461V70.8624Z" fill="white" stroke="#263238" stroke-miterlimit="10"/>
<path d="M99.311 69.4051H96.9033V83.7389H99.311V69.4051Z" fill="white" stroke="#263238" stroke-miterlimit="10"/>
<path d="M103.32 69.4051H99.2881V83.7389H103.32V69.4051Z" fill="white" stroke="#263238" stroke-miterlimit="10"/>
<path d="M99.311 80.6602H96.9033V81.8352H99.311V80.6602Z" fill="white" stroke="#263238" stroke-miterlimit="10"/>
<path d="M99.311 70.8624H96.9033V72.0375H99.311V70.8624Z" fill="white" stroke="#263238" stroke-miterlimit="10"/>
<path d="M91.6098 35.1245H89.2021V49.4582H91.6098V35.1245Z" fill="white" stroke="#263238" stroke-miterlimit="10"/>
<path d="M91.6098 46.3795H89.2021V47.5546H91.6098V46.3795Z" fill="white" stroke="#263238" stroke-miterlimit="10"/>
<path d="M91.6098 36.5789H89.2021V37.7539H91.6098V36.5789Z" fill="white" stroke="#263238" stroke-miterlimit="10"/>
<path d="M94.0727 35.1245H91.665V49.4582H94.0727V35.1245Z" fill="white" stroke="#263238" stroke-miterlimit="10"/>
<path d="M94.0727 46.3795H91.665V47.5546H94.0727V46.3795Z" fill="white" stroke="#263238" stroke-miterlimit="10"/>
<path d="M94.0727 36.5789H91.665V37.7539H94.0727V36.5789Z" fill="white" stroke="#263238" stroke-miterlimit="10"/>
<path d="M96.5376 35.1245H94.1299V49.4582H96.5376V35.1245Z" fill="white" stroke="#263238" stroke-miterlimit="10"/>
<path d="M96.5376 46.3795H94.1299V47.5546H96.5376V46.3795Z" fill="white" stroke="#263238" stroke-miterlimit="10"/>
<path d="M96.5376 36.5789H94.1299V37.7539H96.5376V36.5789Z" fill="white" stroke="#263238" stroke-miterlimit="10"/>
<path d="M98.9995 35.1245H96.5918V49.4582H98.9995V35.1245Z" fill="white" stroke="#263238" stroke-miterlimit="10"/>
<path d="M103.011 35.1245H98.9795V49.4582H103.011V35.1245Z" fill="white" stroke="#263238" stroke-miterlimit="10"/>
<path d="M98.9995 46.3795H96.5918V47.5546H98.9995V46.3795Z" fill="white" stroke="#263238" stroke-miterlimit="10"/>
<path d="M98.9995 36.5789H96.5918V37.7539H98.9995V36.5789Z" fill="white" stroke="#263238" stroke-miterlimit="10"/>
<path d="M98.7348 52.2057H96.3271V66.5395H98.7348V52.2057Z" fill="white" stroke="#263238" stroke-miterlimit="10"/>
<path d="M98.7348 63.4608H96.3271V64.6358H98.7348V63.4608Z" fill="white" stroke="#263238" stroke-miterlimit="10"/>
<path d="M98.7348 53.663H96.3271V54.8381H98.7348V53.663Z" fill="white" stroke="#263238" stroke-miterlimit="10"/>
<path d="M96.3588 52.2057H93.9512V66.5395H96.3588V52.2057Z" fill="white" stroke="#263238" stroke-miterlimit="10"/>
<path d="M96.3588 63.4608H93.9512V64.6359H96.3588V63.4608Z" fill="white" stroke="#263238" stroke-miterlimit="10"/>
<path d="M96.3588 53.663H93.9512V54.8381H96.3588V53.663Z" fill="white" stroke="#263238" stroke-miterlimit="10"/>
<path d="M93.9829 52.2057H91.5752V66.5395H93.9829V52.2057Z" fill="white" stroke="#263238" stroke-miterlimit="10"/>
<path d="M93.9829 63.4608H91.5752V64.6358H93.9829V63.4608Z" fill="white" stroke="#263238" stroke-miterlimit="10"/>
<path d="M93.9829 53.663H91.5752V54.8381H93.9829V53.663Z" fill="white" stroke="#263238" stroke-miterlimit="10"/>
<path d="M91.6098 52.2057H89.2021V66.5395H91.6098V52.2057Z" fill="white" stroke="#263238" stroke-miterlimit="10"/>
<path d="M91.6098 63.4608H89.2021V64.6359H91.6098V63.4608Z" fill="white" stroke="#263238" stroke-miterlimit="10"/>
<path d="M91.6098 53.663H89.2021V54.8381H91.6098V53.663Z" fill="white" stroke="#263238" stroke-miterlimit="10"/>
<path d="M101.198 52.2057H98.79V66.5395H101.198V52.2057Z" fill="white" stroke="#263238" stroke-miterlimit="10"/>
<path d="M101.198 63.4608H98.79V64.6358H101.198V63.4608Z" fill="white" stroke="#263238" stroke-miterlimit="10"/>
<path d="M101.198 53.663H98.79V54.8381H101.198V53.663Z" fill="white" stroke="#263238" stroke-miterlimit="10"/>
<path d="M103.66 52.2057H101.252V66.5395H103.66V52.2057Z" fill="white" stroke="#263238" stroke-miterlimit="10"/>
<path d="M103.66 63.4608H101.252V64.6358H103.66V63.4608Z" fill="white" stroke="#263238" stroke-miterlimit="10"/>
<path d="M103.66 53.663H101.252V54.8381H103.66V53.663Z" fill="white" stroke="#263238" stroke-miterlimit="10"/>
<path d="M106.124 52.2057H103.717V66.5395H106.124V52.2057Z" fill="white" stroke="#263238" stroke-miterlimit="10"/>
<path d="M110.136 52.2057H106.104V66.5395H110.136V52.2057Z" fill="white" stroke="#263238" stroke-miterlimit="10"/>
<path d="M106.124 63.4608H103.717V64.6358H106.124V63.4608Z" fill="white" stroke="#263238" stroke-miterlimit="10"/>
<path d="M106.124 53.663H103.717V54.8381H106.124V53.663Z" fill="white" stroke="#263238" stroke-miterlimit="10"/>
<path d="M115.854 52.2057H113.446V66.5395H115.854V52.2057Z" fill="white" stroke="#263238" stroke-miterlimit="10"/>
<path d="M115.854 63.4608H113.446V64.6358H115.854V63.4608Z" fill="white" stroke="#263238" stroke-miterlimit="10"/>
<path d="M115.854 53.663H113.446V54.8381H115.854V53.663Z" fill="white" stroke="#263238" stroke-miterlimit="10"/>
<path d="M118.319 52.2057H115.911V66.5395H118.319V52.2057Z" fill="white" stroke="#263238" stroke-miterlimit="10"/>
<path d="M118.319 63.4608H115.911V64.6358H118.319V63.4608Z" fill="white" stroke="#263238" stroke-miterlimit="10"/>
<path d="M118.319 53.663H115.911V54.8381H118.319V53.663Z" fill="white" stroke="#263238" stroke-miterlimit="10"/>
<path d="M123.248 52.2023L121.003 53.15L126.648 66.5195L128.892 65.5718L123.248 52.2023Z" fill="white" stroke="#263238" stroke-miterlimit="10"/>
<path d="M127.681 62.699L125.437 63.6467L125.899 64.7424L128.144 63.7947L127.681 62.699Z" fill="white" stroke="#263238" stroke-miterlimit="10"/>
<path d="M123.823 53.5609L121.578 54.5086L122.041 55.6044L124.285 54.6567L123.823 53.5609Z" fill="white" stroke="#263238" stroke-miterlimit="10"/>
<path d="M126.65 66.5136H131.676L133.937 65.5719L128.894 65.5661L126.65 66.5136Z" fill="white" stroke="#263238" stroke-miterlimit="10"/>
<path d="M123.25 52.1971H127.97L133.938 65.5718L128.895 65.566L123.25 52.1971Z" fill="white" stroke="#263238" stroke-miterlimit="10"/>
<path d="M120.695 52.2057H118.287V66.5395H120.695V52.2057Z" fill="white" stroke="#263238" stroke-miterlimit="10"/>
<path d="M120.695 63.4608H118.287V64.6359H120.695V63.4608Z" fill="white" stroke="#263238" stroke-miterlimit="10"/>
<path d="M120.695 53.663H118.287V54.8381H120.695V53.663Z" fill="white" stroke="#263238" stroke-miterlimit="10"/>
<path d="M120.695 52.2057H123.25L121.003 53.1446L126.651 66.5136H120.695V52.2057Z" fill="white" stroke="#263238" stroke-miterlimit="10"/>
<path d="M98.7348 86.426H96.3271V100.76H98.7348V86.426Z" fill="white" stroke="#263238" stroke-miterlimit="10"/>
<path d="M98.7348 97.681H96.3271V98.856H98.7348V97.681Z" fill="white" stroke="#263238" stroke-miterlimit="10"/>
<path d="M98.7348 87.8803H96.3271V89.0553H98.7348V87.8803Z" fill="white" stroke="#263238" stroke-miterlimit="10"/>
<path d="M96.3588 86.4259H93.9512V100.76H96.3588V86.4259Z" fill="white" stroke="#263238" stroke-miterlimit="10"/>
<path d="M96.3588 97.681H93.9512V98.856H96.3588V97.681Z" fill="white" stroke="#263238" stroke-miterlimit="10"/>
<path d="M96.3588 87.8803H93.9512V89.0554H96.3588V87.8803Z" fill="white" stroke="#263238" stroke-miterlimit="10"/>
<path d="M93.9829 86.426H91.5752V100.76H93.9829V86.426Z" fill="white" stroke="#263238" stroke-miterlimit="10"/>
<path d="M93.9829 97.681H91.5752V98.856H93.9829V97.681Z" fill="white" stroke="#263238" stroke-miterlimit="10"/>
<path d="M93.9829 87.8803H91.5752V89.0553H93.9829V87.8803Z" fill="white" stroke="#263238" stroke-miterlimit="10"/>
<path d="M91.6098 86.4259H89.2021V100.76H91.6098V86.4259Z" fill="white" stroke="#263238" stroke-miterlimit="10"/>
<path d="M91.6098 97.681H89.2021V98.856H91.6098V97.681Z" fill="white" stroke="#263238" stroke-miterlimit="10"/>
<path d="M91.6098 87.8803H89.2021V89.0554H91.6098V87.8803Z" fill="white" stroke="#263238" stroke-miterlimit="10"/>
<path d="M101.198 86.426H98.79V100.76H101.198V86.426Z" fill="white" stroke="#263238" stroke-miterlimit="10"/>
<path d="M101.198 97.681H98.79V98.856H101.198V97.681Z" fill="white" stroke="#263238" stroke-miterlimit="10"/>
<path d="M101.198 87.8803H98.79V89.0553H101.198V87.8803Z" fill="white" stroke="#263238" stroke-miterlimit="10"/>
<path d="M103.66 86.426H101.252V100.76H103.66V86.426Z" fill="white" stroke="#263238" stroke-miterlimit="10"/>
<path d="M103.66 97.681H101.252V98.856H103.66V97.681Z" fill="white" stroke="#263238" stroke-miterlimit="10"/>
<path d="M103.66 87.8803H101.252V89.0553H103.66V87.8803Z" fill="white" stroke="#263238" stroke-miterlimit="10"/>
<path d="M106.124 86.426H103.717V100.76H106.124V86.426Z" fill="white" stroke="#263238" stroke-miterlimit="10"/>
<path d="M110.136 86.4259H106.104V100.76H110.136V86.4259Z" fill="white" stroke="#263238" stroke-miterlimit="10"/>
<path d="M106.124 97.681H103.717V98.856H106.124V97.681Z" fill="white" stroke="#263238" stroke-miterlimit="10"/>
<path d="M106.124 87.8803H103.717V89.0553H106.124V87.8803Z" fill="white" stroke="#263238" stroke-miterlimit="10"/>
<path d="M115.854 86.426H113.446V100.76H115.854V86.426Z" fill="white" stroke="#263238" stroke-miterlimit="10"/>
<path d="M115.854 97.681H113.446V98.856H115.854V97.681Z" fill="white" stroke="#263238" stroke-miterlimit="10"/>
<path d="M115.854 87.8803H113.446V89.0553H115.854V87.8803Z" fill="white" stroke="#263238" stroke-miterlimit="10"/>
<path d="M118.319 86.426H115.911V100.76H118.319V86.426Z" fill="white" stroke="#263238" stroke-miterlimit="10"/>
<path d="M118.319 97.681H115.911V98.856H118.319V97.681Z" fill="white" stroke="#263238" stroke-miterlimit="10"/>
<path d="M118.319 87.8803H115.911V89.0553H118.319V87.8803Z" fill="white" stroke="#263238" stroke-miterlimit="10"/>
<path d="M123.247 86.4206L121.002 87.3683L126.647 100.738L128.891 99.7902L123.247 86.4206Z" fill="white" stroke="#263238" stroke-miterlimit="10"/>
<path d="M127.622 96.6627L125.381 97.6129L125.845 98.7072L128.086 97.757L127.622 96.6627Z" fill="white" stroke="#263238" stroke-width="0.99925" stroke-miterlimit="10"/>
<path d="M123.821 87.7794L121.576 88.7271L122.039 89.8229L124.283 88.8752L123.821 87.7794Z" fill="white" stroke="#263238" stroke-miterlimit="10"/>
<path d="M126.65 100.734H131.676L133.937 99.792L128.894 99.7833L126.65 100.734Z" fill="white" stroke="#263238" stroke-miterlimit="10"/>
<path d="M123.25 86.4144H127.97L133.938 99.792L128.895 99.7833L123.25 86.4144Z" fill="white" stroke="#263238" stroke-miterlimit="10"/>
<path d="M120.695 86.4259H118.287V100.76H120.695V86.4259Z" fill="white" stroke="#263238" stroke-miterlimit="10"/>
<path d="M120.695 97.681H118.287V98.856H120.695V97.681Z" fill="white" stroke="#263238" stroke-miterlimit="10"/>
<path d="M120.695 87.8803H118.287V89.0554H120.695V87.8803Z" fill="white" stroke="#263238" stroke-miterlimit="10"/>
<path d="M120.695 86.4259H123.25L121.003 87.3619L126.651 100.734H120.695V86.4259Z" fill="white" stroke="#263238" stroke-miterlimit="10"/>
<path d="M111.681 100.812V134.421" stroke="#263238" stroke-miterlimit="10"/>
<path d="M89.3223 104.973H135.828" stroke="#263238" stroke-miterlimit="10"/>
<path d="M98.8672 107.816V113.91" stroke="#263238" stroke-width="2" stroke-miterlimit="10"/>
<path d="M100.897 107.816V113.91" stroke="#263238" stroke-width="2" stroke-miterlimit="10"/>
<path d="M122.224 107.816V113.91" stroke="#263238" stroke-width="2" stroke-miterlimit="10"/>
<path d="M124.254 107.816V113.91" stroke="#263238" stroke-width="2" stroke-miterlimit="10"/>
<path d="M148.793 33.1229V22.7894H163.821" stroke="#263238" stroke-miterlimit="10"/>
<path d="M164.927 22.7894H171.257V48.4214H148.793V34.6896" stroke="#263238" stroke-miterlimit="10"/>
<path d="M163.084 44.9654H151.82V26.2454H168.228V44.9654H164.374" stroke="#263238" stroke-miterlimit="10"/>
<path d="M163.178 32.0054H156.868V39.2054H163.178V32.0054Z" stroke="#263238" stroke-miterlimit="10"/>
<path d="M173.253 45.0691V38.6237H182.627" stroke="#263238" stroke-miterlimit="10"/>
<path d="M183.316 38.6237H187.264V54.6105H173.253V46.0454" stroke="#263238" stroke-miterlimit="10"/>
<path d="M182.166 52.4564H175.142V40.778H185.374V52.4564H182.969" stroke="#263238" stroke-miterlimit="10"/>
<path d="M182.227 44.3722H178.29V48.8621H182.227V44.3722Z" stroke="#263238" stroke-miterlimit="10"/>
<path d="M24.7109 136.045H187.143" stroke="#263238" stroke-linecap="round" stroke-linejoin="round"/>
<path d="M36.2309 95.7254C36.2309 95.7254 34.5029 72.6854 35.3669 70.0934C36.2309 67.5014 41.5589 67.6454 42.5669 67.6454C43.5749 67.6454 64.5989 67.6454 67.6229 69.0854C70.6469 70.5254 71.0789 105.949 71.0789 105.949H37.6709L36.2309 95.7254Z" fill="#263238" stroke="#263238" stroke-miterlimit="10"/>
<path d="M72.2281 93.8534C72.2281 93.8534 68.7721 93.8534 68.0809 97.3094C67.3897 100.765 70.1113 115.021 70.3129 119.053C70.5145 123.085 71.223 128.701 71.223 128.701H83.463L86.199 93.8534H72.2281Z" fill="#263238" stroke="#263238" stroke-miterlimit="10"/>
<path d="M86.1983 93.8534C86.1983 93.8534 82.7423 93.8534 81.8783 97.3094C81.0143 100.765 83.0303 115.021 83.0303 119.053C83.0303 123.085 83.4623 128.701 83.4623 128.701H87.7823C87.7823 128.701 88.2143 118.333 88.2143 116.893C88.2143 115.453 89.9423 100.477 89.0783 97.4534C88.2143 94.4294 87.4943 94.1414 86.1983 93.8534Z" fill="#636363" stroke="#263238" stroke-miterlimit="10"/>
<path d="M49.6951 69.1574C49.6951 69.1574 38.2471 73.8374 38.2471 74.3414C38.2471 74.8454 42.1351 88.3814 43.5751 90.4694C45.0151 92.5574 46.0231 94.8614 46.4551 95.7254C46.8871 96.5894 48.7591 98.7494 50.2711 98.7494C51.7831 98.7494 53.5831 96.9494 58.4071 96.2294C63.2311 95.5094 67.5511 95.5814 68.4151 94.9334C69.2791 94.2854 68.1991 92.5574 68.0551 92.1974C67.9111 91.8374 67.3351 90.5414 67.3351 90.5414C67.3351 90.5414 72.0151 94.4294 73.8871 94.5734C75.7591 94.7174 77.1271 93.7814 77.4151 92.5574C77.7031 91.3334 76.6231 88.3814 75.9031 86.7974C75.1831 85.2134 71.7991 82.6934 70.2871 80.7494C68.7751 78.8054 66.8311 76.5014 65.4631 74.9174C64.271 73.523 62.7992 72.3946 61.1431 71.6054C59.8471 71.0294 56.5351 69.5894 54.4471 69.3734C52.3591 69.1574 49.6951 69.1574 49.6951 69.1574Z" fill="white" stroke="#263238" stroke-miterlimit="10"/>
<path d="M72.1334 86.0284C72.1334 86.0284 70.5033 90.5414 71.0793 91.6934C71.6553 92.8454 73.1903 93.2284 73.1903 93.2284" stroke="#263238" stroke-miterlimit="10"/>
<path d="M47.9668 70.6694L57.4708 79.8854L58.9108 72.9734" stroke="#263238" stroke-miterlimit="10"/>
<path d="M72.591 86.5814C72.591 86.5814 74.895 88.2374 75.6869 87.6614C76.4789 87.0854 76.2629 86.0054 75.7589 84.8534C75.255 83.7014 73.599 83.0534 72.951 83.5574C72.303 84.0614 72.087 86.0774 72.591 86.5814Z" fill="white" stroke="#263238" stroke-miterlimit="10"/>
<path d="M48.9746 66.1334L49.3346 70.4534L56.9666 77.9414L58.1186 72.6134L58.6226 70.3814C58.6226 70.3814 53.6546 69.5174 52.0706 68.4374C50.4866 67.3574 48.9746 66.1334 48.9746 66.1334Z" fill="white" stroke="#263238" stroke-miterlimit="10"/>
<path d="M58.6226 70.3814C58.6226 70.3814 53.6546 69.5174 52.0706 68.4374C50.4866 67.3574 48.9746 66.1334 48.9746 66.1334L49.3346 70.4534L51.2642 72.3456C52.7647 72.7689 54.2594 72.9734 55.276 72.5817C56.4041 72.1716 57.4823 71.6354 58.4901 70.9833L58.6226 70.3814Z" fill="#263238" stroke="#263238" stroke-miterlimit="10"/>
<path d="M46.6936 62.7984C46.6936 62.7984 45.3486 56.6524 45.3486 55.5984C45.3486 54.5443 48.9976 49.1645 53.9886 50.0285C58.9797 50.8925 61.7646 53.7725 61.9576 54.6365C62.1506 55.5005 61.3816 57.2284 61.3816 57.2284C61.5335 57.729 61.6301 58.2447 61.6696 58.7664C61.6696 59.3424 60.8056 61.8364 60.8056 61.8364L60.5176 59.2444C60.5176 59.2444 58.1186 59.9184 56.7736 59.9184C55.4286 59.9184 53.1246 59.0544 53.1246 59.0544C53.1246 59.0544 53.6056 60.5894 53.1246 61.3584C52.6437 62.1273 51.2066 62.7984 51.2066 62.7984C51.2066 62.7984 51.0136 64.3334 50.4376 64.3334C49.727 64.2974 49.0208 64.201 48.3266 64.0454C47.9406 63.9504 46.6936 62.7984 46.6936 62.7984Z" fill="#263238" stroke="#263238" stroke-miterlimit="10"/>
<path d="M48.9029 63.4694C48.9029 63.4694 48.7099 61.1654 46.7889 61.7414C44.868 62.3174 46.1179 64.4285 47.1749 65.4854C48.2318 66.5424 48.5169 65.7734 48.5169 65.7734C48.5169 65.7734 48.8049 67.9824 50.2449 69.2294C51.6849 70.4765 53.8939 72.7805 56.1979 72.4925C58.5019 72.2045 60.1349 69.3245 60.4229 67.2134C60.7109 65.1024 60.9009 60.1085 60.9009 59.5325C60.8316 58.8828 60.7033 58.2409 60.5179 57.6144C60.5179 57.6144 58.5019 59.0544 56.6789 58.6685C54.8558 58.2826 52.9349 57.5165 52.0709 57.5165C51.2069 57.5165 51.3969 58.7664 51.6849 59.1494C51.9729 59.5325 52.7419 60.3014 51.8779 60.7824C51.0139 61.2634 49.8619 61.7414 49.8619 61.7414V63.7574L48.9029 63.4694Z" fill="white" stroke="#263238" stroke-miterlimit="10"/>
<path d="M58.0868 62.4211L57.6145 67.6252L55.25 66.9398" stroke="#263238" stroke-miterlimit="10"/>
<path d="M56.0905 67.3603C56.0905 67.3603 54.9385 67.3603 54.3049 67.415C53.9243 67.478 53.5376 67.4954 53.1529 67.4668C52.8908 67.415 52.5769 67.2048 53.1011 67.7289C53.6252 68.2531 55.2035 68.8809 56.0444 68.9904C56.8854 69.0998 57.4643 68.832 58.0921 68.4144C58.72 67.9968 59.2441 67.5734 58.9331 67.4697C58.4997 67.3926 58.0599 67.3569 57.6198 67.3632V67.6281L56.0905 67.3603Z" fill="#263238" stroke="#263238" stroke-miterlimit="10"/>
<path d="M54.4355 64.2067C54.6248 64.2067 54.7782 63.8895 54.7782 63.4982C54.7782 63.1069 54.6248 62.7897 54.4355 62.7897C54.2462 62.7897 54.0928 63.1069 54.0928 63.4982C54.0928 63.8895 54.2462 64.2067 54.4355 64.2067Z" fill="#263238"/>
<path d="M59.5585 63.3946C59.5585 63.7863 59.4059 64.1031 59.2187 64.1031C59.0315 64.1031 58.876 63.7863 58.876 63.3946C58.876 63.0029 59.0286 62.6832 59.2187 62.6832C59.4088 62.6832 59.5585 63.0029 59.5585 63.3946Z" fill="#263238"/>
<path d="M53.1475 62.4211C53.1475 62.4211 54.5673 61.4217 55.7222 61.8451" stroke="#263238" stroke-miterlimit="10"/>
<path d="M58.3516 61.8969C58.3516 61.8969 59.8232 61.2115 60.454 61.8422" stroke="#263238" stroke-miterlimit="10"/>
<path d="M55.3573 64.8C55.3573 64.8 55.0405 65.1686 53.9893 65.4825" stroke="#263238" stroke-miterlimit="10"/>
<path d="M58.2461 64.5753C58.5571 64.7901 58.8926 64.967 59.2455 65.1024" stroke="#263238" stroke-miterlimit="10"/>
<path d="M62.7266 78.2294L63.2306 76.9334C63.2306 76.9334 63.8786 77.5814 65.6066 77.5814C67.3346 77.5814 70.1426 78.8054 70.1426 78.8054L70.3586 79.1654C70.3586 79.1654 70.8626 77.6534 71.7986 77.3654C72.7346 77.0774 74.2465 76.0694 74.4625 75.7814L74.6785 75.4934L75.6865 76.3574L71.2226 82.2614L62.8706 79.0214L62.7266 78.2294Z" fill="white" stroke="#263238" stroke-miterlimit="10"/>
<path d="M62.7987 77.7254L60.6387 89.1734L68.1267 90.9014L70.8627 79.8134L62.7987 77.7254Z" fill="white" stroke="#263238" stroke-miterlimit="10"/>
<path d="M70.8629 79.8134L75.6869 76.3574L72.8069 87.4454L68.127 90.9014L70.8629 79.8134Z" fill="white" stroke="#263238" stroke-miterlimit="10"/>
<path d="M53.5107 87.0854L56.7738 85.7404C56.7738 85.7404 59.6538 82.6703 59.9418 82.3823C60.2298 82.0943 63.1098 81.8063 63.1098 81.8063L66.2778 83.9174C66.2778 83.9174 66.8538 84.3983 66.2778 84.5884C65.7018 84.7785 64.4547 84.2054 64.4547 84.2054L63.2048 83.4364L62.4387 83.8223L64.0688 85.1644C64.0688 85.1644 64.5498 86.4143 64.5498 87.0854C64.5409 87.5165 64.4429 87.9411 64.2618 88.3324L63.3027 89.6774L60.4227 88.2374C60.4227 88.2374 58.6947 89.4844 58.3088 89.6774C57.9229 89.8703 54.2768 89.5823 54.2768 89.5823L53.5107 87.0854Z" fill="white" stroke="#263238" stroke-miterlimit="10"/>
<path d="M60.3965 83.7216L61.416 83.5286L62.2915 83.7705" stroke="#263238" stroke-miterlimit="10"/>
<path d="M59.4268 85.6166C59.4268 85.6166 61.7077 84.983 61.8546 84.983C62.0015 84.983 63.7007 86.7312 63.7007 86.7312L63.8936 88.6263" stroke="#263238" stroke-miterlimit="10"/>
<path d="M59.5244 86.8291L61.3676 86.8781L63.0668 87.9955C63.2392 88.539 63.319 89.1075 63.303 89.6774" stroke="#263238" stroke-miterlimit="10"/>
<path d="M40.2623 72.9734C40.2623 72.9734 38.1484 73.2614 37.8604 75.0844C37.5724 76.9075 35.6543 92.2694 36.2303 93.9974C36.8063 95.7254 47.4623 92.7503 47.8453 92.5574C48.2284 92.3644 54.2764 90.5414 54.3743 90.1583C54.4722 89.7753 54.6623 86.6044 53.7983 86.4143C52.9343 86.2243 44.6773 86.5094 44.6773 86.5094L43.5253 76.5244" fill="white"/>
<path d="M40.2623 72.9734C40.2623 72.9734 38.1484 73.2614 37.8604 75.0844C37.5724 76.9075 35.6543 92.2694 36.2303 93.9974C36.8063 95.7254 47.4623 92.7503 47.8453 92.5574C48.2284 92.3644 54.2764 90.5414 54.3743 90.1583C54.4722 89.7753 54.6623 86.6044 53.7983 86.4143C52.9343 86.2243 44.6773 86.5094 44.6773 86.5094L43.5253 76.5244" stroke="#263238" stroke-miterlimit="10"/>
<path d="M44.6778 86.5094L39.5889 87.3734" stroke="#263238" stroke-miterlimit="10"/>
<path d="M38.6299 86.2214L43.0449 86.7974" stroke="#263238" stroke-miterlimit="10"/>
<path d="M74.3906 81.1094C74.3906 81.1094 72.4466 83.1254 72.5186 83.6294C72.5906 84.1334 73.5986 83.3414 73.8146 83.1254C74.0306 82.9094 75.0386 82.3334 75.0386 81.7574C75.0386 81.1814 74.8226 80.5334 74.3906 81.1094Z" fill="white" stroke="#263238" stroke-miterlimit="10"/>
<path d="M74.6066 82.3334C74.6066 82.3334 75.1826 82.9094 75.1826 83.4134C75.1826 83.9174 73.9586 85.5734 73.3826 85.5734C72.8065 85.5734 73.2386 84.4214 73.5266 83.9174C73.8146 83.4134 74.6066 82.3334 74.6066 82.3334Z" fill="white" stroke="#263238" stroke-miterlimit="10"/>
<path d="M75.1824 83.4134C75.1824 83.4134 75.9024 83.6294 75.9024 84.2774C75.9024 84.9254 74.5344 86.0054 74.1744 86.0774C73.8144 86.1494 73.8864 85.5014 74.1744 84.9974C74.4624 84.4934 75.1824 83.4134 75.1824 83.4134Z" fill="white" stroke="#263238" stroke-miterlimit="10"/>
<path d="M75.9028 84.2775C76.0503 84.6424 76.0999 85.0395 76.0468 85.4295C75.9748 86.1495 74.8948 86.5815 74.5348 86.5815C74.1748 86.5815 74.1748 86.0775 74.1748 86.0775C74.7841 85.5104 75.3611 84.9094 75.9028 84.2775Z" fill="white" stroke="#263238" stroke-miterlimit="10"/>
<path d="M53.2576 136.045H51.8896L51.207 126.973H53.943L53.2576 136.045Z" fill="white" stroke="#263238" stroke-miterlimit="10"/>
<path d="M40.7293 136.045H39.3613L38.6787 126.973H41.4147L40.7293 136.045Z" fill="white" stroke="#263238" stroke-miterlimit="10"/>
<path d="M85.9461 136.045H84.5781L83.8955 126.973H86.6315L85.9461 136.045Z" fill="white" stroke="#263238" stroke-miterlimit="10"/>
<path d="M73.4168 136.045H72.0488L71.3662 126.973H74.1022L73.4168 136.045Z" fill="white" stroke="#263238" stroke-miterlimit="10"/>
<path d="M84.0386 109.616H51.3506V128.624H84.0386V109.616Z" fill="#263238" stroke="#263238" stroke-miterlimit="10"/>
<path d="M107.749 106.574C107.749 106.574 111.205 105.134 111.974 104.558C112.743 103.982 113.797 105.229 113.316 106.574C112.836 107.919 111.588 110.318 109.67 111.47C107.752 112.622 106.214 113.581 105.828 113.964C105.443 114.348 105.54 115.79 103.91 116.366C102.28 116.942 100.261 115.79 99.1094 113.964C97.9574 112.139 97.1885 110.894 97.1885 110.894C97.1885 110.894 97.2864 109.549 99.2045 108.878C101.123 108.207 104.388 107.916 104.388 107.916L107.749 106.574Z" fill="white" stroke="#263238" stroke-miterlimit="10"/>
<path d="M68.4146 94.9334C68.4146 94.9334 70.6926 94.3804 71.2686 94.6684C71.8446 94.9564 73.7656 96.7823 73.7656 96.7823C73.7656 96.7823 85.3806 96.9724 86.2446 97.3583C87.1086 97.7442 96.0366 104.558 97.9576 105.517C99.8786 106.476 101.509 107.34 101.509 107.34L100.069 113.676V114.252L100.167 115.214C100.167 115.214 95.1726 113.676 93.9256 113.388C92.6786 113.1 87.4946 110.413 87.0136 110.413C86.5326 110.413 82.5986 109.261 82.5986 109.261C82.5986 109.261 82.0226 108.878 75.7816 108.302C69.5406 107.726 62.5336 107.052 60.0366 106.957C57.5397 106.862 54.2766 106.669 53.0296 106.188C51.7826 105.707 49.5736 102.349 49.1906 100.333C48.8075 98.3174 52.8366 96.5894 54.5646 95.8204C56.2926 95.0514 62.7266 94.0924 63.8786 94.0924C65.0306 94.0924 68.4146 94.9334 68.4146 94.9334Z" fill="white" stroke="#263238" stroke-miterlimit="10"/>
<path d="M70.5977 97.7414L68.6768 100.526L71.2688 98.7983" fill="white"/>
<path d="M70.5977 97.7414L68.6768 100.526L71.2688 98.7983" stroke="#263238" stroke-miterlimit="10"/>
<path d="M100.068 106.093C100.068 106.093 102.853 103.884 103.429 103.213C104.005 102.542 105.926 98.8934 106.309 97.7414C106.693 96.5894 107.654 96.0134 108.325 96.8774C108.997 97.7414 109.477 99.4694 109.861 100.238C110.244 101.007 109.67 104.748 108.518 105.998C107.366 107.248 105.774 110.275 105.445 110.894C104.581 112.524 103.237 112.717 102.373 112.812C101.508 112.907 99.3975 110.606 99.3975 110.606L100.068 106.093Z" fill="white" stroke="#263238" stroke-miterlimit="10"/>
<path d="M57.3495 99.6623C57.3495 99.6623 60.2295 99.0863 62.8215 99.3743C65.4135 99.6623 70.6926 101.292 72.9015 101.868C75.1105 102.444 79.0446 102.732 80.8705 103.406C82.6964 104.08 87.4945 104.941 91.1406 104.941C94.7866 104.941 100.357 105.422 100.357 105.422C100.357 105.422 99.5905 110.989 99.7806 112.046C99.97 112.897 100.227 113.731 100.55 114.54C100.55 114.54 93.1566 115.116 91.0455 115.404C88.9345 115.692 80.3895 114.35 78.9495 113.964C77.5095 113.579 75.3985 113.005 74.0535 113.005C72.7086 113.005 70.1166 113.581 66.3726 113.964C62.6286 114.347 57.3495 112.717 56.6785 112.622C56.0075 112.527 53.6055 111.66 53.0295 111.277C52.4535 110.894 49.0926 104.941 50.2446 102.444C51.3966 99.9475 52.8366 99.5644 52.8366 99.5644" fill="white"/>
<path d="M57.3495 99.6623C57.3495 99.6623 60.2295 99.0863 62.8215 99.3743C65.4135 99.6623 70.6926 101.292 72.9015 101.868C75.1105 102.444 79.0446 102.732 80.8705 103.406C82.6964 104.08 87.4945 104.941 91.1406 104.941C94.7866 104.941 100.357 105.422 100.357 105.422C100.357 105.422 99.5905 110.989 99.7806 112.046C99.97 112.897 100.227 113.731 100.55 114.54C100.55 114.54 93.1566 115.116 91.0455 115.404C88.9345 115.692 80.3895 114.35 78.9495 113.964C77.5095 113.579 75.3985 113.005 74.0535 113.005C72.7086 113.005 70.1166 113.581 66.3726 113.964C62.6286 114.347 57.3495 112.717 56.6785 112.622C56.0075 112.527 53.6055 111.66 53.0295 111.277C52.4535 110.894 49.0926 104.941 50.2446 102.444C51.3966 99.9475 52.8366 99.5644 52.8366 99.5644" stroke="#263238" stroke-miterlimit="10"/>
<path d="M75.0098 109.348C76.8616 109.716 78.8229 110.84 81.4754 111.879C85.0149 113.265 92.0997 113.138 93.0126 113.265C93.9256 113.391 96.244 113.265 96.244 113.265" fill="white"/>
<path d="M75.0098 109.348C76.8616 109.716 78.8229 110.84 81.4754 111.879C85.0149 113.265 92.0997 113.138 93.0126 113.265C93.9256 113.391 96.244 113.265 96.244 113.265" stroke="#263238" stroke-miterlimit="10"/>
<path d="M60.7314 110.65L61.7884 110.802C64.8642 111.263 70.7164 109.572 73.1702 109.264" fill="white"/>
<path d="M60.7314 110.65L61.7884 110.802C64.8642 111.263 70.7164 109.572 73.1702 109.264" stroke="#263238" stroke-miterlimit="10"/>
<path d="M57.6348 110.341C57.6348 110.341 58.1877 110.341 59.6306 110.511L57.6348 110.341Z" fill="white"/>
<path d="M57.6348 110.341C57.6348 110.341 58.1877 110.341 59.6306 110.511" stroke="#263238" stroke-miterlimit="10"/>
<path d="M38.9639 93.8534C38.9639 93.8534 35.5079 93.8534 34.8167 97.3094C34.1255 100.765 36.8327 115.021 37.0487 119.053C37.2647 123.085 37.9588 128.701 37.9588 128.701H50.1988L52.9348 93.8534H38.9639Z" fill="#263238" stroke="#263238" stroke-miterlimit="10"/>
<path d="M52.9347 93.8534C52.9347 93.8534 49.4787 93.8534 48.6147 97.3094C47.7507 100.765 49.7667 115.021 49.7667 119.053C49.7667 123.085 50.1987 128.701 50.1987 128.701H54.5187C54.5187 128.701 54.9507 118.333 54.9507 116.893C54.9507 115.453 56.6787 100.477 55.8147 97.4534C54.9507 94.4294 54.2307 94.1414 52.9347 93.8534Z" fill="#636363" stroke="#263238" stroke-miterlimit="10"/>
<path d="M81.0496 136.045H79.6816L78.999 126.973H81.735L81.0496 136.045Z" fill="white" stroke="#263238" stroke-miterlimit="10"/>
<path d="M92.7127 136.045H91.3447L90.6621 126.973H93.3981L92.7127 136.045Z" fill="white" stroke="#263238" stroke-miterlimit="10"/>
<path d="M98.1854 136.045H96.8173L96.1348 126.973H98.8708L98.1854 136.045Z" fill="white" stroke="#263238" stroke-miterlimit="10"/>
<path d="M109.705 136.045H108.337L107.654 126.973H110.39L109.705 136.045Z" fill="white" stroke="#263238" stroke-miterlimit="10"/>
<path d="M79.3583 115.165H109.44C109.994 115.165 110.525 115.385 110.916 115.777C111.308 116.169 111.528 116.7 111.528 117.253V132.013H77.2559V117.253C77.2559 116.978 77.3103 116.705 77.4162 116.451C77.522 116.197 77.6771 115.966 77.8725 115.772C78.0679 115.578 78.2998 115.424 78.5548 115.32C78.8098 115.216 79.0828 115.163 79.3583 115.165Z" fill="#263238" stroke="#263238" stroke-miterlimit="10"/>
<path d="M109.455 115.165H98.5109C97.9571 115.165 97.426 115.385 97.0344 115.777C96.6428 116.169 96.4229 116.7 96.4229 117.253V132.013H111.543V117.253C111.542 116.7 111.322 116.169 110.93 115.778C110.539 115.386 110.008 115.166 109.455 115.165Z" fill="#636363" stroke="#263238" stroke-miterlimit="10"/>
</svg>
