<svg width="214" height="214" viewBox="0 0 214 214" fill="none" xmlns="http://www.w3.org/2000/svg">
<path d="M187.605 71.6258H149.376V158.347H187.605V71.6258Z" stroke="#263238" stroke-width="0.75" stroke-linecap="round" stroke-linejoin="round"/>
<path d="M184.249 74.9813H152.731V154.992H184.249V74.9813Z" stroke="#263238" stroke-width="0.75" stroke-linecap="round" stroke-linejoin="round"/>
<path d="M156.314 110.308L155.454 111.802" stroke="#263238" stroke-width="0.75" stroke-linecap="round" stroke-linejoin="round"/>
<path d="M165.362 94.6436L157.307 108.596" stroke="#263238" stroke-width="0.75" stroke-linecap="round" stroke-linejoin="round"/>
<path d="M172.754 81.8379L166.65 92.4095" stroke="#263238" stroke-width="0.75" stroke-linecap="round" stroke-linejoin="round"/>
<path d="M174.046 79.6037L173.396 80.7251" stroke="#263238" stroke-width="0.75" stroke-linecap="round" stroke-linejoin="round"/>
<path d="M158.877 148.336L158.146 149.603" stroke="#263238" stroke-width="0.75" stroke-linecap="round" stroke-linejoin="round"/>
<path d="M160.573 145.4L159.798 146.748" stroke="#263238" stroke-width="0.75" stroke-linecap="round" stroke-linejoin="round"/>
<path d="M170.909 127.497L162.233 142.528" stroke="#263238" stroke-width="0.75" stroke-linecap="round" stroke-linejoin="round"/>
<path d="M178.591 114.19L171.799 125.96" stroke="#263238" stroke-width="0.75" stroke-linecap="round" stroke-linejoin="round"/>
<path d="M180.274 111.28L179.602 112.444" stroke="#263238" stroke-width="0.75" stroke-linecap="round" stroke-linejoin="round"/>
<path d="M168.491 138.762L162.233 149.603" stroke="#263238" stroke-width="0.75" stroke-linecap="round" stroke-linejoin="round"/>
<path d="M176.494 124.899L169.402 137.183" stroke="#263238" stroke-width="0.75" stroke-linecap="round" stroke-linejoin="round"/>
<path d="M178.159 122.018L177.32 123.469" stroke="#263238" stroke-width="0.75" stroke-linecap="round" stroke-linejoin="round"/>
<path d="M155.454 121.531L154.504 123.178" stroke="#263238" stroke-width="0.75" stroke-linecap="round" stroke-linejoin="round"/>
<path d="M163.77 107.128L156.216 120.212" stroke="#263238" stroke-width="0.75" stroke-linecap="round" stroke-linejoin="round"/>
<path d="M174.149 89.1524L164.66 105.583" stroke="#263238" stroke-width="0.75" stroke-linecap="round" stroke-linejoin="round"/>
<path d="M180.385 78.3497L174.881 87.8855" stroke="#263238" stroke-width="0.75" stroke-linecap="round" stroke-linejoin="round"/>
<path d="M64.6235 71.6258H26.3945V158.347H64.6235V71.6258Z" stroke="#263238" stroke-width="0.75" stroke-linecap="round" stroke-linejoin="round"/>
<path d="M61.2679 74.9813H29.75V154.992H61.2679V74.9813Z" stroke="#263238" stroke-width="0.75" stroke-linecap="round" stroke-linejoin="round"/>
<path d="M33.3329 110.308L32.4727 111.802" stroke="#263238" stroke-width="0.75" stroke-linecap="round" stroke-linejoin="round"/>
<path d="M42.3762 94.6436L34.3213 108.596" stroke="#263238" stroke-width="0.75" stroke-linecap="round" stroke-linejoin="round"/>
<path d="M49.7722 81.8379L43.6689 92.4095" stroke="#263238" stroke-width="0.75" stroke-linecap="round" stroke-linejoin="round"/>
<path d="M51.0603 79.6037L50.4141 80.7251" stroke="#263238" stroke-width="0.75" stroke-linecap="round" stroke-linejoin="round"/>
<path d="M35.8959 148.336L35.1641 149.603" stroke="#263238" stroke-width="0.75" stroke-linecap="round" stroke-linejoin="round"/>
<path d="M37.5905 145.4L36.8115 146.748" stroke="#263238" stroke-width="0.75" stroke-linecap="round" stroke-linejoin="round"/>
<path d="M47.9269 127.497L39.2471 142.528" stroke="#263238" stroke-width="0.75" stroke-linecap="round" stroke-linejoin="round"/>
<path d="M55.6101 114.19L48.8135 125.96" stroke="#263238" stroke-width="0.75" stroke-linecap="round" stroke-linejoin="round"/>
<path d="M57.2915 111.28L56.6152 112.444" stroke="#263238" stroke-width="0.75" stroke-linecap="round" stroke-linejoin="round"/>
<path d="M45.5087 138.762L39.2471 149.603" stroke="#263238" stroke-width="0.75" stroke-linecap="round" stroke-linejoin="round"/>
<path d="M53.5129 124.899L46.4209 137.183" stroke="#263238" stroke-width="0.75" stroke-linecap="round" stroke-linejoin="round"/>
<path d="M55.1735 122.018L54.3389 123.469" stroke="#263238" stroke-width="0.75" stroke-linecap="round" stroke-linejoin="round"/>
<path d="M32.472 121.531L31.5176 123.178" stroke="#263238" stroke-width="0.75" stroke-linecap="round" stroke-linejoin="round"/>
<path d="M40.7837 107.128L33.2295 120.212" stroke="#263238" stroke-width="0.75" stroke-linecap="round" stroke-linejoin="round"/>
<path d="M51.1632 89.1524L41.6787 105.583" stroke="#263238" stroke-width="0.75" stroke-linecap="round" stroke-linejoin="round"/>
<path d="M57.3986 78.3497L51.8945 87.8855" stroke="#263238" stroke-width="0.75" stroke-linecap="round" stroke-linejoin="round"/>
<path d="M12.626 194.496H201.374" stroke="#263238" stroke-linecap="round" stroke-linejoin="round"/>
<path d="M78.1912 160.59H74.917V171.722H78.1912V160.59Z" fill="white"/>
<path opacity="0.2" d="M78.1912 160.59H74.917V171.722H78.1912V160.59Z" fill="black"/>
<path d="M81.4695 161.814H78.1953V171.722H81.4695V161.814Z" fill="white"/>
<path d="M85.5573 161.814H83.2461V171.722H85.5573V161.814Z" fill="white"/>
<path opacity="0.9" d="M85.5573 161.814H83.2461V171.722H85.5573V161.814Z" fill="white"/>
<path d="M83.2495 160.77H81.1523V171.726H83.2495V160.77Z" fill="white"/>
<path opacity="0.1" d="M83.2495 160.77H81.1523V171.726H83.2495V160.77Z" fill="black"/>
<path d="M88.8357 160.59H85.5615V171.722H88.8357V160.59Z" fill="white"/>
<path d="M92.1092 161.814H88.835V171.722H92.1092V161.814Z" fill="white"/>
<path opacity="0.2" d="M92.1092 161.814H88.835V171.722H92.1092V161.814Z" fill="#263238"/>
<path d="M96.2018 161.814H93.8906V171.722H96.2018V161.814Z" fill="white"/>
<path opacity="0.8" d="M96.2018 161.814H93.8906V171.722H96.2018V161.814Z" fill="white"/>
<path d="M93.8902 160.77H91.793V171.726H93.8902V160.77Z" fill="white"/>
<path opacity="0.1" d="M93.8902 160.77H91.793V171.726H93.8902V160.77Z" fill="black"/>
<path d="M111.823 171.726H115.098V160.594H111.823V171.726Z" fill="white"/>
<path opacity="0.2" d="M111.823 171.726H115.098V160.594H111.823V171.726Z" fill="black"/>
<path d="M108.545 171.726H111.819V161.818H108.545V171.726Z" fill="white"/>
<path d="M104.457 171.726H106.769V161.818H104.457V171.726Z" fill="white"/>
<path opacity="0.9" d="M104.457 171.726H106.769V161.818H104.457V171.726Z" fill="white"/>
<path d="M106.764 171.722H108.861V160.765H106.764V171.722Z" fill="white"/>
<path opacity="0.1" d="M106.764 171.722H108.861V160.765H106.764V171.722Z" fill="black"/>
<path d="M101.179 171.726H104.453V160.594H101.179V171.726Z" fill="white"/>
<path d="M97.9045 171.726H101.179V161.818H97.9045V171.726Z" fill="white"/>
<path opacity="0.2" d="M97.9045 171.726H101.179V161.818H97.9045V171.726Z" fill="#263238"/>
<path d="M96.1245 171.722H98.2217V160.765H96.1245V171.722Z" fill="white"/>
<path opacity="0.1" d="M96.1245 171.722H98.2217V160.765H96.1245V171.722Z" fill="black"/>
<path d="M130.698 171.726H133.973V160.594H130.698V171.726Z" fill="white"/>
<path opacity="0.2" d="M130.698 171.726H133.973V160.594H130.698V171.726Z" fill="black"/>
<path d="M127.42 171.726H130.694V161.818H127.42V171.726Z" fill="white"/>
<path d="M123.332 171.726H125.644V161.818H123.332V171.726Z" fill="white"/>
<path opacity="0.9" d="M123.332 171.726H125.644V161.818H123.332V171.726Z" fill="white"/>
<path d="M125.639 171.722H127.736V160.765H125.639V171.722Z" fill="white"/>
<path opacity="0.1" d="M125.639 171.722H127.736V160.765H125.639V171.722Z" fill="black"/>
<path d="M120.054 171.726H123.328V160.594H120.054V171.726Z" fill="white"/>
<path d="M136.103 171.333L138.254 170.757L135.36 159.958L133.209 160.535L136.103 171.333Z" fill="white"/>
<path d="M116.78 171.726H120.054V161.818H116.78V171.726Z" fill="white"/>
<path opacity="0.2" d="M116.78 171.726H120.054V161.818H116.78V171.726Z" fill="#263238"/>
<path d="M114.999 171.722H117.097V160.765H114.999V171.722Z" fill="white"/>
<path opacity="0.1" d="M114.999 171.722H117.097V160.765H114.999V171.722Z" fill="black"/>
<path d="M137.2 186.187L139.399 185.598L136.518 174.845L134.319 175.434L137.2 186.187Z" fill="white"/>
<path opacity="0.2" d="M137.2 186.187L139.399 185.598L136.518 174.845L134.319 175.434L137.2 186.187Z" fill="black"/>
<path d="M131.55 186.077H134.824V176.169H131.55V186.077Z" fill="white"/>
<path d="M127.453 186.077H129.765V176.169H127.453V186.077Z" fill="white"/>
<path opacity="0.9" d="M127.453 186.077H129.765V176.169H127.453V186.077Z" fill="white"/>
<path d="M129.765 186.082H131.862V175.125H129.765V186.082Z" fill="white"/>
<path opacity="0.1" d="M129.765 186.082H131.862V175.125H129.765V186.082Z" fill="black"/>
<path d="M124.184 186.082H127.458V174.949H124.184V186.082Z" fill="white"/>
<path d="M120.905 186.077H124.18V176.169H120.905V186.077Z" fill="white"/>
<path opacity="0.2" d="M120.905 186.077H124.18V176.169H120.905V186.077Z" fill="#263238"/>
<path d="M116.818 186.077H119.129V176.169H116.818V186.077Z" fill="white"/>
<path opacity="0.8" d="M116.818 186.077H119.129V176.169H116.818V186.077Z" fill="white"/>
<path d="M119.124 186.082H121.222V175.125H119.124V186.082Z" fill="white"/>
<path opacity="0.1" d="M119.124 186.082H121.222V175.125H119.124V186.082Z" fill="black"/>
<path d="M101.196 174.949H97.9219V186.081H101.196V174.949Z" fill="white"/>
<path opacity="0.2" d="M101.196 174.949H97.9219V186.081H101.196V174.949Z" fill="black"/>
<path d="M104.47 176.173H101.196V186.082H104.47V176.173Z" fill="white"/>
<path d="M108.562 176.173H106.251V186.082H108.562V176.173Z" fill="white"/>
<path opacity="0.9" d="M108.562 176.173H106.251V186.082H108.562V176.173Z" fill="white"/>
<path d="M106.251 175.125H104.153V186.082H106.251V175.125Z" fill="white"/>
<path opacity="0.1" d="M106.251 175.125H104.153V186.082H106.251V175.125Z" fill="black"/>
<path d="M111.836 174.949H108.562V186.081H111.836V174.949Z" fill="white"/>
<path d="M115.11 176.173H111.836V186.082H115.11V176.173Z" fill="white"/>
<path opacity="0.2" d="M115.11 176.173H111.836V186.082H115.11V176.173Z" fill="#263238"/>
<path d="M116.89 175.125H114.793V186.082H116.89V175.125Z" fill="white"/>
<path opacity="0.1" d="M116.89 175.125H114.793V186.082H116.89V175.125Z" fill="black"/>
<path d="M82.3211 174.949H79.0469V186.082H82.3211V174.949Z" fill="white"/>
<path opacity="0.2" d="M82.3211 174.949H79.0469V186.082H82.3211V174.949Z" fill="black"/>
<path d="M85.5955 176.173H82.3213V186.082H85.5955V176.173Z" fill="white"/>
<path d="M89.6872 176.173H87.376V186.082H89.6872V176.173Z" fill="white"/>
<path opacity="0.9" d="M89.6872 176.173H87.376V186.082H89.6872V176.173Z" fill="white"/>
<path d="M87.3765 175.125H85.2793V186.082H87.3765V175.125Z" fill="white"/>
<path opacity="0.1" d="M87.3765 175.125H85.2793V186.082H87.3765V175.125Z" fill="black"/>
<path d="M92.9617 174.949H89.6875V186.082H92.9617V174.949Z" fill="white"/>
<path d="M79.0409 175.425L76.8994 174.851L74.0182 185.604L76.1597 186.178L79.0409 175.425Z" fill="white"/>
<path d="M96.2361 176.173H92.9619V186.082H96.2361V176.173Z" fill="white"/>
<path opacity="0.2" d="M96.2361 176.173H92.9619V186.082H96.2361V176.173Z" fill="#263238"/>
<path d="M98.0162 175.125H95.9189V186.082H98.0162V175.125Z" fill="white"/>
<path opacity="0.1" d="M98.0162 175.125H95.9189V186.082H98.0162V175.125Z" fill="black"/>
<path d="M77.4335 194.496H74.1594L73.71 188.162H77.8829L77.4335 194.496Z" fill="#263238"/>
<path d="M139.84 194.496H136.566L136.116 188.162H140.289L139.84 194.496Z" fill="#263238"/>
<path d="M143.448 156.387H70.5512C70.1346 156.387 69.7351 156.552 69.4405 156.847C69.146 157.142 68.9805 157.541 68.9805 157.958V187.738C68.9805 188.154 69.146 188.554 69.4405 188.849C69.7351 189.143 70.1346 189.309 70.5512 189.309H143.448C143.865 189.309 144.264 189.143 144.559 188.849C144.853 188.554 145.019 188.154 145.019 187.738V157.958C145.019 157.541 144.853 157.142 144.559 156.847C144.264 156.552 143.865 156.387 143.448 156.387ZM141.873 159.533V171.726H72.1091V159.533H141.873ZM72.1263 186.18V173.973H141.89V186.18H72.1263Z" fill="white" stroke="#263238" stroke-width="0.75" stroke-linecap="round" stroke-linejoin="round"/>
<path d="M132.671 93.8348H82.231C80.6094 93.8348 79.2949 95.1493 79.2949 96.7709V107.599C79.2949 109.221 80.6094 110.535 82.231 110.535H132.671C134.292 110.535 135.607 109.221 135.607 107.599V96.7709C135.607 95.1493 134.292 93.8348 132.671 93.8348Z" fill="#263238" stroke="#263238" stroke-linecap="round" stroke-linejoin="round"/>
<path d="M131.772 92.936H81.3326C79.711 92.936 78.3965 94.2505 78.3965 95.8721V106.7C78.3965 108.322 79.711 109.637 81.3326 109.637H131.772C133.394 109.637 134.708 108.322 134.708 106.7V95.8721C134.708 94.2505 133.394 92.936 131.772 92.936Z" fill="white" stroke="#263238" stroke-linecap="round" stroke-linejoin="round"/>
<path d="M131.772 92.936H81.3326C79.711 92.936 78.3965 94.2505 78.3965 95.8721V106.7C78.3965 108.322 79.711 109.637 81.3326 109.637H131.772C133.394 109.637 134.708 108.322 134.708 106.7V95.8721C134.708 94.2505 133.394 92.936 131.772 92.936Z" stroke="#263238" stroke-linecap="round" stroke-linejoin="round"/>
<path d="M90.8645 106.217H83.4473V96.8351H88.3907L90.8645 99.3089V106.217Z" fill="white"/>
<path opacity="0.5" d="M90.8645 106.217H83.4473V96.8351H88.3907L90.8645 99.3089V106.217Z" fill="white"/>
<path d="M90.8645 106.217H83.4473V96.8351H88.3907L90.8645 99.3089V106.217Z" stroke="#263238" stroke-linecap="round" stroke-linejoin="round"/>
<path d="M88.3906 99.3089H90.8645L88.3906 96.835V99.3089Z" fill="white" stroke="#263238" stroke-linecap="round" stroke-linejoin="round"/>
<path d="M85.0949 101.813C84.9783 101.802 84.8701 101.747 84.7913 101.661C84.7126 101.574 84.6689 101.461 84.6689 101.344C84.6689 101.227 84.7126 101.114 84.7913 101.027C84.8701 100.941 84.9783 100.887 85.0949 100.875H89.2165C89.3331 100.887 89.4413 100.941 89.5201 101.027C89.5989 101.114 89.6425 101.227 89.6425 101.344C89.6425 101.461 89.5989 101.574 89.5201 101.661C89.4413 101.747 89.3331 101.802 89.2165 101.813H85.0949Z" fill="#858585" stroke="#263238" stroke-width="0.75" stroke-linecap="round" stroke-linejoin="round"/>
<path d="M85.0949 103.786C84.9783 103.775 84.8701 103.72 84.7913 103.634C84.7126 103.547 84.6689 103.434 84.6689 103.317C84.6689 103.2 84.7126 103.087 84.7913 103C84.8701 102.914 84.9783 102.86 85.0949 102.848H88.3178C88.4343 102.86 88.5425 102.914 88.6213 103C88.7001 103.087 88.7437 103.2 88.7437 103.317C88.7437 103.434 88.7001 103.547 88.6213 103.634C88.5425 103.72 88.4343 103.775 88.3178 103.786H85.0949Z" fill="#858585" stroke="#263238" stroke-width="0.75" stroke-linecap="round" stroke-linejoin="round"/>
<path d="M109.614 102.352H95.8114C95.5654 102.368 95.3349 102.478 95.1664 102.658C94.998 102.838 94.9043 103.075 94.9043 103.321C94.9043 103.568 94.998 103.805 95.1664 103.985C95.3349 104.165 95.5654 104.274 95.8114 104.291H109.614V102.352Z" fill="white"/>
<path d="M95.8114 104.291C95.5654 104.274 95.3349 104.165 95.1664 103.985C94.998 103.805 94.9043 103.568 94.9043 103.321C94.9043 103.075 94.998 102.838 95.1664 102.658C95.3349 102.478 95.5654 102.368 95.8114 102.352H128.682C128.815 102.343 128.948 102.362 129.073 102.406C129.198 102.451 129.313 102.521 129.41 102.612C129.507 102.703 129.585 102.813 129.638 102.935C129.691 103.057 129.718 103.188 129.718 103.321C129.718 103.454 129.691 103.586 129.638 103.708C129.585 103.83 129.507 103.94 129.41 104.031C129.313 104.122 129.198 104.192 129.073 104.236C128.948 104.281 128.815 104.3 128.682 104.291H95.8114Z" stroke="#263238" stroke-linecap="round" stroke-linejoin="round"/>
<path d="M109.927 99.724H108.887V99.2318L109.875 96.8906H110.47V99.2318H110.727V99.724H110.47V100.353H109.927V99.724ZM109.927 99.2318V97.8836L109.392 99.2361L109.927 99.2318Z" fill="#263238"/>
<path d="M110.98 99.5357V99.2661H111.494V99.5742C111.494 99.8225 111.601 99.9124 111.777 99.9124C111.952 99.9124 112.059 99.8225 112.059 99.5742V98.7996C112.059 98.5513 111.948 98.4572 111.777 98.4572C111.605 98.4572 111.494 98.5513 111.494 98.7996V98.8295H110.98L111.079 96.895H112.513V97.3914H111.563L111.52 98.2175C111.568 98.1362 111.637 98.0697 111.72 98.0252C111.803 97.9806 111.896 97.9598 111.991 97.965C112.389 97.965 112.594 98.2474 112.594 98.7568V99.5357C112.594 100.092 112.316 100.392 111.781 100.392C111.246 100.392 110.98 100.092 110.98 99.5357Z" fill="#263238"/>
<path d="M112.941 98.2646V97.4086C112.934 97.3357 112.943 97.2623 112.966 97.193C112.989 97.1237 113.027 97.0601 113.076 97.0061C113.126 96.9521 113.186 96.909 113.253 96.8795C113.319 96.85 113.392 96.8347 113.465 96.8347C113.538 96.8347 113.61 96.85 113.677 96.8795C113.744 96.909 113.804 96.9521 113.854 97.0061C113.903 97.0601 113.94 97.1237 113.964 97.193C113.987 97.2623 113.996 97.3357 113.989 97.4086V98.2646C113.996 98.3374 113.987 98.4108 113.964 98.4801C113.94 98.5494 113.903 98.6131 113.854 98.6671C113.804 98.7211 113.744 98.7642 113.677 98.7937C113.61 98.8232 113.538 98.8384 113.465 98.8384C113.392 98.8384 113.319 98.8232 113.253 98.7937C113.186 98.7642 113.126 98.7211 113.076 98.6671C113.027 98.6131 112.989 98.5494 112.966 98.4801C112.943 98.4108 112.934 98.3374 112.941 98.2646ZM113.643 98.2903V97.3743C113.643 97.2245 113.574 97.1603 113.467 97.1603C113.36 97.1603 113.287 97.2245 113.287 97.3743V98.2903C113.287 98.4443 113.351 98.5085 113.467 98.5085C113.583 98.5085 113.643 98.4401 113.643 98.2903ZM114.721 96.895H115.068L113.728 100.358H113.381L114.721 96.895ZM114.46 99.8525V98.9965C114.453 98.9236 114.462 98.8502 114.485 98.7809C114.509 98.7116 114.546 98.6479 114.596 98.594C114.645 98.54 114.705 98.4968 114.772 98.4673C114.839 98.4378 114.911 98.4226 114.984 98.4226C115.057 98.4226 115.13 98.4378 115.197 98.4673C115.264 98.4968 115.324 98.54 115.373 98.594C115.422 98.6479 115.46 98.7116 115.483 98.7809C115.507 98.8502 115.515 98.9236 115.509 98.9965V99.8525C115.515 99.9253 115.507 99.9987 115.483 100.068C115.46 100.137 115.422 100.201 115.373 100.255C115.324 100.309 115.264 100.352 115.197 100.382C115.13 100.411 115.057 100.426 114.984 100.426C114.911 100.426 114.839 100.411 114.772 100.382C114.705 100.352 114.645 100.309 114.596 100.255C114.546 100.201 114.509 100.137 114.485 100.068C114.462 99.9987 114.453 99.9253 114.46 99.8525ZM115.162 99.8781V98.9622C115.162 98.8081 115.093 98.7439 114.982 98.7439C114.871 98.7439 114.807 98.8081 114.807 98.9622V99.8781C114.807 100.032 114.871 100.096 114.982 100.096C115.093 100.096 115.162 100.032 115.162 99.8781Z" fill="#263238"/>
<path d="M132.671 113.215H82.231C80.6094 113.215 79.2949 114.529 79.2949 116.151V126.979C79.2949 128.601 80.6094 129.915 82.231 129.915H132.671C134.292 129.915 135.607 128.601 135.607 126.979V116.151C135.607 114.529 134.292 113.215 132.671 113.215Z" fill="#263238" stroke="#263238" stroke-linecap="round" stroke-linejoin="round"/>
<path d="M131.772 112.316H81.3326C79.711 112.316 78.3965 113.63 78.3965 115.252V126.08C78.3965 127.702 79.711 129.016 81.3326 129.016H131.772C133.394 129.016 134.708 127.702 134.708 126.08V115.252C134.708 113.63 133.394 112.316 131.772 112.316Z" fill="white" stroke="#263238" stroke-linecap="round" stroke-linejoin="round"/>
<path d="M120.503 121.612H95.8114C95.5654 121.628 95.3349 121.738 95.1664 121.918C94.998 122.098 94.9043 122.335 94.9043 122.581C94.9043 122.828 94.998 123.065 95.1664 123.245C95.3349 123.425 95.5654 123.534 95.8114 123.551H120.503V121.612Z" fill="white"/>
<path d="M95.8114 123.551C95.5654 123.534 95.3349 123.425 95.1664 123.245C94.998 123.065 94.9043 122.828 94.9043 122.581C94.9043 122.335 94.998 122.098 95.1664 121.918C95.3349 121.738 95.5654 121.628 95.8114 121.612H128.682C128.815 121.603 128.948 121.622 129.073 121.666C129.198 121.711 129.313 121.781 129.41 121.872C129.507 121.963 129.585 122.073 129.638 122.195C129.691 122.317 129.718 122.448 129.718 122.581C129.718 122.714 129.691 122.846 129.638 122.968C129.585 123.09 129.507 123.2 129.41 123.291C129.313 123.382 129.198 123.452 129.073 123.496C128.948 123.541 128.815 123.56 128.682 123.551H95.8114Z" stroke="#263238" stroke-linecap="round" stroke-linejoin="round"/>
<path d="M108.951 118.813V118.505C108.934 118.365 108.959 118.224 109.022 118.098C109.085 117.972 109.184 117.868 109.306 117.799C109.19 117.731 109.096 117.63 109.037 117.509C108.977 117.388 108.955 117.252 108.972 117.118V116.977C108.972 116.757 109.06 116.545 109.216 116.39C109.371 116.234 109.582 116.146 109.803 116.146C110.023 116.146 110.234 116.234 110.39 116.39C110.546 116.545 110.633 116.757 110.633 116.977V117.118C110.648 117.252 110.625 117.388 110.565 117.508C110.505 117.629 110.411 117.73 110.295 117.799C110.418 117.868 110.517 117.972 110.581 118.097C110.645 118.223 110.671 118.365 110.654 118.505V118.813C110.654 119.04 110.564 119.258 110.404 119.418C110.243 119.579 110.025 119.669 109.798 119.669C109.571 119.669 109.354 119.579 109.193 119.418C109.033 119.258 108.942 119.04 108.942 118.813H108.951ZM110.111 118.783V118.449C110.111 118.188 110.004 118.06 109.803 118.06C109.601 118.06 109.495 118.188 109.495 118.449V118.783C109.495 119.044 109.601 119.172 109.803 119.172C110.004 119.172 110.111 119.044 110.111 118.783ZM110.111 117.221V116.947C110.111 116.72 110.012 116.6 109.824 116.6C109.636 116.6 109.537 116.72 109.537 116.947V117.221C109.537 117.448 109.636 117.567 109.824 117.567C110.012 117.567 110.089 117.448 110.089 117.221H110.111Z" fill="#263238"/>
<path d="M110.98 118.796V118.526H111.494V118.834C111.494 119.082 111.601 119.172 111.777 119.172C111.952 119.172 112.059 119.082 112.059 118.834V118.06C112.059 117.811 111.948 117.717 111.777 117.717C111.605 117.717 111.494 117.811 111.494 118.06V118.09H110.98L111.079 116.155H112.513V116.651H111.563L111.52 117.477C111.567 117.396 111.637 117.33 111.72 117.285C111.803 117.241 111.896 117.22 111.991 117.225C112.389 117.225 112.594 117.507 112.594 118.017V118.796C112.602 118.907 112.587 119.019 112.55 119.125C112.513 119.23 112.455 119.327 112.378 119.408C112.302 119.49 112.21 119.556 112.108 119.6C112.005 119.645 111.895 119.668 111.783 119.668C111.671 119.668 111.561 119.645 111.458 119.6C111.356 119.556 111.264 119.49 111.187 119.408C111.111 119.327 111.053 119.23 111.016 119.125C110.979 119.019 110.964 118.907 110.972 118.796H110.98Z" fill="#263238"/>
<path d="M112.941 117.525V116.669C112.934 116.596 112.943 116.522 112.966 116.453C112.989 116.384 113.027 116.32 113.076 116.266C113.126 116.212 113.186 116.169 113.253 116.139C113.319 116.11 113.392 116.095 113.465 116.095C113.538 116.095 113.61 116.11 113.677 116.139C113.744 116.169 113.804 116.212 113.854 116.266C113.903 116.32 113.94 116.384 113.964 116.453C113.987 116.522 113.996 116.596 113.989 116.669V117.525C113.996 117.597 113.987 117.671 113.964 117.74C113.94 117.809 113.903 117.873 113.854 117.927C113.804 117.981 113.744 118.024 113.677 118.054C113.61 118.083 113.538 118.098 113.465 118.098C113.392 118.098 113.319 118.083 113.253 118.054C113.186 118.024 113.126 117.981 113.076 117.927C113.027 117.873 112.989 117.809 112.966 117.74C112.943 117.671 112.934 117.597 112.941 117.525ZM113.643 117.55V116.634C113.643 116.485 113.574 116.416 113.467 116.416C113.36 116.416 113.287 116.485 113.287 116.634V117.55C113.287 117.704 113.351 117.769 113.467 117.769C113.583 117.769 113.643 117.7 113.643 117.55ZM114.721 116.155H115.068L113.728 119.617H113.381L114.721 116.155ZM114.46 119.112V118.256C114.453 118.184 114.462 118.11 114.485 118.041C114.509 117.972 114.546 117.908 114.596 117.854C114.645 117.8 114.705 117.757 114.772 117.727C114.839 117.698 114.911 117.683 114.984 117.683C115.057 117.683 115.13 117.698 115.197 117.727C115.264 117.757 115.324 117.8 115.373 117.854C115.422 117.908 115.46 117.972 115.483 118.041C115.507 118.11 115.515 118.184 115.509 118.256V119.112C115.515 119.185 115.507 119.259 115.483 119.328C115.46 119.397 115.422 119.461 115.373 119.515C115.324 119.569 115.264 119.612 115.197 119.642C115.13 119.671 115.057 119.686 114.984 119.686C114.911 119.686 114.839 119.671 114.772 119.642C114.705 119.612 114.645 119.569 114.596 119.515C114.546 119.461 114.509 119.397 114.485 119.328C114.462 119.259 114.453 119.185 114.46 119.112ZM115.162 119.138V118.222C115.162 118.068 115.093 118.004 114.982 118.004C114.871 118.004 114.807 118.068 114.807 118.222V119.138C114.807 119.292 114.871 119.356 114.982 119.356C115.093 119.356 115.162 119.292 115.162 119.138Z" fill="#263238"/>
<path d="M90.8645 125.477H83.4473V116.095H88.3907L90.8645 118.569V125.477Z" fill="white"/>
<path opacity="0.5" d="M90.8645 125.477H83.4473V116.095H88.3907L90.8645 118.569V125.477Z" fill="white" stroke="#263238" stroke-linecap="round" stroke-linejoin="round"/>
<path d="M90.8645 125.477H83.4473V116.095H88.3907L90.8645 118.569V125.477Z" stroke="#263238" stroke-linecap="round" stroke-linejoin="round"/>
<path d="M85.0949 121.073C84.9783 121.062 84.8701 121.007 84.7913 120.921C84.7126 120.834 84.6689 120.721 84.6689 120.604C84.6689 120.487 84.7126 120.374 84.7913 120.287C84.8701 120.201 84.9783 120.147 85.0949 120.135H89.2165C89.3331 120.147 89.4413 120.201 89.5201 120.287C89.5989 120.374 89.6425 120.487 89.6425 120.604C89.6425 120.721 89.5989 120.834 89.5201 120.921C89.4413 121.007 89.3331 121.062 89.2165 121.073H85.0949Z" fill="#858585" stroke="#263238" stroke-width="0.75" stroke-linecap="round" stroke-linejoin="round"/>
<path d="M85.0949 123.046C84.9783 123.035 84.8701 122.98 84.7913 122.894C84.7126 122.807 84.6689 122.694 84.6689 122.577C84.6689 122.46 84.7126 122.347 84.7913 122.26C84.8701 122.174 84.9783 122.12 85.0949 122.108H88.3178C88.4343 122.12 88.5425 122.174 88.6213 122.26C88.7001 122.347 88.7437 122.46 88.7437 122.577C88.7437 122.694 88.7001 122.807 88.6213 122.894C88.5425 122.98 88.4343 123.035 88.3178 123.046H85.0949Z" fill="#858585" stroke="#263238" stroke-width="0.75" stroke-linecap="round" stroke-linejoin="round"/>
<path d="M88.3906 118.569H90.8645L88.3906 116.095V118.569Z" fill="white" stroke="#263238" stroke-linecap="round" stroke-linejoin="round"/>
<path d="M139.567 67.9579H75.3326C73.711 67.9579 72.3965 69.2724 72.3965 70.894V85.8183C72.3965 87.4399 73.711 88.7544 75.3326 88.7544H139.567C141.188 88.7544 142.503 87.4399 142.503 85.8183V70.894C142.503 69.2724 141.188 67.9579 139.567 67.9579Z" fill="#263238" stroke="#263238" stroke-linecap="round" stroke-linejoin="round"/>
<path d="M138.667 67.0591H74.4332C72.8116 67.0591 71.4971 68.3736 71.4971 69.9952V84.9195C71.4971 86.5411 72.8116 87.8556 74.4332 87.8556H138.667C140.289 87.8556 141.604 86.5411 141.604 84.9195V69.9952C141.604 68.3736 140.289 67.0591 138.667 67.0591Z" fill="white" stroke="#263238" stroke-linecap="round" stroke-linejoin="round"/>
<path d="M95.966 86.1436H82.2314V68.7711H91.3864L95.966 73.3464V86.1436Z" fill="white"/>
<path opacity="0.7" d="M95.966 86.1436H82.2314V68.7711H91.3864L95.966 73.3464V86.1436Z" fill="white"/>
<path d="M95.966 86.1436H82.2314V68.7711H91.3864L95.966 73.3464V86.1436Z" stroke="#263238" stroke-linecap="round" stroke-linejoin="round"/>
<path d="M91.3867 73.3464H95.9663L91.3867 68.7711V73.3464Z" fill="white" stroke="#263238" stroke-linecap="round" stroke-linejoin="round"/>
<path d="M86.2843 75.4864H83.5879V78.1828H86.2843V75.4864Z" stroke="white" stroke-width="0.75" stroke-linecap="round" stroke-linejoin="round"/>
<path d="M89.0577 75.4864H86.3613V78.1828H89.0577V75.4864Z" stroke="white" stroke-width="0.75" stroke-linecap="round" stroke-linejoin="round"/>
<path d="M91.8351 75.4864H89.1387V78.1828H91.8351V75.4864Z" stroke="white" stroke-width="0.75" stroke-linecap="round" stroke-linejoin="round"/>
<path d="M94.6095 75.4865H91.9131V78.1828H94.6095V75.4865Z" stroke="white" stroke-width="0.75" stroke-linecap="round" stroke-linejoin="round"/>
<path d="M86.2843 78.1828H83.5879V80.8792H86.2843V78.1828Z" stroke="white" stroke-width="0.75" stroke-linecap="round" stroke-linejoin="round"/>
<path d="M89.0577 78.1828H86.3613V80.8792H89.0577V78.1828Z" stroke="white" stroke-width="0.75" stroke-linecap="round" stroke-linejoin="round"/>
<path d="M91.8351 78.1828H89.1387V80.8792H91.8351V78.1828Z" stroke="white" stroke-width="0.75" stroke-linecap="round" stroke-linejoin="round"/>
<path d="M94.6095 78.1828H91.9131V80.8792H94.6095V78.1828Z" stroke="white" stroke-width="0.75" stroke-linecap="round" stroke-linejoin="round"/>
<path d="M86.2843 80.8792H83.5879V83.5756H86.2843V80.8792Z" stroke="white" stroke-width="0.75" stroke-linecap="round" stroke-linejoin="round"/>
<path d="M89.0577 80.8792H86.3613V83.5756H89.0577V80.8792Z" stroke="white" stroke-width="0.75" stroke-linecap="round" stroke-linejoin="round"/>
<path d="M91.8351 80.8792H89.1387V83.5756H91.8351V80.8792Z" stroke="white" stroke-width="0.75" stroke-linecap="round" stroke-linejoin="round"/>
<path d="M94.6095 80.8792H91.9131V83.5756H94.6095V80.8792Z" stroke="white" stroke-width="0.75" stroke-linecap="round" stroke-linejoin="round"/>
<path d="M83.6396 83.3145L86.3617 80.815L87.7099 80.8792L89.1822 78.2213L90.4876 79.531L91.9514 77.9945L93.2611 75.4864" stroke="white" stroke-width="2" stroke-linecap="round" stroke-linejoin="round"/>
<path d="M91.7158 76.2697L93.2609 75.4865L93.5733 77.1728" stroke="white" stroke-width="2" stroke-linecap="round" stroke-linejoin="round"/>
<path d="M101.368 76.9031H100.58V76.3809C101.205 76.3809 101.436 76.244 101.599 75.786H102.095V80.494H101.355L101.368 76.9031Z" fill="#263238"/>
<path d="M102.972 79.3855V76.9031C102.972 76.6046 103.09 76.3183 103.301 76.1072C103.512 75.8961 103.799 75.7775 104.097 75.7775C104.396 75.7775 104.682 75.8961 104.893 76.1072C105.104 76.3183 105.223 76.6046 105.223 76.9031V79.3855C105.223 79.684 105.104 79.9703 104.893 80.1814C104.682 80.3925 104.396 80.5111 104.097 80.5111C103.799 80.5111 103.512 80.3925 103.301 80.1814C103.09 79.9703 102.972 79.684 102.972 79.3855ZM104.483 79.4326V76.8646C104.483 76.5307 104.333 76.4023 104.097 76.4023C103.862 76.4023 103.712 76.5307 103.712 76.8646V79.4326C103.712 79.7707 103.862 79.8991 104.097 79.8991C104.333 79.8991 104.483 79.7707 104.483 79.4326Z" fill="#263238"/>
<path d="M105.669 79.3855V76.9031C105.669 76.6046 105.788 76.3183 105.999 76.1072C106.21 75.8961 106.496 75.7775 106.795 75.7775C107.093 75.7775 107.379 75.8961 107.591 76.1072C107.802 76.3183 107.92 76.6046 107.92 76.9031V79.3855C107.92 79.684 107.802 79.9703 107.591 80.1814C107.379 80.3925 107.093 80.5111 106.795 80.5111C106.496 80.5111 106.21 80.3925 105.999 80.1814C105.788 79.9703 105.669 79.684 105.669 79.3855ZM107.18 79.4326V76.8646C107.18 76.5307 107.03 76.4023 106.795 76.4023C106.559 76.4023 106.409 76.5307 106.409 76.8646V79.4326C106.409 79.7707 106.559 79.8991 106.795 79.8991C107.03 79.8991 107.18 79.7707 107.18 79.4326Z" fill="#263238"/>
<path d="M108.378 77.6521V76.4751C108.378 76.2855 108.453 76.1037 108.587 75.9697C108.721 75.8356 108.903 75.7603 109.093 75.7603C109.282 75.7603 109.464 75.8356 109.598 75.9697C109.732 76.1037 109.807 76.2855 109.807 76.4751V77.6521C109.807 77.8416 109.732 78.0234 109.598 78.1575C109.464 78.2915 109.282 78.3668 109.093 78.3668C108.903 78.3668 108.721 78.2915 108.587 78.1575C108.453 78.0234 108.378 77.8416 108.378 77.6521ZM109.337 77.6863V76.4408C109.337 76.2311 109.242 76.1412 109.093 76.1412C108.943 76.1412 108.849 76.2311 108.849 76.4408V77.6863C108.849 77.896 108.939 77.9816 109.093 77.9816C109.247 77.9816 109.337 77.896 109.337 77.6863ZM110.805 75.786H111.28L109.452 80.494H108.981L110.805 75.786ZM110.445 79.8178V78.6365C110.445 78.5426 110.464 78.4497 110.5 78.3629C110.535 78.2762 110.588 78.1974 110.654 78.1311C110.721 78.0647 110.8 78.012 110.886 77.9761C110.973 77.9402 111.066 77.9217 111.16 77.9217C111.254 77.9217 111.347 77.9402 111.433 77.9761C111.52 78.012 111.599 78.0647 111.665 78.1311C111.732 78.1974 111.784 78.2762 111.82 78.3629C111.856 78.4497 111.875 78.5426 111.875 78.6365V79.8178C111.875 79.9116 111.856 80.0046 111.82 80.0913C111.784 80.178 111.732 80.2568 111.665 80.3232C111.599 80.3895 111.52 80.4422 111.433 80.4781C111.347 80.514 111.254 80.5325 111.16 80.5325C111.066 80.5325 110.973 80.514 110.886 80.4781C110.8 80.4422 110.721 80.3895 110.654 80.3232C110.588 80.2568 110.535 80.178 110.5 80.0913C110.464 80.0046 110.445 79.9116 110.445 79.8178ZM111.404 79.852V78.6022C111.404 78.3925 111.31 78.3069 111.16 78.3069C111.01 78.3069 110.92 78.3925 110.92 78.6022V79.852C110.92 80.0574 111.006 80.1473 111.16 80.1473C111.314 80.1473 111.404 80.0574 111.404 79.852Z" fill="#263238"/>
<path d="M113.073 79.0302V77.1684C113.073 76.9561 113.158 76.7526 113.308 76.6025C113.458 76.4524 113.661 76.368 113.874 76.368C114.086 76.368 114.289 76.4524 114.44 76.6025C114.59 76.7526 114.674 76.9561 114.674 77.1684V77.5365H114.16V77.1342C114.16 76.9073 114.049 76.8132 113.886 76.8132C113.724 76.8132 113.617 76.9073 113.617 77.1342V79.0687C113.617 79.2956 113.724 79.3854 113.886 79.3854C114.049 79.3854 114.16 79.2956 114.16 79.0687V78.538H114.674V79.0302C114.674 79.2425 114.59 79.446 114.44 79.5961C114.289 79.7462 114.086 79.8306 113.874 79.8306C113.661 79.8306 113.458 79.7462 113.308 79.5961C113.158 79.446 113.073 79.2425 113.073 79.0302Z" fill="#263238"/>
<path d="M114.969 79.0088V77.1898C114.969 76.9707 115.056 76.7606 115.211 76.6057C115.366 76.4508 115.576 76.3638 115.795 76.3638C116.014 76.3638 116.224 76.4508 116.379 76.6057C116.534 76.7606 116.621 76.9707 116.621 77.1898V79.0088C116.621 79.2279 116.534 79.438 116.379 79.5929C116.224 79.7478 116.014 79.8349 115.795 79.8349C115.576 79.8349 115.366 79.7478 115.211 79.5929C115.056 79.438 114.969 79.2279 114.969 79.0088ZM116.077 79.0431V77.1556C116.077 76.9073 115.97 76.8132 115.795 76.8132C115.619 76.8132 115.512 76.9073 115.512 77.1556V79.0431C115.512 79.2913 115.624 79.3855 115.795 79.3855C115.966 79.3855 116.077 79.2913 116.077 79.0431Z" fill="#263238"/>
<path d="M116.985 76.3681H117.764L118.111 78.8462L118.458 76.3681H119.232V79.8306H118.719V77.2113L118.321 79.8306H117.867L117.473 77.2113V79.8306H116.998L116.985 76.3681Z" fill="#263238"/>
<path d="M119.647 76.3681H120.448C120.991 76.3681 121.257 76.672 121.257 77.2241V77.5665C121.257 78.1186 120.991 78.4225 120.448 78.4225H120.191V79.8306H119.647V76.3681ZM120.448 77.926C120.619 77.926 120.713 77.849 120.713 77.6007V77.1727C120.713 76.9245 120.619 76.8475 120.448 76.8475H120.191V77.9089L120.448 77.926Z" fill="#263238"/>
<path d="M121.552 76.3681H122.095V79.3342H122.99V79.8306H121.552V76.3681Z" fill="#263238"/>
<path d="M123.264 76.3681H124.745V76.8646H123.807V77.7762H124.548V78.2727H123.803V79.3342H124.74V79.8306H123.264V76.3681Z" fill="#263238"/>
<path d="M125.472 76.8646H124.907V76.3681H126.585V76.8646H126.016V79.8306H125.472V76.8646Z" fill="#263238"/>
<path d="M126.851 76.3681H128.331V76.8646H127.394V77.7762H128.139V78.2727H127.394V79.3341H128.331V79.8306H126.851V76.3681Z" fill="#263238"/>
<path d="M128.644 76.3681H129.474C130.017 76.3681 130.283 76.672 130.283 77.2241V78.9746C130.283 79.5268 130.017 79.8306 129.474 79.8306H128.644V76.3681ZM129.461 79.3342C129.637 79.3342 129.739 79.2443 129.739 79.0003V77.1984C129.739 76.9545 129.637 76.8646 129.461 76.8646H129.187V79.3342H129.461Z" fill="#263238"/>
<path d="M132.671 132.599H82.231C80.6094 132.599 79.2949 133.913 79.2949 135.535V146.363C79.2949 147.985 80.6094 149.299 82.231 149.299H132.671C134.292 149.299 135.607 147.985 135.607 146.363V135.535C135.607 133.913 134.292 132.599 132.671 132.599Z" fill="#263238" stroke="#263238" stroke-linecap="round" stroke-linejoin="round"/>
<path d="M131.772 131.7H81.3326C79.711 131.7 78.3965 133.014 78.3965 134.636V145.464C78.3965 147.086 79.711 148.401 81.3326 148.401H131.772C133.394 148.401 134.708 147.086 134.708 145.464V134.636C134.708 133.014 133.394 131.7 131.772 131.7Z" fill="white" stroke="#263238" stroke-linecap="round" stroke-linejoin="round"/>
<path d="M118.761 140.876H95.812C95.5555 140.876 95.3094 140.978 95.128 141.16C94.9466 141.341 94.8447 141.587 94.8447 141.843C94.8447 142.1 94.9466 142.346 95.128 142.527C95.3094 142.709 95.5555 142.811 95.812 142.811H118.761V140.876Z" fill="white"/>
<path d="M95.812 142.811C95.5555 142.811 95.3094 142.709 95.128 142.527C94.9466 142.346 94.8447 142.1 94.8447 141.843C94.8447 141.587 94.9466 141.341 95.128 141.16C95.3094 140.978 95.5555 140.876 95.812 140.876H128.682C128.809 140.876 128.935 140.901 129.053 140.95C129.17 140.998 129.277 141.07 129.366 141.16C129.456 141.249 129.527 141.356 129.576 141.473C129.625 141.591 129.65 141.716 129.65 141.843C129.65 141.971 129.625 142.096 129.576 142.214C129.527 142.331 129.456 142.438 129.366 142.527C129.277 142.617 129.17 142.689 129.053 142.737C128.935 142.786 128.809 142.811 128.682 142.811H95.812Z" stroke="#263238" stroke-linecap="round" stroke-linejoin="round"/>
<path d="M90.8645 144.741H83.4473V135.359H88.3907L90.8645 137.829V144.741Z" fill="white"/>
<path opacity="0.5" d="M90.8645 144.741H83.4473V135.359H88.3907L90.8645 137.829V144.741Z" fill="white"/>
<path d="M90.8645 144.741H83.4473V135.359H88.3907L90.8645 137.829V144.741Z" stroke="#263238" stroke-linecap="round" stroke-linejoin="round"/>
<path d="M85.0949 140.337C84.9783 140.326 84.8701 140.272 84.7913 140.185C84.7126 140.098 84.6689 139.985 84.6689 139.868C84.6689 139.751 84.7126 139.638 84.7913 139.552C84.8701 139.465 84.9783 139.411 85.0949 139.4H89.2165C89.3331 139.411 89.4413 139.465 89.5201 139.552C89.5989 139.638 89.6425 139.751 89.6425 139.868C89.6425 139.985 89.5989 140.098 89.5201 140.185C89.4413 140.272 89.3331 140.326 89.2165 140.337H85.0949Z" fill="#858585" stroke="#263238" stroke-width="0.75" stroke-linecap="round" stroke-linejoin="round"/>
<path d="M85.0945 142.306C84.9707 142.306 84.8521 142.257 84.7646 142.169C84.6771 142.082 84.6279 141.963 84.6279 141.839C84.6279 141.715 84.6771 141.597 84.7646 141.509C84.8521 141.422 84.9707 141.373 85.0945 141.373H88.3173C88.441 141.373 88.5597 141.422 88.6472 141.509C88.7347 141.597 88.7838 141.715 88.7838 141.839C88.7838 141.963 88.7347 142.082 88.6472 142.169C88.5597 142.257 88.441 142.306 88.3173 142.306H85.0945Z" fill="#858585" stroke="#263238" stroke-width="0.75" stroke-linecap="round" stroke-linejoin="round"/>
<path d="M88.3906 137.829H90.8645L88.3906 135.359V137.829Z" fill="white" stroke="#263238" stroke-linecap="round" stroke-linejoin="round"/>
<path d="M110.081 135.911H108.981V135.419H110.612V135.894L109.756 138.89H109.2L110.081 135.911Z" fill="#263238"/>
<path d="M110.954 138.06V136.241C110.954 136.022 111.041 135.812 111.196 135.657C111.351 135.502 111.561 135.415 111.78 135.415C111.999 135.415 112.209 135.502 112.364 135.657C112.519 135.812 112.606 136.022 112.606 136.241V138.06C112.606 138.279 112.519 138.489 112.364 138.644C112.209 138.799 111.999 138.886 111.78 138.886C111.561 138.886 111.351 138.799 111.196 138.644C111.041 138.489 110.954 138.279 110.954 138.06ZM112.063 138.094V136.207C112.063 135.958 111.951 135.864 111.78 135.864C111.609 135.864 111.498 135.958 111.498 136.207V138.094C111.498 138.342 111.609 138.432 111.78 138.432C111.951 138.432 112.063 138.342 112.063 138.094Z" fill="#263238"/>
<path d="M112.941 136.789V135.933C112.934 135.86 112.943 135.787 112.966 135.717C112.989 135.648 113.027 135.584 113.076 135.53C113.126 135.476 113.186 135.433 113.253 135.404C113.319 135.374 113.392 135.359 113.465 135.359C113.538 135.359 113.61 135.374 113.677 135.404C113.744 135.433 113.804 135.476 113.854 135.53C113.903 135.584 113.94 135.648 113.964 135.717C113.987 135.787 113.996 135.86 113.989 135.933V136.789C113.996 136.862 113.987 136.935 113.964 137.004C113.94 137.074 113.903 137.137 113.854 137.191C113.804 137.245 113.744 137.288 113.677 137.318C113.61 137.347 113.538 137.363 113.465 137.363C113.392 137.363 113.319 137.347 113.253 137.318C113.186 137.288 113.126 137.245 113.076 137.191C113.027 137.137 112.989 137.074 112.966 137.004C112.943 136.935 112.934 136.862 112.941 136.789ZM113.643 136.815V135.899C113.643 135.745 113.574 135.68 113.467 135.68C113.36 135.68 113.287 135.745 113.287 135.899V136.815C113.287 136.964 113.351 137.029 113.467 137.029C113.583 137.029 113.643 136.96 113.643 136.815ZM114.704 135.419H115.051L113.711 138.878H113.364L114.704 135.419ZM114.443 138.377V137.521C114.436 137.448 114.445 137.375 114.468 137.305C114.492 137.236 114.529 137.172 114.579 137.118C114.628 137.064 114.688 137.021 114.755 136.992C114.822 136.962 114.894 136.947 114.967 136.947C115.04 136.947 115.113 136.962 115.18 136.992C115.246 137.021 115.307 137.064 115.356 137.118C115.405 137.172 115.443 137.236 115.466 137.305C115.489 137.375 115.498 137.448 115.491 137.521V138.377C115.498 138.45 115.489 138.523 115.466 138.592C115.443 138.662 115.405 138.725 115.356 138.779C115.307 138.833 115.246 138.876 115.18 138.906C115.113 138.935 115.04 138.951 114.967 138.951C114.894 138.951 114.822 138.935 114.755 138.906C114.688 138.876 114.628 138.833 114.579 138.779C114.529 138.725 114.492 138.662 114.468 138.592C114.445 138.523 114.436 138.45 114.443 138.377ZM115.145 138.398V137.487C115.145 137.332 115.076 137.268 114.965 137.268C114.854 137.268 114.79 137.332 114.79 137.487V138.398C114.79 138.552 114.854 138.616 114.965 138.616C115.076 138.616 115.162 138.552 115.162 138.398H115.145Z" fill="#263238"/>
<path d="M50.6924 47.1656L61.9873 38.4344L73.2822 47.1656H50.6924Z" fill="#263238" stroke="#263238" stroke-linecap="round" stroke-linejoin="round"/>
<path d="M64.9406 37.7496H59.0342V42.8H64.9406V37.7496Z" fill="#263238" stroke="#263238" stroke-linecap="round" stroke-linejoin="round"/>
<path d="M61.9873 25.2007V42.8" stroke="#263238" stroke-width="0.75" stroke-linecap="round" stroke-linejoin="round"/>
<path d="M140.714 47.1656L152.013 38.4344L163.308 47.1656H140.714Z" fill="#263238" stroke="#263238" stroke-linecap="round" stroke-linejoin="round"/>
<path d="M154.966 37.7496H149.06V42.8H154.966V37.7496Z" fill="#263238" stroke="#263238" stroke-linecap="round" stroke-linejoin="round"/>
<path d="M152.013 24.3447V42.8" stroke="#263238" stroke-width="0.75" stroke-linecap="round" stroke-linejoin="round"/>
<path d="M156.421 183.437L156.182 190.498L159.837 190.674L161.168 183.437H156.421Z" fill="white" stroke="#263238" stroke-linecap="round" stroke-linejoin="round"/>
<path d="M149.269 192.664C150.502 192.236 152.633 191.509 153.433 191.008C154.075 190.606 154.97 189.296 155.633 188.928C155.772 188.867 155.922 188.836 156.074 188.836C156.226 188.836 156.376 188.867 156.515 188.928C156.623 189.048 156.693 189.196 156.716 189.356C156.734 189.425 156.773 189.487 156.826 189.534C156.88 189.582 156.946 189.613 157.017 189.623C157.087 189.633 157.159 189.622 157.224 189.591C157.289 189.56 157.343 189.511 157.379 189.45C157.482 189.249 157.628 189.073 157.807 188.936C158.372 188.62 159.9 188.53 160.401 188.936C161.231 189.617 161.531 191.962 161.685 193.019C161.724 193.251 161.685 194.535 161.685 194.535H148.349V193.948C148.347 193.664 148.435 193.387 148.6 193.157C148.766 192.926 149 192.754 149.269 192.664Z" fill="white" stroke="#263238" stroke-linecap="round" stroke-linejoin="round"/>
<path d="M161.694 194.526H148.349V193.94C148.348 193.794 148.373 193.649 148.421 193.512H161.711C161.711 193.961 161.694 194.526 161.694 194.526Z" fill="#858585" stroke="#263238" stroke-linecap="round" stroke-linejoin="round"/>
<path d="M158.727 128.687L155.924 186.124L161.06 186.98C161.06 186.98 164.296 170.357 164.689 164.913C164.783 163.629 164.689 159.755 164.689 159.755L168.323 141.869C168.323 141.869 170.716 139.661 170.994 129.145L158.727 128.687Z" fill="#263238" stroke="#263238" stroke-linecap="round" stroke-linejoin="round"/>
<path opacity="0.7" d="M166.33 150.917C166.527 150.087 166.758 149.269 167.036 148.456C167.079 148.341 167.13 148.234 167.181 148.127C167.309 146.911 167.505 145.704 167.768 144.51C167.858 144.064 168.098 143.662 168.448 143.371C168.548 143.146 168.697 142.945 168.885 142.785C169.072 142.624 169.293 142.507 169.531 142.443C169.374 141.338 169.133 140.246 168.812 139.177C168.487 138.056 167.956 136.981 167.798 135.822C167.755 135.522 167.584 135.209 167.639 135.175C167.271 135.032 166.911 134.869 166.561 134.687L166.497 134.636C166.168 140.057 166.113 145.491 166.33 150.917Z" fill="black"/>
<path d="M158.483 161.54C159.392 161.329 160.227 160.875 160.897 160.226" stroke="#7F7F7F" stroke-width="0.75" stroke-linecap="round" stroke-linejoin="round"/>
<path d="M155.248 187.216L161.458 187.725L161.921 185.713L155.248 185.191V187.216Z" fill="white" stroke="#263238" stroke-linecap="round" stroke-linejoin="round"/>
<path d="M173.182 182.568L174.504 190.824L177.885 190.558L177.774 182.105L173.182 182.568Z" fill="white" stroke="#263238" stroke-linecap="round" stroke-linejoin="round"/>
<path d="M167.518 192.664C168.755 192.236 170.887 191.509 171.683 191.008C172.325 190.606 173.224 189.296 173.883 188.928C174.023 188.867 174.173 188.836 174.326 188.836C174.478 188.836 174.629 188.867 174.769 188.928C174.846 189.008 174.901 189.107 174.927 189.215C174.95 189.296 174.997 189.37 175.062 189.425C175.126 189.48 175.206 189.515 175.291 189.524C175.375 189.534 175.461 189.518 175.536 189.479C175.612 189.44 175.674 189.379 175.715 189.304C175.802 189.157 175.918 189.029 176.057 188.928C176.622 188.611 178.15 188.521 178.651 188.928C179.481 189.608 179.781 191.954 179.935 193.011C179.969 193.242 179.935 194.526 179.935 194.526H166.603V193.94C166.602 193.658 166.69 193.383 166.855 193.154C167.019 192.925 167.251 192.754 167.518 192.664Z" fill="white" stroke="#263238" stroke-linecap="round" stroke-linejoin="round"/>
<path d="M179.948 194.526H166.603V193.94C166.601 193.794 166.624 193.649 166.671 193.512H179.961C179.961 193.961 179.948 194.526 179.948 194.526Z" fill="#858585" stroke="#263238" stroke-linecap="round" stroke-linejoin="round"/>
<path d="M165.875 130.42C165.875 130.42 167.159 137.855 168.34 144.09C169.145 148.319 169.196 160.812 169.196 160.812L173.297 186.608L178.351 185.927C178.351 185.927 178.411 170.049 177.842 164.955C177.713 163.821 177.504 160.453 177.504 160.453C177.504 160.453 177.696 146.979 178.736 142.477C179.481 139.267 180.962 135.894 179.164 129.316L165.875 130.42Z" fill="#263238" stroke="#263238" stroke-linecap="round" stroke-linejoin="round"/>
<path d="M170.306 161.54C170.82 162.252 171.585 162.742 172.446 162.914" stroke="#7F7F7F" stroke-width="0.75" stroke-linecap="round" stroke-linejoin="round"/>
<path d="M172.449 185.448L172.74 187.34L179.006 186.668L178.963 184.631L172.449 185.448Z" fill="white" stroke="#263238" stroke-linecap="round" stroke-linejoin="round"/>
<path d="M142.023 96.0304L140.641 93.7063C140.641 93.7063 140.307 89.91 139.536 89.1695C138.766 88.4291 137.054 86.2506 136.81 86.6786C136.425 87.3634 137.85 88.5832 137.85 88.5832L138.111 89.9956C138.111 89.9956 135.804 88.3349 135.154 88.3349C135.154 88.3349 133.313 86.1564 132.663 86.1521C132.012 86.1478 132.928 87.6587 132.928 87.6587C132.928 87.6587 132.307 87.1836 132.188 87.4789C132.068 87.7742 132.988 88.7843 132.988 88.7843C132.988 88.7843 132.633 89.1695 133.168 89.9956C133.094 90.2624 133.094 90.5445 133.17 90.8109C133.245 91.0774 133.393 91.318 133.596 91.5064C134.306 92.0714 138.124 94.2328 138.124 94.2328L139.408 97.2544L142.023 96.0304Z" fill="#858585" stroke="#263238" stroke-linecap="round" stroke-linejoin="round"/>
<path d="M133.493 88.8442C133.493 88.8442 133.998 89.0497 133.788 89.7901C133.99 90.0765 134.103 90.4159 134.114 90.766C134.165 91.4165 137.461 91.0955 138.351 92.478" stroke="#263238" stroke-width="0.75" stroke-linecap="round" stroke-linejoin="round"/>
<path d="M133.493 88.0439L134.837 89.4648" stroke="#263238" stroke-width="0.75" stroke-linecap="round" stroke-linejoin="round"/>
<path d="M156.292 95.444L147.471 102.318L141.428 94.083L138.351 95.6238C138.351 95.6238 143.187 108.986 146.846 108.986C150.737 108.986 158.133 102.737 158.133 102.737C158.133 102.737 158.599 101.543 156.292 95.444Z" fill="white" stroke="#263238" stroke-linecap="round" stroke-linejoin="round"/>
<path d="M147.805 102.973C148.011 103.411 148.165 103.872 148.263 104.346" stroke="#263238" stroke-width="0.75" stroke-linecap="round" stroke-linejoin="round"/>
<path d="M156.292 95.444L158.171 120.315V130.647C158.171 130.647 168.995 131.931 179.674 130.373L179.306 119.737L180.388 96.0304C180.388 96.0304 175.432 92.448 167.822 92.448C160.212 92.448 156.292 95.444 156.292 95.444Z" fill="white" stroke="#263238" stroke-linecap="round" stroke-linejoin="round"/>
<path opacity="0.2" d="M179.675 130.373L179.332 120.841C179.148 125.434 174.081 123.709 172.934 123.495C171.705 123.264 170.293 127.313 170.293 127.313C170.293 127.313 165.585 128.122 161.9 127.835C158.215 127.548 158.159 124.184 158.159 124.184V130.647C158.159 130.647 168.996 131.948 179.675 130.373Z" fill="black"/>
<path d="M163.243 120.075C167.782 119.587 172.138 118.018 175.946 115.5L163.243 120.075Z" fill="white"/>
<path d="M163.243 120.075C167.782 119.587 172.138 118.018 175.946 115.5" stroke="#263238" stroke-width="0.75" stroke-linecap="round" stroke-linejoin="round"/>
<path d="M161.355 120.204C161.355 120.204 161.719 120.204 162.361 120.157L161.355 120.204Z" fill="white"/>
<path d="M161.355 120.204C161.355 120.204 161.719 120.204 162.361 120.157" stroke="#263238" stroke-width="0.75" stroke-linecap="round" stroke-linejoin="round"/>
<path d="M165.019 96.6424L163.145 95.9619L161.355 97.691L162.665 92.341L164.244 91.0998L165.049 91.6091L168.644 91.4722L171.439 91.699L172.77 91.2881L174.191 92.7091L171.028 98.7567L169.701 96.4669L166.774 96.8307L165.019 96.6424Z" fill="white"/>
<path opacity="0.5" d="M165.019 96.6424L163.145 95.9619L161.355 97.691L162.665 92.341L164.244 91.0998L165.049 91.6091L168.644 91.4722L171.439 91.699L172.77 91.2881L174.191 92.7091L171.028 98.7567L169.701 96.4669L166.774 96.8307L165.019 96.6424Z" fill="white"/>
<path d="M165.019 96.6424L163.145 95.9619L161.355 97.691L162.665 92.341L164.244 91.0998L165.049 91.6091L168.644 91.4722L171.439 91.699L172.77 91.2881L174.191 92.7091L171.028 98.7567L169.701 96.4669L166.774 96.8307L165.019 96.6424Z" stroke="#263238" stroke-linecap="round" stroke-linejoin="round"/>
<path d="M171.246 92.6919L170.818 86.1521L166.684 86.884L165.828 89.957L164.972 92.6192L164.565 92.662L165.691 98.7738L171.657 92.7818L171.246 92.6919Z" fill="#858585"/>
<path d="M161.082 86.6058C161.082 88.2665 161.339 91.9815 163.62 92.4138C165.983 92.8632 168.692 90.1754 169.663 89.1011C169.907 88.8342 170.097 88.5233 170.224 88.1852L170.742 86.8113C171.08 86.8371 171.419 86.7659 171.718 86.6058H161.082Z" fill="#263238" stroke="#263238" stroke-width="0.5" stroke-linecap="round" stroke-linejoin="round"/>
<path d="M171.246 92.6919L170.818 86.1521L166.684 86.884L165.828 89.957L164.972 92.6192L164.565 92.662L165.691 98.7738L171.657 92.7818L171.246 92.6919Z" stroke="#263238" stroke-linecap="round" stroke-linejoin="round"/>
<path d="M163.838 78.2084C163.838 78.2084 161.882 76.719 162.841 75.5463C163.341 74.9385 163.992 75.7389 163.992 75.7389C163.992 75.7389 163.645 73.8728 165.036 73.5989C166.32 73.3592 166.269 74.8315 166.269 74.8315C166.269 74.8315 166.932 73.5689 168.092 73.8514C169.017 74.074 168.661 75.3836 168.661 75.3836C168.661 75.3836 169.894 73.8514 171.17 74.5277C172.269 75.1055 171.362 76.4922 171.362 76.4922C171.362 76.4922 172.672 76.0299 173.404 76.7661C174.136 77.5022 173.404 78.4781 173.404 78.4781C173.404 78.4781 174.846 78.4781 174.91 79.5566C174.974 80.6352 173.793 80.8406 173.793 80.8406C173.793 80.8406 175.462 81.3799 175.475 82.6896C175.488 83.9993 174.371 83.5798 174.371 83.5798C174.371 83.5798 175.064 84.8125 174.487 85.4673C174.422 85.555 174.337 85.6262 174.24 85.6752C174.142 85.7243 174.035 85.7498 173.926 85.7498C173.817 85.7498 173.709 85.7243 173.612 85.6752C173.515 85.6262 173.43 85.555 173.365 85.4673C173.365 85.4673 174.088 87.021 173.173 87.4746C172.518 87.7956 172.133 87.0081 172.133 87.0081C172.133 87.0081 171.58 88.352 170.913 87.5303C170.245 86.7085 166.932 80.3784 166.932 80.3784L163.838 78.2084Z" fill="#263238" stroke="#263238" stroke-width="0.75" stroke-linecap="round" stroke-linejoin="round"/>
<path d="M163.273 78.2684L162.041 80.8364C161.914 81.1041 161.848 81.3964 161.848 81.6924V82.497L161.167 84.209C161.132 84.2982 161.104 84.3897 161.082 84.483C160.864 85.3946 159.823 90.2909 162.366 91.2882C164.609 92.1698 167.767 90.0427 168.927 89.1696C169.216 88.9519 169.461 88.68 169.646 88.3692L170.417 87.1194C170.744 87.2172 171.093 87.2089 171.415 87.0959C171.737 86.9829 172.016 86.7709 172.21 86.4903C172.899 85.5016 173.695 84.9666 172.749 84.0764C171.803 83.1861 170.93 84.6114 170.93 84.6114L171.059 82.099L169.963 80.173L169.907 78.9618C169.907 78.9618 166.321 78.5637 163.915 77.2498L163.273 78.2684Z" fill="white" stroke="#263238" stroke-width="0.75" stroke-linecap="round" stroke-linejoin="round"/>
<path d="M163.273 78.2684L162.041 80.8364C161.914 81.1041 161.848 81.3964 161.848 81.6924V82.497L161.167 84.209C161.132 84.2982 161.104 84.3897 161.082 84.483C160.864 85.3946 159.823 90.2909 162.366 91.2882C164.609 92.1698 167.767 90.0427 168.927 89.1696C169.216 88.9519 169.461 88.68 169.646 88.3692L170.417 87.1194C170.744 87.2172 171.093 87.2089 171.415 87.0959C171.737 86.9829 172.016 86.7709 172.21 86.4903C172.899 85.5016 173.695 84.9666 172.749 84.0764C171.803 83.1861 170.93 84.6114 170.93 84.6114L171.059 82.099L169.963 80.173L169.907 78.9618C169.907 78.9618 166.321 78.5637 163.915 77.2498L163.273 78.2684Z" fill="#858585" stroke="#263238" stroke-linecap="round" stroke-linejoin="round"/>
<path d="M165.456 87.0381C164.763 88.3777 163.821 88.1552 163.23 87.8213" stroke="#263238" stroke-width="0.75" stroke-linecap="round" stroke-linejoin="round"/>
<path d="M165.469 83.995C165.374 84.2989 165.182 84.5086 165.041 84.4658C164.899 84.423 164.852 84.1362 164.946 83.8323C165.041 83.5285 165.233 83.3145 165.374 83.3615C165.516 83.4086 165.563 83.6911 165.469 83.995Z" fill="#263238"/>
<path d="M162.61 83.109C162.516 83.4172 162.323 83.6269 162.182 83.5798C162.041 83.5327 161.994 83.2503 162.088 82.9464C162.182 82.6425 162.379 82.4328 162.516 82.4799C162.653 82.527 162.704 82.8051 162.61 83.109Z" fill="#263238"/>
<path d="M162.404 81.1317C162.518 81.0999 162.636 81.0919 162.753 81.1081C162.87 81.1243 162.982 81.1644 163.082 81.2259C163.183 81.2873 163.269 81.3688 163.337 81.4653C163.404 81.5618 163.451 81.6711 163.474 81.7866" stroke="#263238" stroke-width="0.75" stroke-linecap="round" stroke-linejoin="round"/>
<path d="M164.865 82.3001C164.865 82.3001 165.862 81.2515 166.534 82.3643" stroke="#263238" stroke-width="0.75" stroke-linecap="round" stroke-linejoin="round"/>
<path d="M163.496 83.3787C163.406 83.7876 163.214 84.1669 162.936 84.4807C162.659 84.7945 162.307 85.0324 161.912 85.172L162.691 86.4089" stroke="#263238" stroke-width="0.75" stroke-linecap="round" stroke-linejoin="round"/>
<path d="M168.465 132.449L168.247 133.771C168.216 133.99 168.27 134.212 168.398 134.391C168.527 134.571 168.719 134.694 168.936 134.734L182.662 136.986C182.88 137.017 183.102 136.963 183.282 136.834C183.461 136.706 183.584 136.513 183.625 136.297L183.839 134.974L168.465 132.449Z" fill="white" stroke="#263238" stroke-width="0.75" stroke-linecap="round" stroke-linejoin="round"/>
<path d="M184.453 126.64L170.571 124.362C170.158 124.294 169.768 124.574 169.701 124.987L168.325 133.371C168.257 133.783 168.537 134.173 168.95 134.241L182.832 136.519C183.245 136.587 183.635 136.307 183.702 135.894L185.078 127.511C185.146 127.098 184.866 126.708 184.453 126.64Z" fill="white"/>
<path opacity="0.5" d="M184.453 126.64L170.571 124.362C170.158 124.294 169.768 124.574 169.701 124.987L168.325 133.371C168.257 133.783 168.537 134.173 168.95 134.241L182.832 136.519C183.245 136.587 183.635 136.307 183.702 135.894L185.078 127.511C185.146 127.098 184.866 126.708 184.453 126.64Z" fill="white"/>
<path d="M184.453 126.64L170.571 124.362C170.158 124.294 169.768 124.574 169.701 124.987L168.325 133.371C168.257 133.783 168.537 134.173 168.95 134.241L182.832 136.519C183.245 136.587 183.635 136.307 183.702 135.894L185.078 127.511C185.146 127.098 184.866 126.708 184.453 126.64Z" stroke="#263238" stroke-linecap="round" stroke-linejoin="round"/>
<path d="M179.096 128.203L178.339 130.771L175.771 132.607C175.407 133.731 174.979 134.833 174.487 135.907C174.454 135.967 174.437 136.034 174.438 136.102C174.438 136.171 174.456 136.238 174.489 136.297C174.522 136.357 174.57 136.407 174.628 136.442C174.686 136.478 174.753 136.499 174.821 136.502C175.176 136.502 175.591 136.335 175.818 135.646C175.818 135.646 175.916 136.999 176.751 136.172C176.751 136.172 177.26 137.482 178.056 136.451C178.056 136.451 179.901 136.725 180.196 135.394C180.492 134.062 180.928 131.717 180.928 131.717L182.101 128.965L179.096 128.203Z" fill="#858585" stroke="#263238" stroke-linecap="round" stroke-linejoin="round"/>
<path d="M175.801 135.12L176.092 133.138" stroke="#263238" stroke-width="0.75" stroke-linecap="round" stroke-linejoin="round"/>
<path d="M176.259 135.248C176.259 135.248 176.46 135.903 176.914 135.796C177.367 135.689 178.014 136.194 179.426 135.599" stroke="#263238" stroke-width="0.75" stroke-linecap="round" stroke-linejoin="round"/>
<path d="M180.389 96.0303C180.389 96.0303 186.809 113.869 186.689 116.476C186.569 119.082 182.002 130.42 182.002 130.42L178.476 129.299L180.83 116.001L178.72 106.76C178.72 106.76 178.24 99.9851 180.389 96.0303Z" fill="white" stroke="#263238" stroke-linecap="round" stroke-linejoin="round"/>
<path d="M181.621 115.706C181.858 115.524 182.132 115.398 182.424 115.337C182.716 115.275 183.018 115.28 183.307 115.35" stroke="#263238" stroke-width="0.75" stroke-linecap="round" stroke-linejoin="round"/>
<path d="M177.449 129.581C177.321 129.412 177.225 129.22 177.167 129.016C176.92 129.012 176.68 129.1 176.497 129.265C176.313 129.43 176.198 129.658 176.176 129.904C176.154 130.15 176.225 130.395 176.377 130.59C176.528 130.785 176.747 130.915 176.991 130.955C177.247 130.997 177.509 130.936 177.72 130.785C177.931 130.635 178.074 130.406 178.117 130.15C177.841 130.033 177.608 129.835 177.449 129.581Z" fill="white"/>
<path d="M52.1896 91.9301L52.9686 95.7693L44.3145 96.1331L45.8167 85.493L51.6461 86.1692L52.1896 91.9301Z" fill="white"/>
<path d="M56.0685 86.105L48.8311 88.245C48.9214 89.0745 49.0934 89.8931 49.3447 90.6889C49.7727 91.9215 52.3792 94.1129 54.0527 94.0872C55.7261 94.0615 55.9145 88.7286 55.9145 88.7286L56.9245 88.1679C56.9824 88.135 57.0326 88.0902 57.0718 88.0364C57.111 87.9827 57.1384 87.9212 57.1522 87.8561C57.1659 87.791 57.1657 87.7237 57.1516 87.6587C57.1374 87.5937 57.1096 87.5324 57.0701 87.4789L56.0685 86.105Z" fill="#263238" stroke="#263238" stroke-width="0.75" stroke-linecap="round" stroke-linejoin="round"/>
<path d="M52.1896 91.9301L52.9686 95.7693L44.3145 96.1331L45.8167 85.493L51.6461 86.1692L52.1896 91.9301Z" stroke="#263238" stroke-linecap="round" stroke-linejoin="round"/>
<path d="M52.5882 78.4053C52.5882 78.4053 54.6896 78.8333 54.4756 76.5521C54.2616 74.2708 50.3454 75.6661 48.3039 75.9229C46.2623 76.1797 39.6711 78.6407 42.0037 82.5269C42.0037 82.5269 40.6298 84.7183 45.5775 88.3948C45.5775 88.3948 47.9272 87.2906 49.2155 88.9041L50.2213 86.9439L52.7893 82.4328L52.5882 78.4053Z" fill="#263238" stroke="#263238" stroke-linecap="round" stroke-linejoin="round"/>
<path d="M52.4336 78.0629C52.4336 78.0629 54.4452 79.1843 55.6008 77.7805C55.6008 77.7805 55.7292 80.7765 52.4336 78.0629Z" fill="#263238" stroke="#263238" stroke-linecap="round" stroke-linejoin="round"/>
<path d="M52.6438 77.7505C52.6438 77.7505 55.6398 80.9048 55.5371 83.0663V85.0393L57.1207 86.8198C57.165 86.8654 57.1985 86.9203 57.219 86.9804C57.2394 87.0406 57.2461 87.1046 57.2388 87.1677C57.2314 87.2308 57.2101 87.2915 57.1763 87.3453C57.1426 87.3991 57.0972 87.4448 57.0437 87.4789L56.1235 88.1167C56.1235 88.1167 56.3931 93.1671 54.8095 93.3468C53.2259 93.5266 50.5894 91.6348 50.063 90.522C49.6665 89.501 49.3795 88.4407 49.207 87.3591C48.7461 87.2343 48.333 86.9743 48.0211 86.6128C47.7091 86.2512 47.5125 85.8046 47.4565 85.3304C47.2724 83.6697 48.9459 83.7168 49.3782 84.8039L49.7291 85.6899L50.8163 85.6514C50.8163 85.6514 50.1957 84.0849 50.5637 83.6227C50.9318 83.1604 52.3785 82.0348 51.7151 80.9605C51.0517 79.8862 51.2742 78.0586 52.6438 77.7505Z" fill="white" stroke="#263238" stroke-linecap="round" stroke-linejoin="round"/>
<path d="M54.3555 89.1053C54.4801 89.3265 54.6711 89.503 54.9016 89.6098C55.132 89.7165 55.3901 89.7482 55.6395 89.7002" stroke="#263238" stroke-width="0.75" stroke-linecap="round" stroke-linejoin="round"/>
<path d="M53.5684 83.079C53.5684 83.079 54.2489 82.1332 54.8952 82.9977" stroke="#263238" stroke-linecap="round" stroke-linejoin="round"/>
<path d="M54.6427 85.0521C54.6427 85.3475 54.5271 85.5914 54.3688 85.5957C54.2104 85.6 54.0734 85.3646 54.0649 85.0692C54.0563 84.7739 54.1804 84.53 54.3388 84.5257C54.4972 84.5214 54.6341 84.744 54.6427 85.0521Z" fill="#263238"/>
<path d="M40.9168 179.863L39.667 190.618L43.3863 191.192L45.4364 180.56L40.9168 179.863Z" fill="white" stroke="#263238" stroke-linecap="round" stroke-linejoin="round"/>
<path d="M39.166 132.338C39.166 132.338 39.3158 138.569 41.5157 142.952L42.0165 159.49L39.4785 186.137L45.1238 186.676L50.2598 158.805L51.9718 133.553L39.166 132.338Z" fill="white" stroke="#263238" stroke-linecap="round" stroke-linejoin="round"/>
<path opacity="0.2" d="M51.1762 145.695L50.7054 142.729L48.5654 133.395L48.1716 133.194L39.1836 132.338C39.1836 132.338 39.1836 133.36 39.3848 134.871L43.8231 137.388C43.9278 138.968 44.2847 140.522 44.8803 141.989C44.9336 142.117 44.9531 142.257 44.9368 142.395C44.9206 142.532 44.8691 142.664 44.7875 142.776C44.7058 142.888 44.5966 142.977 44.4705 143.035C44.3443 143.093 44.2054 143.117 44.0671 143.106C43.6091 143.072 43.2111 143.106 43.2111 143.406C43.2111 144.099 46.558 146.337 46.558 146.337C46.558 146.337 49.935 157.251 49.8151 161.283L50.2731 158.801L51.1762 145.695Z" fill="black"/>
<path d="M52.2676 180.569L52.6742 191.389H56.4363L56.8386 180.569H52.2676Z" fill="white" stroke="#263238" stroke-linecap="round" stroke-linejoin="round"/>
<path d="M62.4276 192.912C61.1857 192.534 59.9774 192.053 58.8153 191.474C58.2589 191.128 57.4799 189.993 56.9064 189.672C56.7861 189.621 56.6565 189.594 56.5255 189.594C56.3945 189.594 56.2649 189.621 56.1446 189.672C55.8707 189.895 55.8578 191.055 55.8578 191.055C55.8578 191.055 55.3742 189.874 55.0232 189.672C54.5353 189.399 53.2085 189.317 52.7762 189.672C52.0572 190.259 51.7961 192.296 51.6549 193.212C51.6206 193.413 51.6549 194.526 51.6549 194.526H63.2109V194.017C63.2117 193.774 63.1367 193.537 62.9962 193.339C62.8558 193.141 62.657 192.992 62.4276 192.912Z" fill="#263238" stroke="#263238" stroke-linecap="round" stroke-linejoin="round"/>
<path d="M60.1381 132.851L59.2136 157.851L57.6685 186.394H51.7878C51.7878 186.394 50.5552 164.485 50.8633 158.146L47.7775 143.487C47.7775 143.487 44.5375 139.164 45.3079 133.921L60.1381 132.851Z" fill="white" stroke="#263238" stroke-linecap="round" stroke-linejoin="round"/>
<path d="M51.2656 184.271L51.4582 187.704H57.8996L58.4004 184.271H51.2656Z" fill="white" stroke="#263238" stroke-linecap="round" stroke-linejoin="round"/>
<path d="M39.0077 183.976L38.875 187.408L45.2864 188.02L46.1125 184.652L39.0077 183.976Z" fill="white" stroke="#263238" stroke-linecap="round" stroke-linejoin="round"/>
<path d="M69.8883 116.395L60.9902 110.736L70.3677 101.359L79.2701 107.017L69.8883 116.395Z" fill="white" stroke="#263238" stroke-linecap="round" stroke-linejoin="round"/>
<path d="M70.3974 114.46L63.2412 109.91L70.7826 102.369L77.9387 106.919L70.3974 114.46Z" fill="white" stroke="#263238" stroke-width="0.75" stroke-linecap="round" stroke-linejoin="round"/>
<path d="M70.9195 106.649L72.1692 105.399L70.5642 104.381L69.3145 105.626L70.9195 106.649Z" stroke="#263238" stroke-width="0.75" stroke-linecap="round" stroke-linejoin="round"/>
<path d="M68.981 108.592L70.2307 107.342L68.6215 106.319L67.376 107.569L68.981 108.592Z" stroke="#263238" stroke-width="0.75" stroke-linecap="round" stroke-linejoin="round"/>
<path d="M66.9735 110.599L68.219 109.35L66.614 108.327L65.3643 109.577L66.9735 110.599Z" stroke="#263238" stroke-width="0.75" stroke-linecap="round" stroke-linejoin="round"/>
<path d="M73.9796 102.818L72.7983 104.004C72.7424 104.06 72.6997 104.127 72.6735 104.202C72.6472 104.276 72.6381 104.356 72.6467 104.434C72.6553 104.513 72.6815 104.588 72.7233 104.655C72.7651 104.722 72.8215 104.779 72.8882 104.821L74.6002 105.921C74.7889 106.042 75.013 106.094 75.2355 106.07C75.4581 106.046 75.6657 105.947 75.8243 105.789L76.9157 104.693L73.9796 102.818Z" fill="#858585" stroke="#263238" stroke-linecap="round" stroke-linejoin="round"/>
<path d="M42.3164 95.5124L43.8615 92.1184C43.8615 92.1184 52.811 91.1169 55.1992 98.5983L42.3164 95.5124Z" fill="#858585" stroke="#263238" stroke-linecap="round" stroke-linejoin="round"/>
<path d="M37.2358 98.4058C37.2358 98.4058 35.0273 115.325 35.6137 121.321C36.0759 126.063 39.2003 130.078 39.2003 130.078L43.8313 128.263L41.4773 121.321C41.4773 121.321 42.2092 108.823 42.9025 105.913L37.2358 98.4058Z" fill="#858585" stroke="#263238" stroke-linecap="round" stroke-linejoin="round"/>
<path d="M37.8604 129.247L39.1658 130.81L44.5157 128.725L43.8224 126.641L37.8604 129.247Z" fill="#858585" stroke="#263238" stroke-linecap="round" stroke-linejoin="round"/>
<path d="M37.2353 98.4057C37.2353 98.4057 36.5377 108.126 38.5193 114.956C40.5009 121.787 38.5193 133.005 38.5193 133.005C38.5193 133.005 47.64 138.907 61.6313 134.392C61.6313 134.392 59.8979 101.179 57.5824 99.3302C55.2669 97.4812 42.2001 90.4235 37.2353 98.4057Z" fill="#858585" stroke="#263238" stroke-linecap="round" stroke-linejoin="round"/>
<path opacity="0.2" d="M61.6314 134.392C61.6314 134.392 61.0364 123.007 60.082 113.197C58.0576 108.284 54.7491 101.74 54.5736 110.929C54.3168 124.218 62.4959 123.435 56.016 125.751C54.5671 126.299 53.015 126.522 51.4702 126.402C49.9255 126.282 48.4263 125.823 47.0794 125.057C46.9716 125.002 46.8483 124.985 46.7298 125.01C46.6113 125.035 46.5048 125.099 46.4278 125.192C46.3509 125.286 46.3082 125.403 46.3068 125.524C46.3054 125.645 46.3455 125.763 46.4202 125.858C48.0466 127.925 50.5162 129.213 52.4122 129.954C52.5835 130.019 52.7282 130.139 52.8239 130.296C52.9197 130.452 52.961 130.636 52.9414 130.818C52.9219 131 52.8426 131.171 52.7159 131.303C52.5892 131.436 52.4222 131.522 52.241 131.55C46.1378 132.453 41.3527 129.209 39.1571 127.321C38.9003 130.591 38.4766 133.005 38.4766 133.005C38.4766 133.005 47.64 138.907 61.6314 134.392Z" fill="black"/>
<path d="M57.5919 99.3345C58.4263 99.7174 59.1503 100.305 59.6965 101.043C60.2428 101.781 60.5936 102.645 60.7163 103.555C61.1786 106.739 64.1403 116.519 64.1403 116.519L65.1247 115.881C65.9466 116.25 66.6236 116.88 67.0508 117.673C67.478 118.467 67.6314 119.379 67.4873 120.268C67.4873 120.268 65.0819 124.976 62.454 124.09C59.7533 123.174 58.2425 120.966 56.89 117.353C56.1753 115.427 54.1123 109.624 54.1123 109.624" fill="#858585"/>
<path d="M57.5919 99.3345C58.4263 99.7174 59.1503 100.305 59.6965 101.043C60.2428 101.781 60.5936 102.645 60.7163 103.555C61.1786 106.739 64.1403 116.519 64.1403 116.519L65.1247 115.881C65.9466 116.25 66.6236 116.88 67.0508 117.673C67.478 118.467 67.6314 119.379 67.4873 120.268C67.4873 120.268 65.0819 124.976 62.454 124.09C59.7533 123.174 58.2425 120.966 56.89 117.353C56.1753 115.427 54.1123 109.624 54.1123 109.624" stroke="#263238" stroke-linecap="round" stroke-linejoin="round"/>
<path d="M65.3213 119.352C65.3368 119.604 65.3253 119.856 65.2871 120.105" stroke="#263238" stroke-width="0.75" stroke-linecap="round" stroke-linejoin="round"/>
<path d="M63.5537 121.321C63.5537 121.321 64.3626 120.037 64.2471 117.268C64.636 117.562 64.9329 117.962 65.1031 118.419" stroke="#263238" stroke-width="0.75" stroke-linecap="round" stroke-linejoin="round"/>
<path d="M65.7705 115.611L68.8564 113.411C69.0106 112.727 69.3465 112.098 69.8285 111.589C70.3106 111.079 70.921 110.71 71.5956 110.518C71.5956 110.518 73.0208 108.164 73.8298 108.438C74.6387 108.712 72.8667 109.671 72.7127 110.903L73.3675 111.781C73.3675 111.781 75.5075 111.404 76.0297 110.711C76.0297 110.711 75.9141 112.179 75.0667 112.423C75.0667 112.423 75.0667 113.54 74.4889 113.501L70.2431 114.7L67.7736 119.309L65.7705 115.611Z" fill="white" stroke="#263238" stroke-linecap="round" stroke-linejoin="round"/>
<path d="M53.1357 126.311C53.6237 126.266 54.1074 126.183 54.5824 126.063" stroke="#263238" stroke-width="0.75" stroke-linecap="round" stroke-linejoin="round"/>
<path d="M41.0068 119.296C41.0068 119.296 45.5565 126.256 52.1348 126.35" stroke="#263238" stroke-width="0.75" stroke-linecap="round" stroke-linejoin="round"/>
<path d="M64.4395 115.688C64.4395 115.688 67.658 118.119 67.3499 121.051L68.5097 118.83C68.5097 118.83 68.4712 116.96 65.8091 114.978L64.4395 115.688Z" fill="#858585" stroke="#263238" stroke-linecap="round" stroke-linejoin="round"/>
<path d="M51.6558 194.526H63.2118V194.017C63.2117 193.892 63.1915 193.767 63.1519 193.649H51.6387C51.6387 194.038 51.6558 194.526 51.6558 194.526Z" fill="white" stroke="#263238" stroke-width="0.75" stroke-linecap="round" stroke-linejoin="round"/>
<path d="M49.2196 192.912C47.9777 192.534 46.7694 192.053 45.6073 191.474C45.0509 191.128 44.2719 189.993 43.7027 189.672C43.5817 189.621 43.4513 189.594 43.3196 189.594C43.1879 189.594 43.0576 189.621 42.9366 189.672C42.6627 189.895 42.6498 191.055 42.6498 191.055C42.6498 191.055 42.1705 189.874 41.8152 189.672C41.3273 189.399 40.0005 189.317 39.5682 189.672C38.8492 190.259 38.5881 192.296 38.4469 193.212C38.4126 193.413 38.4469 194.526 38.4469 194.526H50.0029V194.017C50.0037 193.774 49.9287 193.537 49.7883 193.339C49.6478 193.141 49.449 192.992 49.2196 192.912Z" fill="#263238" stroke="#263238" stroke-linecap="round" stroke-linejoin="round"/>
<path d="M38.439 194.526H49.995V194.017C49.9949 193.892 49.9747 193.767 49.9351 193.649H38.4219C38.4219 194.038 38.439 194.526 38.439 194.526Z" fill="white" stroke="#263238" stroke-width="0.75" stroke-linecap="round" stroke-linejoin="round"/>
<path d="M55.4861 158.313C55.4861 158.313 54.2578 160.431 52.2676 159.623" stroke="#263238" stroke-width="0.75" stroke-linecap="round" stroke-linejoin="round"/>
<path d="M46.921 159.058C46.921 159.058 44.7168 160.941 42.8936 159.623" stroke="#263238" stroke-width="0.75" stroke-linecap="round" stroke-linejoin="round"/>
<path d="M69.9219 104.231L70.23 105.763H72.9607L70.7394 105.245L70.8464 104.201L69.9219 104.231Z" fill="white"/>
</svg>
