<svg width="200" height="200" viewBox="0 0 200 200" fill="none" xmlns="http://www.w3.org/2000/svg">
<path d="M170.776 129.484L170.464 132.284L175.908 125.92C176.559 125.988 177.213 126.023 177.868 126.024" stroke="#263238" stroke-linecap="round" stroke-linejoin="round"/>
<path d="M163.956 110.172C163.241 111.251 162.793 112.485 162.648 113.772C162.132 118.424 165.78 122.824 171.292 124.86L171.012 127.36" stroke="#263238" stroke-linecap="round" stroke-linejoin="round"/>
<path d="M166.072 107.856C165.718 108.143 165.381 108.452 165.064 108.78" stroke="#263238" stroke-linecap="round" stroke-linejoin="round"/>
<path d="M186.488 107.856C184.003 106.153 181.13 105.102 178.132 104.8C174.964 104.412 171.75 104.884 168.828 106.168" stroke="#263238" stroke-linecap="round" stroke-linejoin="round"/>
<path d="M181.656 125.648C186.856 124.572 190.796 121.248 191.256 116.936C191.592 113.92 190.18 111.012 187.656 108.78" stroke="#263238" stroke-linecap="round" stroke-linejoin="round"/>
<path d="M168.832 110.948C169.272 111.03 169.724 111.024 170.162 110.931C170.6 110.838 171.016 110.659 171.384 110.404L173.328 111.912C173.192 111.956 173.204 111.668 173.348 111.66C173.492 111.652 173.6 111.784 173.7 111.888C174.156 112.372 174.924 112.388 175.576 112.248C176.228 112.108 176.864 111.848 177.528 111.872C177.923 111.913 178.311 112.003 178.684 112.14C181.356 112.968 184.136 113.384 186.904 113.792" stroke="#263238" stroke-linecap="round" stroke-linejoin="round"/>
<path d="M166.536 113.792C166.936 113.768 169.164 113.792 169.484 113.524L170.028 114.472L170.628 113.892C170.732 114.292 170.836 114.692 170.936 115.068C171.388 115.176 171.336 114.304 171.736 114.044C171.859 113.984 172 113.972 172.132 114.011C172.263 114.051 172.374 114.138 172.444 114.256C172.575 114.502 172.639 114.778 172.628 115.056L175.364 115.28L175.896 115.324C176.086 115.034 176.368 114.816 176.696 114.704C176.596 115.336 177.392 115.696 178.024 115.824C181.136 116.459 184.264 117.007 187.408 117.468" stroke="#263238" stroke-linecap="round" stroke-linejoin="round"/>
<path d="M167.752 118.136C168.004 118.312 168.312 117.984 168.62 117.944C168.928 117.904 169.18 118.136 169.452 118.276C169.724 118.416 170.172 118.356 170.188 118.052C170.252 118.452 170.748 118.596 171.152 118.652L181.656 120.128" stroke="#263238" stroke-linecap="round" stroke-linejoin="round"/>
<path d="M27.2002 104.472L31.4082 110.136L30.5642 102.724C31.5703 102.236 32.5325 101.661 33.4402 101.008C37.7522 97.8881 39.4882 92.8681 37.9082 88.8241C36.8002 86.0001 34.2042 84.0801 30.9242 83.2841" stroke="#263238" stroke-linecap="round" stroke-linejoin="round"/>
<path d="M10.5803 95.536C10.4492 96.8188 10.6246 98.1143 11.0923 99.316C12.7963 103.676 18.0683 105.876 23.8923 105.116" stroke="#263238" stroke-linecap="round" stroke-linejoin="round"/>
<path d="M11.376 92.5C11.1974 92.9199 11.0438 93.3499 10.916 93.788" stroke="#263238" stroke-linecap="round" stroke-linejoin="round"/>
<path d="M29.4562 83.012C26.4635 82.6543 23.4288 83.0559 20.6322 84.18C17.6474 85.3087 15.0219 87.2211 13.0322 89.716" stroke="#263238" stroke-linecap="round" stroke-linejoin="round"/>
<path d="M15.2559 93.952C16.1163 93.6837 16.8355 93.0854 17.2559 92.288L19.6559 92.72C19.5519 92.82 19.4319 92.56 19.5559 92.484C19.6799 92.408 19.8359 92.484 19.9559 92.524C20.5879 92.74 21.2719 92.4 21.7839 91.972C22.2959 91.544 22.7359 91.012 23.3399 90.732C23.7088 90.5846 24.0943 90.4825 24.4879 90.428C27.2399 89.924 29.8919 88.996 32.5359 88.072" stroke="#263238" stroke-linecap="round" stroke-linejoin="round"/>
<path d="M14.5439 97.54C14.8999 97.328 16.8719 96.316 17.0319 95.94L17.9559 96.528C18.0439 96.264 18.1319 95.996 18.2159 95.728L19.0359 96.628C19.4879 96.516 19.0359 95.768 19.2519 95.36C19.3324 95.2493 19.4519 95.1732 19.5863 95.1472C19.7207 95.1212 19.86 95.1473 19.9759 95.22C20.2044 95.3733 20.388 95.5845 20.5079 95.832L23.0319 94.76L23.5279 94.552C23.5564 94.2085 23.6969 93.8839 23.9279 93.628C24.1359 94.24 25.0079 94.184 25.6239 94.004C28.6773 93.124 31.7026 92.156 34.6999 91.1" stroke="#263238" stroke-linecap="round" stroke-linejoin="round"/>
<path d="M17.6406 100.82C17.9486 100.86 18.0686 100.42 18.3206 100.244C18.5726 100.068 18.9086 100.16 19.2126 100.152C19.5166 100.144 19.8886 99.892 19.7606 99.616C20.0046 99.94 20.5126 99.836 20.8926 99.7L30.8926 96.12" stroke="#263238" stroke-linecap="round" stroke-linejoin="round"/>
<path d="M149.172 35.848H49.4359C47.4941 35.848 45.9199 37.4222 45.9199 39.364V129.212C45.9199 131.154 47.4941 132.728 49.4359 132.728H149.172C151.114 132.728 152.688 131.154 152.688 129.212V39.364C152.688 37.4222 151.114 35.848 149.172 35.848Z" fill="white"/>
<path opacity="0.2" d="M152.688 88.916V129.316C152.688 130.22 152.329 131.087 151.69 131.727C151.051 132.367 150.184 132.727 149.28 132.728H49.3319C48.427 132.728 47.5591 132.368 46.9193 131.729C46.2794 131.089 45.9199 130.221 45.9199 129.316V121.316H46.1319V126.708C46.1319 127.22 46.2329 127.728 46.4292 128.201C46.6254 128.675 46.913 129.105 47.2756 129.467C47.6382 129.829 48.0686 130.116 48.5422 130.312C49.0159 130.508 49.5234 130.608 50.0359 130.608H146.592C147.104 130.608 147.612 130.508 148.086 130.312C148.559 130.116 148.99 129.829 149.352 129.467C149.715 129.105 150.002 128.675 150.199 128.201C150.395 127.728 150.496 127.22 150.496 126.708V94.908C150.496 94.1876 150.21 93.4968 149.7 92.9875C149.191 92.4781 148.5 92.192 147.78 92.192H45.9199V88.916H152.688Z" fill="black"/>
<path d="M149.172 35.848H49.4359C47.4941 35.848 45.9199 37.4222 45.9199 39.364V129.212C45.9199 131.154 47.4941 132.728 49.4359 132.728H149.172C151.114 132.728 152.688 131.154 152.688 129.212V39.364C152.688 37.4222 151.114 35.848 149.172 35.848Z" stroke="#263238" stroke-linecap="round" stroke-linejoin="round"/>
<path d="M143.392 100.42V95.792C143.393 95.567 143.349 95.3441 143.263 95.1362C143.177 94.9282 143.051 94.7393 142.892 94.5802C142.733 94.4211 142.544 94.2951 142.336 94.2092C142.128 94.1234 141.905 94.0794 141.68 94.08H56.9281C56.474 94.08 56.0386 94.2603 55.7175 94.5814C55.3965 94.9025 55.2161 95.3379 55.2161 95.792V100.42C55.2161 100.874 55.0357 101.309 54.7147 101.631C54.3936 101.952 53.9581 102.132 53.5041 102.132C53.049 102.132 52.6125 102.313 52.2907 102.635C51.9689 102.956 51.7881 103.393 51.7881 103.848V112.98C51.7881 115.086 52.6246 117.105 54.1137 118.594C55.6027 120.083 57.6223 120.92 59.7281 120.92C60.0665 120.92 60.3911 121.054 60.6304 121.294C60.8696 121.533 61.0041 121.858 61.0041 122.196V124.932C61.0041 125.942 61.4053 126.911 62.1194 127.625C62.8336 128.339 63.8021 128.74 64.8121 128.74H133.796C134.806 128.74 135.775 128.339 136.489 127.625C137.203 126.911 137.604 125.942 137.604 124.932V122.196C137.604 121.858 137.739 121.533 137.978 121.294C138.217 121.054 138.542 120.92 138.88 120.92C139.923 120.92 140.955 120.715 141.919 120.316C142.882 119.917 143.757 119.332 144.495 118.594C145.232 117.857 145.817 116.982 146.216 116.018C146.615 115.055 146.82 114.023 146.82 112.98V103.848C146.82 103.394 146.64 102.958 146.319 102.636C145.998 102.314 145.563 102.133 145.108 102.132C144.654 102.132 144.218 101.952 143.896 101.631C143.574 101.31 143.393 100.874 143.392 100.42Z" fill="#263238"/>
<path d="M61.708 96.7H58.744C58.3812 96.7 58.0332 96.8441 57.7767 97.1007C57.5201 97.3572 57.376 97.7052 57.376 98.068V98.828C57.376 100.404 58.652 102.404 60.228 102.404C61.804 102.404 63.08 100.404 63.08 98.828V98.068C63.0789 97.7048 62.9339 97.3569 62.6767 97.1004C62.4195 96.844 62.0712 96.7 61.708 96.7Z" fill="white" stroke="#263238" stroke-linecap="round" stroke-linejoin="round"/>
<path d="M68.7999 96.7H65.8359C65.4727 96.7 65.1243 96.844 64.8671 97.1004C64.6099 97.3569 64.4649 97.7048 64.4639 98.068V98.828C64.4639 100.404 65.7399 102.404 67.3159 102.404C68.8919 102.404 70.1679 100.404 70.1679 98.828V98.068C70.1679 97.7052 70.0237 97.3572 69.7672 97.1007C69.5106 96.8441 69.1627 96.7 68.7999 96.7Z" fill="white" stroke="#263238" stroke-linecap="round" stroke-linejoin="round"/>
<path d="M75.9209 96.7H72.9569C72.594 96.7 72.2461 96.8441 71.9895 97.1007C71.733 97.3572 71.5889 97.7052 71.5889 98.068V98.828C71.5889 100.404 72.8649 102.404 74.4369 102.404C76.0089 102.404 77.2889 100.404 77.2889 98.828V98.068C77.2889 97.7052 77.1447 97.3572 76.8882 97.1007C76.6316 96.8441 76.2837 96.7 75.9209 96.7Z" fill="white" stroke="#263238" stroke-linecap="round" stroke-linejoin="round"/>
<path d="M83.0244 96.7H80.0604C79.6976 96.7 79.3496 96.8441 79.0931 97.1007C78.8365 97.3572 78.6924 97.7052 78.6924 98.068V98.828C78.6924 100.404 79.9684 102.404 81.5444 102.404C83.1204 102.404 84.3924 100.404 84.3924 98.828V98.068C84.3924 97.8884 84.357 97.7105 84.2882 97.5445C84.2195 97.3785 84.1187 97.2277 83.9917 97.1007C83.8647 96.9737 83.7139 96.8729 83.5479 96.8041C83.3819 96.7354 83.204 96.7 83.0244 96.7Z" fill="white" stroke="#263238" stroke-linecap="round" stroke-linejoin="round"/>
<path d="M90.1279 96.7H87.1639C86.8011 96.7 86.4531 96.8441 86.1966 97.1007C85.94 97.3572 85.7959 97.7052 85.7959 98.068V98.828C85.7959 100.404 87.0719 102.404 88.6479 102.404C90.2239 102.404 91.4999 100.404 91.4999 98.828V98.068C91.4988 97.7048 91.3538 97.3569 91.0966 97.1004C90.8394 96.844 90.4911 96.7 90.1279 96.7Z" fill="white" stroke="#263238" stroke-linecap="round" stroke-linejoin="round"/>
<path d="M97.2364 96.7H94.2724C93.9092 96.7 93.5608 96.844 93.3037 97.1004C93.0465 97.3569 92.9014 97.7048 92.9004 98.068V98.828C92.9004 100.404 94.1764 102.404 95.7524 102.404C97.3284 102.404 98.6044 100.404 98.6044 98.828V98.068C98.6044 97.7052 98.4603 97.3572 98.2037 97.1007C97.9472 96.8441 97.5992 96.7 97.2364 96.7Z" fill="white" stroke="#263238" stroke-linecap="round" stroke-linejoin="round"/>
<path d="M104.34 96.7H101.376C101.013 96.7 100.665 96.8441 100.408 97.1007C100.152 97.3572 100.008 97.7052 100.008 98.068V98.828C100.008 100.404 101.284 102.404 102.856 102.404C104.428 102.404 105.708 100.404 105.708 98.828V98.068C105.708 97.7052 105.564 97.3572 105.307 97.1007C105.051 96.8441 104.703 96.7 104.34 96.7Z" fill="white" stroke="#263238" stroke-linecap="round" stroke-linejoin="round"/>
<path d="M111.444 96.7H108.48C108.117 96.7 107.77 96.8441 107.513 97.1007C107.256 97.3572 107.112 97.7052 107.112 98.068V98.828C107.112 100.404 108.388 102.404 109.964 102.404C111.54 102.404 112.812 100.404 112.812 98.828V98.068C112.812 97.7052 112.668 97.3572 112.412 97.1007C112.155 96.8441 111.807 96.7 111.444 96.7Z" fill="white" stroke="#263238" stroke-linecap="round" stroke-linejoin="round"/>
<path d="M118.548 96.7H115.6C115.421 96.7 115.243 96.7354 115.077 96.8041C114.911 96.8729 114.76 96.9736 114.633 97.1007C114.506 97.2277 114.405 97.3785 114.337 97.5445C114.268 97.7104 114.232 97.8883 114.232 98.068V98.828C114.232 100.404 115.508 102.404 117.084 102.404C118.66 102.404 119.936 100.404 119.936 98.828V98.068C119.936 97.8868 119.9 97.7075 119.829 97.5404C119.759 97.3734 119.657 97.2219 119.528 97.0947C119.398 96.9675 119.246 96.8672 119.077 96.7994C118.909 96.7317 118.73 96.6979 118.548 96.7Z" fill="white" stroke="#263238" stroke-linecap="round" stroke-linejoin="round"/>
<path d="M125.656 96.7H122.692C122.329 96.7 121.981 96.844 121.724 97.1004C121.466 97.3569 121.321 97.7048 121.32 98.068V98.828C121.32 100.404 122.596 102.404 124.172 102.404C125.748 102.404 127.024 100.404 127.024 98.828V98.068C127.024 97.7052 126.88 97.3572 126.624 97.1007C126.367 96.8441 126.019 96.7 125.656 96.7Z" fill="white" stroke="#263238" stroke-linecap="round" stroke-linejoin="round"/>
<path d="M132.761 96.7H129.797C129.434 96.7 129.086 96.8441 128.829 97.1007C128.573 97.3572 128.429 97.7052 128.429 98.068V98.828C128.429 100.404 129.705 102.404 131.277 102.404C132.849 102.404 134.129 100.404 134.129 98.828V98.068C134.129 97.7052 133.985 97.3572 133.728 97.1007C133.471 96.8441 133.124 96.7 132.761 96.7Z" fill="white" stroke="#263238" stroke-linecap="round" stroke-linejoin="round"/>
<path d="M139.864 96.7H136.9C136.537 96.7 136.189 96.8441 135.933 97.1007C135.676 97.3572 135.532 97.7052 135.532 98.068V98.828C135.532 100.4 136.8 102.4 138.4 102.4C140 102.4 141.248 100.4 141.248 98.824V98.064C141.248 97.8833 141.211 97.7045 141.141 97.538C141.071 97.3714 140.969 97.2204 140.84 97.0936C140.712 96.9667 140.559 96.8667 140.392 96.7991C140.224 96.7316 140.045 96.6979 139.864 96.7Z" fill="white" stroke="#263238" stroke-linecap="round" stroke-linejoin="round"/>
<path d="M61.708 111.756H58.744C58.3812 111.756 58.0332 111.9 57.7767 112.157C57.5201 112.413 57.376 112.761 57.376 113.124V113.884C57.376 115.46 58.652 117.46 60.228 117.46C61.804 117.46 63.08 115.46 63.08 113.884V113.124C63.0789 112.761 62.9339 112.413 62.6767 112.156C62.4195 111.9 62.0712 111.756 61.708 111.756Z" fill="white" stroke="#263238" stroke-linecap="round" stroke-linejoin="round"/>
<path d="M68.7999 111.756H65.8359C65.4727 111.756 65.1243 111.9 64.8671 112.156C64.6099 112.413 64.4649 112.761 64.4639 113.124V113.884C64.4639 115.46 65.7399 117.46 67.3159 117.46C68.8919 117.46 70.1679 115.46 70.1679 113.884V113.124C70.1679 112.761 70.0237 112.413 69.7672 112.157C69.5106 111.9 69.1627 111.756 68.7999 111.756Z" fill="white" stroke="#263238" stroke-linecap="round" stroke-linejoin="round"/>
<path d="M75.9209 111.756H72.9569C72.594 111.756 72.2461 111.9 71.9895 112.157C71.733 112.413 71.5889 112.761 71.5889 113.124V113.884C71.5889 115.46 72.8649 117.46 74.4369 117.46C76.0089 117.46 77.2889 115.46 77.2889 113.884V113.124C77.2889 112.761 77.1447 112.413 76.8882 112.157C76.6316 111.9 76.2837 111.756 75.9209 111.756Z" fill="white" stroke="#263238" stroke-linecap="round" stroke-linejoin="round"/>
<path d="M83.0244 111.756H80.0604C79.6976 111.756 79.3496 111.9 79.0931 112.157C78.8365 112.413 78.6924 112.761 78.6924 113.124V113.884C78.6924 115.46 79.9684 117.46 81.5444 117.46C83.1204 117.46 84.3924 115.46 84.3924 113.884V113.124C84.3924 112.944 84.357 112.766 84.2882 112.6C84.2195 112.434 84.1187 112.284 83.9917 112.157C83.8647 112.03 83.7139 111.929 83.5479 111.86C83.3819 111.791 83.204 111.756 83.0244 111.756Z" fill="white" stroke="#263238" stroke-linecap="round" stroke-linejoin="round"/>
<path d="M90.1279 111.756H87.1639C86.8011 111.756 86.4531 111.9 86.1966 112.157C85.94 112.413 85.7959 112.761 85.7959 113.124V113.884C85.7959 115.46 87.0719 117.46 88.6479 117.46C90.2239 117.46 91.4999 115.46 91.4999 113.884V113.124C91.4988 112.761 91.3538 112.413 91.0966 112.156C90.8394 111.9 90.4911 111.756 90.1279 111.756Z" fill="white" stroke="#263238" stroke-linecap="round" stroke-linejoin="round"/>
<path d="M97.2364 111.756H94.2724C93.9092 111.756 93.5608 111.9 93.3037 112.156C93.0465 112.413 92.9014 112.761 92.9004 113.124V113.884C92.9004 115.46 94.1764 117.46 95.7524 117.46C97.3284 117.46 98.6044 115.46 98.6044 113.884V113.124C98.6044 112.761 98.4603 112.413 98.2037 112.157C97.9472 111.9 97.5992 111.756 97.2364 111.756Z" fill="white" stroke="#263238" stroke-linecap="round" stroke-linejoin="round"/>
<path d="M104.34 111.756H101.376C101.013 111.756 100.665 111.9 100.408 112.157C100.152 112.413 100.008 112.761 100.008 113.124V113.884C100.008 115.46 101.284 117.46 102.856 117.46C104.428 117.46 105.708 115.46 105.708 113.884V113.124C105.708 112.761 105.564 112.413 105.307 112.157C105.051 111.9 104.703 111.756 104.34 111.756Z" fill="white" stroke="#263238" stroke-linecap="round" stroke-linejoin="round"/>
<path d="M111.444 111.756H108.48C108.117 111.756 107.77 111.9 107.513 112.157C107.256 112.413 107.112 112.761 107.112 113.124V113.884C107.112 115.46 108.388 117.46 109.964 117.46C111.54 117.46 112.812 115.46 112.812 113.884V113.124C112.812 112.761 112.668 112.413 112.412 112.157C112.155 111.9 111.807 111.756 111.444 111.756Z" fill="white" stroke="#263238" stroke-linecap="round" stroke-linejoin="round"/>
<path d="M118.548 111.756H115.6C115.421 111.756 115.243 111.791 115.077 111.86C114.911 111.929 114.76 112.03 114.633 112.157C114.506 112.284 114.405 112.435 114.337 112.6C114.268 112.766 114.232 112.944 114.232 113.124V113.884C114.232 115.46 115.508 117.46 117.084 117.46C118.66 117.46 119.936 115.46 119.936 113.884V113.124C119.936 112.943 119.9 112.764 119.829 112.596C119.759 112.429 119.657 112.278 119.528 112.151C119.398 112.024 119.246 111.923 119.077 111.855C118.909 111.788 118.73 111.754 118.548 111.756Z" fill="white" stroke="#263238" stroke-linecap="round" stroke-linejoin="round"/>
<path d="M125.656 111.756H122.692C122.329 111.756 121.981 111.9 121.724 112.156C121.466 112.413 121.321 112.761 121.32 113.124V113.884C121.32 115.46 122.596 117.46 124.172 117.46C125.748 117.46 127.024 115.46 127.024 113.884V113.124C127.024 112.761 126.88 112.413 126.624 112.157C126.367 111.9 126.019 111.756 125.656 111.756Z" fill="white" stroke="#263238" stroke-linecap="round" stroke-linejoin="round"/>
<path d="M132.761 111.756H129.797C129.434 111.756 129.086 111.9 128.829 112.157C128.573 112.413 128.429 112.761 128.429 113.124V113.884C128.429 115.46 129.705 117.46 131.277 117.46C132.849 117.46 134.129 115.46 134.129 113.884V113.124C134.129 112.761 133.985 112.413 133.728 112.157C133.471 111.9 133.124 111.756 132.761 111.756Z" fill="white" stroke="#263238" stroke-linecap="round" stroke-linejoin="round"/>
<path d="M139.864 111.756H136.9C136.537 111.756 136.189 111.9 135.933 112.157C135.676 112.413 135.532 112.761 135.532 113.124V113.884C135.532 115.46 136.808 117.46 138.384 117.46C139.96 117.46 141.232 115.46 141.232 113.884V113.124C141.232 112.761 141.088 112.413 140.832 112.157C140.575 111.9 140.227 111.756 139.864 111.756Z" fill="white" stroke="#263238" stroke-linecap="round" stroke-linejoin="round"/>
<path d="M58.156 104.472H55.2C54.8372 104.472 54.4893 104.616 54.2327 104.873C53.9762 105.129 53.832 105.477 53.832 105.84V106.6C53.832 108.172 55.108 110.176 56.684 110.176C58.26 110.176 59.532 108.176 59.532 106.6V105.84C59.532 105.66 59.4964 105.481 59.4271 105.315C59.3579 105.148 59.2564 104.997 59.1285 104.87C59.0006 104.743 58.8489 104.642 58.682 104.574C58.5151 104.506 58.3363 104.471 58.156 104.472Z" fill="white" stroke="#263238" stroke-linecap="round" stroke-linejoin="round"/>
<path d="M65.2607 104.472H62.2967C61.9339 104.472 61.5859 104.616 61.3294 104.873C61.0728 105.129 60.9287 105.477 60.9287 105.84V106.6C60.9287 108.172 62.2047 110.176 63.7807 110.176C65.3567 110.176 66.6327 108.176 66.6327 106.6V105.84C66.6317 105.477 66.4866 105.129 66.2295 104.872C65.9723 104.616 65.6239 104.472 65.2607 104.472Z" fill="white" stroke="#263238" stroke-linecap="round" stroke-linejoin="round"/>
<path d="M72.3682 104.472H69.4042C69.041 104.472 68.6927 104.616 68.4355 104.872C68.1783 105.129 68.0333 105.477 68.0322 105.84V106.6C68.0322 108.172 69.3122 110.176 70.8842 110.176C72.4562 110.176 73.7362 108.176 73.7362 106.6V105.84C73.7362 105.477 73.5921 105.129 73.3356 104.873C73.079 104.616 72.731 104.472 72.3682 104.472Z" fill="white" stroke="#263238" stroke-linecap="round" stroke-linejoin="round"/>
<path d="M79.4726 104.472H76.5086C76.1458 104.472 75.7979 104.616 75.5413 104.873C75.2848 105.129 75.1406 105.477 75.1406 105.84V106.6C75.1406 108.172 76.4166 110.176 77.9886 110.176C79.5606 110.176 80.8406 108.176 80.8406 106.6V105.84C80.8406 105.66 80.8052 105.482 80.7365 105.316C80.6677 105.151 80.567 105 80.4399 104.873C80.3129 104.746 80.1621 104.645 79.9961 104.576C79.8302 104.507 79.6523 104.472 79.4726 104.472Z" fill="white" stroke="#263238" stroke-linecap="round" stroke-linejoin="round"/>
<path d="M86.5764 104.472H83.6004C83.2376 104.472 82.8896 104.616 82.6331 104.873C82.3765 105.129 82.2324 105.477 82.2324 105.84V106.6C82.2324 108.172 83.5084 110.176 85.0844 110.176C86.6604 110.176 87.9324 108.176 87.9324 106.6V105.84C87.9324 105.479 87.7899 105.133 87.536 104.877C87.282 104.621 86.9372 104.475 86.5764 104.472Z" fill="white" stroke="#263238" stroke-linecap="round" stroke-linejoin="round"/>
<path d="M93.6797 104.472H90.7157C90.3528 104.472 90.0049 104.616 89.7483 104.873C89.4918 105.129 89.3477 105.477 89.3477 105.84V106.6C89.3477 108.172 90.6237 110.176 92.1997 110.176C93.7757 110.176 95.0517 108.176 95.0517 106.6V105.84C95.0506 105.477 94.9056 105.129 94.6484 104.872C94.3912 104.616 94.0428 104.472 93.6797 104.472Z" fill="white" stroke="#263238" stroke-linecap="round" stroke-linejoin="round"/>
<path d="M100.8 104.472H97.8359C97.4727 104.472 97.1243 104.616 96.8671 104.872C96.6099 105.129 96.4649 105.477 96.4639 105.84V106.6C96.4639 108.172 97.7439 110.176 99.3159 110.176C100.888 110.176 102.168 108.176 102.168 106.6V105.84C102.168 105.477 102.024 105.129 101.767 104.873C101.511 104.616 101.163 104.472 100.8 104.472Z" fill="white" stroke="#263238" stroke-linecap="round" stroke-linejoin="round"/>
<path d="M107.893 104.472H104.929C104.566 104.472 104.218 104.616 103.961 104.873C103.705 105.129 103.561 105.477 103.561 105.84V106.6C103.561 108.172 104.837 110.176 106.409 110.176C107.981 110.176 109.261 108.176 109.261 106.6V105.84C109.261 105.477 109.116 105.129 108.86 104.873C108.603 104.616 108.255 104.472 107.893 104.472Z" fill="white" stroke="#263238" stroke-linecap="round" stroke-linejoin="round"/>
<path d="M114.996 104.472H112.032C111.669 104.472 111.321 104.616 111.065 104.873C110.808 105.129 110.664 105.477 110.664 105.84V106.6C110.664 108.172 111.94 110.176 113.516 110.176C115.092 110.176 116.364 108.176 116.364 106.6V105.84C116.364 105.477 116.22 105.129 115.963 104.873C115.707 104.616 115.359 104.472 114.996 104.472Z" fill="white" stroke="#263238" stroke-linecap="round" stroke-linejoin="round"/>
<path d="M122.101 104.472H119.137C118.774 104.472 118.426 104.616 118.169 104.873C117.913 105.129 117.769 105.477 117.769 105.84V106.6C117.769 108.172 119.045 110.176 120.621 110.176C122.197 110.176 123.473 108.176 123.473 106.6V105.84C123.472 105.477 123.326 105.129 123.069 104.872C122.812 104.616 122.464 104.472 122.101 104.472Z" fill="white" stroke="#263238" stroke-linecap="round" stroke-linejoin="round"/>
<path d="M129.2 104.472H126.236C125.873 104.472 125.525 104.616 125.268 104.872C125.01 105.129 124.865 105.477 124.864 105.84V106.6C124.864 108.172 126.144 110.176 127.716 110.176C129.288 110.176 130.568 108.176 130.568 106.6V105.84C130.568 105.477 130.424 105.129 130.168 104.873C129.911 104.616 129.563 104.472 129.2 104.472Z" fill="white" stroke="#263238" stroke-linecap="round" stroke-linejoin="round"/>
<path d="M136.312 104.472H133.348C132.989 104.477 132.646 104.624 132.394 104.88C132.141 105.136 132 105.481 132 105.84V106.6C132 108.172 133.276 110.176 134.848 110.176C136.42 110.176 137.7 108.176 137.7 106.6V105.84C137.7 105.659 137.664 105.479 137.594 105.312C137.524 105.145 137.421 104.993 137.292 104.866C137.163 104.738 137.01 104.638 136.842 104.57C136.673 104.503 136.493 104.469 136.312 104.472Z" fill="white" stroke="#263238" stroke-linecap="round" stroke-linejoin="round"/>
<path d="M143.416 104.472H140.452C140.089 104.472 139.741 104.616 139.485 104.873C139.228 105.129 139.084 105.477 139.084 105.84V106.6C139.084 108.172 140.36 110.176 141.936 110.176C143.512 110.176 144.784 108.176 144.784 106.6V105.84C144.784 105.477 144.64 105.129 144.383 104.873C144.127 104.616 143.779 104.472 143.416 104.472Z" fill="white" stroke="#263238" stroke-linecap="round" stroke-linejoin="round"/>
<path d="M126.441 119.34H72.1688C71.4596 119.34 70.8848 119.915 70.8848 120.624V124.52C70.8848 125.229 71.4596 125.804 72.1688 125.804H126.441C127.15 125.804 127.725 125.229 127.725 124.52V120.624C127.725 119.915 127.15 119.34 126.441 119.34Z" fill="white" stroke="#263238" stroke-linecap="round" stroke-linejoin="round"/>
<path d="M133.708 119.72H130.744C130.381 119.72 130.033 119.864 129.777 120.121C129.52 120.377 129.376 120.725 129.376 121.088V121.848C129.376 123.424 130.652 125.424 132.228 125.424C133.804 125.424 135.076 123.424 135.076 121.848V121.088C135.076 120.725 134.932 120.377 134.675 120.121C134.419 119.864 134.071 119.72 133.708 119.72Z" fill="white" stroke="#263238" stroke-linecap="round" stroke-linejoin="round"/>
<path d="M67.8642 119.72H64.9002C64.5374 119.72 64.1895 119.864 63.9329 120.121C63.6764 120.377 63.5322 120.725 63.5322 121.088V121.848C63.5322 123.424 64.8082 125.424 66.3842 125.424C67.9602 125.424 69.2362 123.424 69.2362 121.848V121.088C69.2352 120.725 69.0902 120.377 68.833 120.12C68.5758 119.864 68.2274 119.72 67.8642 119.72Z" fill="white" stroke="#263238" stroke-linecap="round" stroke-linejoin="round"/>
<path opacity="0.2" d="M61.8724 98.872C62.016 98.8727 62.1592 98.886 62.3004 98.912C62.3004 98.884 62.3004 98.856 62.3004 98.828V98.068C62.2994 97.9106 62.2361 97.7601 62.1245 97.6492C62.0128 97.5382 61.8618 97.476 61.7044 97.476H58.7404C58.5838 97.4771 58.4338 97.5398 58.323 97.6506C58.2122 97.7614 58.1495 97.9113 58.1484 98.068V98.828C58.1484 99.92 58.9484 101.296 59.8924 101.572C59.6004 100.36 60.2564 98.872 61.8724 98.872Z" fill="black"/>
<path opacity="0.2" d="M69.1359 98.668C69.2264 98.6619 69.3173 98.6619 69.4079 98.668V98.052C69.4068 97.8953 69.3441 97.7454 69.2333 97.6346C69.1225 97.5238 68.9725 97.4611 68.8159 97.46H65.8519C65.6945 97.46 65.5435 97.5223 65.4318 97.6332C65.3202 97.7441 65.2569 97.8947 65.2559 98.052V98.812C65.2559 100.012 66.2039 101.512 67.2559 101.612C66.7719 100.372 67.4079 98.668 69.1359 98.668Z" fill="black"/>
<path opacity="0.2" d="M76.4524 98.564H76.5124V98.064C76.5124 97.907 76.45 97.7564 76.339 97.6454C76.2279 97.5344 76.0774 97.472 75.9204 97.472H72.9564C72.799 97.472 72.648 97.5342 72.5363 97.6451C72.4247 97.756 72.3614 97.9066 72.3604 98.064V98.824C72.3604 100.044 73.3684 101.624 74.4364 101.624C74.4883 101.628 74.5404 101.628 74.5924 101.624C74.0564 100.36 74.6764 98.564 76.4524 98.564Z" fill="black"/>
<path opacity="0.2" d="M83.1041 98.36C83.2704 98.3552 83.4368 98.3686 83.6001 98.4V98.052C83.6001 97.895 83.5378 97.7444 83.4267 97.6334C83.3157 97.5224 83.1652 97.46 83.0081 97.46H80.0441C79.8871 97.46 79.7366 97.5224 79.6255 97.6334C79.5145 97.7444 79.4521 97.895 79.4521 98.052V98.812C79.4521 99.956 80.3321 101.412 81.3241 101.612C80.6441 100.356 81.2321 98.36 83.1041 98.36Z" fill="black"/>
<path opacity="0.2" d="M90.5723 98.36H90.7243V98.06C90.7232 97.9026 90.6599 97.7521 90.5483 97.6412C90.4366 97.5303 90.2856 97.468 90.1283 97.468H87.1643C87.0076 97.4691 86.8576 97.5318 86.7468 97.6426C86.636 97.7534 86.5733 97.9033 86.5723 98.06V98.82C86.5723 100.04 87.5803 101.62 88.6483 101.62C88.7029 101.624 88.7577 101.624 88.8123 101.62C88.1123 100.36 88.7003 98.36 90.5723 98.36Z" fill="black"/>
<path opacity="0.2" d="M97.7367 98.4H97.8288V98.052C97.8277 97.8953 97.765 97.7454 97.6542 97.6346C97.5434 97.5238 97.3934 97.4611 97.2367 97.46H94.2728C94.1154 97.46 93.9644 97.5223 93.8527 97.6332C93.7411 97.7441 93.6778 97.8947 93.6768 98.052V98.812C93.6768 100.032 94.6848 101.612 95.7528 101.612C95.818 101.618 95.8835 101.618 95.9487 101.612C95.2928 100.352 95.8888 98.4 97.7367 98.4Z" fill="black"/>
<path opacity="0.2" d="M104.592 98.36C104.706 98.3616 104.819 98.3696 104.932 98.384V98.068C104.932 97.911 104.87 97.7604 104.759 97.6494C104.648 97.5384 104.497 97.476 104.34 97.476H101.376C101.219 97.476 101.069 97.5384 100.958 97.6494C100.847 97.7604 100.784 97.911 100.784 98.068V98.828C100.784 100.028 101.776 101.604 102.836 101.628C102.128 100.372 102.712 98.36 104.592 98.36Z" fill="black"/>
<path opacity="0.2" d="M112.036 98.464V98.064C112.036 97.907 111.973 97.7564 111.862 97.6454C111.751 97.5344 111.601 97.472 111.444 97.472H108.48C108.323 97.472 108.172 97.5344 108.061 97.6454C107.95 97.7564 107.888 97.907 107.888 98.064V98.824C107.888 100.044 108.892 101.624 109.964 101.624C110.071 101.622 110.178 101.605 110.28 101.572C109.704 100.34 110.292 98.52 112.036 98.464Z" fill="black"/>
<path opacity="0.2" d="M118.56 98.308C118.757 98.3076 118.953 98.3331 119.144 98.384V98.068C119.143 97.9106 119.08 97.7601 118.968 97.6492C118.856 97.5382 118.705 97.476 118.548 97.476H115.6C115.443 97.4771 115.293 97.5398 115.182 97.6506C115.072 97.7614 115.009 97.9113 115.008 98.068V98.828C115.008 99.956 115.864 101.38 116.836 101.596C116.088 100.344 116.668 98.308 118.56 98.308Z" fill="black"/>
<path opacity="0.2" d="M125.825 98.308C125.967 98.3085 126.109 98.3219 126.249 98.348V98.068C126.248 97.9113 126.185 97.7614 126.074 97.6506C125.963 97.5398 125.813 97.4771 125.657 97.476H122.693C122.535 97.476 122.384 97.5382 122.273 97.6492C122.161 97.7601 122.098 97.9106 122.097 98.068V98.828C122.097 100.028 123.057 101.552 124.097 101.628C123.345 100.372 123.921 98.308 125.825 98.308Z" fill="black"/>
<path opacity="0.2" d="M133.04 98.512C133.144 98.5137 133.249 98.5217 133.352 98.536V98.068C133.352 97.911 133.29 97.7604 133.179 97.6494C133.068 97.5384 132.917 97.476 132.76 97.476H129.796C129.718 97.476 129.641 97.4913 129.57 97.5211C129.498 97.5508 129.432 97.5944 129.377 97.6494C129.323 97.7044 129.279 97.7696 129.249 97.8415C129.219 97.9133 129.204 97.9903 129.204 98.068V98.828C129.204 100.028 130.164 101.548 131.204 101.628C130.624 100.364 131.236 98.512 133.04 98.512Z" fill="black"/>
<path opacity="0.2" d="M140.457 98.42V98.068C140.457 97.911 140.394 97.7604 140.283 97.6494C140.172 97.5384 140.022 97.476 139.865 97.476H136.901C136.744 97.476 136.593 97.5384 136.482 97.6494C136.371 97.7604 136.309 97.911 136.309 98.068V98.828C136.309 100.048 137.313 101.628 138.385 101.628C138.539 101.626 138.691 101.593 138.833 101.532C138.265 100.324 138.801 98.556 140.457 98.42Z" fill="black"/>
<path opacity="0.2" d="M62.0763 113.2C62.1523 113.196 62.2284 113.196 62.3043 113.2V113.116C62.3033 112.959 62.24 112.808 62.1284 112.697C62.0167 112.586 61.8657 112.524 61.7083 112.524H58.7443C58.5877 112.525 58.4377 112.588 58.3269 112.699C58.2161 112.809 58.1534 112.959 58.1523 113.116V113.876C58.1523 115.096 59.1603 116.676 60.2283 116.676C60.3022 116.674 60.3758 116.666 60.4483 116.652C59.5523 115.436 60.0963 113.2 62.0763 113.2Z" fill="black"/>
<path opacity="0.2" d="M69.0359 113.2C69.1605 113.2 69.285 113.211 69.4079 113.232V113.128C69.4068 112.971 69.3441 112.821 69.2333 112.711C69.1225 112.6 68.9725 112.537 68.8159 112.536H65.8519C65.6945 112.536 65.5435 112.598 65.4318 112.709C65.3202 112.82 65.2569 112.971 65.2559 113.128V113.888C65.2559 115.108 66.2639 116.688 67.3319 116.688H67.4199C66.5039 115.456 67.0439 113.2 69.0359 113.2Z" fill="black"/>
<path opacity="0.2" d="M76.0967 113.3C76.2309 113.3 76.3647 113.312 76.4967 113.336V113.124C76.4967 113.046 76.4814 112.969 76.4517 112.897C76.4219 112.826 76.3783 112.76 76.3233 112.705C76.2684 112.65 76.2031 112.607 76.1313 112.577C76.0595 112.547 75.9825 112.532 75.9047 112.532H72.9407C72.7834 112.532 72.6324 112.594 72.5207 112.705C72.409 112.816 72.3458 112.967 72.3447 113.124V113.884C72.3447 115.084 73.3367 116.656 74.3967 116.684C73.6007 115.44 74.1567 113.3 76.0967 113.3Z" fill="black"/>
<path opacity="0.2" d="M83.3078 113.352C83.4108 113.352 83.5136 113.359 83.6158 113.372V113.124C83.6158 113.046 83.6005 112.969 83.5707 112.897C83.541 112.826 83.4974 112.76 83.4424 112.705C83.3874 112.65 83.3222 112.607 83.2503 112.577C83.1785 112.547 83.1015 112.532 83.0238 112.532H80.0598C79.982 112.532 79.9051 112.547 79.8332 112.577C79.7614 112.607 79.6961 112.65 79.6412 112.705C79.5862 112.76 79.5426 112.826 79.5128 112.897C79.4831 112.969 79.4678 113.046 79.4678 113.124V113.884C79.4678 115.104 80.4718 116.684 81.5438 116.684H81.5918C80.8238 115.432 81.3958 113.352 83.3078 113.352Z" fill="black"/>
<path opacity="0.2" d="M90.2683 113.2C90.4213 113.2 90.574 113.215 90.7243 113.244V113.128C90.7232 112.971 90.6599 112.82 90.5483 112.709C90.4366 112.598 90.2856 112.536 90.1283 112.536H87.1643C87.0076 112.537 86.8576 112.6 86.7468 112.711C86.636 112.821 86.5733 112.971 86.5723 113.128V113.888C86.5723 115.108 87.5803 116.688 88.6483 116.688C87.7363 115.464 88.2723 113.2 90.2683 113.2Z" fill="black"/>
<path opacity="0.2" d="M97.4807 113.248C97.5973 113.249 97.7136 113.258 97.8288 113.276V113.124C97.8277 112.967 97.765 112.817 97.6542 112.707C97.5434 112.596 97.3934 112.533 97.2367 112.532H94.2728C94.1154 112.532 93.9644 112.594 93.8527 112.705C93.7411 112.816 93.6778 112.967 93.6768 113.124V113.884C93.6768 115.104 94.6848 116.684 95.7528 116.684H95.8288C94.9648 115.444 95.5168 113.248 97.4807 113.248Z" fill="black"/>
<path opacity="0.2" d="M104.848 113.4H104.932V113.12C104.932 112.963 104.87 112.812 104.759 112.701C104.648 112.59 104.497 112.528 104.34 112.528H101.376C101.219 112.528 101.069 112.59 100.958 112.701C100.847 112.812 100.784 112.963 100.784 113.12V113.88C100.784 115.1 101.788 116.68 102.856 116.68C102.934 116.679 103.012 116.669 103.088 116.652C102.4 115.404 102.972 113.4 104.848 113.4Z" fill="black"/>
<path opacity="0.2" d="M112 113.248H112.024V113.124C112.024 113.046 112.008 112.969 111.979 112.897C111.949 112.826 111.905 112.76 111.85 112.705C111.795 112.65 111.73 112.607 111.658 112.577C111.586 112.547 111.509 112.532 111.432 112.532H108.48C108.402 112.532 108.325 112.547 108.253 112.577C108.181 112.607 108.116 112.65 108.061 112.705C108.006 112.76 107.963 112.826 107.933 112.897C107.903 112.969 107.888 113.046 107.888 113.124V113.884C107.888 115.104 108.892 116.684 109.964 116.684C110.086 116.682 110.208 116.661 110.324 116.62C109.512 115.38 110.076 113.248 112 113.248Z" fill="black"/>
<path opacity="0.2" d="M118.916 113.096H119.14C119.134 112.943 119.069 112.798 118.958 112.691C118.848 112.585 118.701 112.525 118.548 112.524H115.6C115.443 112.525 115.293 112.588 115.182 112.699C115.072 112.809 115.009 112.959 115.008 113.116V113.876C115.008 115.096 116.016 116.676 117.084 116.676C117.181 116.673 117.278 116.658 117.372 116.632C116.368 115.44 116.888 113.096 118.916 113.096Z" fill="black"/>
<path opacity="0.2" d="M126.236 113.2V113.128C126.235 112.971 126.172 112.821 126.061 112.711C125.951 112.6 125.801 112.537 125.644 112.536H122.68C122.523 112.536 122.372 112.598 122.26 112.709C122.148 112.82 122.085 112.971 122.084 113.128V113.888C122.084 115.108 123.092 116.688 124.16 116.688C124.296 116.686 124.431 116.662 124.56 116.616C123.724 115.376 124.276 113.2 126.236 113.2Z" fill="black"/>
<path opacity="0.2" d="M133.2 113.2H133.36V113.12C133.36 113.042 133.345 112.965 133.315 112.893C133.285 112.822 133.241 112.756 133.187 112.701C133.132 112.646 133.066 112.603 132.994 112.573C132.923 112.543 132.846 112.528 132.768 112.528H129.804C129.647 112.528 129.496 112.59 129.385 112.701C129.274 112.812 129.212 112.963 129.212 113.12V113.88C129.212 115.1 130.216 116.68 131.284 116.68C131.379 116.679 131.473 116.665 131.564 116.64C130.672 115.416 131.22 113.2 133.2 113.2Z" fill="black"/>
<path opacity="0.2" d="M140.201 113.504C140.289 113.504 140.377 113.504 140.457 113.504V113.104C140.457 112.947 140.394 112.796 140.283 112.685C140.172 112.574 140.022 112.512 139.865 112.512H136.901C136.744 112.512 136.593 112.574 136.482 112.685C136.371 112.796 136.309 112.947 136.309 113.104V113.864C136.309 115.084 137.313 116.664 138.385 116.664C137.765 115.424 138.365 113.504 140.201 113.504Z" fill="black"/>
<path opacity="0.2" d="M58.7004 106.036H58.7524V105.84C58.7513 105.683 58.6881 105.532 58.5764 105.421C58.4648 105.31 58.3138 105.248 58.1564 105.248H55.2004C55.0434 105.248 54.8928 105.31 54.7818 105.421C54.6708 105.532 54.6084 105.683 54.6084 105.84V106.6C54.6084 107.82 55.6124 109.4 56.6844 109.4C56.7874 109.397 56.8896 109.381 56.9884 109.352C56.2204 108.104 56.8004 106.036 58.7004 106.036Z" fill="black"/>
<path opacity="0.2" d="M65.6561 106.036H65.8561V105.832C65.855 105.675 65.7918 105.524 65.6801 105.413C65.5685 105.302 65.4175 105.24 65.2601 105.24H62.2961C62.1394 105.241 61.9895 105.304 61.8787 105.415C61.7679 105.525 61.7051 105.675 61.7041 105.832V106.592C61.7041 107.812 62.7121 109.392 63.7801 109.392C63.8387 109.396 63.8975 109.396 63.9561 109.392C63.1681 108.14 63.7361 106.036 65.6561 106.036Z" fill="black"/>
<path opacity="0.2" d="M72.9238 106.036H72.9598V105.84C72.9588 105.683 72.896 105.533 72.7853 105.423C72.6745 105.312 72.5245 105.249 72.3678 105.248H69.4038C69.3252 105.247 69.2472 105.261 69.1742 105.291C69.1012 105.32 69.0347 105.363 68.9786 105.418C68.9225 105.473 68.8778 105.539 68.8471 105.611C68.8164 105.684 68.8003 105.761 68.7998 105.84V106.6C68.7998 107.82 69.8078 109.4 70.8758 109.4C70.9832 109.399 71.0897 109.381 71.1918 109.348C70.4438 108.104 71.0158 106.036 72.9238 106.036Z" fill="black"/>
<path opacity="0.2" d="M79.88 106H80.064V105.848C80.064 105.691 80.0016 105.54 79.8906 105.429C79.7796 105.318 79.629 105.256 79.472 105.256H76.508C76.351 105.256 76.2004 105.318 76.0894 105.429C75.9784 105.54 75.916 105.691 75.916 105.848V106.608C75.916 107.828 76.92 109.408 77.988 109.408C78.0606 109.406 78.1329 109.398 78.204 109.384C77.376 108.14 77.936 106 79.88 106Z" fill="black"/>
<path opacity="0.2" d="M86.7998 106.036C86.9271 106.036 87.0543 106.047 87.1798 106.068V105.84C87.1798 105.683 87.1174 105.532 87.0064 105.421C86.8954 105.31 86.7448 105.248 86.5878 105.248H83.5998C83.4428 105.248 83.2922 105.31 83.1812 105.421C83.0702 105.532 83.0078 105.683 83.0078 105.84V106.6C83.0078 107.82 84.0118 109.4 85.0838 109.4C84.2918 108.156 84.8558 106.036 86.7998 106.036Z" fill="black"/>
<path opacity="0.2" d="M93.952 105.78C94.059 105.78 94.1658 105.787 94.272 105.8C94.2609 105.65 94.1938 105.51 94.0841 105.408C93.9744 105.306 93.8301 105.249 93.68 105.248H90.716C90.5593 105.249 90.4094 105.312 90.2986 105.423C90.1878 105.533 90.1251 105.683 90.124 105.84V106.6C90.124 107.82 91.132 109.4 92.2 109.4C92.2768 109.399 92.3532 109.389 92.428 109.372C91.388 108.184 91.896 105.78 93.952 105.78Z" fill="black"/>
<path opacity="0.2" d="M101.112 106.084C101.204 106.084 101.296 106.084 101.38 106.084V105.824C101.379 105.667 101.317 105.517 101.206 105.407C101.095 105.296 100.945 105.233 100.788 105.232H97.8245C97.6671 105.232 97.5161 105.294 97.4045 105.405C97.2928 105.516 97.2296 105.667 97.2285 105.824V106.584C97.2285 107.804 98.2365 109.384 99.3045 109.384H99.3845C98.6365 108.144 99.2005 106.084 101.112 106.084Z" fill="black"/>
<path opacity="0.2" d="M108.484 105.84C108.484 105.683 108.422 105.532 108.311 105.421C108.2 105.31 108.049 105.248 107.892 105.248H104.928C104.85 105.248 104.773 105.263 104.701 105.293C104.63 105.323 104.564 105.366 104.509 105.421C104.454 105.476 104.411 105.542 104.381 105.613C104.351 105.685 104.336 105.762 104.336 105.84V106.6C104.336 107.82 105.34 109.4 106.408 109.4C106.621 109.395 106.83 109.337 107.016 109.232C106.208 108.04 106.696 106 108.484 105.84Z" fill="black"/>
<path opacity="0.2" d="M115.6 106V105.848C115.6 105.691 115.538 105.54 115.427 105.429C115.316 105.318 115.165 105.256 115.008 105.256H112.044C111.887 105.256 111.737 105.318 111.626 105.429C111.515 105.54 111.452 105.691 111.452 105.848V106.608C111.452 107.828 112.456 109.408 113.528 109.408C113.7 109.405 113.869 109.366 114.024 109.292C113.292 108.072 113.816 106.1 115.6 106Z" fill="black"/>
<path opacity="0.2" d="M122.448 105.88C122.532 105.88 122.616 105.88 122.696 105.88V105.828C122.695 105.671 122.632 105.52 122.52 105.409C122.408 105.298 122.257 105.236 122.1 105.236H119.136C118.979 105.237 118.829 105.3 118.719 105.411C118.608 105.521 118.545 105.671 118.544 105.828V106.588C118.544 107.808 119.552 109.388 120.62 109.388C120.695 109.387 120.771 109.377 120.844 109.36C119.916 108.156 120.448 105.88 122.448 105.88Z" fill="black"/>
<path opacity="0.2" d="M129.8 106.14V105.84C129.799 105.683 129.737 105.533 129.626 105.423C129.515 105.312 129.365 105.249 129.208 105.248H126.244C126.087 105.248 125.936 105.31 125.824 105.421C125.713 105.532 125.649 105.683 125.648 105.84V106.6C125.648 107.82 126.656 109.4 127.724 109.4C127.845 109.398 127.965 109.378 128.08 109.34C127.428 108.1 128 106.188 129.8 106.14Z" fill="black"/>
<path opacity="0.2" d="M136.569 105.932C136.681 105.934 136.793 105.942 136.905 105.956V105.84C136.905 105.683 136.842 105.532 136.731 105.421C136.62 105.31 136.47 105.248 136.313 105.248H133.349C133.271 105.248 133.194 105.263 133.122 105.293C133.05 105.323 132.985 105.366 132.93 105.421C132.875 105.476 132.832 105.542 132.802 105.613C132.772 105.685 132.757 105.762 132.757 105.84V106.6C132.757 107.82 133.761 109.4 134.829 109.4C134.866 109.402 134.904 109.402 134.941 109.4C134.045 108.164 134.589 105.932 136.569 105.932Z" fill="black"/>
<path opacity="0.2" d="M143.732 106.24C143.824 106.234 143.916 106.234 144.008 106.24V105.84C144.008 105.683 143.946 105.532 143.835 105.421C143.724 105.31 143.573 105.248 143.416 105.248H140.452C140.295 105.248 140.145 105.31 140.034 105.421C139.923 105.532 139.86 105.683 139.86 105.84V106.6C139.86 107.8 140.856 109.4 141.924 109.4C141.3 108.14 141.904 106.24 143.732 106.24Z" fill="black"/>
<path opacity="0.2" d="M126.948 124.544V120.6C126.948 120.333 126.732 120.116 126.464 120.116H72.1443C71.877 120.116 71.6602 120.333 71.6602 120.6V124.544C71.6602 124.811 71.877 125.028 72.1443 125.028H126.464C126.732 125.028 126.948 124.811 126.948 124.544Z" fill="black"/>
<path opacity="0.2" d="M134.3 121.484V121.084C134.3 121.006 134.285 120.929 134.255 120.857C134.226 120.786 134.182 120.72 134.127 120.665C134.072 120.61 134.007 120.567 133.935 120.537C133.863 120.507 133.786 120.492 133.708 120.492H130.744C130.667 120.492 130.59 120.507 130.518 120.537C130.446 120.567 130.381 120.61 130.326 120.665C130.271 120.72 130.227 120.786 130.197 120.857C130.168 120.929 130.152 121.006 130.152 121.084V121.844C130.152 123.064 131.156 124.644 132.228 124.644C132.317 124.642 132.406 124.63 132.492 124.608C131.9 123.36 132.504 121.496 134.3 121.484Z" fill="black"/>
<path opacity="0.2" d="M68.1116 121.228C68.2281 121.229 68.3445 121.238 68.4596 121.256V121.088C68.4586 120.931 68.3953 120.78 68.2836 120.669C68.172 120.558 68.021 120.496 67.8636 120.496H64.8996C64.7429 120.497 64.593 120.56 64.4822 120.671C64.3714 120.781 64.3087 120.931 64.3076 121.088V121.848C64.3076 123.068 65.3156 124.648 66.3836 124.648H66.4516C65.5996 123.408 66.1596 121.228 68.1116 121.228Z" fill="black"/>
<path opacity="0.2" d="M50.2802 37.8H148.328C149.002 37.8 149.648 38.0676 150.124 38.5439C150.601 39.0203 150.868 39.6663 150.868 40.34V62.74H47.7402V40.34C47.7402 39.6663 48.0078 39.0203 48.4842 38.5439C48.9605 38.0676 49.6066 37.8 50.2802 37.8Z" fill="black"/>
<path d="M140.312 42.024H58.3119C57.6281 36.3454 56.423 30.7417 54.7119 25.284H143.928C142.19 30.7355 140.979 36.3412 140.312 42.024Z" fill="white"/>
<path opacity="0.2" d="M141.12 36.628C140.524 39.884 140.32 42.024 140.32 42.024H58.32C58.32 42.024 58.112 39.924 57.5 36.628H141.12Z" fill="black"/>
<path d="M140.312 42.024H58.3119C57.6281 36.3454 56.423 30.7417 54.7119 25.284H143.928C142.19 30.7355 140.979 36.3412 140.312 42.024V42.024Z" stroke="#263238" stroke-linecap="round" stroke-linejoin="round"/>
<path d="M139.196 56.12H58.752V89.216H139.196V56.12Z" fill="#263238"/>
<g opacity="0.4">
<path opacity="0.4" d="M96.9688 86.288L97.3927 86.308C97.9261 78.0547 98.4594 69.788 98.9927 61.508C98.3127 69.7907 97.6381 78.0507 96.9688 86.288Z" fill="white"/>
<path opacity="0.4" d="M95.6006 86.184L96.0246 86.22C96.9499 78.02 97.8739 69.784 98.7966 61.512C97.7326 69.7893 96.6673 78.0133 95.6006 86.184Z" fill="white"/>
<path opacity="0.4" d="M94.2686 86.032C94.4086 86.032 94.5526 86.064 94.6926 86.08C96.0046 77.968 97.3246 69.7773 98.6526 61.508C97.1859 69.7853 95.7246 77.96 94.2686 86.032Z" fill="white"/>
<path opacity="0.4" d="M92.9199 85.828L93.3479 85.896C95.0493 77.896 96.7639 69.7626 98.4919 61.496C96.6253 69.7706 94.7679 77.8813 92.9199 85.828Z" fill="white"/>
<path opacity="0.4" d="M91.5762 85.576L92.0082 85.664C94.0882 77.816 96.1962 69.7626 98.3322 61.504C96.0602 69.7653 93.8082 77.7893 91.5762 85.576Z" fill="white"/>
<path opacity="0.4" d="M90.2402 85.272L90.6722 85.38C93.1242 77.708 95.6442 69.752 98.1722 61.5C95.4962 69.752 92.8282 77.672 90.2402 85.272Z" fill="white"/>
<path opacity="0.4" d="M88.9082 84.912L89.3442 85.04C92.1442 77.584 95.0762 69.736 98.0122 61.492C94.9282 69.736 91.8562 77.54 88.9082 84.912Z" fill="white"/>
<path opacity="0.4" d="M87.5996 84.504L88.0356 84.644C91.1996 77.444 94.5196 69.72 97.8636 61.488C94.3556 69.72 90.8836 77.388 87.5996 84.504Z" fill="white"/>
<path opacity="0.4" d="M86.2725 84.036L86.7125 84.196C90.2165 77.268 93.9405 69.7 97.6925 61.48C93.7845 69.7 89.9045 77.2 86.2725 84.036Z" fill="white"/>
<path opacity="0.4" d="M84.9766 83.508L85.4166 83.692C89.2406 77.076 93.3686 69.692 97.5326 61.472C93.2006 69.676 88.9246 77.02 84.9766 83.508Z" fill="white"/>
<path opacity="0.4" d="M83.6924 82.916L84.1324 83.128C88.2604 76.868 92.7924 69.648 97.3724 61.464C92.6284 69.648 87.9404 76.8 83.6924 82.916Z" fill="white"/>
<path opacity="0.4" d="M82.4277 82.26L82.8677 82.5C87.2677 76.632 92.2157 69.616 97.2117 61.452C92.6552 68.6445 87.7203 75.5903 82.4277 82.26Z" fill="white"/>
<path opacity="0.4" d="M81.2002 81.54C81.3442 81.632 81.4962 81.716 81.6442 81.804C87.1956 75.338 92.3465 68.5387 97.0682 61.444C92.2361 68.4914 86.9348 75.2053 81.2002 81.54Z" fill="white"/>
<path opacity="0.4" d="M79.9727 80.744L80.4087 81.044C86.3989 74.9441 91.9099 68.3913 96.8927 61.444C91.8065 68.3426 86.1464 74.7989 79.9727 80.744Z" fill="white"/>
<path opacity="0.4" d="M96.7318 61.42C90.2958 69.48 83.9998 75.628 78.7998 79.876L79.2278 80.208C85.6476 74.5172 91.5089 68.226 96.7318 61.42Z" fill="white"/>
<path opacity="0.4" d="M96.5721 61.408C89.7161 69.408 83.0162 75.256 77.6602 78.936L78.0842 79.3C83.3682 75.388 89.8961 69.428 96.5721 61.408Z" fill="white"/>
<path opacity="0.4" d="M96.4002 61.396C89.1322 69.336 82.0522 74.84 76.5762 77.912C76.7082 78.048 76.8402 78.184 76.9762 78.312C82.4002 74.992 89.3242 69.356 96.4002 61.396Z" fill="white"/>
<path opacity="0.4" d="M96.2522 61.38C88.5882 69.24 81.1402 74.38 75.5762 76.82L75.9762 77.256C81.4842 74.548 88.7642 69.264 96.2522 61.38Z" fill="white"/>
<path opacity="0.4" d="M74.6562 75.652C74.7722 75.812 74.8922 75.972 75.0122 76.128C80.5922 74.068 88.2123 69.152 96.0963 61.368C88.0523 69.116 80.2682 73.872 74.6562 75.652Z" fill="white"/>
<path opacity="0.4" d="M73.8398 74.436C73.9438 74.604 74.0518 74.772 74.1598 74.94C79.7598 73.532 87.7118 69.008 95.9358 61.34C87.5518 68.964 79.4598 73.32 73.8398 74.436Z" fill="white"/>
<path opacity="0.4" d="M73.1436 73.2C73.2316 73.376 73.3236 73.548 73.4156 73.724C79.0156 72.964 87.2396 68.84 95.7756 61.344C87.0996 68.768 78.7436 72.72 73.1436 73.2Z" fill="white"/>
<path opacity="0.4" d="M72.5762 71.936C72.6482 72.112 72.7242 72.292 72.8002 72.468C78.3682 72.332 86.8002 68.616 95.6002 61.316C86.7002 68.54 78.1362 72.076 72.5762 71.936Z" fill="white"/>
<path opacity="0.4" d="M98.3242 86.344H98.7442C98.8722 78.0774 99.0055 69.8 99.1442 61.512C98.8642 69.7947 98.5909 78.072 98.3242 86.344Z" fill="white"/>
<path opacity="0.4" d="M99.6758 86.352H100.1C99.8332 78.0854 99.5665 69.808 99.2998 61.52L99.6758 86.352Z" fill="white"/>
<path opacity="0.4" d="M101.028 86.316H101.452C100.785 78.076 100.119 69.8093 99.4521 61.516C99.9775 69.7987 100.503 78.0653 101.028 86.316Z" fill="white"/>
<path opacity="0.4" d="M102.4 86.232L102.824 86.2C101.757 78.0213 100.691 69.792 99.624 61.512C100.541 69.792 101.467 78.032 102.4 86.232Z" fill="white"/>
<path opacity="0.4" d="M103.732 86.104L104.156 86.052C102.705 77.9693 101.239 69.788 99.7559 61.508C101.092 69.788 102.417 77.9867 103.732 86.104Z" fill="white"/>
<path opacity="0.4" d="M105.08 85.924L105.508 85.86C103.668 77.9 101.808 69.7827 99.9277 61.508C101.656 69.7853 103.373 77.924 105.08 85.924Z" fill="white"/>
<path opacity="0.4" d="M106.424 85.696L106.852 85.616C104.631 77.8133 102.376 69.776 100.088 61.504C102.216 69.776 104.328 77.84 106.424 85.696Z" fill="white"/>
<path opacity="0.4" d="M107.76 85.416L108.196 85.316C105.604 77.716 102.932 69.768 100.248 61.5C102.784 69.7693 105.288 77.7413 107.76 85.416Z" fill="white"/>
<path opacity="0.4" d="M109.096 85.088L109.528 84.964C106.576 77.576 103.5 69.764 100.408 61.492C103.348 69.756 106.276 77.6 109.096 85.088Z" fill="white"/>
<path opacity="0.4" d="M110.42 84.7L110.86 84.556C107.552 77.428 104.06 69.756 100.568 61.488C103.92 69.74 107.248 77.472 110.42 84.7Z" fill="white"/>
<path opacity="0.4" d="M111.737 84.256L112.177 84.092C108.537 77.256 104.649 69.724 100.729 61.48C104.493 69.724 108.225 77.308 111.737 84.256Z" fill="white"/>
<path opacity="0.4" d="M113.041 83.756C113.189 83.692 113.341 83.636 113.485 83.572C109.525 77.068 105.229 69.704 100.889 61.472C105.069 69.704 109.201 77.124 113.041 83.756Z" fill="white"/>
<path opacity="0.4" d="M114.332 83.2L114.776 82.988C110.516 76.856 105.808 69.684 101.048 61.468C105.644 69.676 110.188 76.92 114.332 83.2Z" fill="white"/>
<path opacity="0.4" d="M115.6 82.572C115.748 82.496 115.896 82.412 116.04 82.332C110.728 75.639 105.775 68.6692 101.2 61.452C106.224 69.652 111.2 76.688 115.6 82.572Z" fill="white"/>
<path opacity="0.4" d="M116.856 81.88L117.304 81.616C111.545 75.258 106.22 68.5187 101.368 61.444C106.108 68.5666 111.28 75.3914 116.856 81.88Z" fill="white"/>
<path opacity="0.4" d="M101.528 61.432C106.531 68.4118 112.066 74.9941 118.084 81.12L118.528 80.82C112.324 74.8496 106.637 68.3636 101.528 61.432Z" fill="white"/>
<path opacity="0.4" d="M101.688 61.42C106.936 68.2586 112.83 74.5758 119.288 80.284C119.436 80.176 119.576 80.064 119.72 79.952C114.504 75.704 108.16 69.528 101.688 61.42Z" fill="white"/>
<path opacity="0.4" d="M101.849 61.408C108.569 69.476 115.137 75.46 120.437 79.372C120.581 79.252 120.729 79.132 120.869 79.008C115.493 75.336 108.749 69.472 101.849 61.408Z" fill="white"/>
<path opacity="0.4" d="M102 61.396C109.14 69.396 116.1 75.072 121.54 78.388C121.68 78.256 121.812 78.116 121.94 77.988C116.46 74.92 109.328 69.396 102 61.396Z" fill="white"/>
<path opacity="0.4" d="M102.168 61.38C109.716 69.324 117.052 74.632 122.568 77.32L122.968 76.88C117.404 74.468 109.896 69.308 102.168 61.38Z" fill="white"/>
<path opacity="0.4" d="M123.556 76.184C123.68 76.024 123.796 75.864 123.916 75.7C118.296 73.96 110.44 69.188 102.316 61.368C110.268 69.22 117.964 74.152 123.556 76.184Z" fill="white"/>
<path opacity="0.4" d="M124.424 74.98L124.752 74.468C119.124 73.408 110.956 69.04 102.484 61.352C110.8 69.084 118.8 73.62 124.424 74.98Z" fill="white"/>
<path opacity="0.4" d="M125.2 73.736C125.296 73.56 125.388 73.384 125.48 73.204C119.88 72.804 111.436 68.848 102.68 61.336C111.272 68.912 119.6 73.044 125.2 73.736Z" fill="white"/>
<path opacity="0.4" d="M102.8 61.316C111.696 68.7 120.24 72.416 125.8 72.472C125.88 72.292 125.956 72.112 126.032 71.932C120.48 72.16 111.824 68.62 102.8 61.316Z" fill="white"/>
</g>
<path opacity="0.2" d="M87.6 62.108C86.084 65.996 87.724 77.308 98.664 77.308C109.604 77.308 113.576 69.36 113.132 64.448L127.736 62.096C127.736 62.096 132.212 74.464 122.708 83.116C113.204 91.768 80.26 91.208 73.296 84.632C66.332 78.056 70.196 65.064 70.196 65.064L87.6 62.108Z" fill="black"/>
<path d="M151.696 45.332V42.604C151.696 42.503 151.728 42.4046 151.788 42.3233C151.848 42.2419 151.932 42.1819 152.028 42.152L154.028 41.528V38.8C154.028 38.4732 154.158 38.1598 154.389 37.9288C154.62 37.6978 154.934 37.568 155.26 37.568H157.66C157.779 37.5657 157.893 37.6095 157.98 37.6901C158.066 37.7707 158.118 37.8818 158.124 38V38.88C158.124 39.0002 158.077 39.1156 157.992 39.201C157.908 39.2864 157.793 39.3349 157.672 39.336H154.62V42.004C154.619 42.0844 154.597 42.1632 154.557 42.2331C154.518 42.303 154.461 42.3617 154.392 42.404L152.688 43.436V45.336L151.696 45.332Z" fill="#999999" stroke="#263238" stroke-linecap="round" stroke-linejoin="round"/>
<path d="M154.328 45.332H151.696V53.204H154.328V45.332Z" fill="#263238"/>
<path d="M157.62 44.664H154.328V53.872H157.62V44.664Z" fill="#757575"/>
<path opacity="0.2" d="M157.612 50.272H154.328V53.872H157.612V50.272Z" fill="black"/>
<path d="M157.62 44.664H154.328V53.872H157.62V44.664Z" stroke="#263238" stroke-linecap="round" stroke-linejoin="round"/>
<path d="M44.2801 53.2H46.9121V45.328H44.2801V53.2Z" fill="#263238"/>
<path d="M40.9883 53.868H44.2803V44.66H40.9883V53.868Z" fill="#757575"/>
<path opacity="0.2" d="M44.2842 50.272H40.9922V53.784H44.2842V50.272Z" fill="black"/>
<path d="M40.9883 53.868H44.2803V44.66H40.9883V53.868Z" stroke="#263238" stroke-linecap="round" stroke-linejoin="round"/>
<path d="M46.5162 49.736C46.7539 49.1124 46.7907 48.4301 46.6214 47.7846C46.4521 47.1391 46.0853 46.5627 45.5722 46.136L43.6362 44.536C43.5131 44.4322 43.3698 44.3549 43.2154 44.3089C43.061 44.2629 42.8988 44.2492 42.7389 44.2688C42.579 44.2883 42.4249 44.3406 42.2861 44.4223C42.1473 44.5041 42.0268 44.6136 41.9322 44.744L34.2562 55.332C34.1102 55.5301 34.0316 55.7699 34.0322 56.016V67.388C34.0322 67.5406 34.0625 67.6917 34.1214 67.8325C34.1803 67.9734 34.2666 68.1011 34.3753 68.2083C34.484 68.3154 34.6128 68.4 34.7545 68.4569C34.8961 68.5139 35.0476 68.5421 35.2002 68.54C35.5058 68.54 35.7988 68.4186 36.0148 68.2026C36.2309 67.9865 36.3522 67.6935 36.3522 67.388V58.152C36.3529 57.924 36.4242 57.7018 36.5562 57.516L42.2962 49.516C42.3465 49.4457 42.4108 49.3867 42.485 49.3426C42.5593 49.2985 42.6419 49.2703 42.7276 49.2597C42.8134 49.2492 42.9003 49.2566 42.9831 49.2814C43.0658 49.3062 43.1425 49.348 43.2082 49.404L44.2642 50.3C44.5257 50.5218 44.8573 50.6437 45.2002 50.644C45.4854 50.6423 45.7634 50.5547 45.9982 50.3928C46.2329 50.2308 46.4134 50.002 46.5162 49.736Z" fill="white" stroke="#263238" stroke-linecap="round" stroke-linejoin="round"/>
<path d="M44.9318 48.7C45.2344 48.7 45.4798 48.4547 45.4798 48.152C45.4798 47.8494 45.2344 47.604 44.9318 47.604C44.6291 47.604 44.3838 47.8494 44.3838 48.152C44.3838 48.4547 44.6291 48.7 44.9318 48.7Z" fill="#999999" stroke="#263238" stroke-linecap="round" stroke-linejoin="round"/>
<path d="M149.256 41.528H49.3564V57H149.256V41.528Z" fill="#263238"/>
<path opacity="0.2" d="M147.812 42.692H50.76C50.4551 42.692 50.208 42.9392 50.208 43.244V45.748C50.208 46.0529 50.4551 46.3 50.76 46.3H147.812C148.117 46.3 148.364 46.0529 148.364 45.748V43.244C148.364 42.9392 148.117 42.692 147.812 42.692Z" fill="white"/>
<path d="M140.312 60.112H58.3119C56.0011 54.83 54.7768 49.137 54.7119 43.372H143.928C143.928 51.124 140.312 60.112 140.312 60.112Z" fill="white"/>
<g opacity="0.7">
<path opacity="0.7" d="M64.9443 58.8561C64.9443 58.8561 66.7403 58.7601 67.7443 58.1561C68.7483 57.5521 68.6763 58.7001 69.2523 58.7761C69.8283 58.8521 71.1883 58.3761 71.9083 58.3761C72.6283 58.3761 72.0803 58.8161 72.8923 58.7761C73.7043 58.7361 73.2683 58.8161 73.6923 58.7361L77.1683 58.1561C77.1683 58.1561 78.9323 57.8161 79.2883 57.9881C79.6443 58.1601 80.1123 59.0081 80.6323 58.7881C81.1523 58.5681 80.8763 58.3881 81.6603 58.3881C82.145 58.3904 82.627 58.4604 83.0923 58.5961C83.0923 58.5961 83.1643 58.3921 83.5243 58.3881H84.1683C84.1683 58.3881 85.5323 58.7481 85.7483 58.7481C85.9643 58.7481 87.5763 58.3921 87.6323 58.3881C87.6883 58.3841 89.2323 57.9881 89.2323 57.9881C89.5599 58.3305 89.9749 58.5767 90.4323 58.7001C91.0163 58.7761 91.6323 58.6201 92.0723 58.8161C92.5123 59.0121 93.9603 58.7361 93.9603 58.7361C94.3058 58.7383 94.6507 58.7651 94.9923 58.8161C95.4404 58.9184 95.9071 58.9046 96.3483 58.7761C97.1595 58.5616 98.0107 58.5479 98.8283 58.7361C100.128 58.9721 101.324 58.3801 101.876 58.3761C102.428 58.3721 104.636 58.6201 105.396 58.6201C106.156 58.6201 108.168 58.8921 109.568 58.7361C110.968 58.5801 111.884 58.9321 112.824 58.9321C113.764 58.9321 114.768 58.8921 114.984 58.8921C115.2 58.8921 116.24 58.2121 117.728 58.3761C119.216 58.5401 117.892 58.1721 118.808 58.3761C119.724 58.5801 120.448 58.7761 120.836 58.8161C121.148 58.8342 121.46 58.8208 121.768 58.7761L123.368 58.6601H131.344" stroke="#263238" stroke-linecap="round" stroke-linejoin="round"/>
<path opacity="0.7" d="M63.2842 55.7681C63.2842 55.7681 68.2242 55.7681 69.1162 55.6881C70.0082 55.6081 70.4842 55.1521 70.9602 55.1521C71.4362 55.1521 73.8402 55.6081 73.8402 55.6081C73.9103 55.4589 74.0248 55.335 74.168 55.2534C74.3112 55.1718 74.4761 55.1364 74.6402 55.1521C75.2922 55.1521 74.9602 55.2121 75.5602 55.4521C76.1602 55.6921 75.8482 55.4521 76.1642 55.6881C76.6352 55.8996 77.1333 56.045 77.6442 56.1201C77.6442 56.1201 79.8722 56.2241 79.9562 55.6881C80.0402 55.1521 81.1562 56.1201 81.1562 56.1201C81.1562 56.1201 84.1802 55.6881 85.3482 55.6881C86.5162 55.6881 89.4442 55.4521 89.4442 55.4521C89.4442 55.4521 91.8442 55.7681 91.9562 55.7681C92.0682 55.7681 92.4642 56.3961 92.8922 56.1201C93.3202 55.8441 93.7322 55.5281 94.2402 55.6081C94.7119 55.7251 95.1684 55.8969 95.6002 56.1201L96.7162 55.5281L97.9962 55.6081C97.9962 55.6081 99.3002 56.476 100.232 56.1201C100.942 55.8365 101.635 55.5133 102.308 55.1521L103.456 56.1201H104.208L106.436 55.6881C106.608 55.8988 106.839 56.0528 107.099 56.1299C107.36 56.207 107.638 56.2036 107.896 56.1201C108.84 55.8481 117.86 56.1201 120.156 56.1201C122.452 56.1201 122.956 55.5281 122.956 55.5281L124.724 56.1201H133.524" stroke="#263238" stroke-linecap="round" stroke-linejoin="round"/>
</g>
<path opacity="0.2" d="M141.148 57.8C140.664 59.24 140.312 60.112 140.312 60.112H58.3123C58.3123 60.112 57.9123 59.272 57.3643 57.8H141.148Z" fill="black"/>
<path opacity="0.2" d="M142.856 51.744C142.58 52.944 142.276 54.116 141.976 55.152H56.4724C56.1764 54.136 55.8724 52.988 55.6084 51.744H142.856Z" fill="black"/>
<path d="M140.312 60.112H58.3119C56.0011 54.83 54.7768 49.137 54.7119 43.372H143.928C143.928 51.124 140.312 60.112 140.312 60.112Z" stroke="#263238" stroke-linecap="round" stroke-linejoin="round"/>
<path d="M49.3366 40.7319H46.8926V57.8039H49.3366V40.7319Z" fill="#757575"/>
<path opacity="0.2" d="M49.2882 52.74H46.9082V57.804H49.2882V52.74Z" fill="black"/>
<path d="M49.3366 40.7319H46.8926V57.8039H49.3366V40.7319Z" stroke="#263238" stroke-linecap="round" stroke-linejoin="round"/>
<path d="M151.716 40.732H149.272V57.804H151.716V40.732Z" fill="#757575"/>
<path opacity="0.2" d="M151.716 52.74H149.252V57.804H151.716V52.74Z" fill="black"/>
<path d="M151.716 40.732H149.272V57.804H151.716V40.732Z" stroke="#263238" stroke-linecap="round" stroke-linejoin="round"/>
<path d="M149.292 40.016V52.468H49.3164V40.016H48.3564V53.304H150.252V40.016H149.292Z" fill="#999999" stroke="#263238" stroke-linecap="round" stroke-linejoin="round"/>
<path d="M155.201 60.992V88.916C155.201 89.387 155.013 89.8387 154.68 90.1718C154.347 90.5049 153.896 90.692 153.425 90.692H45.1725C44.7015 90.692 44.2497 90.5049 43.9167 90.1718C43.5836 89.8387 43.3965 89.387 43.3965 88.916V60.992C43.3965 60.521 43.5836 60.0693 43.9167 59.7362C44.2497 59.4031 44.7015 59.216 45.1725 59.216H95.0525V60.992C95.0525 60.992 86.5365 68.38 71.8525 71.104C73.9565 80.628 85.4525 87.904 99.3245 87.904C113.197 87.904 124.693 80.62 126.801 71.104C112.097 68.38 103.581 60.992 103.581 60.992V59.2H153.437C153.67 59.2016 153.901 59.2492 154.116 59.3402C154.331 59.4311 154.526 59.5636 154.69 59.7301C154.854 59.8965 154.984 60.0937 155.071 60.3102C155.159 60.5268 155.203 60.7584 155.201 60.992Z" fill="white" stroke="#263238" stroke-linecap="round" stroke-linejoin="round"/>
<path d="M155.201 60.992V88.916C155.201 89.1496 155.155 89.3808 155.065 89.5966C154.976 89.8123 154.844 90.0083 154.679 90.1732C154.514 90.3382 154.317 90.469 154.101 90.558C153.886 90.647 153.654 90.6925 153.421 90.692H45.1726C44.939 90.6925 44.7076 90.647 44.4917 90.558C44.2758 90.469 44.0795 90.3382 43.9142 90.1732C43.7488 90.0083 43.6177 89.8123 43.5281 89.5966C43.4386 89.3808 43.3926 89.1496 43.3926 88.916V60.992C43.3936 60.5202 43.5815 60.0681 43.9151 59.7345C44.2487 59.4009 44.7008 59.2131 45.1726 59.212H95.0526V60.992C95.0526 60.992 86.5326 68.376 71.8526 71.104C73.9566 80.628 85.4526 87.904 99.3286 87.904C113.205 87.904 124.693 80.62 126.801 71.104C112.097 68.376 103.581 60.992 103.581 60.992V59.2H153.437C153.908 59.2042 154.358 59.3953 154.689 59.7312C155.02 60.0672 155.204 60.5206 155.201 60.992Z" fill="white"/>
<path opacity="0.2" d="M152.801 61.4199V87.1999C152.801 87.3713 152.767 87.541 152.701 87.6993C152.635 87.8575 152.539 88.0012 152.417 88.122C152.295 88.2428 152.151 88.3384 151.992 88.4033C151.834 88.4681 151.664 88.501 151.493 88.4999H46.2365C46.0657 88.5005 45.8964 88.4672 45.7384 88.402C45.5805 88.3369 45.4369 88.2412 45.3161 88.1203C45.1953 87.9995 45.0996 87.856 45.0344 87.698C44.9693 87.5401 44.936 87.3708 44.9365 87.1999V61.4199C44.936 61.2487 44.9692 61.079 45.0343 60.9206C45.0993 60.7622 45.1949 60.6182 45.3156 60.4967C45.4364 60.3752 45.5798 60.2787 45.7378 60.2127C45.8958 60.1467 46.0653 60.1125 46.2365 60.1119H95.0365V60.9919C95.0365 60.9919 86.5165 68.3759 71.8365 71.1039C73.9405 80.6279 85.4365 87.9039 99.3125 87.9039C113.189 87.9039 124.677 80.6199 126.785 71.1039C112.081 68.3759 103.565 60.9919 103.565 60.9919V60.1119H151.505C151.849 60.1151 152.179 60.2543 152.422 60.4993C152.664 60.7442 152.801 61.0751 152.801 61.4199Z" fill="white"/>
<path d="M155.201 60.992V88.916C155.201 89.1496 155.155 89.3808 155.065 89.5966C154.976 89.8123 154.844 90.0083 154.679 90.1732C154.514 90.3382 154.317 90.469 154.101 90.558C153.886 90.647 153.654 90.6925 153.421 90.692H45.1726C44.939 90.6925 44.7076 90.647 44.4917 90.558C44.2758 90.469 44.0795 90.3382 43.9142 90.1732C43.7488 90.0083 43.6177 89.8123 43.5281 89.5966C43.4386 89.3808 43.3926 89.1496 43.3926 88.916V60.992C43.3936 60.5202 43.5815 60.0681 43.9151 59.7345C44.2487 59.4009 44.7008 59.2131 45.1726 59.212H95.0526V60.992C95.0526 60.992 86.5326 68.376 71.8526 71.104C73.9566 80.628 85.4526 87.904 99.3286 87.904C113.205 87.904 124.693 80.62 126.801 71.104C112.097 68.376 103.581 60.992 103.581 60.992V59.2H153.437C153.908 59.2042 154.358 59.3953 154.689 59.7312C155.02 60.0672 155.204 60.5206 155.201 60.992V60.992Z" stroke="#263238" stroke-linecap="round" stroke-linejoin="round"/>
<path opacity="0.2" d="M119.44 98.968L124.756 113.796C124.756 113.796 127.056 97.476 128.428 97.476C129.8 97.476 132.756 106.4 132.756 106.4C132.756 106.4 134.58 101.744 136.308 101.576C138.036 101.408 139.6 113.008 139.6 113.008L139.868 138.756L137.688 177.696C137.688 177.696 123.78 162.376 119.724 158.428C115.668 154.48 111.792 145.792 110.672 144.028C109.552 142.264 109.268 133.028 109.268 133.028C110.686 131.214 111.427 128.962 111.364 126.66C111.364 126.66 114.628 121.196 114.428 117.164C114.228 113.132 113.724 97.464 119.44 98.968Z" fill="black" fill-opacity="0.7"/>
<path d="M161.284 170.8L140.228 181.876C140.228 181.764 137.46 177.28 134.116 172.208C132.604 169.912 130.972 167.5 129.424 165.316C126.888 161.744 123.664 158.66 123.388 157.988C122.588 155.988 116.42 148.5 115.04 145.588C113.66 142.676 113.344 133.616 112.736 131.484C112.128 129.352 113.872 127.316 115.272 126.324C116.672 125.332 118.14 122.724 118.14 122.724C118.14 122.724 116.592 116.692 116.576 113.624C116.56 110.556 115.516 99.848 116.764 98.848C118.012 97.848 119.128 98.268 119.44 98.956C120.464 101.224 121.384 106.928 122.172 109.556C122.96 112.184 124.44 119.808 125.168 120.356C125.896 120.904 127.192 118.848 127.192 118.848C127.192 118.848 127.316 112.448 127.592 109.796L127.192 101.396C127.192 101.396 126.444 96.348 128.184 95.868C130.584 95.208 131.46 96.716 131.732 97.352C132.004 97.988 133.124 101.652 133.124 101.652L133.188 101.904C133.188 101.928 133.188 101.952 133.188 101.98V102.024C133.206 102.093 133.226 102.169 133.248 102.252C133.292 102.42 133.344 102.62 133.4 102.848C133.932 104.932 134.956 109.104 134.912 110.132C134.852 111.52 134.368 119.208 135.052 120.804L136.116 110.184C136.116 110.184 134.4 102 134.9 100.82C135.4 99.64 137.756 100.944 138.036 101.408C138.316 101.872 140.604 104.68 141.012 105.752L141.412 106.824C141.412 106.824 141.976 104.288 143.3 104.948C144.624 105.608 144.788 108.832 144.88 110.24C144.972 111.648 145.932 120.704 146.08 120.72C146.228 120.736 147.756 125.44 147.548 128.548C147.112 135.2 148.264 140.148 148.304 142.7C148.344 145.252 146.42 151.164 146.42 151.164C146.488 151.28 147.744 153.416 148.088 155.292C148.34 156.668 152.824 161.64 156.488 165.596C159.036 168.324 161.172 170.556 161.284 170.8Z" fill="white"/>
<path opacity="0.4" d="M134.12 172.216C132.608 169.92 130.976 167.508 129.428 165.324C126.892 161.752 123.668 158.668 123.392 157.996C122.592 155.996 116.424 148.508 115.044 145.596C113.664 142.684 113.348 133.624 112.74 131.492C112.132 129.36 113.876 127.324 115.276 126.332C116.676 125.34 118.144 122.732 118.144 122.732C118.144 122.732 116.596 116.7 116.58 113.632C116.564 110.564 115.52 99.856 116.768 98.856C118.016 97.856 119.132 98.276 119.444 98.964C120.468 101.232 121.388 106.936 122.176 109.564C122.964 112.192 124.444 119.816 125.172 120.364C125.9 120.912 127.196 118.856 127.196 118.856C127.196 118.856 127.32 112.456 127.596 109.804L127.196 101.404C127.196 101.404 126.448 96.356 128.188 95.876C130.588 95.216 131.464 96.724 131.736 97.36C132.008 97.996 133.128 101.66 133.128 101.66L133.192 101.912C133.192 101.936 133.192 101.96 133.192 101.988V102.032C133.208 102.101 133.228 102.177 133.252 102.26C133.296 102.428 133.348 102.628 133.404 102.856C132.784 101.876 131.932 101.04 130.792 100.82C127.592 100.196 128.284 103.756 128.588 105.892C128.76 107.309 128.726 108.744 128.488 110.152L129.288 109.692C128.712 110.72 127.888 119.264 127.888 121.164C127.888 123.064 126.384 123.696 125.036 123.14C123.688 122.584 123.208 113.864 122.184 112.3C121.16 110.736 118.312 113.724 118.184 116.456C118.056 119.188 120.604 127.336 120 129.256C119.396 131.176 119.404 138.456 119.404 138.456L118.668 136.58C118.716 136.836 118.668 137.696 117.128 140.228C116.549 141.144 116.175 142.175 116.031 143.249C115.887 144.323 115.976 145.415 116.292 146.452C117.232 148.528 122 154 122.8 154.564C122.8 154.564 123.38 152.188 125.2 152.82C124.58 153.805 124.129 154.887 123.864 156.02C123.488 157.764 127.284 158.88 128.472 160.54C129.2 161.552 129.688 164.636 134.12 172.216Z" fill="white"/>
<path opacity="0.4" d="M156.512 165.6C152.768 161.828 146.18 158.236 146.58 157.296C147.116 156.032 146.436 153.34 145.284 151.156C144.132 148.972 145.684 145.428 145.684 145.428L146.396 147.488C146.965 145.112 147.032 142.643 146.592 140.24C145.864 136.156 145.296 137.592 145.296 137.592C145.296 137.592 145.444 133.912 146.096 131.904C146.748 129.896 147.296 125.02 146.396 122.136C145.496 119.252 143.596 119.796 143.088 120.788C142.58 121.78 143.124 125.648 143.544 126.916C143.964 128.184 142.176 130.316 142.14 128.732C142.104 127.148 141.428 122.732 141.428 122.732L142.784 113.864L141.428 106.82C141.428 106.82 141.992 104.284 143.316 104.944C144.64 105.604 144.804 108.828 144.896 110.236C144.988 111.644 145.948 120.7 146.096 120.716C146.244 120.732 147.772 125.436 147.564 128.544C147.128 135.196 148.28 140.144 148.32 142.696C148.36 145.248 146.436 151.16 146.436 151.16C146.504 151.276 147.76 153.412 148.104 155.288C148.356 156.664 152.84 161.636 156.504 165.592L156.512 165.6Z" fill="white"/>
<path opacity="0.4" d="M141.012 105.752C141.088 105.952 141.152 106.116 141.2 106.248C139.928 103.292 137.76 104.208 137.376 105.048C136.992 105.888 138.284 111.1 138.576 111.908C138.868 112.716 137.416 119.168 137.204 121.304C136.992 123.44 136.428 123.876 136.428 123.876C134.992 123.984 134.828 120.02 134.828 119.476C134.856 119.931 134.945 120.38 135.092 120.812L136.156 110.192C136.156 110.192 134.4 102 134.9 100.82C135.4 99.64 137.756 100.944 138.036 101.408C138.316 101.872 140.604 104.68 141.012 105.752Z" fill="white"/>
<path d="M161.284 170.8C161.012 170.184 148.52 157.6 148.084 155.288C147.732 153.36 146.412 151.156 146.412 151.156C146.412 151.156 148.336 145.256 148.296 142.692C148.256 140.128 147.096 135.192 147.54 128.54C147.748 125.432 146.224 120.728 146.072 120.712C145.92 120.696 144.96 111.64 144.872 110.232C144.784 108.824 144.62 105.6 143.292 104.94C141.964 104.28 141.404 106.816 141.404 106.816L141.004 105.744C140.604 104.672 138.308 101.864 138.028 101.4C137.748 100.936 135.396 99.628 134.892 100.812C134.388 101.996 136.144 110.168 136.144 110.168L135.088 120.8C134.404 119.2 134.888 111.516 134.948 110.128C135.008 108.74 133.128 101.648 133.128 101.648C133.128 101.648 132 98 131.736 97.344C131.472 96.688 130.588 95.2 128.188 95.86C126.448 96.34 127.196 101.388 127.196 101.388L127.596 109.788C127.328 112.452 127.196 118.84 127.196 118.84C127.196 118.84 125.9 120.892 125.172 120.348C124.444 119.804 122.964 112.184 122.176 109.548C121.388 106.912 120.468 101.216 119.444 98.948C119.132 98.26 118.016 97.84 116.768 98.84C115.52 99.84 116.56 110.544 116.58 113.616C116.6 116.688 118.144 122.716 118.144 122.716C118.144 122.716 116.676 125.308 115.276 126.316C113.876 127.324 112.132 129.34 112.74 131.476C113.348 133.612 113.664 142.676 115.044 145.58C116.424 148.484 122.576 155.98 123.392 157.98C123.668 158.652 126.892 161.736 129.428 165.308C134.408 172.32 140.228 181.708 140.228 181.868" stroke="#263238" stroke-linecap="round" stroke-linejoin="round"/>
<path d="M118.139 122.736C118.139 122.736 119.131 127.652 119.095 128.476C119.095 128.476 118.227 132.272 118.219 134.732C117.612 135.659 117.067 136.625 116.587 137.624C116.251 138.512 115.651 140.696 115.899 141.912" stroke="#263238" stroke-linecap="round" stroke-linejoin="round"/>
<path d="M116.327 130C116.327 130 118.759 130.02 118.603 131.044" stroke="#263238" stroke-linecap="round" stroke-linejoin="round"/>
<path d="M118.219 134.732C118.219 134.732 116.659 134.056 116.111 134.964" stroke="#263238" stroke-linecap="round" stroke-linejoin="round"/>
<path d="M127.2 118.856C127.2 118.856 127.088 122.624 126.096 122.324" stroke="#263238" stroke-linecap="round" stroke-linejoin="round"/>
<path d="M135.087 120.8C135.087 120.8 134.799 122.86 135.575 123.496" stroke="#263238" stroke-linecap="round" stroke-linejoin="round"/>
<path d="M141.416 106.824C141.416 106.824 142.496 112.024 142.744 113.256C142.992 114.488 141.516 120.776 141.544 122.412C141.572 124.048 142.272 126.388 142.176 127.488" stroke="#263238" stroke-linecap="round" stroke-linejoin="round"/>
<path d="M145.728 146.316C145.728 146.316 145.38 149.712 146.424 151.164" stroke="#263238" stroke-linecap="round" stroke-linejoin="round"/>
<path d="M124.755 153.036C124.755 153.036 122.427 155.156 123.279 157.764" stroke="#263238" stroke-linecap="round" stroke-linejoin="round"/>
<path d="M140.056 126.604C140.092 128.1 139.216 129.844 139.124 131.912" stroke="#263238" stroke-linecap="round" stroke-linejoin="round"/>
<path d="M132.64 125.268C133.136 126.492 132.056 129.156 131.892 130.156C131.826 130.938 131.911 131.726 132.144 132.476" stroke="#263238" stroke-linecap="round" stroke-linejoin="round"/>
<path d="M146.579 129.484C146.379 130.784 145.459 131.712 145.283 135.712" stroke="#263238" stroke-linecap="round" stroke-linejoin="round"/>
<path d="M123.867 124.888C124.539 125.62 124.087 129.116 124.267 129.688" stroke="#263238" stroke-linecap="round" stroke-linejoin="round"/>
<path d="M136.399 104.748C136.399 104.748 138.687 103.072 140.655 105.048" stroke="#263238" stroke-linecap="round" stroke-linejoin="round"/>
<path d="M128.52 100.896C128.52 100.896 128.92 100.228 130.852 100.392C132.784 100.556 133.128 101.644 133.128 101.644" stroke="#263238" stroke-linecap="round" stroke-linejoin="round"/>
<path d="M122.876 112.316C122.876 112.316 122.228 111.36 120.52 111.676C118.812 111.992 118.052 114.408 118.052 114.408" fill="white"/>
<path d="M122.876 112.316C122.876 112.316 122.228 111.36 120.52 111.676C118.812 111.992 118.052 114.408 118.052 114.408" stroke="#263238" stroke-linecap="round" stroke-linejoin="round"/>
<path d="M146.083 120.72C146.083 120.72 144.659 118.656 142.947 119.54" stroke="#263238" stroke-linecap="round" stroke-linejoin="round"/>
<path opacity="0.2" d="M85.4194 105.6C87.8194 107.46 85.7954 118.876 85.7954 118.876L86.0074 122.592L90.1234 120.8L91.9994 128.74C91.9994 128.74 91.9514 131.648 93.4754 132.74C93.4754 132.74 93.8514 139.264 93.4754 144.032C93.0994 148.8 85.4754 154.404 82.8474 159.408C80.2194 164.412 63.0794 179.12 63.0794 179.12L48.5674 172.216L59.0594 129.84L68.4594 117.756L74.0314 103.856C74.0314 103.856 74.9874 112.936 74.4314 119.056L85.4194 105.6Z" fill="black" fill-opacity="0.7"/>
<path d="M89.4597 130.96C89.0957 132.712 89.9717 142.316 89.8197 143.612C89.6677 144.908 82.0277 153.612 81.6437 154.272C81.2597 154.932 76.1517 157.872 74.9637 159.276C69.4117 165.752 66.3797 171.716 63.9437 177.696C63.4757 178.848 63.0277 180.004 62.5877 181.164L40.5557 168.364C42.4077 166.068 44.1557 164.028 45.7557 162.172C48.9557 158.408 51.5037 155.396 52.7517 152.552C53.1347 151.826 53.5733 151.13 54.0637 150.472C54.5597 149.768 55.0037 149.188 55.0037 149.188C55.0037 149.188 53.4037 144.68 53.7757 143.264C54.1477 141.848 53.3157 130.208 53.3157 130.208C53.3157 130.208 52.2317 122.284 51.1637 120.284C50.9014 119.762 50.7827 119.179 50.8197 118.596C50.8717 116.768 51.9317 114.464 52.4517 111.796C53.1477 108.196 52.8117 106.416 54.9957 107.66C57.1797 108.904 56.1597 116.46 56.1597 116.46L59.4597 123.772C60.3277 122.004 59.4597 116.844 59.4157 115.624C59.4157 115.424 59.4157 115.092 59.3837 114.66C59.3157 112.556 59.1757 108.176 59.3557 106.448C59.3557 106.352 59.3557 106.264 59.3877 106.184C59.6557 104.4 60.6117 98.7239 61.2197 98.0919C62.1237 97.1559 63.5597 96.3679 64.9117 98.4919C65.6677 99.6919 65.3437 109.208 65.3437 109.208C65.3437 109.208 68.4797 105.424 69.4317 104.5C70.3837 103.576 73.2717 101.888 74.0437 103.844C74.8157 105.8 71.9677 111.844 71.9677 111.844C72.5637 113.244 72.6357 117.12 72.6357 117.12C72.6357 117.12 73.9837 121.964 74.8117 121.92H74.8477C75.0877 121.868 75.3517 120.988 75.6277 119.752C76.3077 116.724 77.0477 111.544 77.6277 111.092L78.0277 110.772C78.046 110.749 78.0675 110.729 78.0917 110.712L78.2397 110.58C79.6557 109.32 82.6397 106.52 82.6397 106.52C82.6397 106.52 82.8517 105.18 85.4637 105.592C88.0757 106.004 84.3037 113.712 84.3037 113.712C83.7797 116.164 82.9757 122.472 82.9757 122.472C82.7317 125.096 82.8757 132.148 82.8757 132.148C82.8757 132.148 84.1117 128.044 84.0317 126.548C83.9517 125.052 86.4877 121.388 87.2317 120.444C87.9757 119.5 91.2957 119.832 90.3717 121.644C89.4477 123.456 89.8237 129.2 89.4597 130.96Z" fill="white"/>
<path opacity="0.4" d="M52.7401 152.568C53.1231 151.842 53.5618 151.146 54.0521 150.488C54.0521 150.488 52.7521 154.088 52.6241 156.004C52.5401 157.268 49.2121 159.456 45.7441 162.188C48.9641 158.424 51.4921 155.412 52.7401 152.568Z" fill="white"/>
<path opacity="0.4" d="M54.0523 150.488C54.5483 149.784 54.9923 149.204 54.9923 149.204C54.9923 149.204 53.3923 144.696 53.7643 143.28C54.1363 141.864 53.3043 130.224 53.3043 130.224C53.3043 130.224 52.2203 122.3 51.1523 120.3L53.6403 124.648C53.6403 124.648 53.3963 128.084 54.1043 129.968C54.8123 131.852 55.7043 137.6 55.7043 137.6C55.7043 137.6 54.6563 142.432 55.0123 144.172C55.3683 145.912 56.9723 145.28 56.9723 145.28C56.9723 145.28 57.7603 148.464 54.0523 150.488Z" fill="white"/>
<path opacity="0.4" d="M59.8556 117.756C61.5716 127.804 58.6156 125.024 57.5476 122.856C56.4796 120.688 53.9716 116.584 52.0836 117.46C51.5534 117.709 51.1092 118.11 50.8076 118.612C50.8596 116.784 51.9196 114.48 52.4396 111.812C53.1356 108.212 52.7996 106.432 54.9836 107.676C57.1676 108.92 56.1476 116.476 56.1476 116.476L59.4476 123.788C60.3156 122.02 59.4476 116.86 59.4036 115.64C59.4036 115.44 59.4036 115.108 59.3716 114.676C59.5036 115.6 59.6636 116.628 59.8556 117.756Z" fill="white"/>
<path opacity="0.4" d="M64.0557 107.828C64.0557 107.828 62.2038 105.404 60.5958 105.528C60.3196 105.543 60.0539 105.638 59.8315 105.803C59.609 105.967 59.4394 106.193 59.3438 106.452C59.3438 106.356 59.3438 106.268 59.3758 106.188C59.6438 104.404 60.5998 98.728 61.2078 98.096C62.1118 97.16 63.5477 96.372 64.8997 98.496C65.6557 99.696 65.3317 109.212 65.3317 109.212C65.3317 109.212 68.4677 105.428 69.4197 104.504C70.3717 103.58 73.2597 101.892 74.0317 103.848C74.8037 105.804 71.9557 111.848 71.9557 111.848C72.5517 113.248 72.6237 117.124 72.6237 117.124C72.6237 117.124 73.9717 121.968 74.7997 121.924C72.9757 125.356 71.7597 117.768 71.7597 117.768C72.0317 116.2 71.0637 112.8 71.1597 111.904C71.2557 111.008 69.4797 107.84 66.4877 108.704C63.4957 109.568 65.6557 121.392 65.6557 121.392C65.0645 122.334 64.7206 123.41 64.6557 124.52C63.7317 123.38 64.6557 120.12 64.6557 120.12C63.8357 117 64.0557 107.828 64.0557 107.828Z" fill="white"/>
<path opacity="0.4" d="M77.9996 110.76C76.7236 112.1 76.8996 115.488 75.5996 119.74C76.2796 116.712 77.0196 111.532 77.5996 111.08L77.9996 110.76Z" fill="white"/>
<path opacity="0.4" d="M89.4603 130.96C89.0963 132.712 89.9723 142.316 89.8203 143.612C89.6683 144.908 82.0283 153.612 81.6443 154.272C81.2603 154.932 76.1523 157.872 74.9643 159.276C69.4123 165.752 66.3803 171.716 63.9443 177.696C64.8619 174.596 65.9694 171.556 67.2603 168.592C69.8883 162.684 70.9603 161.632 72.5363 159.944C74.1123 158.256 73.9403 154.668 73.9403 154.668C75.1035 154.388 76.2959 154.247 77.4923 154.248C79.4923 154.248 85.4123 145.808 87.4483 144.328C89.4843 142.848 89.8483 142.848 87.4483 139.584C85.0483 136.32 85.7283 140.108 85.0083 139.984C84.2883 139.86 83.8963 141.436 83.8963 141.436C83.6443 138.108 81.4963 134.236 81.0443 133.268C80.5923 132.3 82.1403 126.624 81.8203 125.044C81.5003 123.464 83.1963 113.844 83.1963 113.844C83.1963 113.844 82.9843 110.152 79.6403 110.14C79.1271 110.112 78.6203 110.265 78.2083 110.572C79.6243 109.312 82.6083 106.512 82.6083 106.512C82.6083 106.512 82.8203 105.172 85.4323 105.584C88.0443 105.996 84.2723 113.704 84.2723 113.704C83.7483 116.156 82.9443 122.464 82.9443 122.464C82.7003 125.088 82.8443 132.14 82.8443 132.14C82.8443 132.14 84.0803 128.036 84.0003 126.54C83.9203 125.044 86.4563 121.38 87.2003 120.436C87.9443 119.492 91.2643 119.824 90.3403 121.636C89.4163 123.448 89.8243 129.2 89.4603 130.96Z" fill="white"/>
<path d="M62.5838 181.2C65.2998 174.028 68.3358 167.028 74.9637 159.296C76.1637 157.912 81.2557 154.972 81.6437 154.292C82.0317 153.612 89.6717 144.924 89.8197 143.632C89.9677 142.34 89.0957 132.732 89.4597 130.98C89.8237 129.228 89.3997 123.452 90.3197 121.652C91.2397 119.852 87.9197 119.524 87.1797 120.452C86.4397 121.38 83.9117 125.076 83.9797 126.556C84.0477 128.036 82.8237 132.156 82.8237 132.156C82.8237 132.156 82.6797 125.104 82.9237 122.48C82.9237 122.48 83.7237 116.172 84.2517 113.72C84.2517 113.72 88.0197 106.008 85.4117 105.6C82.8037 105.192 82.5877 106.528 82.5877 106.528C82.5877 106.528 78.4237 110.44 77.5997 111.08C76.7757 111.72 75.6517 121.72 74.8237 121.908C73.9957 122.096 72.6117 117.108 72.6117 117.108C72.6117 117.108 72.5397 113.232 71.9437 111.832C71.9437 111.832 74.7877 105.804 74.0197 103.832C73.2517 101.86 70.3638 103.568 69.4078 104.488C68.4518 105.408 65.3198 109.196 65.3198 109.196C65.3198 109.196 65.6438 99.672 64.8878 98.48C63.5358 96.348 62.0878 97.136 61.1958 98.08C60.5878 98.712 59.6318 104.388 59.3638 106.172C59.0958 107.956 59.3638 114.388 59.3918 115.612C59.4198 116.836 60.3038 121.992 59.4358 123.76L56.1358 116.448C56.1358 116.448 57.1597 108.884 54.9718 107.648C52.7838 106.412 53.1238 108.196 52.4278 111.784C51.7318 115.372 50.0758 118.288 51.1398 120.292C52.2038 122.296 53.2918 130.216 53.2918 130.216C53.2918 130.216 54.1158 141.856 53.7518 143.272C53.3878 144.688 54.9918 149.2 54.9918 149.2C54.9918 149.2 53.1438 151.636 52.7398 152.564C50.8758 156.8 46.1598 161.432 40.5518 168.4" stroke="#263238" stroke-linecap="round" stroke-linejoin="round"/>
<path d="M65.3314 109.22C64.8669 109.907 64.6317 110.723 64.6594 111.552C64.6594 113.072 65.6554 121.392 65.6554 121.392C65.6554 121.392 64.9314 122.248 64.8954 122.992" stroke="#263238" stroke-linecap="round" stroke-linejoin="round"/>
<path d="M82.832 132.136C82.9413 133.541 83.3031 134.915 83.9 136.192C84.8361 138.04 84.532 139.06 84.212 140.152C83.9976 141.11 83.8837 142.087 83.872 143.068" stroke="#263238" stroke-linecap="round" stroke-linejoin="round"/>
<path d="M59.8001 122.132C59.8001 122.132 60.4961 124.34 59.2041 125.388" stroke="#263238" stroke-linecap="round" stroke-linejoin="round"/>
<path d="M74.8361 121.908C74.8361 121.908 74.9721 122.776 73.7441 122.856" stroke="#263238" stroke-linecap="round" stroke-linejoin="round"/>
<path d="M83.0833 111.908C83.0833 111.908 80.0033 108.548 77.6113 111.08" stroke="#263238" stroke-linecap="round" stroke-linejoin="round"/>
<path d="M70.6042 110.02C70.6042 110.02 69.1842 108.224 67.9522 108.332C66.7202 108.44 65.0562 109.192 64.8682 110.18" stroke="#263238" stroke-linecap="round" stroke-linejoin="round"/>
<path d="M84.4756 139.072C84.9724 139.783 85.3344 140.579 85.5436 141.42" stroke="#263238" stroke-linecap="round" stroke-linejoin="round"/>
<path d="M76.476 125.416C75.52 127.196 75.976 130.216 75.624 131.044" stroke="#263238" stroke-linecap="round" stroke-linejoin="round"/>
<path d="M66.3482 122.46C66.5722 123.484 65.8642 125.152 65.7562 126.38C65.6482 127.608 66.6522 129.504 66.4682 131.228" stroke="#263238" stroke-linecap="round" stroke-linejoin="round"/>
<path d="M59.8558 126.652C59.8558 126.652 59.0198 128.58 59.0558 129.852C59.0918 131.124 59.5438 133.912 59.5438 133.912" stroke="#263238" stroke-linecap="round" stroke-linejoin="round"/>
<path d="M53.7079 126.56C53.7079 126.56 53.4039 128.56 54.1079 129.968C54.8119 131.376 55.4959 134.368 55.4959 134.368" stroke="#263238" stroke-linecap="round" stroke-linejoin="round"/>
<path d="M54.9912 149.2C55.3599 149.098 55.6894 148.887 55.9369 148.596C56.1845 148.304 56.3386 147.944 56.3792 147.564" stroke="#263238" stroke-linecap="round" stroke-linejoin="round"/>
<path d="M75.0994 155.296C75.0994 155.296 75.8634 158.124 74.3994 159.944" stroke="#263238" stroke-linecap="round" stroke-linejoin="round"/>
<path d="M50.8271 118.276C50.8271 118.276 52.9791 116.176 54.6071 117.948" stroke="#263238" stroke-linecap="round" stroke-linejoin="round"/>
<path d="M59.376 106.188C59.376 106.188 60.976 104.512 62.848 106.304" stroke="#263238" stroke-linecap="round" stroke-linejoin="round"/>
</svg>
