<svg width="358" height="322" viewBox="0 0 358 322" fill="none" xmlns="http://www.w3.org/2000/svg">
<path d="M160.547 154.974C153.165 155.466 145.989 152.309 143.323 150.669H142.093L140.862 157.433V164.813L143.938 172.808C143.938 172.808 146.399 175.883 147.014 175.883C147.629 175.883 138.402 194.947 138.402 194.947V229.385L136.557 245.99L139.017 252.754C136.762 252.139 135.696 252.016 149.474 256.444C163.253 260.872 169.568 247.22 171.004 239.84C171.619 231.64 172.849 215.733 172.849 217.701C172.849 219.669 181.461 223.441 185.767 225.08C196.019 228.36 217.507 234.92 221.443 234.92C225.38 234.92 230.055 233.28 231.901 232.46C238.052 226.925 234.361 211.551 233.746 209.706C233.254 208.23 230.26 205.811 228.825 204.786C226.839 203.648 225.359 202.98 221.443 201.711L204.835 197.407L203.605 200.482C203.542 199.917 203.158 199.51 201.76 198.637L199.299 194.332L196.839 197.407L194.378 198.637V196.792L195.608 193.102L194.378 191.257C193.968 191.052 193.025 190.519 192.533 190.027C192.041 189.535 191.508 188.592 191.303 188.182L190.687 182.647C192.181 179.807 195.289 172.709 197.454 167.888C199.633 163.033 199.914 153.334 199.299 148.824L194.378 142.059C174.079 156.203 169.773 154.359 160.547 154.974Z" fill="#263238"/>
<path d="M146.041 177.014C145.929 177.013 145.818 176.986 145.717 176.935C145.617 176.884 145.53 176.81 145.463 176.719C143.532 174.013 140.001 166.117 139.632 162.476C139.263 158.836 141.342 150.177 141.428 149.783C141.475 149.603 141.59 149.449 141.749 149.353C141.907 149.257 142.097 149.226 142.278 149.268C142.459 149.309 142.617 149.42 142.718 149.576C142.819 149.732 142.855 149.921 142.818 150.103C142.818 150.201 140.714 158.934 141.047 162.402C141.379 165.871 144.823 173.472 146.62 175.932C146.674 176.008 146.714 176.094 146.736 176.185C146.757 176.276 146.761 176.371 146.746 176.463C146.731 176.556 146.698 176.644 146.649 176.724C146.6 176.804 146.536 176.873 146.46 176.928C146.332 176.997 146.186 177.027 146.041 177.014Z" fill="#263238"/>
<path d="M156.167 257.415L151.479 257.083C156.56 255.718 159.71 247.539 161.678 241.918C162.047 240.86 162.404 239.852 162.761 238.929C164.508 234.366 164.668 220.16 164.569 214.699C163.843 212.129 161.887 205.868 160.509 203.839C160.222 203.428 160.022 202.963 159.921 202.473C159.819 201.982 159.818 201.476 159.919 200.985C160.35 198.919 162.466 197.578 164.323 196.41C164.951 196.038 165.555 195.628 166.132 195.18C166.55 192.548 169.613 191.724 171.889 191.121C172.603 190.924 173.279 190.74 173.808 190.543C176.01 188.526 185.656 170.101 187.772 160.2C189.568 151.849 186.541 148.897 186.541 148.873L189.322 145.625C189.838 146.056 194.329 150.176 191.991 161.098C190.171 169.585 179.627 192.831 175.617 194.442C174.772 194.758 173.909 195.025 173.033 195.242C172.114 195.445 171.219 195.746 170.364 196.139C170.093 197.861 168.42 198.919 166.673 200.038C165.809 200.516 164.993 201.076 164.237 201.711C166.255 204.983 168.506 212.879 168.764 213.801L168.838 214.33C168.838 216.347 169.158 234.182 166.747 240.454C166.415 241.34 166.07 242.299 165.713 243.308C163.511 249.679 163.437 255.472 156.167 257.415Z" fill="white"/>
<path d="M235.455 214.761C232.097 213.113 223.35 211.391 218.109 210.284C215.87 209.817 213.938 209.398 212.487 209.054C210.078 208.482 207.543 208.787 205.339 209.915C204.685 210.201 204.01 210.44 203.321 210.628C200.664 211.293 198.856 208.685 197.552 206.779C197.404 206.57 197.244 206.324 197.072 206.102C195.411 207.074 193.123 208.402 190.921 207.775C190.41 207.621 189.937 207.364 189.53 207.019C189.124 206.674 188.793 206.249 188.559 205.77C187.998 204.561 187.585 203.289 187.328 201.982C186.922 200.272 186.639 199.19 185.79 198.513C182.887 196.201 182.899 195.106 182.838 194.824L185.015 191.269C186.001 192.722 187.157 194.052 188.46 195.229C190.134 196.748 191.208 198.817 191.486 201.059C191.672 201.965 191.944 202.85 192.298 203.704C193.206 203.399 194.073 202.986 194.882 202.474C195.485 202.076 196.139 201.762 196.826 201.539C198.757 201.059 199.938 202.769 201.07 204.405C201.534 205.123 202.061 205.798 202.645 206.422C202.952 206.324 203.321 206.176 203.727 206.004C206.785 204.517 210.269 204.151 213.569 204.971C214.935 205.315 216.829 205.709 219.019 206.201C224.235 207.193 229.32 208.778 234.176 210.924L235.455 214.761Z" fill="white"/>
<path d="M259.691 237.909C259.552 237.909 259.416 237.87 259.297 237.798C251.35 232.62 233.462 231.157 233.266 231.144C233.165 231.147 233.066 231.129 232.974 231.091C232.881 231.052 232.798 230.995 232.729 230.923C232.66 230.85 232.607 230.764 232.573 230.67C232.54 230.575 232.527 230.475 232.534 230.375C232.542 230.276 232.571 230.179 232.619 230.091C232.666 230.003 232.732 229.926 232.811 229.865C232.891 229.804 232.982 229.761 233.079 229.737C233.177 229.714 233.278 229.712 233.376 229.73C234.127 229.73 251.83 231.23 260.072 236.605C260.152 236.655 260.22 236.72 260.274 236.797C260.328 236.874 260.366 236.961 260.385 237.053C260.405 237.145 260.406 237.239 260.388 237.332C260.37 237.424 260.334 237.511 260.282 237.589C260.217 237.687 260.129 237.767 260.026 237.823C259.923 237.879 259.808 237.908 259.691 237.909Z" fill="#263238"/>
<path d="M253.294 223.912C252.739 223.9 252.188 223.808 251.658 223.641C249.111 222.916 235.665 215.696 235.124 215.388C234.958 215.3 234.834 215.149 234.779 214.969C234.723 214.79 234.741 214.596 234.828 214.429C234.919 214.262 235.072 214.138 235.254 214.083C235.436 214.028 235.632 214.046 235.8 214.134C240.586 216.717 250.133 221.723 252.039 222.276C252.55 222.484 253.11 222.539 253.651 222.436C253.695 222.271 253.797 222.127 253.939 222.031C254.08 221.934 254.251 221.892 254.421 221.911C254.591 221.931 254.748 222.01 254.865 222.136C254.981 222.262 255.048 222.425 255.053 222.596C255.047 222.785 254.997 222.969 254.907 223.136C254.818 223.302 254.691 223.446 254.537 223.555C254.173 223.807 253.736 223.932 253.294 223.912Z" fill="#263238"/>
<path d="M260.811 214.404C260.811 214.404 254.045 220.997 254.045 221.71C254.045 222.423 258.855 226.691 259.212 228.118C259.569 229.545 262.78 227.761 263.665 228.118C264.551 228.475 264.379 230.972 261.882 231.5C259.384 232.029 259.569 238.45 260.454 239.335C261.34 240.221 269.066 244.144 273.286 248.597C277.506 253.049 279.88 257.501 281.651 258.215C283.423 258.928 285.219 259.445 285.748 255.903C286.277 252.36 286.818 244.685 282.193 239.163C277.567 233.641 275.599 233.099 274.172 233.099C272.745 233.099 270.481 233.284 271.33 231.328C272.179 229.373 274.172 227.638 273.458 225.978C272.745 224.318 267.172 213.875 260.811 214.404Z" fill="#263238"/>
<path d="M285.514 260.822C284.995 260.848 284.478 260.732 284.02 260.484C283.562 260.237 283.181 259.869 282.918 259.42C282.876 259.337 282.851 259.246 282.845 259.154C282.838 259.061 282.85 258.968 282.88 258.88C282.91 258.791 282.957 258.71 283.018 258.64C283.08 258.57 283.155 258.514 283.238 258.473C283.405 258.391 283.598 258.377 283.775 258.434C283.951 258.492 284.099 258.616 284.186 258.78C284.247 258.879 284.727 259.678 286.228 259.309C288.282 258.793 289.919 258.202 290.337 255.767C290.913 250.452 289.826 245.089 287.224 240.417C285.644 238.034 283.748 235.874 281.59 233.997C279.658 232.189 278.145 230.762 278.034 229.237C278.034 228.684 278.034 228.13 277.973 227.552C278.077 225.345 277.655 223.144 276.743 221.132C275.131 217.922 271.305 213.752 267.676 212.215C264.342 210.849 262.829 211.452 261.525 214.675C261.451 214.849 261.311 214.987 261.136 215.059C260.961 215.13 260.764 215.129 260.59 215.056C260.415 214.983 260.277 214.843 260.205 214.668C260.134 214.492 260.135 214.296 260.208 214.121C261.869 210.161 264.206 209.201 268.266 210.886C272.326 212.571 276.361 217.036 278.108 220.492C279.137 222.682 279.626 225.086 279.535 227.503C279.535 228.061 279.56 228.602 279.609 229.126C279.671 230.086 281.085 231.414 282.709 232.939C284.967 234.904 286.945 237.167 288.59 239.667C291.383 244.633 292.536 250.353 291.887 256.013C291.272 259.272 288.996 260.109 286.72 260.675C286.327 260.782 285.921 260.831 285.514 260.822Z" fill="#263238"/>
<path d="M158.701 149.241C155.195 149.241 148.859 148.786 145.55 145.711C144.226 144.49 143.068 143.101 142.105 141.579C141.468 140.527 140.694 139.563 139.805 138.713C139.013 138.031 138.442 137.129 138.164 136.121C137.886 135.114 137.913 134.047 138.242 133.055C138.313 132.882 138.45 132.743 138.623 132.669C138.795 132.595 138.99 132.593 139.165 132.662C139.253 132.694 139.334 132.744 139.402 132.809C139.471 132.873 139.526 132.951 139.564 133.037C139.601 133.123 139.622 133.216 139.623 133.31C139.624 133.404 139.606 133.497 139.571 133.584C139.351 134.31 139.35 135.085 139.569 135.812C139.788 136.538 140.216 137.184 140.801 137.668C141.751 138.6 142.578 139.65 143.262 140.792C144.16 142.22 145.244 143.523 146.485 144.666C149.905 147.839 157.557 147.876 159.747 147.802C159.936 147.802 160.118 147.878 160.251 148.011C160.385 148.145 160.46 148.327 160.46 148.516C160.46 148.705 160.385 148.886 160.251 149.02C160.118 149.154 159.936 149.229 159.747 149.229L158.701 149.241Z" fill="#263238"/>
<path d="M163.942 155.588C158.016 155.654 152.12 154.731 146.497 152.858C138.956 149.906 139.116 146.708 139.423 145.835C139.517 145.513 139.628 145.197 139.755 144.888C140.051 144.15 140.161 143.879 139.755 143.215C138.747 141.69 139.571 138.381 139.669 138.012C139.716 137.83 139.832 137.673 139.994 137.577C140.155 137.48 140.348 137.451 140.53 137.496C140.714 137.545 140.87 137.664 140.967 137.827C141.063 137.99 141.092 138.185 141.047 138.369C140.715 139.599 140.469 141.714 140.949 142.428C141.264 142.855 141.45 143.364 141.483 143.895C141.515 144.425 141.394 144.953 141.133 145.416C141.016 145.674 140.922 145.942 140.85 146.216C140.518 147.446 141.945 149.524 147.001 151.529C153.153 153.989 168.851 156.031 178.139 151.529C193.209 144.273 194.28 141.591 194.243 140.939C194.206 140.287 194.144 139.709 194.07 138.971C193.696 137.004 193.772 134.977 194.292 133.043C195.128 130.878 195.965 128.726 195.104 126.032C194.533 123.568 194.24 121.047 194.23 118.517C194.144 116.845 194.07 115.258 193.898 114.053C193.688 111.881 193.004 109.781 191.893 107.903C191.82 107.845 191.76 107.772 191.716 107.69C191.671 107.608 191.644 107.518 191.634 107.426C191.625 107.333 191.635 107.239 191.662 107.15C191.69 107.061 191.735 106.978 191.795 106.907C191.917 106.762 192.09 106.671 192.279 106.652C192.467 106.634 192.656 106.69 192.803 106.808C193.837 107.682 194.895 111.101 195.264 113.905C195.461 115.135 195.534 116.796 195.621 118.505C195.623 120.914 195.896 123.315 196.433 125.663C197.441 128.837 196.433 131.333 195.621 133.535C195.171 135.284 195.112 137.111 195.448 138.885C195.522 139.599 195.596 140.288 195.633 140.927C195.707 142.526 194.046 145.502 178.717 152.87C174.608 154.838 169.232 155.588 163.942 155.588Z" fill="#263238"/>
<path d="M228.049 156.818C224.854 156.735 221.675 156.323 218.564 155.588C215.698 154.924 215.132 151.173 214.714 148.43C214.641 147.477 214.412 146.542 214.037 145.662C212.339 144.531 212.069 143.535 212.069 140.927C211.926 139.584 211.337 138.328 210.395 137.36C209.795 136.591 209.268 135.768 208.821 134.9C207.824 132.908 204.367 123.167 205.204 120.362C205.794 118.407 203.408 113.979 199.471 112.454C195.19 110.781 186.639 105.492 186.283 105.271C186.203 105.222 186.133 105.157 186.078 105.081C186.023 105.005 185.983 104.919 185.961 104.828C185.94 104.736 185.936 104.641 185.951 104.549C185.966 104.456 185.999 104.367 186.049 104.287C186.15 104.128 186.31 104.014 186.494 103.971C186.677 103.927 186.871 103.957 187.033 104.053C187.119 104.053 195.829 109.502 199.988 111.126C204.478 112.872 207.369 117.976 206.569 120.768C205.967 122.81 208.845 131.764 210.088 134.298C210.525 135.084 211.031 135.829 211.601 136.524C212.732 137.738 213.422 139.298 213.557 140.952C213.557 143.412 213.791 143.768 214.898 144.506C215.685 145.035 215.895 146.376 216.128 148.196C216.51 150.656 216.977 153.731 218.884 154.174C225.478 155.687 232.933 156.08 233.721 153.399C234.385 151.148 234.102 147.581 233.844 144.432C233.606 142.478 233.557 140.505 233.696 138.541C234.004 136.364 230.005 121.223 227.545 112.183C226.376 107.78 225.454 104.312 225.158 102.934C224.297 98.8753 199.422 80.8688 193.049 78.3351C187.562 76.1089 179.369 73.1817 171.495 73.4154C171.391 73.4247 171.286 73.4083 171.189 73.3676C171.093 73.3268 171.008 73.263 170.942 73.1817C169.766 71.8039 168.455 70.5472 167.029 69.4303L166.599 69.8977C164.901 71.7303 160.927 76.0475 155.231 75.3095C152.1 74.9746 149.033 74.1874 146.128 72.9726C146.148 73.6266 145.919 74.264 145.488 74.756L145.377 74.8421C145.254 74.9282 142.338 76.7485 134.305 76.072C126.555 75.371 122.298 74.9897 114.867 67.5608C112.788 65.4822 110.377 62.9485 107.806 60.2549C101.876 53.8961 95.1096 46.7993 92.5261 45.5079C89.5735 44.0319 84.2588 43.4416 82.3397 43.2694C82.1305 45.5202 81.0356 52.0881 75.4749 54.3389C75.4749 55.2245 75.8686 57.8319 79.2764 62.2966L81.1586 64.7565C86.9039 72.3576 100.375 90.1549 104.644 91.9876C106.022 92.5779 108.335 93.402 110.967 94.3491C118.164 96.9319 127.133 100.142 129.802 102.823C132.066 105.074 134.01 113.672 135.732 121.273C136.741 125.7 137.787 130.288 138.402 131.026C139.664 132.223 141.131 133.186 142.732 133.867C143.804 134.272 144.774 134.906 145.574 135.724C145.676 135.883 145.712 136.075 145.672 136.26C145.633 136.444 145.523 136.605 145.365 136.708C145.207 136.809 145.017 136.844 144.833 136.808C144.65 136.771 144.488 136.665 144.381 136.512C143.682 135.953 142.913 135.49 142.092 135.134C140.313 134.374 138.69 133.29 137.307 131.936C136.507 130.989 135.707 127.558 134.342 121.592C132.866 114.877 130.762 105.775 128.794 103.795C126.333 101.335 117.18 98.0512 110.488 95.6528C107.818 94.6934 105.567 93.8694 104.078 93.1929C99.4646 91.2127 86.3256 73.8581 80.0268 65.5191L78.1445 63.0592C73.445 56.9095 74.0232 53.8715 74.1094 53.5517C74.134 53.435 74.1891 53.3269 74.269 53.2383C74.349 53.1498 74.4509 53.0839 74.5645 53.0474C80.7157 50.9811 80.9618 42.5068 80.9741 42.4207C80.9772 42.3259 80.9992 42.2327 81.0388 42.1465C81.0784 42.0604 81.1348 41.983 81.2047 41.9188C81.2746 41.8547 81.3565 41.8051 81.4458 41.773C81.5351 41.7409 81.6298 41.727 81.7245 41.7319C82.0321 41.7319 89.2782 42.2362 93.1658 44.1918C95.9584 45.6432 102.528 52.5186 108.876 59.1726C111.435 61.8539 113.797 64.3876 115.913 66.4539C122.975 73.5138 126.813 73.8335 134.465 74.5592C141.207 75.1742 144.036 73.895 144.516 73.6368C144.663 73.3 144.726 72.933 144.701 72.5667C144.701 72.1608 144.701 71.2261 145.574 71.2261C145.88 71.2647 146.177 71.3607 146.448 71.5089C149.294 72.735 152.309 73.5229 155.391 73.8458C160.312 74.4731 164.003 70.5496 165.541 68.9261C165.814 68.5808 166.138 68.2782 166.5 68.0282C166.919 67.8314 167.731 67.4501 171.766 71.9886C179.787 71.841 188.042 74.7806 193.578 77.0314C199.988 79.6512 225.478 97.6945 226.536 102.713C226.819 104.053 227.766 107.509 228.911 111.888C232.491 125.27 235.419 136.487 235.062 138.812C234.941 140.674 234.994 142.543 235.222 144.396C235.48 147.667 235.775 151.369 235.037 153.866C234.397 156.129 231.383 156.818 228.049 156.818Z" fill="#263238"/>
<path d="M155.121 81.2624C152.925 81.2734 150.743 80.9201 148.663 80.217C141.552 77.7571 141.626 75.3587 141.712 74.9036C141.741 74.716 141.844 74.5478 141.997 74.4359C142.151 74.3241 142.342 74.2777 142.53 74.3071C142.718 74.3364 142.886 74.4391 142.998 74.5925C143.11 74.7459 143.156 74.9374 143.127 75.125C143.127 75.248 143.41 76.8961 149.13 78.8148C153.005 80.0563 157.168 80.0844 161.059 78.8951C164.951 77.7059 168.387 75.3562 170.905 72.1608C170.963 72.0873 171.035 72.0259 171.116 71.9804C171.198 71.9349 171.288 71.9062 171.38 71.8959C171.473 71.8856 171.567 71.8939 171.657 71.9204C171.746 71.9469 171.83 71.991 171.902 72.0501C172.049 72.1704 172.142 72.3433 172.163 72.5318C172.184 72.7203 172.13 72.9094 172.013 73.0587C169.994 75.6068 167.428 77.6675 164.504 79.0878C161.579 80.508 158.372 81.2513 155.121 81.2624Z" fill="#263238"/>
<path d="M92.8462 24.9309L4.73633 9.49512L86.1906 12.3486L92.8462 24.9309Z" fill="#E8E8E8"/>
<path d="M78.3416 12.0657V8.06836L4.73633 9.4951L78.3416 12.0657Z" fill="#D9D9D9"/>
<path d="M83.115 7.98235L67.9092 0L4.73633 9.49519L83.115 7.98235Z" fill="#E8E8E8"/>
<path d="M74.7982 54.4866C74.695 54.4904 74.5924 54.4702 74.4985 54.4275C74.4045 54.3848 74.3218 54.3208 74.2569 54.2406C74.1461 54.1176 63.3323 41.5598 60.1091 39.0261C59.4448 38.5096 58.7558 37.9438 58.0423 37.3657C55.1716 34.7878 51.9642 32.6115 48.5079 30.8962C44.0791 29.0267 38.42 19.9251 38.1862 19.5315C38.1377 19.4507 38.1057 19.3612 38.0918 19.268C38.0779 19.1749 38.0826 19.0799 38.1054 18.9885C38.1282 18.8972 38.1689 18.8112 38.225 18.7355C38.281 18.6599 38.3515 18.596 38.4323 18.5475C38.513 18.4991 38.6026 18.467 38.6958 18.4531C38.7889 18.4393 38.8839 18.4439 38.9753 18.4667C39.0667 18.4896 39.1527 18.5302 39.2284 18.5863C39.3041 18.6423 39.368 18.7127 39.4165 18.7935C39.4165 18.8796 45.0756 27.8828 49.0984 29.5924C52.6169 31.0807 55.9878 33.8358 58.9404 36.2587L60.9826 37.9069C64.3288 40.5267 74.8843 52.7892 75.3395 53.3181C75.4007 53.3881 75.4474 53.4695 75.4769 53.5577C75.5064 53.6458 75.518 53.739 75.5112 53.8317C75.5043 53.9244 75.4791 54.0148 75.4369 54.0977C75.3948 54.1805 75.3366 54.2542 75.2657 54.3144C75.1368 54.4281 74.97 54.4895 74.7982 54.4866Z" fill="#263238"/>
<path d="M53.2078 17.8834L6.63086 9.49512L54.9055 24.0085L53.2078 17.8834Z" fill="#9E9E9E"/>
<path d="M62.0045 26.1364L79.314 31.339L80.5442 22.7909L59.9746 19.1011C59.9746 19.1011 60.4298 21.7701 60.6882 22.7909C61.0473 23.9358 61.4872 25.0537 62.0045 26.1364Z" fill="#9E9E9E"/>
<path d="M148.859 73.9073H148.662C148.572 73.8818 148.487 73.8386 148.413 73.7802C148.339 73.7218 148.277 73.6493 148.232 73.567C148.186 73.4847 148.157 73.3941 148.146 73.3005C148.136 73.2069 148.144 73.1122 148.17 73.0217C148.17 73.0217 149.511 68.2864 148.17 65.0271C148.123 64.9387 148.095 64.8414 148.088 64.7414C148.081 64.6415 148.095 64.5411 148.129 64.447C148.163 64.3528 148.217 64.2669 148.287 64.1949C148.356 64.1229 148.44 64.0664 148.533 64.029C148.626 63.9916 148.726 63.9743 148.826 63.978C148.927 63.9818 149.025 64.0067 149.115 64.0509C149.205 64.0952 149.284 64.1579 149.348 64.235C149.412 64.312 149.459 64.4017 149.486 64.4982C151 68.188 149.573 73.2062 149.486 73.4153C149.443 73.5504 149.36 73.6695 149.248 73.7571C149.136 73.8447 149.001 73.897 148.859 73.9073Z" fill="#263238"/>
<path d="M164.754 71.423C164.641 71.423 164.53 71.3963 164.429 71.345C164.329 71.2937 164.242 71.2192 164.176 71.1278C162.232 68.4466 158.984 63.7482 159.107 62.4321C159.129 62.2461 159.221 62.0757 159.366 61.9565C159.51 61.8373 159.695 61.7786 159.882 61.7925C160.069 61.8142 160.241 61.9065 160.362 62.0505C160.483 62.1946 160.545 62.3795 160.534 62.5674C160.534 63.3177 162.994 67.1674 165.332 70.2915C165.387 70.3674 165.426 70.4534 165.448 70.5445C165.47 70.6357 165.473 70.7302 165.458 70.8227C165.444 70.9152 165.411 71.0039 165.361 71.0837C165.312 71.1635 165.248 71.2328 165.172 71.2877C165.05 71.3742 164.904 71.4214 164.754 71.423Z" fill="#263238"/>
<path d="M244.362 182.217C244.192 182.214 244.023 182.193 243.858 182.155C241.889 181.725 234.188 173.841 232.786 171.922C231.702 170.552 230.317 169.449 228.738 168.7C227.954 169.787 227.463 171.058 227.311 172.389C227.164 174.21 226.881 175.993 225.823 176.719C225.569 176.886 225.281 176.991 224.98 177.028C224.679 177.064 224.373 177.03 224.088 176.928C221.898 176.264 222.23 174.234 222.698 171.43L222.858 170.434C223.345 168.239 224.176 166.135 225.318 164.198C225.515 163.829 225.724 163.423 225.835 163.177C225.269 162.23 222.956 158.417 221.369 155.797C221.272 155.635 221.243 155.442 221.286 155.258C221.33 155.074 221.443 154.915 221.603 154.814C221.683 154.764 221.772 154.731 221.864 154.716C221.957 154.701 222.052 154.704 222.143 154.726C222.235 154.748 222.321 154.787 222.397 154.842C222.473 154.897 222.538 154.967 222.587 155.047C223.337 156.277 227.053 162.341 227.225 162.697C227.397 163.054 227.225 163.546 226.573 164.813C225.509 166.617 224.733 168.575 224.272 170.618L224.1 171.615C223.62 174.542 223.596 175.243 224.494 175.513C224.838 175.624 224.961 175.513 225.023 175.513C225.663 175.083 225.835 172.955 225.896 172.254C226.027 170.411 226.797 168.671 228.074 167.334C228.202 167.246 228.347 167.187 228.5 167.162C228.653 167.136 228.81 167.145 228.96 167.187C230.891 168.03 232.582 169.34 233.881 171C235.775 173.459 242.96 180.446 244.153 180.704C244.288 180.704 244.522 180.765 244.584 180.642C244.645 180.519 244.584 179.535 243.526 178.539C242.111 177.309 237.448 171.159 237.854 169.745C237.897 169.591 237.982 169.452 238.099 169.343C238.216 169.235 238.362 169.161 238.519 169.13C239.183 168.995 239.847 169.474 243.649 172.82C245.605 174.554 248.57 177.162 249.308 177.309C249.592 177.365 249.88 177.406 250.169 177.432C250.014 177.159 249.842 176.896 249.652 176.645C249.062 175.821 247.893 174.542 246.761 173.3C245.378 171.906 244.122 170.391 243.009 168.773C242.922 168.607 242.904 168.413 242.959 168.233C243.015 168.053 243.139 167.903 243.304 167.814C243.471 167.725 243.666 167.705 243.848 167.758C244.029 167.811 244.183 167.933 244.276 168.097C245.336 169.605 246.517 171.024 247.807 172.34C249.037 173.669 250.169 174.923 250.809 175.809C251.448 176.694 252.039 177.617 251.535 178.269C251.03 178.92 250.034 178.859 249.074 178.65C248.114 178.441 245.986 176.694 242.751 173.841C241.889 173.078 240.856 172.156 240.02 171.467C241.293 173.617 242.803 175.618 244.522 177.432C245.888 178.662 246.441 180.187 245.9 181.233C245.772 181.532 245.557 181.786 245.283 181.961C245.008 182.137 244.688 182.226 244.362 182.217Z" fill="#263238"/>
<path d="M251.571 176.264C250.564 176.209 249.58 175.932 248.693 175.452C248.553 175.348 248.457 175.196 248.422 175.026C248.386 174.856 248.414 174.679 248.5 174.527C248.586 174.376 248.725 174.262 248.889 174.206C249.054 174.149 249.233 174.155 249.394 174.222C250.14 174.652 250.994 174.861 251.854 174.825L251.916 174.751C251.916 174.751 251.916 174.333 250.55 173.09C248.338 170.77 246.283 168.304 244.399 165.711C244.298 165.569 244.244 165.399 244.244 165.225C244.244 165.051 244.298 164.881 244.399 164.739C245.248 163.706 252.506 167.101 252.58 167.199C252.629 167.209 252.679 167.209 252.728 167.199C252.728 167.199 252.728 166.621 251.818 165.858C250.686 164.936 244.35 162.611 234.852 159.635L234.68 159.573C232.663 158.946 231.814 156.08 231.728 155.76C231.7 155.587 231.737 155.41 231.832 155.263C231.926 155.116 232.072 155.008 232.24 154.961C232.409 154.914 232.589 154.93 232.747 155.007C232.904 155.085 233.027 155.217 233.093 155.379C233.29 156.043 234.016 157.839 235.099 158.22H235.271C242.308 160.434 251.055 163.349 252.716 164.702C254.376 166.055 254.339 167.26 253.946 167.949C253.738 168.255 253.422 168.47 253.061 168.553C252.7 168.635 252.322 168.577 252.002 168.392C251.264 168.023 248.533 166.941 246.712 166.313C248.228 168.324 249.871 170.234 251.633 172.033C252.925 173.263 253.466 174.087 253.441 174.825C253.425 175.05 253.359 175.27 253.248 175.467C253.138 175.665 252.985 175.836 252.802 175.968C252.442 176.216 252.004 176.321 251.571 176.264Z" fill="#263238"/>
<path d="M138.697 12.078C138.697 12.078 129.889 14.3411 128.707 19.1625C127.526 23.9839 128.707 29.0021 132.509 28.4978C136.31 27.9935 141.293 24.6973 144.614 24.931C147.936 25.1647 147.235 26.4192 146.042 28.5224C144.848 30.6256 146.989 34.1925 152.931 32.532C158.873 30.8716 159.082 27.7844 163.376 28.9652C167.669 30.1459 163.757 39.8871 164.754 41.2647C165.75 42.6422 165.984 44.5855 168.223 41.2647C170.462 37.9438 173.833 33.4299 177.388 34.6229C180.943 35.816 174.066 42.6914 170.511 44.1181L166.943 45.5449C166.943 45.5449 165.516 55.5074 163.376 56.9342C163.376 56.9342 177.634 55.0401 183.059 50.0465C188.485 45.0529 183.773 45.1267 184.72 42.4577C185.668 39.7887 191.13 39.6534 191.13 36.4187C191.13 33.1839 190.416 33.6636 185.434 31.2898C180.451 28.916 181.866 27.7352 182.58 26.5422C183.293 25.3491 184.007 23.2213 179.972 22.0283C175.936 20.8352 166.439 17.9941 168.186 15.3866C169.933 12.7791 170.843 7.55182 164.717 8.0069C158.59 8.46198 152.734 12.447 149.252 12.0165C145.771 11.586 142.56 10.6636 138.697 12.078Z" fill="#263238"/>
<path d="M150.323 65.7652H150.151L148.551 65.4085C144.405 64.4983 135.781 62.6165 131.18 59.3571C125.558 55.3721 126.579 45.4588 127.588 42.2978C128.597 39.1368 130.873 28.4486 130.897 28.2887C130.916 28.1948 130.954 28.1058 131.009 28.0274C131.064 27.9491 131.135 27.8831 131.217 27.8336C131.296 27.7809 131.385 27.7458 131.478 27.7309C131.572 27.7161 131.667 27.7217 131.759 27.7475C131.902 27.7607 132.046 27.7607 132.189 27.7475C132.262 27.7101 132.341 27.6851 132.423 27.6737C134.291 27.3128 136.109 26.7264 137.836 25.9272C140.296 24.9186 142.683 23.9593 144.664 24.1069C145.759 24.193 147.124 24.3898 147.567 25.3368C148.01 26.2839 147.456 27.3908 146.669 28.7807C146.492 29.1226 146.419 29.5093 146.461 29.8922C146.502 30.2751 146.656 30.6372 146.903 30.9331C147.887 32.163 150.077 32.5197 152.734 31.7695C154.537 31.2669 156.242 30.4644 157.778 29.3957C159.476 28.301 160.804 27.44 163.573 28.1657C166.993 29.1251 166.205 34.008 165.639 37.5871C165.391 38.6422 165.291 39.7269 165.344 40.8096C165.529 41.0678 165.689 41.3507 165.848 41.6213C165.973 41.8876 166.139 42.1325 166.341 42.347C166.821 41.8907 167.236 41.369 167.571 40.7973C169.576 37.8823 173.304 32.4582 177.56 33.885C177.977 33.9924 178.347 34.2334 178.614 34.5711C178.88 34.9087 179.029 35.3244 179.037 35.7545C179.123 38.5711 173.833 43.4662 170.708 44.7085L167.485 45.9999C167.054 47.7219 165.209 54.9293 163.942 57.217L163.696 57.6844C162.908 59.2342 161.235 62.4812 158.073 64.1539C157.907 64.241 157.713 64.2589 157.533 64.2036C157.353 64.1483 157.203 64.0244 157.114 63.8587C157.026 63.6904 157.008 63.4943 157.063 63.3127C157.118 63.131 157.242 62.9783 157.409 62.8871C160.189 61.4235 161.703 58.4593 162.428 57.0325L162.699 56.5283C164.003 54.1422 166.168 45.4588 166.193 45.3112C166.218 45.2016 166.269 45.0998 166.342 45.0142C166.415 44.9285 166.507 44.8617 166.611 44.8192L170.179 43.3924C172.922 42.2978 177.671 37.7224 177.56 35.7914C177.56 35.6069 177.56 35.3855 177.056 35.2256C174.214 34.2785 171.36 37.6855 168.703 41.609C167.608 43.1957 166.845 43.786 166.107 43.7614C165.369 43.7368 164.877 42.9866 164.495 42.3224C164.36 42.0887 164.225 41.8427 164.065 41.609C163.573 40.9203 163.745 39.678 164.065 37.3534C164.557 34.3154 165.221 30.1582 163.031 29.5432C160.841 28.9283 160.005 29.5432 158.393 30.5518C156.797 31.7227 155.018 32.6205 153.128 33.2085C148.465 34.5122 146.435 32.7165 145.746 31.8801C145.328 31.3695 145.071 30.7463 145.008 30.0894C144.944 29.4325 145.077 28.7716 145.39 28.1903C145.82 27.4154 146.411 26.37 146.263 26.0994C146.263 26.0994 146.042 25.7673 144.528 25.6566C143.015 25.5459 140.567 26.4684 138.377 27.3785C136.572 28.1904 134.682 28.8009 132.743 29.1989C132.554 29.2685 132.353 29.3019 132.152 29.2973C131.623 31.7572 129.802 40.047 128.941 42.7283C128.08 45.4096 127.096 54.708 132.005 58.201C136.36 61.2882 144.799 63.1208 148.847 64.0186L150.483 64.3753C150.574 64.397 150.66 64.4365 150.736 64.4915C150.812 64.5466 150.877 64.616 150.926 64.696C150.975 64.776 151.008 64.8649 151.023 64.9576C151.037 65.0503 151.034 65.145 151.012 65.2363C150.973 65.389 150.884 65.5243 150.759 65.6202C150.634 65.7162 150.48 65.7672 150.323 65.7652Z" fill="#263238"/>
<path d="M129.384 38.9771C129.268 38.9792 129.153 38.9494 129.052 38.891C127.426 37.9468 126.008 36.6846 124.881 35.18C123.755 33.6754 122.943 31.9591 122.495 30.1338C122.125 29.0703 122.125 27.9133 122.495 26.8498C122.684 26.5737 122.947 26.356 123.253 26.2212C123.56 26.0865 123.898 26.0401 124.229 26.0873C125.46 26.1979 127.059 27.3172 128.191 29.9616C128.831 31.6196 129.656 33.1998 130.651 34.6723C130.767 34.8223 130.819 35.0122 130.794 35.2002C130.77 35.3882 130.672 35.5589 130.522 35.6747C130.372 35.7905 130.182 35.8419 129.994 35.8177C129.806 35.7935 129.635 35.6956 129.519 35.5456C128.425 33.9859 127.521 32.3012 126.825 30.5274C125.866 28.252 124.623 27.5509 124.033 27.5017C123.75 27.5017 123.651 27.6001 123.627 27.637C123.221 28.5348 124.66 35.0167 129.679 37.6365C129.818 37.7117 129.929 37.831 129.992 37.9756C130.056 38.1202 130.07 38.2819 130.032 38.4353C129.994 38.5887 129.906 38.7252 129.782 38.8232C129.658 38.9213 129.505 38.9754 129.347 38.9771H129.384Z" fill="#263238"/>
<path d="M158.43 37.0089H158.061C157.754 36.9553 157.472 36.8085 157.251 36.5883C157.031 36.3682 156.884 36.0856 156.831 35.7789C156.634 34.9426 154.862 33.7495 153.657 33.1714C153.572 33.1307 153.495 33.0735 153.432 33.0031C153.369 32.9326 153.321 32.8504 153.29 32.7612C153.259 32.6719 153.246 32.5774 153.252 32.4832C153.258 32.3889 153.283 32.2968 153.325 32.2121C153.364 32.1273 153.42 32.0513 153.49 31.9885C153.559 31.9257 153.64 31.8774 153.728 31.8465C153.817 31.8155 153.91 31.8026 154.004 31.8083C154.097 31.8141 154.188 31.8384 154.272 31.88C154.862 32.1629 157.803 33.6757 158.221 35.4591C158.221 35.5698 158.221 35.5698 158.319 35.5821C158.475 35.5872 158.629 35.5539 158.768 35.4853C158.908 35.4166 159.028 35.3147 159.119 35.1886C159.198 35.0724 159.24 34.9353 159.24 34.795C159.24 34.6546 159.198 34.5175 159.119 34.4014C158.184 32.6672 157.544 31.6955 156.757 31.4864C156.661 31.4688 156.569 31.4315 156.487 31.3768C156.406 31.3221 156.337 31.2513 156.284 31.1686C156.231 31.086 156.196 30.9934 156.181 30.8966C156.165 30.7997 156.17 30.7008 156.194 30.6058C156.219 30.5109 156.263 30.4221 156.323 30.3449C156.384 30.2677 156.46 30.2038 156.546 30.1571C156.632 30.1105 156.727 30.0822 156.825 30.0739C156.923 30.0655 157.021 30.0775 157.114 30.1089C158.541 30.4779 159.402 31.9046 160.374 33.7372C160.58 34.095 160.675 34.5059 160.646 34.9177C160.618 35.3295 160.467 35.7235 160.214 36.0495C160.006 36.3317 159.739 36.5641 159.43 36.7301C159.122 36.896 158.78 36.9912 158.43 37.0089Z" fill="#263238"/>
<path d="M132.866 32.0527C132.789 32.0645 132.71 32.0645 132.632 32.0527C132.264 31.9718 131.923 31.7967 131.643 31.5444C131.362 31.2922 131.152 30.9714 131.033 30.6136C130.976 30.2547 131 29.8876 131.102 29.5389C131.204 29.1901 131.382 28.8683 131.624 28.5965C131.759 28.4658 131.94 28.3927 132.128 28.3927C132.316 28.3927 132.497 28.4658 132.632 28.5965C132.762 28.7298 132.835 28.9085 132.835 29.0946C132.835 29.2808 132.762 29.4595 132.632 29.5928C132.509 29.7404 132.3 30.0971 132.362 30.2938C132.423 30.4906 132.546 30.5398 132.78 30.6505C134.09 30.0524 135.5 29.7021 136.938 29.6174C137.149 29.6093 137.351 29.5365 137.519 29.4088C137.686 29.2811 137.81 29.1048 137.873 28.904C138.058 28.4815 138.093 28.0084 137.972 27.5634C137.81 27.5879 137.645 27.556 137.503 27.4732C137.362 27.3903 137.254 27.2615 137.197 27.1083C137.131 26.9384 137.134 26.7497 137.205 26.5822C137.277 26.4146 137.41 26.2813 137.578 26.2104C137.802 26.1162 138.049 26.0905 138.288 26.1365C138.526 26.1824 138.746 26.298 138.919 26.4687C139.223 26.8793 139.412 27.3638 139.466 27.872C139.521 28.3802 139.438 28.8937 139.226 29.3591C139.07 29.8325 138.773 30.2471 138.375 30.548C137.978 30.849 137.498 31.022 137 31.0441C135.662 31.1239 134.354 31.4666 133.149 32.0527C133.056 32.0738 132.959 32.0738 132.866 32.0527Z" fill="#263238"/>
<path d="M134.649 36.2955C133.93 35.9984 133.19 35.7559 132.435 35.5698C132.107 35.4821 131.774 35.4123 131.438 35.3607C131.057 35.2869 130.651 35.25 130.122 35.1024C130.402 34.6641 130.813 34.3256 131.297 34.1355C131.781 33.9455 132.313 33.9137 132.816 34.0447C133.333 34.1542 133.797 34.4372 134.13 34.8467C134.464 35.2562 134.647 35.7674 134.649 36.2955Z" fill="#263238"/>
<path d="M147.629 38.2635C148.073 37.6641 148.706 37.231 149.425 37.0336C150.15 36.8244 150.915 36.799 151.652 36.9598C152.379 37.1273 153.055 37.4692 153.62 37.956C154.189 38.4242 154.615 39.0419 154.85 39.7394C154.149 39.4935 153.62 39.2106 153.005 39.0015C152.463 38.7847 151.903 38.6159 151.332 38.4972C150.768 38.3577 150.191 38.2753 149.61 38.2512C148.945 38.2512 148.318 38.2512 147.629 38.2635Z" fill="#263238"/>
<path d="M138.808 46.7381H138.673C137.411 46.4847 136.175 46.1141 134.982 45.6311C134.761 45.5363 134.565 45.3931 134.407 45.2121C134.25 45.0312 134.135 44.8171 134.071 44.5857C133.957 43.7174 134.177 42.8382 134.687 42.1258L138.205 35.2012L138.328 35.029C138.561 34.7554 138.855 34.5405 139.186 34.4016C139.517 34.2627 139.877 34.2038 140.235 34.2295C140.616 34.3079 140.976 34.4655 141.292 34.6923C141.608 34.919 141.872 35.2098 142.068 35.5456C142.145 35.6885 142.175 35.852 142.154 36.0129C142.154 36.0129 141.355 41.2525 141.268 43.3926C141.304 44.1184 141.104 44.8362 140.698 45.4391C140.293 46.042 139.703 46.4976 139.017 46.7381H138.808ZM139.386 35.9145L135.88 42.8145C135.578 43.2102 135.413 43.6941 135.412 44.1921C135.412 44.1921 135.412 44.2782 135.548 44.3274C136.58 44.75 137.652 45.0713 138.746 45.2867C139.092 45.0934 139.375 44.8056 139.562 44.457C139.75 44.1084 139.834 43.7135 139.804 43.3188C139.891 41.3509 140.493 37.1691 140.666 36.0498C140.506 35.8369 140.281 35.6816 140.026 35.6071C139.903 35.613 139.782 35.6445 139.672 35.6995C139.562 35.7546 139.465 35.832 139.386 35.9268V35.9145Z" fill="#263238"/>
<path d="M130.122 38.227C130.4 38.1366 130.693 38.1052 130.983 38.1349C131.273 38.1645 131.554 38.2546 131.808 38.3992C132.59 38.8294 133.215 39.4979 133.591 40.3075C133.967 41.1171 134.075 42.0256 133.899 42.9008C133.505 43.9094 132.226 42.7655 130.381 42.0399C129.778 41.8062 129.716 42.0399 129.15 41.8431L130.122 38.227Z" fill="#263238"/>
<path d="M144.701 45.1022C144.492 46.3322 146.768 46.037 149.437 46.4675C152.107 46.898 154.137 47.9434 154.358 46.6643C154.58 45.3851 152.857 42.2365 150.2 41.806C147.543 41.3755 144.91 43.8231 144.701 45.1022Z" fill="#263238"/>
<path d="M138.045 52.1131C139.657 51.6212 141.022 51.3752 142.326 50.9693C142.98 50.782 143.621 50.5519 144.245 50.2805C144.897 50.0222 145.476 49.6533 146.288 49.272C146.124 50.1187 145.693 50.8905 145.057 51.4736C144.424 52.0488 143.666 52.4697 142.843 52.7035C142.044 52.9345 141.208 53.0056 140.382 52.9126C139.548 52.8492 138.743 52.574 138.045 52.1131Z" fill="#263238"/>
<path d="M169.318 111.617C169.318 118.431 166.464 123.917 156.24 123.917C149.031 123.917 144.688 118.407 144.688 111.617C144.688 104.828 147.592 99.3179 156.24 99.3179C164.889 99.3179 169.318 104.816 169.318 111.617Z" fill="#E8E8E8"/>
<path d="M155.01 113.156H154.777C154.383 113.156 153.633 113.156 153.411 112.479C153.19 111.803 153.694 111.483 154.039 111.249C154.213 111.109 154.374 110.953 154.518 110.782L154.408 110.708C153.485 110.068 147.309 110.265 141.871 110.831C141.778 110.843 141.684 110.836 141.593 110.811C141.503 110.786 141.418 110.742 141.345 110.684C141.272 110.625 141.211 110.553 141.166 110.47C141.121 110.388 141.093 110.297 141.084 110.204C141.067 110.015 141.124 109.827 141.244 109.68C141.363 109.533 141.535 109.438 141.724 109.417C143.655 109.22 153.399 108.273 155.256 109.539C155.471 109.667 155.65 109.847 155.777 110.062C155.903 110.277 155.974 110.52 155.982 110.769C155.988 110.964 155.955 111.157 155.885 111.339C155.815 111.52 155.71 111.686 155.576 111.827C156.167 111.827 156.979 111.692 157.914 111.581C162.035 111.089 168.986 110.265 175.014 111.876C175.192 111.93 175.342 112.05 175.432 112.212C175.523 112.374 175.546 112.565 175.498 112.744C175.45 112.923 175.334 113.077 175.175 113.172C175.016 113.267 174.826 113.297 174.645 113.254C168.826 111.717 162.109 112.516 158.086 112.996C156.684 113.02 155.662 113.156 155.01 113.156Z" fill="#263238"/>
<path d="M55.5572 29.9122C55.418 29.9132 55.2818 29.8729 55.1656 29.7962C55.0495 29.7195 54.9589 29.6101 54.9052 29.4817C54.3828 27.7395 54.142 25.925 54.1916 24.1069L52.5062 18.1785C52.4764 18.0624 52.4758 17.9407 52.5045 17.8243C52.5333 17.7079 52.5904 17.6004 52.6708 17.5115C52.7513 17.4225 52.8525 17.3549 52.9654 17.3146C53.0784 17.2743 53.1996 17.2627 53.3181 17.2807L59.2725 18.3261C59.5678 18.3261 60.9949 18.7935 61.2532 22.016C61.3715 23.3815 61.8373 24.6941 62.6065 25.8288C62.6569 25.908 62.6906 25.9966 62.7055 26.0893C62.7204 26.182 62.7162 26.2767 62.6932 26.3677C62.6701 26.4587 62.6287 26.544 62.5715 26.6185C62.5143 26.6929 62.4424 26.7548 62.3604 26.8005C62.2807 26.8491 62.1921 26.8814 62.0998 26.8954C62.0075 26.9094 61.9133 26.9048 61.8227 26.8818C61.7322 26.8589 61.6472 26.8182 61.5726 26.762C61.498 26.7057 61.4355 26.6352 61.3885 26.5545C60.5038 25.2388 59.9702 23.7188 59.8384 22.139C59.6662 20.0112 58.9773 19.6791 58.965 19.6791L54.1916 18.8427L55.5941 23.7625C55.6 23.8321 55.6 23.902 55.5941 23.9716C55.5391 25.632 55.7383 27.2911 56.1846 28.8914C56.2589 29.0643 56.2618 29.2597 56.1927 29.4348C56.1235 29.6099 55.988 29.7505 55.8155 29.8261C55.7353 29.8701 55.6478 29.8993 55.5572 29.9122Z" fill="#263238"/>
<path d="M81.6876 43.2083C81.5574 43.2138 81.4287 43.1795 81.3185 43.1099C79.6946 42.1505 65.3992 33.5655 63.4801 30.0232C63.4164 29.9129 63.3828 29.7878 63.3828 29.6604C63.3828 29.533 63.4164 29.4079 63.4801 29.2976C63.8785 28.5778 64.1176 27.7809 64.1813 26.9607C64.1894 26.867 64.2158 26.7758 64.2591 26.6924C64.3025 26.6089 64.3618 26.5348 64.4338 26.4743C64.5058 26.4137 64.5889 26.368 64.6786 26.3396C64.7683 26.3112 64.8626 26.3007 64.9563 26.3088C65.05 26.3169 65.1412 26.3433 65.2247 26.3866C65.3082 26.4299 65.3823 26.4893 65.4429 26.5612C65.5034 26.6332 65.5492 26.7163 65.5776 26.806C65.606 26.8956 65.6165 26.99 65.6084 27.0837C65.5239 27.9744 65.2867 28.844 64.9071 29.6543C66.9985 32.5692 77.8616 39.4077 82.0198 41.9537C82.1018 41.9994 82.1736 42.0613 82.2309 42.1357C82.2881 42.2102 82.3295 42.2955 82.3525 42.3865C82.3756 42.4775 82.3798 42.5722 82.3649 42.6649C82.3499 42.7576 82.3163 42.8462 82.2658 42.9254C82.1984 43.0145 82.1109 43.0866 82.0105 43.1357C81.91 43.1849 81.7994 43.2097 81.6876 43.2083Z" fill="#263238"/>
<path d="M154.051 287.045C154.051 287.045 153.374 276.64 152.82 276.136C152.267 275.631 145.193 276.591 143.741 275.865C142.289 275.139 141.49 279.112 140.555 279.555C139.62 279.998 137.651 278.103 138.992 275.631C140.333 273.159 134.822 268.719 133.444 268.83C132.066 268.94 123.282 272.52 116.491 272.938C109.7 273.356 104.3 272.077 102.43 273.061C100.56 274.045 98.8251 275.152 101.433 278.153C104.041 281.154 110.045 287.094 118.017 287.168C125.989 287.242 127.859 285.938 128.843 284.782C129.827 283.626 131.303 281.523 132.374 283.675C133.444 285.828 133.469 288.743 135.326 289.296C137.184 289.849 149.905 292.801 154.051 287.045Z" fill="#263238"/>
<path d="M142.167 297.647C140.304 297.662 138.446 297.46 136.631 297.045C134.07 296.333 131.714 295.026 129.754 293.232C129.286 292.85 128.819 292.469 128.351 292.125C127.465 291.473 125.325 291.707 122.864 291.977C119.604 292.461 116.292 292.494 113.022 292.076C106.884 290.865 101.286 287.744 97.0292 283.158C94.7533 280.342 95.6883 277.87 96.8324 275.57C97.0977 274.859 97.5994 274.26 98.2534 273.875C98.9075 273.49 99.674 273.341 100.425 273.454C100.589 273.515 100.725 273.633 100.807 273.787C100.889 273.942 100.912 274.121 100.871 274.291C100.83 274.461 100.728 274.61 100.585 274.709C100.441 274.809 100.266 274.853 100.093 274.832C99.9695 274.832 98.8623 274.635 98.0995 276.209C97.0538 278.312 96.3895 280.096 98.0995 282.261C102.151 286.57 107.444 289.51 113.244 290.673C116.384 291.061 119.562 291.023 122.692 290.563C125.559 290.243 127.834 289.997 129.163 290.981C129.655 291.338 130.135 291.731 130.627 292.125C132.424 293.79 134.592 295.004 136.951 295.667C140.813 296.626 147.125 296.43 150.988 294.437C154.568 292.592 155.146 290.87 153.448 287.365C153.414 287.211 153.432 287.05 153.5 286.907C153.567 286.764 153.68 286.648 153.821 286.576C153.961 286.504 154.122 286.481 154.277 286.51C154.432 286.54 154.573 286.62 154.678 286.738C156.77 290.919 155.909 293.515 151.652 295.692C148.68 297.055 145.436 297.724 142.167 297.647Z" fill="#263238"/>
<path d="M136.003 273.737C135.872 273.738 135.743 273.701 135.632 273.631C135.521 273.562 135.432 273.462 135.376 273.343C135.333 273.262 135.307 273.174 135.299 273.083C135.29 272.993 135.3 272.901 135.328 272.814C135.355 272.727 135.4 272.646 135.459 272.577C135.518 272.507 135.59 272.45 135.671 272.408C135.769 272.335 138.98 270.145 142.486 255.73C142.498 255.63 142.532 255.534 142.583 255.448C142.635 255.361 142.705 255.287 142.788 255.23C142.87 255.172 142.964 255.133 143.063 255.114C143.162 255.096 143.264 255.098 143.362 255.122C143.46 255.146 143.552 255.19 143.632 255.251C143.711 255.313 143.777 255.391 143.824 255.479C143.872 255.568 143.9 255.666 143.907 255.767C143.914 255.867 143.899 255.968 143.864 256.062C140.174 271.363 136.704 273.478 136.323 273.663C136.223 273.712 136.114 273.737 136.003 273.737Z" fill="#263238"/>
<path d="M150.459 278.706C150.279 278.706 150.106 278.638 149.975 278.514C149.845 278.39 149.767 278.221 149.757 278.042C149.413 272.679 156.499 257.822 156.807 257.194C156.911 257.078 157.051 257 157.204 256.971C157.357 256.942 157.516 256.964 157.656 257.034C157.795 257.104 157.908 257.217 157.977 257.357C158.046 257.497 158.067 257.656 158.037 257.809C157.963 257.957 150.815 272.962 151.123 277.944C151.13 278.037 151.118 278.131 151.088 278.221C151.058 278.31 151.011 278.392 150.949 278.463C150.887 278.534 150.812 278.592 150.728 278.633C150.644 278.675 150.552 278.7 150.459 278.706Z" fill="#263238"/>
<path d="M156.019 258.288C151.344 258.288 142.941 255.829 138.919 253.455C134.711 250.995 135.991 241.918 137.11 233.899C137.245 232.915 137.381 231.943 137.504 231.021C137.996 227.208 137.873 219.877 137.738 212.78C137.59 204.404 137.455 196.484 138.23 193.2C139.657 187.05 152.021 164.419 152.55 163.46C152.592 163.376 152.651 163.302 152.723 163.242C152.795 163.183 152.879 163.138 152.969 163.112C153.058 163.085 153.153 163.077 153.246 163.089C153.339 163.1 153.428 163.13 153.509 163.177C153.591 163.22 153.664 163.28 153.723 163.352C153.782 163.425 153.826 163.508 153.852 163.597C153.878 163.686 153.887 163.78 153.876 163.873C153.866 163.965 153.837 164.055 153.792 164.136C153.669 164.37 140.998 187.628 139.608 193.519C138.882 196.631 139.029 204.835 139.165 212.756C139.288 219.902 139.423 227.294 138.919 231.205C138.796 232.14 138.66 233.111 138.513 234.095C137.516 241.291 136.261 250.257 139.632 252.225C143.827 254.685 153.681 257.427 157.311 256.763C159.095 256.444 165.147 254.697 168.53 245.817C171.286 238.597 172.049 214.711 172.049 212.227C171.57 210.78 170.886 209.409 170.019 208.156C168.309 205.278 167.559 203.863 168.247 203.064C168.936 202.264 169.835 202.867 170.204 203.064C171.749 203.84 173.192 204.807 174.497 205.942L175.334 206.594C175.334 206.594 175.334 206.458 175.334 206.385C175.026 205.265 174.682 204.269 174.399 203.47C173.808 201.735 173.476 200.776 174.03 200.137C174.213 199.958 174.442 199.834 174.691 199.775C174.94 199.717 175.201 199.727 175.444 199.804C177.314 200.173 178.335 200.038 179.135 199.288C180.095 198.255 196.986 170.999 198.179 165.095C199.532 158.552 199.409 151.271 197.921 148.885C196.174 146.093 194.058 143.264 194.033 143.239C193.921 143.087 193.874 142.897 193.901 142.711C193.929 142.524 194.029 142.356 194.181 142.243C194.255 142.185 194.339 142.143 194.43 142.118C194.52 142.094 194.615 142.088 194.708 142.1C194.801 142.113 194.89 142.144 194.971 142.192C195.051 142.239 195.122 142.303 195.177 142.378C195.177 142.378 197.355 145.281 199.127 148.122C201.083 151.258 200.824 159.352 199.582 165.341C198.339 171.331 181.091 199.251 180.033 200.309C178.655 201.686 176.871 201.539 175.112 201.219C175.258 201.829 175.443 202.429 175.666 203.015C175.949 203.839 176.306 204.86 176.625 206.028C176.871 206.95 177.056 207.885 176.404 208.303C175.752 208.722 174.94 208.168 173.574 207.073C172.358 206.014 171.015 205.11 169.576 204.38H169.502C170.004 205.461 170.575 206.509 171.212 207.516C172.59 209.853 173.439 211.341 173.439 212.313C173.439 212.559 172.885 238.388 169.835 246.407C166.144 255.988 159.5 257.895 157.532 258.252C157.03 258.31 156.523 258.322 156.019 258.288Z" fill="#263238"/>
<path d="M220.73 235.842C220.103 235.842 219.5 235.842 219.02 235.769C216.067 235.547 205.807 232.177 196.753 229.213C191.315 227.43 186.185 225.745 183.626 225.068C179.182 223.775 175.213 221.209 172.209 217.688C172.138 217.617 172.083 217.532 172.047 217.439C172.01 217.345 171.995 217.244 172 217.144C172.005 217.044 172.032 216.946 172.078 216.856C172.124 216.767 172.188 216.688 172.267 216.626C172.345 216.563 172.436 216.517 172.533 216.492C172.631 216.467 172.732 216.462 172.831 216.479C172.931 216.496 173.025 216.533 173.109 216.589C173.192 216.645 173.263 216.718 173.317 216.803C176.148 220.059 179.848 222.443 183.983 223.678C186.591 224.367 191.746 226.052 197.196 227.848C205.733 230.64 216.35 234.133 219.131 234.342C223.289 234.662 230.338 233.776 232.663 230.037C234.989 226.298 235.358 217.184 234.718 214.946L234.632 214.638C233.869 211.944 232.085 205.61 226.266 203.679C218.983 201.219 206.275 197.763 204.921 197.997C204.639 197.997 204.331 198.759 204.146 199.165C203.863 199.805 203.568 200.457 202.916 200.469C202.264 200.481 201.834 199.719 201.686 199.399C201.428 198.882 201.169 198.28 200.911 197.653C200.517 196.705 199.681 194.738 199.225 194.627C198.639 195.167 198.107 195.765 197.638 196.41C196.507 197.862 195.744 198.87 194.883 198.513C194.022 198.157 194.12 197.284 194.12 196.939C194.145 196.078 194.252 195.221 194.44 194.381C194.833 192.388 194.846 191.7 193.517 191.195C190.368 189.965 189.666 184.787 189.666 182.881C189.666 182.692 189.742 182.51 189.875 182.376C190.009 182.243 190.191 182.167 190.38 182.167C190.569 182.167 190.751 182.243 190.885 182.376C191.018 182.51 191.094 182.692 191.094 182.881C191.094 184.111 191.598 188.957 194.022 189.867C196.445 190.777 196.187 192.856 195.842 194.651C195.711 195.358 195.633 196.073 195.609 196.792C195.916 196.447 196.285 195.967 196.568 195.562C197.091 194.822 197.698 194.145 198.377 193.544C198.548 193.41 198.748 193.316 198.961 193.269C199.174 193.222 199.395 193.224 199.607 193.274C200.739 193.581 201.428 195.23 202.227 197.124C202.449 197.653 202.67 198.181 202.879 198.636C203.211 197.899 203.667 196.902 204.626 196.656C206.447 196.213 221.96 200.777 226.771 202.376C233.291 204.553 235.296 211.637 236.047 214.306L236.133 214.601C236.871 217.159 236.6 226.63 233.918 230.849C231.372 234.822 224.913 235.842 220.73 235.842Z" fill="#263238"/>
<path d="M315.815 282.383C315.565 282.401 315.314 282.401 315.064 282.383C314.877 282.356 314.708 282.255 314.595 282.102C314.482 281.95 314.434 281.759 314.462 281.572C314.489 281.384 314.59 281.215 314.743 281.102C314.895 280.989 315.086 280.941 315.273 280.969C315.372 280.969 323.885 282.002 331.377 267.661C337.836 255.361 338.144 251.672 338.045 250.737C337.812 250.909 337.504 251.192 337.221 251.45C336.491 252.196 335.633 252.805 334.687 253.246C333.272 253.812 318.005 266.775 314.88 280.428C314.86 280.519 314.821 280.605 314.768 280.68C314.714 280.756 314.645 280.821 314.566 280.87C314.487 280.919 314.399 280.952 314.307 280.967C314.215 280.982 314.121 280.978 314.031 280.957C313.939 280.938 313.852 280.901 313.774 280.847C313.697 280.794 313.631 280.726 313.581 280.647C313.53 280.568 313.496 280.479 313.48 280.387C313.465 280.294 313.468 280.199 313.49 280.108C316.762 265.816 332.485 252.594 334.158 251.918C334.942 251.546 335.651 251.033 336.249 250.405C336.727 249.836 337.353 249.41 338.058 249.175C338.26 249.131 338.472 249.149 338.664 249.225C338.857 249.302 339.023 249.434 339.14 249.605C340.838 251.868 335.794 262.286 332.632 268.288C325.804 281.276 318.201 282.383 315.815 282.383Z" fill="#263238"/>
<path d="M316.897 280.71C316.794 280.709 316.692 280.686 316.598 280.641C316.505 280.596 316.422 280.532 316.356 280.452C316.295 280.38 316.249 280.297 316.22 280.208C316.192 280.118 316.181 280.024 316.189 279.93C316.197 279.836 316.224 279.745 316.267 279.662C316.31 279.578 316.37 279.504 316.442 279.444C316.541 279.37 326.173 271.191 330.344 262.335C330.429 262.173 330.574 262.05 330.748 261.991C330.921 261.932 331.111 261.943 331.277 262.021C331.443 262.098 331.573 262.237 331.64 262.407C331.707 262.578 331.705 262.768 331.636 262.938C327.33 272.089 317.771 280.157 317.365 280.538C317.234 280.649 317.069 280.71 316.897 280.71Z" fill="#263238"/>
<path d="M315.212 263.528H315.151C315.058 263.522 314.967 263.497 314.883 263.455C314.799 263.414 314.725 263.355 314.664 263.284C314.604 263.213 314.558 263.131 314.529 263.042C314.501 262.953 314.491 262.859 314.499 262.766C315.471 251.069 321.179 239.003 331.464 226.925C331.895 226.409 332.19 226.064 332.313 225.892C332.561 225.495 332.786 225.084 332.989 224.662C333.826 223.088 334.503 221.858 335.45 222.128C336.397 222.399 336.68 223.358 336.422 228.278C335.905 238.118 329.2 257.157 328.917 257.957C328.894 258.053 328.851 258.144 328.79 258.223C328.729 258.302 328.653 258.368 328.565 258.416C328.478 258.463 328.381 258.492 328.282 258.5C328.183 258.509 328.083 258.496 327.989 258.463C327.895 258.43 327.809 258.378 327.736 258.31C327.663 258.242 327.605 258.159 327.567 258.068C327.528 257.976 327.509 257.877 327.51 257.777C327.512 257.678 327.534 257.58 327.576 257.489C327.65 257.292 334.503 237.872 334.958 228.204C335.07 226.792 335.07 225.373 334.958 223.961C334.699 224.367 334.392 224.945 334.195 225.314C333.998 225.683 333.654 226.335 333.432 226.655C333.211 226.974 332.965 227.233 332.485 227.798C322.397 239.655 316.812 251.438 315.864 262.827C315.862 263.004 315.794 263.174 315.674 263.303C315.553 263.433 315.389 263.513 315.212 263.528Z" fill="#263238"/>
<path d="M315.569 270.588H315.372C315.191 270.534 315.039 270.41 314.949 270.244C314.859 270.078 314.839 269.884 314.893 269.703C319.038 255.509 328.708 237.724 328.807 237.503C328.85 237.42 328.91 237.348 328.982 237.289C329.055 237.23 329.138 237.186 329.227 237.16C329.316 237.134 329.41 237.125 329.503 237.136C329.595 237.146 329.685 237.174 329.766 237.22C329.848 237.264 329.921 237.323 329.98 237.395C330.039 237.468 330.083 237.551 330.109 237.64C330.135 237.729 330.143 237.823 330.133 237.916C330.123 238.008 330.094 238.098 330.049 238.179C329.951 238.364 320.367 256.062 316.258 270.158C316.202 270.292 316.106 270.406 315.982 270.483C315.859 270.56 315.714 270.597 315.569 270.588Z" fill="#263238"/>
<path d="M311.25 280.945C311.067 280.946 310.89 280.875 310.758 280.748C310.266 280.28 298.751 269.002 300.092 254.919C301.261 242.619 304.25 231.046 306.612 229.533C306.77 229.419 306.953 229.343 307.145 229.313C307.338 229.284 307.534 229.3 307.719 229.361C309.134 229.853 309.43 231.931 309.799 234.576C310 236.677 310.472 238.744 311.201 240.725C313.182 245.387 317.967 266.739 315.396 278.3C315.345 278.474 315.23 278.621 315.075 278.713C314.919 278.805 314.734 278.835 314.557 278.796C314.381 278.757 314.226 278.652 314.123 278.503C314.021 278.354 313.979 278.172 314.006 277.993C316.466 266.714 311.828 245.842 309.885 241.279C309.112 239.195 308.608 237.021 308.384 234.809C308.15 233.174 307.867 231.12 307.338 230.787C306.009 231.624 302.811 241.414 301.507 255.091C300.277 268.448 311.632 279.604 311.742 279.69C311.852 279.786 311.93 279.913 311.964 280.054C311.999 280.196 311.988 280.345 311.934 280.48C311.88 280.615 311.785 280.73 311.662 280.809C311.54 280.888 311.396 280.927 311.25 280.92V280.945Z" fill="#263238"/>
<path d="M312.235 279.259C312.098 279.258 311.964 279.218 311.849 279.144C311.733 279.07 311.641 278.965 311.583 278.841C305.432 265.238 304.435 246.137 304.435 245.952C304.429 245.859 304.441 245.765 304.471 245.677C304.501 245.589 304.548 245.507 304.61 245.437C304.672 245.367 304.747 245.311 304.831 245.27C304.915 245.23 305.006 245.206 305.1 245.202C305.284 245.198 305.461 245.267 305.595 245.394C305.728 245.521 305.807 245.694 305.813 245.878C305.813 246.063 306.859 264.906 312.85 278.263C312.925 278.434 312.93 278.628 312.863 278.803C312.796 278.978 312.664 279.12 312.493 279.197C312.413 279.236 312.325 279.257 312.235 279.259Z" fill="#263238"/>
<path d="M311.398 244.058C311.217 244.059 311.043 243.99 310.91 243.867C310.778 243.744 310.697 243.575 310.685 243.394C309.59 224.625 317.377 208.427 321.117 200.653C321.803 199.31 322.415 197.931 322.95 196.521C323.774 193.753 324.832 193.286 325.558 193.384C326.629 193.52 328.08 194.823 328.339 204.356C328.671 216.384 325.165 237.417 325.14 237.564C325.125 237.657 325.091 237.746 325.041 237.826C324.992 237.906 324.927 237.975 324.85 238.03C324.774 238.085 324.687 238.124 324.595 238.145C324.504 238.167 324.409 238.17 324.316 238.155C324.223 238.139 324.134 238.106 324.054 238.056C323.974 238.006 323.905 237.941 323.85 237.865C323.795 237.788 323.756 237.702 323.734 237.61C323.713 237.518 323.71 237.423 323.725 237.33C323.725 237.121 327.231 216.212 326.912 204.331C326.678 195.463 325.361 194.737 325.349 194.725C324.835 195.343 324.48 196.078 324.316 196.865C323.764 198.35 323.123 199.799 322.397 201.207C318.706 208.882 311.041 224.846 312.112 243.246C312.117 243.34 312.103 243.434 312.072 243.522C312.04 243.611 311.992 243.692 311.929 243.762C311.866 243.832 311.79 243.888 311.705 243.929C311.621 243.969 311.529 243.992 311.435 243.997L311.398 244.058Z" fill="#263238"/>
<path d="M314.941 260.49C314.764 260.489 314.595 260.423 314.463 260.305C314.332 260.187 314.248 260.026 314.227 259.851C313.994 257.723 314.756 254.476 316.159 248.572C316.86 245.596 317.721 241.894 318.705 237.318C320.761 226.743 322.276 216.069 323.245 205.34C323.267 205.153 323.359 204.981 323.503 204.86C323.647 204.739 323.832 204.677 324.02 204.688C324.113 204.695 324.204 204.722 324.287 204.765C324.37 204.808 324.444 204.868 324.503 204.94C324.563 205.012 324.608 205.096 324.634 205.186C324.661 205.275 324.67 205.369 324.66 205.463C323.689 216.25 322.17 226.981 320.108 237.613C319.111 242.201 318.238 245.903 317.537 248.88C316.183 254.636 315.433 257.797 315.642 259.691C315.663 259.878 315.608 260.066 315.491 260.214C315.373 260.361 315.202 260.456 315.015 260.478L314.941 260.49Z" fill="#263238"/>
<path d="M325.915 285.95C325.762 285.95 325.612 285.901 325.488 285.81C325.365 285.72 325.273 285.592 325.226 285.446C325.173 285.265 325.193 285.07 325.283 284.904C325.373 284.738 325.525 284.615 325.706 284.561L327.157 284.105C327.087 284.067 327.021 284.022 326.961 283.97C326.821 283.842 326.72 283.677 326.668 283.495C326.616 283.313 326.615 283.12 326.665 282.937C326.909 282.203 327.27 281.513 327.736 280.895L327.896 280.662C325.226 281.67 321.523 282.765 318.976 281.658C318.89 281.622 318.811 281.569 318.745 281.502C318.68 281.435 318.627 281.356 318.592 281.269C318.556 281.183 318.539 281.09 318.539 280.996C318.54 280.902 318.559 280.809 318.595 280.723C318.673 280.55 318.816 280.414 318.993 280.345C319.17 280.276 319.368 280.279 319.542 280.354C322.003 281.412 326.259 279.764 327.674 279.223C328.179 279.026 329.101 278.669 329.593 279.296C330.085 279.924 329.593 280.662 328.929 281.682C328.695 282.027 328.437 282.42 328.252 282.765C328.658 282.666 329.212 282.494 329.655 282.359C330.842 281.923 332.084 281.658 333.346 281.572C334.133 281.572 334.367 281.953 334.404 282.273C334.502 282.937 334.576 283.367 326.136 285.963L325.915 285.95Z" fill="#263238"/>
<path d="M308.914 280.526C308.797 280.528 308.682 280.499 308.581 280.44C306.638 279.377 304.87 278.02 303.341 276.418C302.172 275.188 301.311 274.856 300.88 274.967C300.801 274.999 300.732 275.053 300.682 275.123C300.632 275.193 300.602 275.275 300.597 275.36C300.577 275.545 300.506 275.72 300.393 275.867C300.281 276.015 300.13 276.129 299.957 276.197C299.281 276.455 298.616 275.914 297.841 275.287L297.645 275.139C297.645 275.225 297.645 275.311 297.645 275.385C297.768 276.824 297.964 278.989 296.414 279.702C296.329 279.741 296.236 279.762 296.142 279.765C296.048 279.769 295.955 279.753 295.867 279.72C295.779 279.687 295.698 279.637 295.63 279.572C295.561 279.508 295.506 279.431 295.467 279.345C295.428 279.26 295.407 279.167 295.404 279.074C295.401 278.98 295.416 278.886 295.449 278.798C295.482 278.71 295.533 278.63 295.597 278.561C295.661 278.492 295.738 278.437 295.824 278.398C296.451 278.116 296.304 276.48 296.217 275.508C296.131 274.536 296.07 273.749 296.66 273.417C297.251 273.085 297.952 273.577 298.715 274.18L299.305 274.647C299.408 274.398 299.565 274.174 299.765 273.993C299.965 273.813 300.203 273.679 300.462 273.602C301.089 273.417 302.418 273.417 304.312 275.447C305.736 276.911 307.369 278.154 309.16 279.136C309.244 279.179 309.32 279.239 309.381 279.311C309.443 279.383 309.489 279.467 309.518 279.558C309.546 279.648 309.557 279.743 309.548 279.838C309.539 279.932 309.512 280.024 309.467 280.108C309.417 280.218 309.34 280.314 309.244 280.388C309.147 280.461 309.033 280.508 308.914 280.526Z" fill="#263238"/>
<path d="M62.1519 279.653C60.8803 279.652 59.6103 279.566 58.3504 279.394C52.7651 278.644 44.6209 275.705 37.5839 266.308C25.909 250.651 25.4538 237.908 25.2815 232.46C25.2815 231.636 25.2815 230.996 25.1708 230.529C24.8633 228.069 25.1708 225.166 26.6102 224.563C26.9793 224.391 27.7297 224.268 28.5294 225.24C29.0473 225.962 29.354 226.813 29.4151 227.7C29.6735 229.274 29.9688 231.07 33.4503 233.099C40.7334 237.318 64.9937 252.889 71.7108 276.012C71.7468 276.104 71.7632 276.203 71.7588 276.302C71.7545 276.401 71.7296 276.498 71.6856 276.587C71.6416 276.676 71.5796 276.755 71.5035 276.819C71.4274 276.882 71.3389 276.929 71.2436 276.957C71.1484 276.984 71.0484 276.991 70.9501 276.978C70.8519 276.965 70.7574 276.931 70.6729 276.879C70.5884 276.827 70.5156 276.758 70.4592 276.677C70.4028 276.595 70.364 276.503 70.3453 276.406C63.7758 253.799 39.8968 238.486 32.7368 234.329C28.6647 231.968 28.2833 229.631 28.0127 227.933C27.9754 227.311 27.7761 226.709 27.4345 226.187C27.3521 226.068 27.2424 225.971 27.1146 225.904C26.8809 226.052 26.2411 227.651 26.5856 230.393C26.5856 230.885 26.6717 231.623 26.7086 232.447C26.8932 237.761 27.336 250.195 38.7404 265.496C45.4575 274.524 53.1834 277.279 58.4857 278.017C61.8371 278.511 65.2542 278.31 68.5245 277.426C68.704 277.368 68.8992 277.383 69.0675 277.469C69.2358 277.554 69.3635 277.702 69.4226 277.882C69.4532 277.97 69.4656 278.064 69.4591 278.158C69.4527 278.252 69.4275 278.343 69.385 278.427C69.3426 278.511 69.2837 278.585 69.212 278.646C69.1403 278.706 69.0571 278.752 68.9674 278.779C66.7516 279.408 64.4545 279.702 62.1519 279.653Z" fill="#263238"/>
<path d="M68.8929 277.144H68.7699C68.3147 277.058 57.4394 275.114 45.7152 264.66C38.45 257.937 33.1656 249.353 30.4356 239.84C30.4138 239.748 30.4102 239.654 30.4249 239.561C30.4397 239.468 30.4726 239.379 30.5217 239.299C30.5709 239.22 30.6352 239.15 30.7112 239.095C30.7872 239.04 30.8733 239 30.9646 238.979C31.0559 238.957 31.1505 238.953 31.2432 238.968C31.3359 238.983 31.4248 239.016 31.5047 239.065C31.5847 239.114 31.6542 239.178 31.7093 239.254C31.7644 239.33 31.8039 239.416 31.8258 239.507C34.4731 248.748 39.6048 257.086 46.6625 263.614C58.0545 273.786 68.9052 275.742 69.0159 275.754C69.2002 275.79 69.3634 275.896 69.4712 276.049C69.579 276.203 69.6231 276.393 69.5941 276.578C69.5624 276.74 69.4747 276.885 69.3465 276.988C69.2182 277.092 69.0577 277.147 68.8929 277.144Z" fill="#263238"/>
<path d="M75.8568 276.898C75.6708 276.914 75.486 276.856 75.343 276.736C75.1999 276.616 75.1104 276.444 75.0941 276.258C75.0778 276.072 75.136 275.888 75.256 275.745C75.3759 275.602 75.5478 275.512 75.7338 275.496C75.8691 275.496 89.2664 272.679 89.7708 247.847C90.386 220.456 84.8499 207.332 81.4175 203.901C80.704 203.175 80.0765 202.831 79.769 202.954C78.4526 203.47 78.3419 209.509 78.2804 213.113C78.182 217.934 75.8199 222.571 72.6459 229.004C71.551 231.193 70.3207 233.678 69.029 236.383C64.2187 246.727 66.8022 264.574 66.8269 264.746C66.8528 264.843 66.8579 264.945 66.8419 265.044C66.8259 265.143 66.7891 265.238 66.734 265.322C66.6788 265.406 66.6066 265.477 66.5219 265.531C66.4373 265.585 66.3421 265.621 66.2427 265.636C66.1433 265.651 66.0419 265.644 65.9452 265.617C65.8484 265.59 65.7584 265.543 65.6812 265.479C65.6039 265.414 65.5411 265.334 65.4968 265.244C65.4526 265.154 65.4279 265.056 65.4244 264.955C65.3137 264.217 62.7425 246.506 67.7372 235.781C68.9675 233.013 70.2838 230.529 71.428 228.327C74.5528 222.067 76.8164 217.553 76.9025 213.051C77.0132 206.656 77.247 202.4 79.2892 201.588C80.6794 201.035 82.0326 202.412 82.4755 202.818C87.2365 207.627 91.7884 223.408 91.2471 247.797C90.6566 273.872 76.6319 276.701 76.0414 276.812L75.8568 276.898Z" fill="#263238"/>
<path d="M59.2362 283.245C55.041 283.097 54.8934 282.359 54.8196 282.015C54.7458 281.67 55.041 281.08 55.7669 280.785C56.7851 280.33 57.9065 280.156 59.0147 280.281C59.8423 280.37 60.6793 280.29 61.4752 280.047C63.3575 279.469 63.6527 278.756 63.6527 278.756C63.6744 278.666 63.7135 278.581 63.7679 278.507C63.8224 278.432 63.891 278.369 63.9698 278.321C64.0487 278.273 64.1363 278.241 64.2275 278.227C64.3188 278.213 64.4119 278.217 64.5016 278.239C64.6854 278.288 64.8429 278.407 64.9415 278.569C65.0401 278.732 65.072 278.927 65.0306 279.112C65.0306 279.346 64.5754 280.588 61.8935 281.412C60.9257 281.704 59.9102 281.804 58.904 281.707C58.3772 281.64 57.8438 281.64 57.317 281.707C57.8952 281.781 58.5472 281.83 59.2485 281.855C59.4377 281.855 59.6192 281.93 59.753 282.064C59.8868 282.198 59.962 282.379 59.962 282.568C59.962 282.758 59.8868 282.939 59.753 283.073C59.6192 283.207 59.4377 283.282 59.2485 283.282L59.2362 283.245Z" fill="#263238"/>
<path d="M80.8024 279.198C80.7057 279.198 80.6101 279.178 80.5213 279.14C80.4325 279.102 80.3523 279.047 80.2857 278.977C80.1519 278.843 80.0768 278.661 80.0768 278.472C80.0768 278.283 80.1519 278.102 80.2857 277.968C80.7363 277.556 81.1481 277.103 81.5159 276.615L81.4421 276.689C80.9377 277.292 80.2119 278.189 79.1908 277.685C78.7907 277.445 78.4423 277.128 78.1657 276.752C77.8891 276.376 77.6897 275.949 77.5791 275.496C77.5351 275.311 77.5661 275.117 77.6653 274.956C77.7645 274.794 77.9238 274.679 78.1081 274.635C78.2925 274.591 78.4868 274.622 78.6483 274.721C78.8098 274.82 78.9253 274.979 78.9693 275.164C79.1025 275.669 79.418 276.107 79.8551 276.394C80.0029 276.161 80.1717 275.943 80.3595 275.742C80.8762 275.139 81.7497 274.118 82.82 274.832C82.9715 274.936 83.0978 275.073 83.1893 275.233C83.2809 275.392 83.3354 275.571 83.349 275.754C83.4228 276.898 81.9465 278.398 81.3068 278.989C81.1702 279.118 80.9905 279.193 80.8024 279.198Z" fill="#263238"/>
<path d="M75.7709 273.786C75.6775 273.804 75.5813 273.804 75.4879 273.786C75.401 273.749 75.3225 273.694 75.2571 273.626C75.1917 273.558 75.1408 273.477 75.1075 273.388C75.0742 273.3 75.0591 273.206 75.0631 273.111C75.0672 273.017 75.0903 272.924 75.1311 272.839C82.0371 255.555 84.6296 236.85 82.6848 218.34C82.6639 218.151 82.7179 217.961 82.8352 217.812C82.9525 217.663 83.1238 217.565 83.3122 217.54C83.4054 217.528 83.5 217.535 83.5904 217.561C83.6808 217.586 83.7652 217.629 83.8387 217.687C83.9121 217.746 83.973 217.819 84.0179 217.901C84.0627 217.984 84.0905 218.074 84.0996 218.168C87.6427 248.154 76.5336 273.171 76.4229 273.429C76.3575 273.543 76.262 273.636 76.147 273.699C76.032 273.762 75.9018 273.792 75.7709 273.786Z" fill="#263238"/>
<path d="M65.6826 262.053C65.5512 262.054 65.4219 262.019 65.309 261.952C65.1961 261.885 65.104 261.788 65.0429 261.671C64.9567 261.487 55.6438 242.988 58.6456 215.278C59.8525 203.231 62.6404 191.396 66.9374 180.077C68.3645 176.128 69.2995 173.521 69.0411 171.897C68.9058 171.061 67.8109 163.681 69.8408 162.771C70.2468 162.587 70.9111 162.562 71.6739 163.497C73.8145 166.129 80.2855 186.054 79.9042 202.499C79.9042 202.592 79.8857 202.685 79.8499 202.772C79.814 202.858 79.7614 202.937 79.6952 203.003C79.6289 203.069 79.5503 203.122 79.4637 203.158C79.3771 203.193 79.2843 203.212 79.1906 203.212C79.0969 203.212 79.0041 203.193 78.9176 203.158C78.831 203.122 78.7523 203.069 78.6861 203.003C78.6198 202.937 78.5673 202.858 78.5314 202.772C78.4955 202.685 78.4771 202.592 78.4771 202.499C78.8585 185.919 72.2152 166.449 70.5666 164.37L70.3698 164.161C70.0007 164.948 69.8654 167.949 70.4559 171.651C70.7635 173.632 69.7793 176.374 68.2784 180.532C64.0275 191.746 61.2646 203.469 60.0604 215.401C57.1078 242.669 66.2116 260.81 66.31 260.995C66.3544 261.078 66.3816 261.169 66.3901 261.262C66.3986 261.356 66.3882 261.45 66.3595 261.54C66.3309 261.629 66.2845 261.712 66.2231 261.783C66.1618 261.854 66.0867 261.912 66.0025 261.954C65.9051 262.012 65.7955 262.046 65.6826 262.053Z" fill="#263238"/>
<path d="M65.9161 246.063C65.731 246.063 65.5532 245.991 65.42 245.863C65.2869 245.734 65.2089 245.559 65.2025 245.374C65.2025 245.116 65.0426 239.126 67.3678 226.162C69.6929 213.199 72.2887 182.511 72.2887 182.192C72.3104 182.005 72.4027 181.833 72.5468 181.712C72.6909 181.591 72.8758 181.529 73.0638 181.54C73.1571 181.547 73.248 181.574 73.3311 181.617C73.4141 181.66 73.4876 181.72 73.5472 181.792C73.6069 181.864 73.6514 181.948 73.6782 182.038C73.7051 182.127 73.7137 182.222 73.7035 182.315C73.7035 182.622 71.0585 213.506 68.7825 226.42C66.5066 239.335 66.6296 245.263 66.6419 245.325C66.6422 245.514 66.5695 245.697 66.4389 245.834C66.3084 245.971 66.13 246.053 65.9407 246.063H65.9161Z" fill="#263238"/>
<path d="M48.3238 245.116C48.2214 245.115 48.1204 245.092 48.0272 245.05C47.9341 245.007 47.8507 244.946 47.7825 244.87C47.684 244.747 37.4731 232.902 34.9757 216.999C32.4783 201.096 31.4203 195.795 29.8087 193.507C28.8737 192.167 28.8368 190.728 29.7225 189.904C30.2023 189.448 32.183 188.243 36.5504 191.835C42.3448 196.57 56.0005 213.974 59.4451 225.326C59.4867 225.503 59.459 225.69 59.3677 225.847C59.2763 226.004 59.1283 226.121 58.9538 226.173C58.7793 226.225 58.5916 226.208 58.4291 226.126C58.2666 226.044 58.1416 225.903 58.0796 225.732C54.7702 214.822 41.1884 197.443 35.64 192.942C32.872 190.678 31.1619 190.482 30.719 190.949C30.4484 191.207 30.4484 191.884 31.0143 192.683C32.8104 195.229 33.8315 200.383 36.415 216.778C38.8755 232.275 48.8036 243.837 48.902 243.935C48.9636 244.006 49.0106 244.088 49.0402 244.178C49.0698 244.267 49.0816 244.361 49.0747 244.455C49.0678 244.548 49.0425 244.64 49.0002 244.724C48.9579 244.808 48.8994 244.882 48.8282 244.944C48.688 245.063 48.5077 245.124 48.3238 245.116Z" fill="#263238"/>
<path d="M63.9725 258.129C63.8669 258.129 63.7624 258.107 63.6667 258.062C63.5709 258.017 63.4863 257.952 63.4189 257.871C63.4189 257.797 57.4153 250.614 49.5172 239.138C41.6191 227.663 37.3255 206.828 37.141 205.93C37.1231 205.838 37.1236 205.743 37.1424 205.651C37.1612 205.559 37.1979 205.472 37.2505 205.394C37.303 205.317 37.3704 205.25 37.4487 205.199C37.527 205.147 37.6148 205.111 37.7069 205.094C37.8908 205.06 38.0804 205.099 38.2362 205.203C38.392 205.306 38.5021 205.465 38.5435 205.647C38.5435 205.868 42.9108 226.999 50.6982 238.327C58.4856 249.655 64.4646 256.874 64.5261 256.948C64.6446 257.096 64.7006 257.284 64.6822 257.472C64.6638 257.661 64.5725 257.835 64.4277 257.957C64.3009 258.066 64.1397 258.127 63.9725 258.129Z" fill="#263238"/>
<path d="M43.2063 200.666C43.0535 200.662 42.9058 200.61 42.7843 200.517C42.6628 200.424 42.5737 200.296 42.5297 200.149C42.5297 200.002 38.0024 184.922 36.6 175.107C36.2678 172.734 35.9479 170.79 35.6896 169.191C35.0006 165.022 34.7423 163.448 35.5665 162.66C35.7872 162.477 36.0497 162.351 36.3308 162.293C36.6119 162.235 36.9029 162.247 37.1782 162.328C39.491 162.783 58.9657 177.641 63.6652 194.799C63.6927 194.89 63.7015 194.986 63.6912 195.081C63.6808 195.176 63.6515 195.268 63.605 195.351C63.5585 195.435 63.4957 195.508 63.4204 195.567C63.345 195.625 63.2587 195.668 63.1664 195.693C63.0742 195.718 62.9779 195.724 62.8833 195.711C62.7888 195.697 62.6978 195.665 62.6158 195.616C62.5338 195.567 62.4625 195.502 62.4061 195.425C62.3497 195.348 62.3093 195.261 62.2874 195.168C57.8216 178.908 39.0358 164.136 36.9075 163.718C36.7814 163.695 36.6522 163.695 36.5261 163.718C36.2801 164.075 36.6615 166.35 37.092 168.995C37.3504 170.581 37.6703 172.549 38.0147 174.935C39.3926 184.652 43.8461 199.62 43.8953 199.768C43.9488 199.949 43.9283 200.144 43.8384 200.31C43.7485 200.476 43.5964 200.599 43.4155 200.653C43.3471 200.67 43.2762 200.674 43.2063 200.666Z" fill="#263238"/>
<path d="M58.8917 221.931C58.7252 221.934 58.5632 221.877 58.4348 221.771C58.3063 221.665 58.2197 221.517 58.1905 221.353C56.8789 215.87 54.5368 210.686 51.2889 206.077C45.5805 197.763 42.1113 179.215 41.9759 178.428C41.9581 178.336 41.9586 178.241 41.9773 178.15C41.9961 178.058 42.0329 177.97 42.0854 177.893C42.138 177.815 42.2054 177.748 42.2837 177.697C42.362 177.645 42.4497 177.61 42.5419 177.592C42.7288 177.563 42.9199 177.606 43.0756 177.714C43.2313 177.821 43.3397 177.985 43.3784 178.17C43.3784 178.354 46.9215 197.21 52.4576 205.229C55.8396 209.993 58.263 215.369 59.593 221.058C59.6106 221.15 59.6096 221.245 59.5899 221.337C59.5702 221.429 59.5322 221.516 59.4783 221.593C59.4244 221.669 59.3556 221.735 59.2759 221.784C59.1963 221.834 59.1075 221.867 59.0148 221.882L58.8917 221.931Z" fill="#263238"/>
<path d="M67.2942 181.885C67.2004 181.881 67.1083 181.86 67.0229 181.821C66.9375 181.782 66.8607 181.727 66.7967 181.658C66.7327 181.59 66.6829 181.509 66.65 181.422C66.6172 181.334 66.6019 181.24 66.6052 181.147C66.8636 174.345 66.027 169.856 63.6157 165.157L63.3328 164.628C58.5841 155.293 53.0111 144.076 52.1991 140.189C51.6701 137.729 50.8458 136.733 50.4522 136.721C50.366 136.721 49.3449 136.807 48.1024 140.927C45.9864 147.889 50.9566 173.828 51.0181 174.136C51.054 174.322 51.0145 174.514 50.9084 174.671C50.8022 174.828 50.6381 174.936 50.4522 174.972C50.2662 175.008 50.0736 174.969 49.9167 174.863C49.7598 174.757 49.6515 174.592 49.6156 174.406C49.4065 173.324 44.5224 147.852 46.7368 140.558C47.7948 137.041 49.0128 135.331 50.4276 135.331H50.4399C52.2852 135.405 53.1587 138.246 53.5155 139.931C54.4012 144.125 61.7581 158.577 64.5876 164.013L64.8583 164.555C67.3926 169.474 68.2783 174.21 68.0077 181.27C67.9838 181.441 67.8982 181.598 67.7669 181.712C67.6356 181.825 67.4675 181.886 67.2942 181.885Z" fill="#263238"/>
<path d="M62.2008 193.274C62.0226 193.272 61.8513 193.204 61.7197 193.084C61.5881 192.964 61.5054 192.799 61.4873 192.622C61.4873 192.536 60.7983 183.508 60.1217 177.752C59.4451 171.996 52.7403 161.394 52.6418 161.295C52.5407 161.132 52.5085 160.936 52.5523 160.749C52.5962 160.562 52.7124 160.4 52.8756 160.299C53.0387 160.198 53.2354 160.166 53.4222 160.21C53.6091 160.253 53.7709 160.37 53.8721 160.533C54.155 160.976 60.8598 171.602 61.5611 177.58C62.2623 183.557 62.9267 192.425 62.939 192.511C62.9526 192.699 62.8917 192.884 62.7697 193.027C62.6476 193.169 62.4741 193.258 62.2869 193.274H62.2008Z" fill="#263238"/>
<ellipse cx="194.993" cy="198.636" rx="0.615128" ry="0.614967" fill="#263238"/>
<ellipse cx="202.99" cy="200.481" rx="1.23022" ry="1.22995" fill="#263238"/>
<ellipse cx="194.379" cy="198.021" rx="1.23022" ry="1.22993" fill="#263238"/>
<ellipse cx="0.92544" cy="4.62655" rx="0.92544" ry="4.62655" transform="matrix(0.89503 0.446005 -0.446174 0.894946 144.596 181.017)" fill="#263238"/>
</svg>
