<svg width="18" height="18" viewBox="0 0 18 18" fill="none" xmlns="http://www.w3.org/2000/svg">
<path d="M10.9975 9.00006L17.0892 2.92256C17.356 2.6558 17.5058 2.29399 17.5058 1.91673C17.5058 1.53947 17.356 1.17766 17.0892 0.910893C16.8224 0.644129 16.4606 0.494263 16.0834 0.494263C15.7061 0.494263 15.3443 0.644129 15.0775 0.910893L9.00003 7.00256L2.92254 0.910893C2.65577 0.644129 2.29396 0.494263 1.9167 0.494263C1.53944 0.494263 1.17763 0.644129 0.910869 0.910893C0.644105 1.17766 0.494239 1.53947 0.494239 1.91673C0.494239 2.29399 0.644105 2.6558 0.910869 2.92256L7.00253 9.00006L0.910869 15.0776C0.778087 15.2093 0.672695 15.3659 0.600773 15.5386C0.528851 15.7112 0.491821 15.8964 0.491821 16.0834C0.491821 16.2704 0.528851 16.4556 0.600773 16.6282C0.672695 16.8008 0.778087 16.9575 0.910869 17.0892C1.04257 17.222 1.19925 17.3274 1.37189 17.3993C1.54452 17.4712 1.72969 17.5083 1.9167 17.5083C2.10372 17.5083 2.28889 17.4712 2.46152 17.3993C2.63415 17.3274 2.79084 17.222 2.92254 17.0892L9.00003 10.9976L15.0775 17.0892C15.2092 17.222 15.3659 17.3274 15.5386 17.3993C15.7112 17.4712 15.8964 17.5083 16.0834 17.5083C16.2704 17.5083 16.4556 17.4712 16.6282 17.3993C16.8008 17.3274 16.9575 17.222 17.0892 17.0892C17.222 16.9575 17.3274 16.8008 17.3993 16.6282C17.4712 16.4556 17.5082 16.2704 17.5082 16.0834C17.5082 15.8964 17.4712 15.7112 17.3993 15.5386C17.3274 15.3659 17.222 15.2093 17.0892 15.0776L10.9975 9.00006Z" fill="#39515E"/>
</svg>
